<svg><defs><font horiz-adv-x="1060"><font-face font-family="Fantasque Sans Mono" font-weight="700" units-per-em="2048" panose-1="2 11 8 9 2 2 4 3 2 4" ascent="1650" descent="-398" x-height="1013" cap-height="1329" bbox="-153 -671 1170 2193" underline-thickness="96" underline-position="-192" unicode-range="U+0020-E0B3"/><glyph glyph-name="a" unicode="a" d="M318 317c0-98 69-128 133-128 110 0 192 102 210 158v47c-36 42-104 76-168 76-66 0-175-43-175-153zm587-1c0-92 19-144 76-189L868-22c-52 40-86 51-128 123C664 23 582-11 400-11 229-11 65 120 65 302c0 90 30 177 89 238 95 97 197 130 339 130 64 0 130-21 168-47 0 166-116 197-176 197-115 0-209-33-283-111L82 901c190 124 233 124 411 127 225 0 412-135 412-373V316z"/><glyph glyph-name="b" unicode="b" d="M688 478c0 263-73 335-165 335-72 0-133-75-166-130V349c51-102 122-176 183-176 108 0 148 115 148 305zm255-19C943 152 825-7 574-7 450-7 371 40 333 93c0-42-44-106-44-106L93 7c10 66 19 153 19 236v24c0 249-1 610-1 890 0 94-8 178-15 246l247 9c9-73 14-169 14-260 0-90-6-145-24-222 37 28 111 83 225 83 272 0 385-182 385-554z"/><glyph glyph-name="c" unicode="c" d="M327 528c0-319 168-325 215-325h12c100 0 154 66 202 147l226-134C914 66 782-7 564-7 460-7 337 1 241 73 111 174 71 328 71 527c0 340 178 491 493 491 95 0 192-19 255-61 60-40 106-99 128-151L727 704c-10 38-41 103-181 103-147 0-219-136-219-279z"/><glyph glyph-name="d" unicode="d" d="M348 478c0-190 40-305 148-305 61 0 131 74 182 176v334c-33 55-94 130-166 130-92 0-164-72-164-335zM93 459c0 381 122 554 385 554 114 0 187-55 224-83-18 77-24 132-24 222 0 91 5 187 14 260l248-9c-7-68-15-152-15-246 0-280-2-641-2-890v-24c0-83 10-170 20-236L747-13s-45 64-45 106C664 40 585-7 461-7 210-7 93 152 93 459z"/><glyph glyph-name="e" unicode="e" d="M336 606c113 20 207 24 340 24-5 131-77 188-165 188-102 0-169-96-175-212zm173 415c319 0 428-208 428-544 0-20-1-43-1-43-285-4-498-18-600-38 16-111 104-200 196-200 106 0 154 36 222 110l178-156C831 38 765-10 526-10 240-10 78 203 78 516c0 286 148 505 431 505z"/><glyph glyph-name="f" unicode="f" d="M641 1217c-132 0-143-74-143-134 0-27 1-71 1-71h184c105 0 146-12 176-21l-44-197c-21 7-42 13-98 13H498l1-807H242v807H99v205h143v52c0 130 66 354 382 354 196 0 325-42 403-197l-212-97c-26 82-84 93-174 93z"/><glyph glyph-name="g" unicode="g" d="M541-184c62 0 193 70 193 168 0 41-22 74-136 74l-267-1c-23-30-23-86-23-130 0-62 74-111 143-111h90zm104 910c0 86-75 96-161 96-88 0-157-30-157-105 0-90 68-118 158-118 118 0 160 52 160 127zm225 93s21-22 21-103c0-176-104-317-384-317h-3c-75 0-133 7-147 13-19-22-30-49-30-79 0-35 23-85 129-85h179c153 0 349-46 349-247 0-223-216-385-389-385H440C236-384 80-293 80-78c0 101 34 174 87 221-47 35-87 114-87 200 0 101 39 149 76 190-39 50-76 87-76 161 0 235 161 332 415 332 100 0 196-14 272-61 49 46 104 61 220 61V822c-12 2-31 5-41 5-34 0-52-2-76-8z"/><glyph glyph-name="p" unicode="p" d="M681 531c0 193-37 280-125 280-129 0-173-67-218-155l2-345c38-58 92-118 167-118 115 0 174 71 174 338zM94 739v26c0 83-12 166-22 231l228 26c9-24 16-62 20-101 56 62 140 90 252 90 275 0 365-192 365-460C937 215 864-8 502-8 402-8 355 29 326 60c4-40 11-77 14-121v-91c0-94 7-178 14-246l-248-7c-9 73-14 168-14 259z"/><glyph glyph-name="h" unicode="h" d="M942 566V218c0-82 19-142 44-178L760-40c-23 32-64 106-64 216v315c0 309-96 322-188 322-77 0-142-76-175-131V0H88v1156c0 94-9 178-16 246l248 9c9-73 14-169 14-260 0-90-6-145-24-222 37 28 113 84 232 84 250 0 400-125 400-447z"/><glyph glyph-name="i" unicode="i" d="M329 1406h291v-225H329v225zm25-393h255c0-273 1-739 1-739 0-64 17-92 109-92 93 0 153 33 213 91l97-190C943 12 792-18 668-18c-85 0-177 14-221 38-85 47-93 127-93 186v607c-49 0-139-6-234-28L91 971c94 28 183 42 263 42z"/><glyph glyph-name="j" unicode="j" d="M546 1406h291v-225H546v225zM842-78c0-153-81-311-367-311-123 0-279 28-405 233L234-8c86-145 155-180 218-180h18c120 0 116 105 118 140v861c-49 0-140-6-235-28l-29 186c94 28 184 42 264 42h254V-78z"/><glyph glyph-name="k" unicode="k" d="M578 597c90 0 101 60 101 133 0 36-18 83-75 83-73 0-221-128-221-128v-59c16-3 156-29 195-29zM383 0H134v1228c0 61-10 114-23 155l244 44c9-23 28-68 28-134v-223c0-58-11-121-30-174 0 0 117 121 260 121 200 0 321-88 321-283 0-123-27-207-171-276 103-36 132-110 164-216 13-44 63-81 96-105L831-27C701 23 667 129 631 255c-40 139-227 143-246 143h-2V0z"/><glyph glyph-name="l" unicode="l" d="M355 1430h254c0-273 2-1156 2-1156 0-64 16-92 108-92 93 0 153 33 213 91l97-190C943 12 792-18 668-18c-85 0-176 14-220 38-85 47-93 127-93 186 0 227-1 468-1 695 0 114 0 225 1 329h-40c-57 0-142-2-217-19l-29 186c94 28 206 33 286 33z"/><glyph glyph-name="m" unicode="m" d="M952-32c-71 14-216 54-216 260v531c-2 42-8 54-38 54-22 0-74-157-88-213L608 0 383 1v760c0 37-2 52-28 52-24 0-89-98-111-204V0H20l-2 802c0 93-14 127-31 176l218 66c15-32 19-96 26-133 29 38 92 109 181 109 110 0 152-103 161-174 42 82 104 174 195 174h8c124 0 180-139 180-281V226c0-51 49-80 90-96z"/><glyph glyph-name="o" unicode="o" d="M625 247c47 52 60 156 60 283v16c-2 157-37 284-165 284-151 0-196-140-196-348 0-166 63-285 184-285 55 1 81 14 117 50zM507-6C197-6 72 184 72 464c0 371 141 568 433 568 197 0 307-69 377-201 41-79 59-192 59-288C941 258 845-6 509-6h-2z"/><glyph glyph-name="n" unicode="n" d="M338 927c56 50 190 99 300 99 164 0 300-66 300-230V278c0-66 50-88 106-118L928-40C833-10 687 64 687 222v477c0 74-15 120-82 120-63 0-169-38-254-112V0H100v706c0 178-8 204-32 298l232 48c10-24 31-76 38-125z"/><glyph glyph-name="q" unicode="q" d="M328 531c0-267 59-338 174-338 75 0 130 60 168 118l1 345c-45 88-88 155-217 155-88 0-126-87-126-280zm588 208l1-885v-29c0-85 1-183 16-218l-236-30c-19 52-27 177-27 271v91c3 44 9 81 13 121-29-31-76-68-176-68C145-8 72 215 72 551c0 268 91 460 366 460 112 0 196-28 252-90 4 39 10 77 19 101l228-26c-10-65-21-148-21-231v-26z"/><glyph glyph-name="r" unicode="r" d="M404 864c75 98 179 156 340 156 167 0 272-102 272-292v-30l-252-2c1 11 2 27 2 44 0 37-10 78-66 78s-136-73-232-258V-18H216v722c0 57-48 99-110 154l148 186c61-49 116-77 150-180z"/><glyph glyph-name="s" unicode="s" d="M279 549c-82 40-137 121-137 232 0 186 190 248 365 248 139 0 292-15 403-136L733 730c-54 58-127 99-223 99-82 0-114-22-114-61 0-29 6-49 34-67 256-104 500-139 500-423C930 116 786 28 679 0c-56-13-116-20-173-20C250-20 94 115 94 330h253c0-108 48-148 157-148 59 0 172 20 172 108 0 59-21 92-70 125-69 44-234 89-327 134z"/><glyph glyph-name="t" unicode="t" d="M430 436v-40c0-134 39-182 123-196 18-2 52-4 65-4 65 0 95 14 120 28 52 28 63 96 70 116l208-100c-10-28-64-140-176-204C782 2 705-6 620-6 436-6 288 16 217 164c-35 72-39 148-39 234v42c2 90 4 201 9 365h-14c-28 0-56-4-82-12L74 997c24 8 69 12 102 12h15c0 70 1 171 1 241l251-6c0-66-1-163-2-231 109 0 421-4 429-4l-3-204c-137 0-295 2-428 2-6-166-5-271-9-371z"/><glyph glyph-name="u" unicode="u" d="M893-17c-64 29-106 75-127 125C691 31 576 5 426 2h-9C265 2 79 53 79 229c0 82 1 179 1 275 0 216-3 431-22 488l254 28c22-92 16-356 18-722 12-67 31-92 116-92 152 7 221 85 221 212v595h251V306c2-52 67-119 118-140z"/><glyph glyph-name="v" unicode="v" d="M216 1076c170-283 254-568 322-825 124 143 145 358 151 565 1 19 1 44 1 69 0 46-1 94-3 128h251c3-16 6-133 6-191 0-317-104-610-286-756C587 9 550-8 342-8c0 258-212 771-338 954z"/><glyph glyph-name="w" unicode="w" d="M17 984l249 72c70-208 68-396 69-568v-31c0-94-17-216-28-248 120 4 158 90 158 254v372l161 1s5-78 5-243c0-96-2-222-7-379h5c137 0 142 199 142 399v48c0 56-1 110-1 158 0 72-13 194-13 194h246c2-32 2-53 2-97v-87c0-153-1-361-42-550C927 115 799 0 580 0h-34s-18 66-24 153C488 81 392-12 195-12h-6c-46 1-52 6-66 12-10 82 3 521-60 835-11 54-23 108-46 149z"/><glyph glyph-name="x" unicode="x" d="M934 839c-40-88-186-249-276-335 80-103 204-248 226-261 4-3 12-18 46-18 18 0 36 3 52 6L980 2c-18-3-42-6-60-6-42 0-100 10-140 38-72 47-178 179-264 297L184-42 14 119l364 394L52 904l182 141 290-372c60 68 108 104 178 227 20 35 30 97 34 114l238-1c-6-49-16-120-40-174z"/><glyph glyph-name="y" unicode="y" d="M352-174c89 0 157 150 177 244-210 480-331 681-428 681-20 0-34 0-44-1l-1 261s42 2 76 2c192 0 341-266 517-672 74 217 59 445 67 672h256c0-60 0-122-2-174-15-323-142-708-324-1013-103-173-187-202-334-202C98-376 46-173 42 0h236c0-114 26-174 74-174z"/><glyph glyph-name="z" unicode="z" d="M93 815l31 202c46-5 157-6 281-6 186 0 402 3 472 5l77-190c-33-33-500-442-552-629l400 6h6c54 0 103-13 162-32L926-22C881-9 865 0 800 0H71v20c0 73 5 123 22 169 79 214 307 453 507 617-68-1-101-3-202-3-125 0-248 3-305 12z"/><glyph glyph-name="A" unicode="A" d="M651 504c-26 143-125 340-126 494-6-168-99-373-137-512 60 13 180 13 263 18zm-233 821h224L976 244c24-81 50-165 50-244H750c0 59-10 114-25 167l-32 114c-152-3-237 1-357-29l-30-90c-20-61-37-119-40-162H6c4 61 28 143 54 223z"/><glyph glyph-name="B" unicode="B" d="M66 837c0 177-3 341-12 471 81 6 223 17 336 17h18c222 0 381-91 381-311 0-144-52-190-127-231 163-45 307-149 307-375C969 106 793 23 626 3c-39-5-80-8-119-8-74 0-132 5-217 5H58c0 198 8 413 8 837zm465 175c0 108-86 111-109 111h-20c-39 0-56-2-86-5 3-35 3-73 3-114 0-54-1-112-1-170h38c73 0 175 12 175 170v8zm-52-374c-49 0-46-2-119-2h-44c-2-242-3-360-4-438 49-3 88-6 126-6 30 0 60 2 95 6 32 4 178 40 178 222 0 172-112 218-232 218z"/><glyph glyph-name="C" unicode="C" d="M566 1128c-115 0-248-136-248-500 0-274 116-430 222-430h14c124 0 162 64 210 194l246-137C936 97 765-3 575-3h-3C461-3 329 22 235 116 115 241 56 408 56 636c0 259 81 418 133 496 72 108 208 200 383 200 140 0 314-63 402-225L742 982c-50 124-90 146-176 146z"/><glyph glyph-name="D" unicode="D" d="M403 1127h-30c-16 0-28 0-45-3 1-26 1-56 1-87 0-63-1-84-1-153 0-306-3-588-4-686 88-3 39-3 99-3h3c40 0 183 2 249 158 19 45 27 136 27 191 0 381-143 583-299 583zM70 128c0 55 6 452 6 773v76c0 129-4 252-13 340 81 8 126 14 225 14 295 0 417-71 550-265 84-127 131-305 131-486C969 249 800 20 559-3c-55-5-106-7-161-7-84 0-217 7-331 7 0 34 0 33 3 131z"/><glyph glyph-name="E" unicode="E" d="M102 1319c56 4 126 4 204 4h208c149 0 285-3 359-3h16v-202H360V849h338V646H360v-31c0-207-2-332-2-411l416 2c56 0 125 27 125 27l72-199C923 21 882 0 784 0H102v1319z"/><glyph glyph-name="F" unicode="F" d="M382 0L116 3v1321h685c102 0 147-17 181-34l-78-203c-26 14-48 27-146 28h-70c-104 0-128 0-311-1V856c120 0 82 2 204 2 90 0 157-18 197-36l-68-202c-37 17-87 22-132 22h-85c-30 0-51 0-116-2 0-123 5-545 5-640z"/><glyph glyph-name="G" unicode="G" d="M861 772c46 0 89 3 131 7V586C992 142 869 50 691 3 646-7 582-8 540-8 176-8 20 286 20 641c0 242 53 439 184 569 100 90 214 118 329 118h20c214-5 362-91 437-257L756 955c-36 118-84 166-216 166-168 0-259-202-259-491 0-264 77-432 249-432s198 176 198 370l-64-1c-71 0-140-5-230-39l-40 203c96 37 200 43 301 43 56 0 112-2 166-2z"/><glyph glyph-name="H" unicode="H" d="M317 1322l-1-537c92 21 152 29 272 29h87c0 280-1 338-1 503h256V0H675v599h-32c-146 0-209-3-327-29 0-350 2-385 2-570H60v1320z"/><glyph glyph-name="K" unicode="K" d="M588 782c120-119 407-550 458-688L810-32C764 79 558 445 428 574c0 0-56-62-86-134V-5H84v1340h258V871c103 145 427 468 464 505l196-177c-182-135-354-343-414-417z"/><glyph glyph-name="L" unicode="L" d="M157-3v1328h254V207h428c59 3 70 6 114 21l72-197C978 15 916-3 841-3H157z"/><glyph glyph-name="M" unicode="M" d="M62 1323h204c76-114 174-303 236-489 54 182 147 356 228 489h216c0-398 2-1323 2-1323H701l-2 596c0 104 25 302 25 302-63-123-133-310-144-347l-150-2S328 817 280 898c0 0 32-189 32-302V0H62v1323z"/><glyph glyph-name="N" unicode="N" d="M691 0c-90 259-237 559-371 778V570c0-299 1-418 1-573H75v1328l211-7c126-188 360-580 410-814l-7 274c0 190 3 377 12 551l244-1c-6-115-8-267-8-433 0-231 4-490 4-725 0-58-1-116-1-170H691z"/><glyph glyph-name="O" unicode="O" d="M522 1350c161 0 452-73 457-703v-11c0-167-31-324-79-419C825 70 675-16 510-16c-122 0-271 41-352 143C68 239 36 395 36 579c0 352 60 511 130 608 66 92 200 160 356 163zM351 277c47-74 85-90 159-90 79 0 128 62 159 139 27 59 48 215 49 314v17c0 107-9 256-45 352-40 106-92 138-152 138-65 0-103-25-143-96-47-83-81-216-81-459 0-97 13-250 54-315z"/><glyph glyph-name="P" unicode="P" d="M714 909c0 204-117 208-199 208h-9c-61 0-105-4-150-5v-71c0-187-2-392-2-392 36-1 71-2 104-2 116 0 256 29 256 262zM354 0H104v1320c118 0 156 8 289 8 225 0 396-13 511-154 54-66 72-158 72-250 0-324-124-485-468-485-48 0-100 1-154 3V0z"/><glyph glyph-name="Q" unicode="Q" d="M890-183c-115 0-274 61-300 191-29-8-49-11-89-11-116 0-224 43-303 126C98 229 50 416 50 642c0 211 29 406 124 531 93 122 192 158 315 158 167 0 283-66 362-210 86-156 91-315 91-428 0-220-38-477-172-577 11-74 28-82 108-83h11c37 0 60 5 84 11l1-221c-22-5-39-6-84-6zM487 536c115 0 171-59 203-132 12 40 13 134 13 279v23c0 93-2 196-49 295-33 69-90 114-162 114-129 0-198-150-198-409v-66c0-50 1-158 23-212 39 67 98 108 170 108zm79-325v4c0 34-23 104-93 104-32 0-72-11-99-49 15-52 78-72 116-72h17c19 0 42 4 59 13z"/><glyph glyph-name="R" unicode="R" d="M699 552c78-124 181-275 237-341 18-16 66-52 108-63L922-44c-58 9-118 59-152 102-97 109-264 376-320 472-36 3-73 10-117 28V0H90v1136c0 68-1 116-5 178 42 4 157 15 218 15 250 0 469-8 591-161 48-60 74-154 74-240 0-224-125-355-269-376zm7 354c0 170-116 218-310 218-26 0-34 0-63-1V768c64-27 123-42 166-42h8c170 0 199 78 199 180z"/><glyph glyph-name="S" unicode="S" d="M231 702C121 752 51 844 51 1006c0 220 164 322 419 322h9c240 0 436-82 481-250L687 976c-46 101-132 142-202 142-86 0-166-36-166-104 0-98 56-122 114-144 123-48 194-57 326-118 108-53 216-158 216-356C975 96 761-9 521-9h-19C149 0 27 194 27 422l266-2c0-143 62-220 214-220 108 0 210 36 210 182 0 109-71 165-150 200-116 51-203 59-336 120z"/><glyph glyph-name="T" unicode="T" d="M355 0v1118c-198 0-240-1-316-1v207c122 0 576 1 764 1 73 0 143-9 167-16l-60-203s-52 12-112 12H615V0H355z"/><glyph glyph-name="U" unicode="U" d="M701 1350l253-28c-7-50-8-85-8-127v-29c0-148 3-278 3-391v-59c0-237-5-463-117-595C750 24 621-5 492-10 184-10 86 159 68 456c-5 77-7 201-7 339 0 175 3 373 9 534h258c-4-168-8-397-8-586V602c0-64 1-117 6-154 14-94 24-244 164-248 200 9 203 231 203 518 0 126-5 275-5 448 0 72 3 121 13 184z"/><glyph glyph-name="V" unicode="V" d="M368 0C344 196 98 1038 4 1266l236 89c101-257 186-648 284-1024 74 320 168 764 269 1017l227-79C922 1033 687 204 669 0H368z"/><glyph glyph-name="W" unicode="W" d="M395 0H154C111 173 58 1056 12 1312l236 29c26-193 28-291 31-355 11-246 9-574 19-670 0 0 119 600 125 672 21 0 53-3 86-3 39 0 81 4 110 19 29-218 120-685 120-685 17 139 12 407 27 643 4 65 1 192 38 381l224-38C976 1049 901 182 868 0H622s-70 397-102 585C473 355 400 12 395 0z"/><glyph glyph-name="X" unicode="X" d="M794 1367l192-116-336-557c171-272 218-437 360-577L842-45C690 105 666 207 514 454L230-54 20 78l346 592C246 878 140 1059 0 1218l194 158c130-149 213-307 316-482z"/><glyph glyph-name="Y" unicode="Y" d="M368 0v138c0 92 7 354 7 475-79 113-310 501-361 609l219 141c40-79 191-371 278-511 98 142 215 435 253 524l228-136c-47-96-297-538-367-638 0-48-2-97-2-152-3-135-5-279-5-322V0H368z"/><glyph glyph-name="Z" unicode="Z" d="M123 0L28 136l644 983c-214 0-469-5-583-5l-1 210c120 0 542 4 730 4 75 0 121-13 140-16v-7c0-39 16-145 16-179v-8L396 217l354-1c85 0 112 5 177 26l71-215C953 11 884 0 809 0H123z"/><glyph glyph-name="I" unicode="I" d="M132 1324c156 4 257 5 353 5 105 0 205-1 368-3l-1-211c-123 0-135 5-230 5V219c46 0 31 1 82 1 45 0 92-1 144-4l1-217c-85 5-147 6-210 6-47 0-96-1-155-1-74 0-195-7-350-7v216c85 4 123 5 180 5h52v901c-66-1-122-1-228-7z"/><glyph glyph-name="J" unicode="J" d="M414-8C139-8 24 215 22 435l260-1c6-153 60-230 126-230 118 0 164 129 164 468 0 97-17 294-29 434-49 0-67 2-104 2-104-3-116-12-143-18l-37 212c30 7 61 19 179 22 145 0 362-1 518-1l-3-217c-48 0-94 4-144 4 16-182 23-326 23-452C832 297 744-8 414-8z"/><glyph glyph-name="zero" unicode="0" d="M348 581l281 389c-31 100-45 135-116 135-154 0-167-291-167-474 0-23 2-50 2-50zm317 145L377 332c26-95 54-141 122-141 157 0 167 251 167 486 0 28-1 49-1 49zm-150 586c327 0 405-336 405-652 0-324-72-677-408-677C167-17 91 286 91 616c0 335 67 696 424 696z"/><glyph glyph-name="period" unicode="." d="M344 313h315V0H344v313z"/><glyph glyph-name="comma" unicode="," d="M332 309l326 2 1-300V8c0-197-87-366-254-442l-98 181c92 51 142 121 142 259L336 5z"/><glyph glyph-name="eacute" unicode="é" d="M215 1221c143 48 317 160 432 268l134-172c-111-112-333-223-476-270zm121-615c113 20 207 24 340 24-5 131-77 188-165 188-102 0-169-96-175-212zm173 415c319 0 428-208 428-544 0-20-1-43-1-43-285-4-498-18-600-38 16-111 104-200 196-200 106 0 154 36 222 110l178-156C831 38 765-10 526-10 240-10 78 203 78 516c0 286 148 505 431 505z"/><glyph glyph-name="egrave" unicode="è" d="M751 1225l-90-174c-143 47-365 158-476 270l134 172c115-108 289-220 432-268zM336 606c113 20 207 24 340 24-5 131-77 188-165 188-102 0-169-96-175-212zm173 415c319 0 428-208 428-544 0-20-1-43-1-43-285-4-498-18-600-38 16-111 104-200 196-200 106 0 154 36 222 110l178-156C831 38 765-10 526-10 240-10 78 203 78 516c0 286 148 505 431 505z"/><glyph glyph-name="ecircumflex" unicode="ê" d="M497 1495l378-291-138-156-240 201-222-189-144 138zM336 606c113 20 207 24 340 24-5 131-77 188-165 188-102 0-169-96-175-212zm173 415c319 0 428-208 428-544 0-20-1-43-1-43-285-4-498-18-600-38 16-111 104-200 196-200 106 0 154 36 222 110l178-156C831 38 765-10 526-10 240-10 78 203 78 516c0 286 148 505 431 505z"/><glyph glyph-name="edieresis" unicode="ë" d="M592 1424.6l282-3v-240l-282 3v240zm-420 0h279v-240H172v240zM336 606c113 20 207 24 340 24-5 131-77 188-165 188-102 0-169-96-175-212zm173 415c319 0 428-208 428-544 0-20-1-43-1-43-285-4-498-18-600-38 16-111 104-200 196-200 106 0 154 36 222 110l178-156C831 38 765-10 526-10 240-10 78 203 78 516c0 286 148 505 431 505z"/><glyph glyph-name="agrave" unicode="à" d="M731 1225l-90-174c-143 47-365 158-476 270l134 172c115-108 289-220 432-268zM318 317c0-98 69-128 133-128 110 0 192 102 210 158v47c-36 42-104 76-168 76-66 0-175-43-175-153zm587-1c0-92 19-144 76-189L868-22c-52 40-86 51-128 123C664 23 582-11 400-11 229-11 65 120 65 302c0 90 30 177 89 238 95 97 197 130 339 130 64 0 130-21 168-47 0 166-116 197-176 197-115 0-209-33-283-111L82 901c190 124 233 124 411 127 225 0 412-135 412-373V316z"/><glyph glyph-name="aacute" unicode="á" d="M189 1225c143 48 317 160 432 268l134-172c-111-112-333-223-476-270zm129-908c0-98 69-128 133-128 110 0 192 102 210 158v47c-36 42-104 76-168 76-66 0-175-43-175-153zm587-1c0-92 19-144 76-189L868-22c-52 40-86 51-128 123C664 23 582-11 400-11 229-11 65 120 65 302c0 90 30 177 89 238 95 97 197 130 339 130 64 0 130-21 168-47 0 166-116 197-176 197-115 0-209-33-283-111L82 901c190 124 233 124 411 127 225 0 412-135 412-373V316z"/><glyph glyph-name="acircumflex" unicode="â" d="M453 1498l378-291-138-156-240 201-222-189-144 138zM318 317c0-98 69-128 133-128 110 0 192 102 210 158v47c-36 42-104 76-168 76-66 0-175-43-175-153zm587-1c0-92 19-144 76-189L868-22c-52 40-86 51-128 123C664 23 582-11 400-11 229-11 65 120 65 302c0 90 30 177 89 238 95 97 197 130 339 130 64 0 130-21 168-47 0 166-116 197-176 197-115 0-209-33-283-111L82 901c190 124 233 124 411 127 225 0 412-135 412-373V316z"/><glyph glyph-name="atilde" unicode="ã" d="M300 1415c216 0 235-132 325-132 50 0 80 31 86 100l177-54c-21-96-79-224-241-224-198 0-219 130-320 130-42 0-79-37-88-100l-184 78c33 93 104 202 245 202zm18-1098c0-98 69-128 133-128 110 0 192 102 210 158v47c-36 42-104 76-168 76-66 0-175-43-175-153zm587-1c0-92 19-144 76-189L868-22c-52 40-86 51-128 123C664 23 582-11 400-11 229-11 65 120 65 302c0 90 30 177 89 238 95 97 197 130 339 130 64 0 130-21 168-47 0 166-116 197-176 197-115 0-209-33-283-111L82 901c190 124 233 124 411 127 225 0 412-135 412-373V316z"/><glyph glyph-name="adieresis" unicode="ä" d="M553 1425l282-3v-240l-282 3v240zm-420 0h279v-240H133v240zM318 317c0-98 69-128 133-128 110 0 192 102 210 158v47c-36 42-104 76-168 76-66 0-175-43-175-153zm587-1c0-92 19-144 76-189L868-22c-52 40-86 51-128 123C664 23 582-11 400-11 229-11 65 120 65 302c0 90 30 177 89 238 95 97 197 130 339 130 64 0 130-21 168-47 0 166-116 197-176 197-115 0-209-33-283-111L82 901c190 124 233 124 411 127 225 0 412-135 412-373V316z"/><glyph glyph-name="aring" unicode="å" d="M497 1348c-53 0-86-31-86-62s34-63 86-63 86 32 86 63-33 62-86 62zm-275-62c0 116 128 204 276 204s275-88 275-204c0-115-115-195-275-195-153 0-276 81-276 195zm96-969c0-98 69-128 133-128 110 0 192 102 210 158v47c-36 42-104 76-168 76-66 0-175-43-175-153zm587-1c0-92 19-144 76-189L868-22c-52 40-86 51-128 123C664 23 582-11 400-11 229-11 65 120 65 302c0 90 30 177 89 238 95 97 197 130 339 130 64 0 130-21 168-47 0 166-116 197-176 197-115 0-209-33-283-111L82 901c190 124 233 124 411 127 225 0 412-135 412-373V316z"/><glyph glyph-name="ae" unicode="æ" d="M648 675v-21c38 0 100 0 144 6-6 104-31 148-90 148-40 0-54-48-54-133zM256 322c0-108 28-160 66-160 90 0 85 137 96 165v147c-43 25-50 34-104 34-33 0-58-85-58-186zM722 0C564 0 526 75 505 97 475 63 415 4 312 4c-63 0-128 15-182 53C49 114 23 211 23 309c0 167 64 352 268 352 77 0 89-16 127-32 0 97-5 179-111 179h-9c-53 0-71-20-100-106L0 784c70 186 182 234 300 234 56 0 102-3 163-50 19-16 38-40 50-59 17 26 76 109 178 109 201 0 299-222 307-448V454c-98-4-236-7-318-7h-32l-2-173c16-42 27-66 66-66 75 0 88 36 94 82l190-72S947 0 722 0z"/><glyph glyph-name="colon" unicode=":" d="M341 1013h315V700H341v313zm0-698h315V2H341v313z"/><glyph glyph-name="semicolon" unicode=";" d="M334 1013h315V700H334v313zm-10-704l326 2 1-300V8c0-197-87-366-254-442l-98 181c92 51 142 121 142 259L328 5z"/><glyph glyph-name="exclam" unicode="!" d="M682 1376l-16-912-283-2-16 914h315zM350 270h350V0H350v270z"/><glyph glyph-name="space"/><glyph glyph-name="quotesingle" unicode="'" d="M549 1469l323-40c-25-353-241-585-409-687L331 915c104 118 196 307 218 554z"/><glyph glyph-name="Agrave" unicode="À" d="M784 1482l-90-174c-143 47-365 158-476 270l134 172c115-108 289-220 432-268zM651 504c-26 143-125 340-126 494-6-168-99-373-137-512 60 13 180 13 263 18zm-233 821h224L976 244c24-81 50-165 50-244H750c0 59-10 114-25 167l-32 114c-152-3-237 1-357-29l-30-90c-20-61-37-119-40-162H6c4 61 28 143 54 223z"/><glyph glyph-name="Aacute" unicode="Á" d="M197 1491c143 48 317 160 432 268l134-172c-111-112-333-223-476-270zm454-987c-26 143-125 340-126 494-6-168-99-373-137-512 60 13 180 13 263 18zm-233 821h224L976 244c24-81 50-165 50-244H750c0 59-10 114-25 167l-32 114c-152-3-237 1-357-29l-30-90c-20-61-37-119-40-162H6c4 61 28 143 54 223z"/><glyph glyph-name="Acircumflex" unicode="Â" d="M505 1747l378-291-138-156-240 201-222-189-144 138zM651 504c-26 143-125 340-126 494-6-168-99-373-137-512 60 13 180 13 263 18zm-233 821h224L976 244c24-81 50-165 50-244H750c0 59-10 114-25 167l-32 114c-152-3-237 1-357-29l-30-90c-20-61-37-119-40-162H6c4 61 28 143 54 223z"/><glyph glyph-name="Atilde" unicode="Ã" d="M367 1634c216 0 235-132 325-132 50 0 80 31 86 100l177-54c-21-96-79-224-241-224-198 0-219 130-320 130-42 0-79-37-88-100l-184 78c33 93 104 202 245 202zM651 504c-26 143-125 340-126 494-6-168-99-373-137-512 60 13 180 13 263 18zm-233 821h224L976 244c24-81 50-165 50-244H750c0 59-10 114-25 167l-32 114c-152-3-237 1-357-29l-30-90c-20-61-37-119-40-162H6c4 61 28 143 54 223z"/><glyph glyph-name="Adieresis" unicode="Ä" d="M600 1651l282-3v-240l-282 3v240zm-420 0h279v-240H180v240zM651 504c-26 143-125 340-126 494-6-168-99-373-137-512 60 13 180 13 263 18zm-233 821h224L976 244c24-81 50-165 50-244H750c0 59-10 114-25 167l-32 114c-152-3-237 1-357-29l-30-90c-20-61-37-119-40-162H6c4 61 28 143 54 223z"/><glyph glyph-name="Aring" unicode="Å" d="M526 1516c-52 0-86-31-86-62s34-63 86-63 86 32 86 63-32 62-86 62zM651 504c-26 143-125 340-126 494-6-168-99-373-137-512 60 13 180 13 263 18zm-399 950c0 116 128 204 276 204s274-88 274-204c0-81-56-145-146-175L976 244c24-81 50-165 50-244H750c0 59-10 114-25 167l-32 114c-152-3-237 1-357-29l-30-90c-20-61-38-119-40-162H6c4 61 28 143 54 223l343 1055c-90 31-151 95-151 176z"/><glyph glyph-name="igrave" unicode="ì" d="M677 1267l-90-174c-143 47-365 158-476 270l134 172c115-108 289-220 432-268zm-323-254h255c0-273 1-739 1-739 0-64 17-92 109-92 93 0 153 33 213 91l97-190C943 12 792-18 668-18c-85 0-177 14-221 38-85 47-93 127-93 186v607c-49 0-139-6-234-28L91 971c94 28 183 42 263 42z"/><glyph glyph-name="iacute" unicode="í" d="M209 1231c143 48 317 160 432 268l134-172c-111-112-333-223-476-270zm145-218h255c0-273 1-739 1-739 0-64 17-92 109-92 93 0 153 33 213 91l97-190C943 12 792-18 668-18c-85 0-177 14-221 38-85 47-93 127-93 186v607c-49 0-139-6-234-28L91 971c94 28 183 42 263 42z"/><glyph glyph-name="icircumflex" unicode="î" d="M464 1501l378-291-138-156-240 201-222-189-144 138zm-110-488h255c0-273 1-739 1-739 0-64 17-92 109-92 93 0 153 33 213 91l97-190C943 12 792-18 668-18c-85 0-177 14-221 38-85 47-93 127-93 186v607c-49 0-139-6-234-28L91 971c94 28 183 42 263 42z"/><glyph glyph-name="idieresis" unicode="ï" d="M528 1422.6l282-3v-240l-282 3v240zm-420 0h279v-240H108v240zM354 1013h255c0-273 1-739 1-739 0-64 17-92 109-92 93 0 153 33 213 91l97-190C943 12 792-18 668-18c-85 0-177 14-221 38-85 47-93 127-93 186v607c-49 0-139-6-234-28L91 971c94 28 183 42 263 42z"/><glyph glyph-name="ccedilla" unicode="ç" d="M327 528c0-319 168-324 215-324h12c100 0 154 65 202 146l226-134C924 87 818 15 651-3c0-21-1-48-1-50 97-5 183-62 183-176 0-130-114-202-272-202-66 0-158 18-214 54l60 147c33-18 78-29 129-29 36 0 70 11 73 49v2c0 29-23 56-71 56s-81-3-109-13V1c-66 9-132 30-188 72C111 174 71 328 71 527c0 340 178 491 493 491 95 0 192-19 255-61 60-40 106-99 128-151L727 704c-10 38-41 103-181 103-147 0-219-136-219-279z"/><glyph glyph-name="AE" unicode="Æ" d="M1008 32C961 7 896-5 821-5H479c-11 155-20 272-33 424-18 2-33 3-47 3-28 0-51-4-85-12L234 0 0 45c95 386 177 849 272 1278l145-3c43 2 97 2 157 2h385v-206h-17c-83 0-71-2-194-2H606l24-268c51 1 40 4 125 4h106V642H755c-82 0-64-3-109-4l48-435h157c61 0 99 25 99 25zM429 631l-31 366-69-372c29 3 49 6 100 6z"/><glyph glyph-name="Ccedilla" unicode="Ç" d="M566 1128c-115 0-248-136-248-500 0-274 116-430 222-430h14c124 0 162 64 210 194l246-137C951 128 829 38 685 8c-1-15-1-69-1-72 97-5 182-62 182-176 0-130-113-202-271-202-66 0-158 18-214 54l60 147c33-18 78-29 129-29 36 0 70 11 73 49v2c0 29-24 56-72 56s-81-3-109-13V6c-81 14-163 46-227 110C115 241 56 408 56 636c0 259 81 418 133 496 72 108 208 200 383 200 140 0 314-63 402-225L742 982c-50 124-90 146-176 146z"/><glyph glyph-name="Egrave" unicode="È" d="M803 1501l-90-174c-143 47-365 158-476 270l134 172c115-108 289-220 432-268zm-701-182c56 4 126 4 204 4h208c149 0 285-3 359-3h16v-202H360V849h338V646H360v-31c0-207-2-332-2-411l416 2c56 0 125 27 125 27l72-199C923 21 882 0 784 0H102v1319z"/><glyph glyph-name="Eacute" unicode="É" d="M178 1499c143 48 317 160 432 268l134-172c-111-112-333-223-476-270zm-76-180c56 4 126 4 204 4h208c149 0 285-3 359-3h16v-202H360V849h338V646H360v-31c0-207-2-332-2-411l416 2c56 0 125 27 125 27l72-199C923 21 882 0 784 0H102v1319z"/><glyph glyph-name="Ecircumflex" unicode="Ê" d="M498 1783l378-291-138-156-240 201-222-189-144 138zm-396-464c56 4 126 4 204 4h208c149 0 285-3 359-3h16v-202H360V849h338V646H360v-31c0-207-2-332-2-411l416 2c56 0 125 27 125 27l72-199C923 21 882 0 784 0H102v1319z"/><glyph glyph-name="Edieresis" unicode="Ë" d="M602 1696l282-3v-240l-282 3v240zm-420 0h279v-240H182v240zm-80-377c56 4 126 4 204 4h208c149 0 285-3 359-3h16v-202H360V849h338V646H360v-31c0-207-2-332-2-411l416 2c56 0 125 27 125 27l72-199C923 21 882 0 784 0H102v1319z"/><glyph glyph-name="Igrave" unicode="Ì" d="M781 1513l-90-174c-143 47-365 158-476 270l134 172c115-108 289-220 432-268zm-649-189c156 4 257 5 353 5 105 0 205-1 368-3l-1-211c-123 0-135 5-230 5V219c46 0 31 1 82 1 45 0 92-1 144-4l1-217c-85 5-147 6-210 6-47 0-96-1-155-1-74 0-195-7-350-7v216c85 4 123 5 180 5h52v901c-66-1-122-1-228-7z"/><glyph glyph-name="Iacute" unicode="Í" d="M197 1502c143 48 317 160 432 268l134-172c-111-112-333-223-476-270zm-65-178c156 4 257 5 353 5 105 0 205-1 368-3l-1-211c-123 0-135 5-230 5V219c46 0 31 1 82 1 45 0 92-1 144-4l1-217c-85 5-147 6-210 6-47 0-96-1-155-1-74 0-195-7-350-7v216c85 4 123 5 180 5h52v901c-66-1-122-1-228-7z"/><glyph glyph-name="Icircumflex" unicode="Î" d="M491 1780l378-291-138-156-240 201-222-189-144 138zm-359-456c156 4 257 5 353 5 105 0 205-1 368-3l-1-211c-123 0-135 5-230 5V219c46 0 31 1 82 1 45 0 92-1 144-4l1-217c-85 5-147 6-210 6-47 0-96-1-155-1-74 0-195-7-350-7v216c85 4 123 5 180 5h52v901c-66-1-122-1-228-7z"/><glyph glyph-name="Idieresis" unicode="Ï" d="M558 1690l282-3v-240l-282 3v240zm-420 0h279v-240H138v240zm-6-366c156 4 257 5 353 5 105 0 205-1 368-3l-1-211c-123 0-135 5-230 5V219c46 0 31 1 82 1 45 0 92-1 144-4l1-217c-85 5-147 6-210 6-47 0-96-1-155-1-74 0-195-7-350-7v216c85 4 123 5 180 5h52v901c-66-1-122-1-228-7z"/><glyph glyph-name="quotedbl" unicode="&quot;" d="M202 1359c0 35-4 67-8 100l306 21c6-41 10-76 10-119 0-268-42-450-130-582l-234 97c42 63 56 272 56 483zm434-2c0 35-4 67-8 100l306 21c6-41 10-76 10-119 0-268-42-450-130-582l-234 97c42 63 56 272 56 483z"/><glyph glyph-name="numbersign" unicode="#" d="M438 782l-26-224 152-1 18 221zM368-19l-238 4c7 113 15 206 34 373-53-1-96-10-124-19L-6 521c56 20 132 29 198 34 15 80 17 144 26 223l-18 1c-65-4-115-9-150-22L-4 941c65 25 148 29 232 34 22 184 24 214 32 359 29 0 142-2 180-2 19 0 36 0 50-1-7-121-13-209-28-353l136-4c19 163 29 229 48 348l228 1c-25-121-25-187-44-345h122V780l-140 4-24-227 162 1-4-196-184 3c-22-197-33-267-42-388l-230-2c11 112 24 210 44 386l-136-1c-15-150-30-379-30-379z"/><glyph glyph-name="dollar" unicode="$" d="M238 703C130 748 62 832 62 979c0 182 164 278 356 287l-8 185 249-14-23-174c140-15 260-88 314-210l-222-90c-8 61-50 81-104 89l-14-250c60-20 94-32 144-54 105-48 211-144 211-324 0-250-175-356-401-360l-4-183-233 9 21 183C117 109 38 279 38 448l247 1c-2-15-3-29-3-41 0-68 35-114 83-125l23 361c-40 11-102 38-150 59zm176 360c-59 0-96-43-96-93 0-62 22-97 84-113zm160-801c88 13 139 58 139 165 0 89-34 113-119 151z"/><glyph glyph-name="oe" unicode="œ" d="M996 218S911 0 708 0c-92 0-168 40-221 95-24-32-77-95-151-95-56 0-125 5-205 91C28 202 24 380 24 459c0 46 1 126 11 176 21 123 83 382 292 382 79 0 118-27 159-63 11-9 18-17 23-23 23 37 67 87 182 87 201 0 299-222 307-448V454c-98-4-236-7-318-7h-32l-2-173c16-42 27-66 66-66 75 0 88 36 94 82zM648 675v-21c38 0 100 0 144 6-6 104-23 148-101 148-40 0-43-48-43-133zM330 208c52 0 80 71 80 130l2 360c0 22-4 114-76 114-28 0-81-125-84-338v-18c0-94 26-248 78-248z"/><glyph glyph-name="bracketleft" unicode="[" d="M844 1483l28-206c-81-8-157-8-290-12V-55c77 3 161 3 176 3h10c50 0 103-5 114-8l6-208c-25 3-65 9-136 9-59 0-339-2-432-2 0 178 2 261 2 441 0 90-1 211-2 390 0 175-2 351-2 482v421c93 0 371 4 422 4 72 3 81 4 104 6z"/><glyph glyph-name="bracketright" unicode="]" d="M199 1483c23-2 32-3 104-6 51 0 330-4 423-4v-421c0-131-2-307-2-482-1-179-2-300-2-390 0-180 2-263 2-441-93 0-374 2-433 2-71 0-111-6-136-9l6 208c11 3 64 8 114 8h10c15 0 99 0 176-3l1 1320c-133 4-210 4-291 12z"/><glyph glyph-name="parenleft" unicode="(" d="M893 1250h-7c-263 0-412-183-412-634 0-443 190-627 419-628l-1-250C532-259 205 0 205 612c0 613 257 859 688 872v-234z"/><glyph glyph-name="parenright" unicode=")" d="M146 1250v234c431-13 688-259 688-872 0-612-327-871-687-874l-1 250c229 1 419 185 419 628 0 451-150 634-413 634h-6z"/><glyph glyph-name="hyphen" unicode="-" d="M82 654c45 2 95 3 145 3 100 0 201-3 269-3h119c82 0 234-1 341-2h18V407h-18c-135 3-337 3-462 3-43 0-134 3-234 3-57 0-117-1-172-4v122z"/><glyph glyph-name="plus" unicode="+" d="M60 616c48 9 78 10 143 10h199v391l246 1-2-391c126 0 180-2 242-2h82V391h-14c-6 0-95 0-305 3l1-394H400v391h-89c-133 0-192-1-249-9z"/><glyph glyph-name="less" unicode="<" d="M934 155L768-49c-24 36-76 82-124 120-95 79-502 306-528 324l-2 226c157 129 469 355 602 433 30 17 51 31 86 42l130-207c-161-85-381-253-540-376 143-101 462-234 542-358z"/><glyph glyph-name="greater" unicode=">" d="M112 158c80 124 399 257 542 358-159 123-379 291-540 376l130 207c35-11 56-25 86-42 133-78 445-304 602-433l-2-226c-26-18-433-245-528-324-48-38-100-84-124-120z"/><glyph glyph-name="slash" unicode="/" d="M64-50c128 277 505 1162 640 1518l218-96C784 1020 404 133 284-149z"/><glyph glyph-name="one" unicode="1" d="M525 1322l242-45V-9H509l-2 962c-68-85-169-189-299-262L64 905c307 154 453 402 461 417z"/><glyph glyph-name="two" unicode="2" d="M363 864l-251-42c-9 29-18 76-20 112v25c0 191 145 347 401 347 270 0 422-111 422-381 0-198-119-302-199-387-55-55-300-267-300-323h516V0H72c0 30-2 62-2 95 0 26 1 53 6 81 18 97 98 198 206 299 125 115 386 280 386 451 0 116-57 169-160 169-74 0-161-44-161-144 0-25 4-54 16-87z"/><glyph glyph-name="three" unicode="3" d="M54 335h251c0-116 88-144 168-144 120 0 193 94 193 188 0 110-45 152-99 187-58 38-147 55-227 55v200h16c129 0 247 59 247 188 0 66-54 113-148 113-108 0-165-108-183-144L65 1114c5 15 102 206 382 206h11c237 0 399-72 399-294 0-128-101-269-200-288 183-59 267-190 267-360 0-138-34-210-114-290C738 16 625-22 466-22 184-22 54 131 54 335z"/><glyph glyph-name="four" unicode="4" d="M590 603v325c-73-129-174-240-256-327zM48 558c34 46 471 482 550 748l249 2V603h127V393H847V0H590v390l-452-2z"/><glyph glyph-name="five" unicode="5" d="M471 709c-120 0-175-91-189-111L92 678l60 610 676-2-1-197H388l-16-199s40 10 118 10c57 0 134-4 202-37 111-59 232-155 232-415C924 130 712 0 472-2h-2C282-2 150 74 70 234l228 110c28-78 90-134 172-134 90 0 192 64 192 240 0 160-89 259-191 259z"/><glyph glyph-name="six" unicode="6" d="M772 1104c-181-20-325-104-391-261-25-62-39-140-41-169 0 0 66 87 186 87 264 0 393-162 393-393C919 115 750-3 487-3 226-3 64 200 64 474c0 455 216 788 654 856zM327 457c0-129 44-257 166-257 85 0 172 66 172 167 0 118-73 193-139 193-105 0-153-38-199-103z"/><glyph glyph-name="seven" unicode="7" d="M151 1292c84 0 192-6 269-6 151 0 316 7 459 7h41l100-163C722 662 555 454 555 0H294c0 407 161 674 450 1073-87-3-190-3-281-3-63 0-88 0-151 3-2-1-16-67-20-104l-254 64c19 59 81 193 113 259z"/><glyph glyph-name="eight" unicode="8" d="M505 203c69 0 193 47 193 185 0 81-61 184-193 244-132-60-193-163-193-244 0-138 124-185 193-185zm0 637c108 23 143 104 143 150 0 95-77 101-143 101s-143-6-143-101c0-46 35-127 143-150zm0 453c261 0 393-120 393-308 0-103-85-223-174-249 122-52 232-176 232-358C956 141 764-9 505-9S54 141 54 378c0 182 110 306 232 358-89 26-174 146-174 249 0 188 132 308 393 308z"/><glyph glyph-name="nine" unicode="9" d="M487 1106c-110 0-163-80-163-148 0-108 81-174 173-174 96 0 148 42 186 86-16 150-92 236-196 236zM68 955c0 200 169 347 411 347 394 0 466-290 466-658C945 320 867 0 487-2h-3C241-2 92 110 27 310l250 84c45-145 101-189 215-189 138 0 200 148 200 376 0 16-2 50-2 50-27-20-81-48-210-48-214 0-412 147-412 372z"/><glyph glyph-name="equal" unicode="=" d="M54 394c140 8 252 8 366 8 178 0 312-8 480-8V170c-174 0-318 4-500 4-50 0-100 2-152 2-60 0-124-2-192-6zm-6 467c143-9 254-12 348-12 192 0 301 10 499 10l2-220c-193 0-304-12-501-12-96 0-204 7-349 16 0 30-1 80-1 127 0 35 1 69 2 91z"/><glyph glyph-name="backslash" unicode="\" d="M922-50l-218-99C584 133 202 1020 64 1372l220 96C419 1112 794 227 922-50z"/><glyph glyph-name="asciicircum" unicode="^" d="M520 1101l507-484-163-179-342 306-342-306L10 606z"/><glyph glyph-name="underscore" unicode="_" d="M46-84h946v-213H42z"/><glyph glyph-name="grave" unicode="`" d="M679 1367c0-211 66-424 107-487l-234-97c-87 132-181 318-181 586 0 43 4 78 10 119l306-21c-4-33-8-65-8-100z"/><glyph glyph-name="question" unicode="?" d="M314 270h352V0H314v270zm187 1075c257 0 419-128 419-354 0-170-102-236-189-306-58-47-110-118-110-206v-49l-272 1v44c0 146 98 259 167 320 82 73 153 112 153 199 0 92-49 159-158 159-102 0-164-49-166-158 0-39 25-77 46-103L173 743c-46 64-87 133-87 224 0 259 185 378 415 378z"/><glyph glyph-name="asciitilde" unicode="~" d="M332 807c230 0 288-222 378-222 86 0 108 90 114 158l208-54c0-105-55-314-332-314-224 0-263 221-375 221-56 0-107-65-131-155L12 551c34 130 118 256 320 256z"/><glyph glyph-name="exclamdown" unicode="¡" d="M337.254-258.137l18.484 911.953 283.004 1.23 13.51-914.04zM672.266 846.955l-349.998.953.735 270 349.998-.954z"/><glyph glyph-name="Ograve" unicode="Ò" d="M783 1525l-90-174c-143 47-365 158-476 270l134 172c115-108 289-220 432-268zm-261-175c161 0 452-73 457-703v-11c0-167-31-324-79-419C825 70 675-16 510-16c-122 0-271 41-352 143C68 239 36 395 36 579c0 352 60 511 130 608 66 92 200 160 356 163zM351 277c47-74 85-90 159-90 79 0 128 62 159 139 27 59 48 215 49 314v17c0 107-9 256-45 352-40 106-92 138-152 138-65 0-103-25-143-96-47-83-81-216-81-459 0-97 13-250 54-315z"/><glyph glyph-name="Oacute" unicode="Ó" d="M247 1527c143 48 317 160 432 268l134-172c-111-112-333-223-476-270zm275-177c161 0 452-73 457-703v-11c0-167-31-324-79-419C825 70 675-16 510-16c-122 0-271 41-352 143C68 239 36 395 36 579c0 352 60 511 130 608 66 92 200 160 356 163zM351 277c47-74 85-90 159-90 79 0 128 62 159 139 27 59 48 215 49 314v17c0 107-9 256-45 352-40 106-92 138-152 138-65 0-103-25-143-96-47-83-81-216-81-459 0-97 13-250 54-315z"/><glyph glyph-name="Ocircumflex" unicode="Ô" d="M501 1786l378-291-138-156-240 201-222-189-144 138zm21-436c161 0 452-73 457-703v-11c0-167-31-324-79-419C825 70 675-16 510-16c-122 0-271 41-352 143C68 239 36 395 36 579c0 352 60 511 130 608 66 92 200 160 356 163zM351 277c47-74 85-90 159-90 79 0 128 62 159 139 27 59 48 215 49 314v17c0 107-9 256-45 352-40 106-92 138-152 138-65 0-103-25-143-96-47-83-81-216-81-459 0-97 13-250 54-315z"/><glyph glyph-name="Otilde" unicode="Õ" d="M366 1673c216 0 235-132 325-132 50 0 80 31 86 100l177-54c-21-96-79-224-241-224-198 0-219 130-320 130-42 0-79-37-88-100l-184 78c33 93 104 202 245 202zm156-323c161 0 452-73 457-703v-11c0-167-31-324-79-419C825 70 675-16 510-16c-122 0-271 41-352 143C68 239 36 395 36 579c0 352 60 511 130 608 66 92 200 160 356 163zM351 277c47-74 85-90 159-90 79 0 128 62 159 139 27 59 48 215 49 314v17c0 107-9 256-45 352-40 106-92 138-152 138-65 0-103-25-143-96-47-83-81-216-81-459 0-97 13-250 54-315z"/><glyph glyph-name="Odieresis" unicode="Ö" d="M592 1681l282-3v-240l-282 3v240zm-420 0h279v-240H172v240zm350-331c161 0 452-73 457-703v-11c0-167-31-324-79-419C825 70 675-16 510-16c-122 0-271 41-352 143C68 239 36 395 36 579c0 352 60 511 130 608 66 92 200 160 356 163zM351 277c47-74 85-90 159-90 79 0 128 62 159 139 27 59 48 215 49 314v17c0 107-9 256-45 352-40 106-92 138-152 138-65 0-103-25-143-96-47-83-81-216-81-459 0-97 13-250 54-315z"/><glyph glyph-name="Oslash" unicode="Ø" d="M884 1128c56-104 93-258 95-481v-11c0-167-31-324-79-419C825 70 675-16 510-16c-75 0-161 16-234 51l-84-150L33-11c33 58 65 117 98 175-69 109-95 251-95 415 0 352 60 511 130 608 66 92 200 160 356 163 65 0 152-12 232-68 27 49 54 97 81 146l160-101zM385 232c34-36 69-45 125-45 79 0 128 62 159 139 27 59 48 215 49 314v17c0 48-2 104-7 160zm255 844c-34 53-74 71-119 71-65 0-103-25-143-96-47-83-81-216-81-459 0-35 2-78 6-121 113 202 226 404 337 605z"/><glyph glyph-name="multiply" unicode="×" d="M198 999c84-59 216-219 301-306l309 297 172-175-310-296c145-150 182-196 310-328L812 27c-138 150-71 77-306 326L207 38 32 219l297 312C190 674 85 793 30 835z"/><glyph glyph-name="Ugrave" unicode="Ù" d="M777 1515l-90-174c-143 47-365 158-476 270l134 172c115-108 289-220 432-268zm-76-165l253-28c-7-50-8-85-8-127v-29c0-148 3-278 3-391v-59c0-237-5-463-117-595C750 24 621-5 492-10 184-10 86 159 68 456c-5 77-7 201-7 339 0 175 3 373 9 534h258c-4-168-8-397-8-586V602c0-64 1-117 6-154 14-94 24-244 164-248 200 9 203 231 203 518 0 126-5 275-5 448 0 72 3 121 13 184z"/><glyph glyph-name="Uacute" unicode="Ú" d="M247 1498c143 48 317 160 432 268l134-172c-111-112-333-223-476-270zm454-148l253-28c-7-50-8-85-8-127v-29c0-148 3-278 3-391v-59c0-237-5-463-117-595C750 24 621-5 492-10 184-10 86 159 68 456c-5 77-7 201-7 339 0 175 3 373 9 534h258c-4-168-8-397-8-586V602c0-64 1-117 6-154 14-94 24-244 164-248 200 9 203 231 203 518 0 126-5 275-5 448 0 72 3 121 13 184z"/><glyph glyph-name="Ucircumflex" unicode="Û" d="M510 1798l378-291-138-156-240 201-222-189-144 138zm191-448l253-28c-7-50-8-85-8-127v-29c0-148 3-278 3-391v-59c0-237-5-463-117-595C750 24 621-5 492-10 184-10 86 159 68 456c-5 77-7 201-7 339 0 175 3 373 9 534h258c-4-168-8-397-8-586V602c0-64 1-117 6-154 14-94 24-244 164-248 200 9 203 231 203 518 0 126-5 275-5 448 0 72 3 121 13 184z"/><glyph glyph-name="Udieresis" unicode="Ü" d="M586 1696l282-3v-240l-282 3v240zm-420 0h279v-240H166v240zm535-346l253-28c-7-50-8-85-8-127v-29c0-148 3-278 3-391v-59c0-237-5-463-117-595C750 24 621-5 492-10 184-10 86 159 68 456c-5 77-7 201-7 339 0 175 3 373 9 534h258c-4-168-8-397-8-586V602c0-64 1-117 6-154 14-94 24-244 164-248 200 9 203 231 203 518 0 126-5 275-5 448 0 72 3 121 13 184z"/><glyph glyph-name="Yacute" unicode="Ý" d="M205 1509c143 48 317 160 432 268l134-172c-111-112-333-223-476-270zM368 0v138c0 92 7 354 7 475-79 113-310 501-361 609l219 141c40-79 191-371 278-511 98 142 215 435 253 524l228-136c-47-96-297-538-367-638 0-48-2-97-2-152-3-135-5-279-5-322V0H368z"/><glyph glyph-name="ntilde" unicode="ñ" d="M335 1402c216 0 235-132 325-132 50 0 80 31 86 100l177-54c-21-96-79-224-241-224-198 0-219 130-320 130-42 0-79-37-88-100l-184 78c33 93 104 202 245 202zm3-475c56 50 190 99 300 99 164 0 300-66 300-230V278c0-66 50-88 106-118L928-40C833-10 687 64 687 222v477c0 74-15 120-82 120-63 0-169-38-254-112V0H100v706c0 178-8 204-32 298l232 48c10-24 31-76 38-125z"/><glyph glyph-name="ograve" unicode="ò" d="M705 1227l-90-174c-143 47-365 158-476 270l134 172c115-108 289-220 432-268zm-80-980c47 52 60 156 60 283v16c-2 157-37 284-165 284-151 0-196-140-196-348 0-166 63-285 184-285 55 1 81 14 117 50zM507-6C197-6 72 184 72 464c0 371 141 568 433 568 197 0 307-69 377-201 41-79 59-192 59-288C941 258 845-6 509-6h-2z"/><glyph glyph-name="oacute" unicode="ó" d="M217 1227c143 48 317 160 432 268l134-172c-111-112-333-223-476-270zm408-980c47 52 60 156 60 283v16c-2 157-37 284-165 284-151 0-196-140-196-348 0-166 63-285 184-285 55 1 81 14 117 50zM507-6C197-6 72 184 72 464c0 371 141 568 433 568 197 0 307-69 377-201 41-79 59-192 59-288C941 258 845-6 509-6h-2z"/><glyph glyph-name="ocircumflex" unicode="ô" d="M493 1492l378-291-138-156-240 201-222-189-144 138zM625 247c47 52 60 156 60 283v16c-2 157-37 284-165 284-151 0-196-140-196-348 0-166 63-285 184-285 55 1 81 14 117 50zM507-6C197-6 72 184 72 464c0 371 141 568 433 568 197 0 307-69 377-201 41-79 59-192 59-288C941 258 845-6 509-6h-2z"/><glyph glyph-name="otilde" unicode="õ" d="M346 1415c216 0 235-132 325-132 50 0 80 31 86 100l177-54c-21-96-79-224-241-224-198 0-219 130-320 130-42 0-79-37-88-100l-184 78c33 93 104 202 245 202zM625 247c47 52 60 156 60 283v16c-2 157-37 284-165 284-151 0-196-140-196-348 0-166 63-285 184-285 55 1 81 14 117 50zM507-6C197-6 72 184 72 464c0 371 141 568 433 568 197 0 307-69 377-201 41-79 59-192 59-288C941 258 845-6 509-6h-2z"/><glyph glyph-name="odieresis" unicode="ö" d="M588 1427.1l282-3v-240l-282 3v240zm-420 0h279v-240H168v240zM625 247c47 52 60 156 60 283v16c-2 157-37 284-165 284-151 0-196-140-196-348 0-166 63-285 184-285 55 1 81 14 117 50zM507-6C197-6 72 184 72 464c0 371 141 568 433 568 197 0 307-69 377-201 41-79 59-192 59-288C941 258 845-6 509-6h-2z"/><glyph glyph-name="oslash" unicode="ø" d="M625 247c47 52 60 156 60 283v16c0 14 0 27-1 40L383 259c30-39 72-62 125-62 55 1 81 14 117 50zm223 820l150-140-107-115c34-77 50-181 50-269C941 258 845-6 509-6h-2C382-6 288 25 219 80L146 0 0 133l104 115c-22 63-32 136-32 216 0 371 141 568 433 568 109 0 190-21 254-62zM607 802c-23 18-51 28-87 28-149 0-195-137-196-340z"/><glyph glyph-name="ugrave" unicode="ù" d="M683 1225l-90-174c-143 47-365 158-476 270l134 172c115-108 289-220 432-268zM893-17c-64 29-106 75-127 125C691 31 576 5 426 2h-9C265 2 79 53 79 229c0 82 1 179 1 275 0 216-3 431-22 488l254 28c22-92 16-356 18-722 12-67 31-92 116-92 152 7 221 85 221 212v595h251V306c2-52 67-119 118-140z"/><glyph glyph-name="uacute" unicode="ú" d="M263 1227c143 48 317 160 432 268l134-172c-111-112-333-223-476-270zM893-17c-64 29-106 75-127 125C691 31 576 5 426 2h-9C265 2 79 53 79 229c0 82 1 179 1 275 0 216-3 431-22 488l254 28c22-92 16-356 18-722 12-67 31-92 116-92 152 7 221 85 221 212v595h251V306c2-52 67-119 118-140z"/><glyph glyph-name="ucircumflex" unicode="û" d="M497 1501l378-291-138-156-240 201-222-189-144 138zM893-17c-64 29-106 75-127 125C691 31 576 5 426 2h-9C265 2 79 53 79 229c0 82 1 179 1 275 0 216-3 431-22 488l254 28c22-92 16-356 18-722 12-67 31-92 116-92 152 7 221 85 221 212v595h251V306c2-52 67-119 118-140z"/><glyph glyph-name="udieresis" unicode="ü" d="M537 1427.5l282-3v-240l-282 3v240zm-420 0h279v-240H117v240zM893-17c-64 29-106 75-127 125C691 31 576 5 426 2h-9C265 2 79 53 79 229c0 82 1 179 1 275 0 216-3 431-22 488l254 28c22-92 16-356 18-722 12-67 31-92 116-92 152 7 221 85 221 212v595h251V306c2-52 67-119 118-140z"/><glyph glyph-name="plusminus" unicode="±" d="M48 854c48 9 78 10 143 10h199v357l246 1-2-357c126 0 180-2 242-2h82V629h-14c-6 0-95 0-305 3V411c93 0 222-1 303-2h18V164h-18c-135 3-375 3-500 3-67 0-226-1-378-9v122l-6 123c113 6 234 8 330 8v218h-89c-133 0-192-1-249-9z"/><glyph glyph-name="divide" unicode="÷" d="M356 1038h315V758H356v280zm0-754h315V2H356v282zM66 654c45 2 95 3 145 3 100 0 201-3 269-3h119c82 0 234-1 341-2h18V407h-18c-135 3-337 3-462 3-43 0-134 3-234 3-57 0-117-1-172-4v122z"/><glyph glyph-name="yacute" unicode="ý" d="M268 1227c143 48 317 160 432 268l134-172c-111-112-333-223-476-270zm84-1401c89 0 157 150 177 244-210 480-331 681-428 681-20 0-34 0-44-1l-1 261s42 2 76 2c192 0 341-266 517-672 74 217 59 445 67 672h256c0-60 0-122-2-174-15-323-142-708-324-1013-103-173-187-202-334-202C98-376 46-173 42 0h236c0-114 26-174 74-174z"/><glyph glyph-name="ydieresis" unicode="ÿ" d="M572 1421.4l282-3v-240l-282 3v240zm-420 0h279v-240H152v240zM352-174c89 0 157 150 177 244-210 480-331 681-428 681-20 0-34 0-44-1l-1 261s42 2 76 2c192 0 341-266 517-672 74 217 59 445 67 672h256c0-60 0-122-2-174-15-323-142-708-324-1013-103-173-187-202-334-202C98-376 46-173 42 0h236c0-114 26-174 74-174z"/><glyph glyph-name="OE" unicode="Œ" d="M436 199l1 928c-109 0-169-176-169-549 0-226 54-381 150-381 16 0 5 1 18 2zm375 7c59 2 87 10 132 26l66-200C903 3 778-1 667-1c-47 0-97 1-152 1-17-7-112-8-127-8C82 4 11 291 11 597c0 436 98 733 433 733 26 0 54-2 80-7 59 3 122 3 185 3 85 0 171-1 253-1v-198c-92 0-84 1-155 1-35 0-74 0-121-1V849h209V644H686V207z"/><glyph glyph-name="yen" unicode="¥" d="M368-6v144c0 39 2 109 3 185h-92c-60 0-123-1-192-5l-2 223c109 6 201 8 290 8v64c-2 3-5 7-8 11-80 2-171 7-285 14 0 30-1 80-1 127 0 35 1 69 2 91 52-3 99-5 143-7-88 145-182 309-212 373l219 141c40-79 191-371 278-511 98 142 215 435 253 524l228-136c-28-56-125-232-215-387 46 1 96 1 153 1l2-219c-113 0-198-4-289-7-7-10-13-19-18-26 0-18-1-37-1-55 103-2 198-6 308-6V317c-110 0-209 3-312 4-2-88-2-164-2-193V-6H368z"/><glyph glyph-name="Ntilde" unicode="Ñ" d="M357 1652c216 0 235-132 325-132 50 0 80 31 86 100l177-54c-21-96-79-224-241-224-198 0-219 130-320 130-42 0-79-37-88-100l-184 78c33 93 104 202 245 202zM691 0c-90 259-237 559-371 778V570c0-299 1-418 1-573H75v1328l211-7c126-188 360-580 410-814l-7 274c0 190 3 377 12 551l244-1c-6-115-8-267-8-433 0-231 4-490 4-725 0-58-1-116-1-170H691z"/><glyph glyph-name="Eth" unicode="Ð" d="M403 1127h-30c-16 0-28 0-45-3 1-26 1-56 1-87 0-41-1-64-1-95h254l2-209-256-1c-1-244-3-452-4-534 88-3 39-3 99-3h3c40 0 183 2 249 158 19 45 27 136 27 191 0 381-106 583-299 583zM76 942v35c0 129-4 252-13 340 81 8 126 14 225 14 271 0 427-82 550-265 84-127 131-305 131-486 0-69-8-138-21-204C900 135 739 14 559-3c-55-5-106-7-161-7-84 0-217 7-331 7 0 34 0 33 3 131 0 46 5 326 6 604H6v210h70z"/><glyph glyph-name="currency" unicode="¤" d="M619 314c41 38 52 116 52 210v11c-1 116-31 210-143 210-131 0-171-103-171-257 0-123 55-211 160-211 48 1 70 10 102 37zM168 677L14 832l190 190 152-151c45 16 99 24 159 24 72 0 130-9 178-26l140 140 191-191-149-149c13-44 19-92 19-136 0-79-12-155-42-220l151-151L812-28 642 141c-36-9-77-14-124-14h-2c-58 0-109 6-153 18L198-20 8 171l154 154c-16 44-24 95-24 150 0 78 10 145 30 202z"/><glyph glyph-name="sterling" unicode="£" d="M310 193c-33 30-50 57-64 79-6-5-16-33-16-54v-6c2-42 13-54 22-54 22 0 42 15 58 35zm551 477c-74-9-157-9-255-9h-56c18-93 28-166 29-276 0-52-4-107-11-131 69-44 106-66 154-66 26 0 64 10 64 36v43l228-1v-53C1010 77 910-15 769-16 651-16 593 9 484 79 422-6 309-13 222-13 104-13 65 79 65 191c0 136 75 265 171 265 59 0 72-29 102-74 2 20 2 25 2 47-1 106-9 139-28 235-52 2-136 2-181 2h-17v200h158c-13 71-24 111-24 177 0 205 141 308 330 308 163 0 287-95 318-222l-212-54c-16 62-62 74-106 74h-6c-54 0-84-33-84-98 0-54 15-124 26-190l94 3h57c74 0 140 1 196 7V670z"/><glyph glyph-name="cent" unicode="¢" d="M337 525c0-249 140-253 179-253h10c83 0 127 51 167 114l188-104c-48-99-134-156-269-171V-9H378v131c-39 9-78 24-112 48-108 79-141 199-141 354 0 207 90 323 253 365v144h234V902c51-7 99-21 134-43 50-31 88-77 106-118l-183-79c-8 30-34 80-150 80-122 0-182-105-182-217z"/><glyph glyph-name="percent" unicode="%" d="M718 179c32 0 79 74 79 125 0 61-20 85-66 88h-2c-32 0-81-70-81-115 0-54 30-98 70-98zM286 915c32 0 79 74 79 125 0 61-20 85-66 88h-2c-32 0-81-70-81-115 0-54 30-98 70-98zM22 82l232 422c96 175 234 284 269 349-54-77-139-131-241-131C125 722 1 855 1 1012c0 163 140 306 303 309h7c159 0 279-115 279-264v-17c-1-27-8-65-21-101l229 437 224-112-231-427c-68-132-217-246-301-387 56 79 147 133 246 135h7c159 0 279-115 279-264v-7c-4-162-129-328-308-328-157 0-281 133-281 290 0 35 6 69 18 101L246-28z"/><glyph glyph-name="guillemotleft" unicode="«" d="M428 566c144 130 281 291 304 431l228-72c-40-189-176-312-301-421C787 386 897 267 942 95L724 9c-38 149-138 301-296 442v115zM24 576c144 130 281 291 304 431l228-71c-40-189-176-312-301-421 128-118 238-237 283-409L320 19C282 168 182 320 24 461v115z"/><glyph glyph-name="guillemotright" unicode="»" d="M573.64 454.52C430.71 323.35 295.03 161.235 273.175 21.05L44.594 91.184c38.453 189.32 173.442 313.43 297.548 423.446-128.96 116.95-239.93 235.047-286.334 406.673l217.29 87.78C312.315 860.396 413.554 709.22 572.7 569.516zm404.07-6.697C834.775 316.65 699.096 154.535 677.24 14.353L448.67 83.485c38.453 189.32 173.443 313.428 297.548 423.446-128.96 116.95-239.93 235.047-286.334 406.673l217.282 88.78C716.383 853.698 817.622 702.52 976.77 562.818z"/><glyph glyph-name="section" unicode="§" d="M651 354c47 28 51 42 51 75-3 21-12 43-37 66-117 108-249 184-329 234-47-28-51-42-51-75 3-21 12-43 37-66 116-106 210-160 320-227zM184 883s-41 40-41 165c0 208 198 314 351 320h18c200 0 326-132 330-317H622c0 81-56 117-122 117-32 0-107-17-107-114v-11c0-42 3-103 63-142 138-90 271-176 378-274 94-86 115-123 115-219 0-117-55-170-133-228 0 0 28-66 28-145 0-208-199-314-352-320h-18c-200 0-326 132-330 317h220c0-81 56-117 122-117 32 0 108 17 108 114v11c0 42-3 103-63 142-138 90-271 176-378 274C59 542 38 579 38 675c0 141 146 208 146 208z"/><glyph glyph-name="braceleft" unicode="{" d="M513 600c94-23 230-96 252-224 3-15 4-31 4-46 0-101-52-196-66-276-2-8-2-16-2-23 0-67 67-89 193-95l-4-218c-133 6-294 8-387 116-41 48-56 100-56 152 0 73 29 147 52 212 13 36 19 66 19 92 0 133-149 154-273 189l-1 113v131c124 35 273 55 273 188 0 26-6 57-19 93-23 65-52 139-52 212 0 52 15 104 56 152 93 108 254 110 387 116l4-218c-127-5-193-28-193-96 0-7 1-14 2-22 15-80 66-174 66-276 0-15-1-30-4-46-22-128-157-203-251-226z"/><glyph glyph-name="bar" unicode="|" d="M357 152c0 365-9 959-9 1247v93h271v-145c0-277 12-789 12-1123V74c0-115-1-171-6-272l-272 1c4 62 5 105 5 160 0 47-1 103-1 189z"/><glyph glyph-name="braceright" unicode="}" d="M527 600c-94 23-230 98-251 226-3 16-4 31-4 46 0 102 51 196 66 276 1 8 2 15 2 22 0 68-67 91-193 96l3 218c134-6 295-8 388-116 41-48 55-100 55-152 0-73-28-147-51-212-13-36-19-67-19-93 0-133 149-153 273-188V592l-1-113c-124-35-273-55-273-188 0-26 6-57 19-93 23-65 52-139 52-212 0-52-15-104-56-152-93-108-254-110-387-116l-4 218c127 6 193 28 193 96 0 7-1 14-2 22-14 80-66 175-66 276 0 15 1 31 4 46 22 128 158 201 252 224z"/><glyph glyph-name="at" unicode="@" d="M551 496c0-78 22-134 66-134 98 0 110 118 128 168v68c-50 44-53 60-102 60-50 0-92-42-92-162zm251-229c-59-63-78-105-204-105-170 0-266 157-266 323 0 216 99 373 283 373 69 0 96-26 130-60 0 144-34 297-193 297-165 0-305-173-305-595 0-308 107-553 332-553 48 0 102 12 159 48l75-191c-80-42-176-57-246-57-390 0-545 398-545 748 0 506 216 805 528 805 300 0 414-254 414-462V479c0-76 7-132 62-214l-182-96c-21 36-26 44-42 98z"/><glyph glyph-name="brokenbar" unicode="¦" d="M353 779c-2 239-5 471-5 620v93h271v-145c0-145 3-354 6-568H353zm276-240c1-113 2-221 2-315V74c0-115-1-171-6-272l-272 1c4 62 5 105 5 160 0 47-1 103-1 189 0 112-1 247-2 387h274z"/><glyph glyph-name="copyright" unicode="©" d="M481 1033h3c7 0 13 2 25 2 76-3 165-73 215-225l-141-57c-18 57-26 106-72 106-76 0-126-170-126-349 0-123 32-375 115-375 62 0 85 47 105 138l127-39C692 93 633-17 509-17c-234 0-272 345-272 504 0 201 43 325 72 387 36 78 99 145 172 159zm15 169c-166 0-326-297-326-690 0-392 146-693 326-693 185 0 327 299 327 691v17c0 385-190 675-327 675zm0 153c304 0 470-393 470-849 0-455-180-842-470-842C197-336 34 58 34 513c0 456 174 842 462 842z"/><glyph glyph-name="registered" unicode="®" d="M581 722c-7 129-53 169-116 169h-9V538c22-7 41-10 56-10 58 0 71 48 71 129 0 20-1 41-2 65zM618 0c-42 82-104 316-130 378-20 3-17-1-32 3 0-127 1-178 1-233 0-37 0-75-2-138l-148 2c0 309-2 995-2 995 42 35 96 32 148 36 8 1 16 1 24 1 171 0 235-178 241-360 0-114-20-251-86-292 41-94 98-280 126-300zM496 1202c-166 0-326-297-326-690 0-392 146-693 326-693 185 0 327 299 327 691v17c0 385-190 675-327 675zm0 153c304 0 470-393 470-849 0-455-180-842-470-842C197-336 34 58 34 513c0 456 174 842 462 842z"/><glyph glyph-name="germandbls" unicode="ß" d="M67 1003c0 156 116 325 323 325 236 0 408-85 408-319 0-123-45-194-128-230 144-25 302-118 302-398C972 76 844-2 624-2 437-2 373 95 373 298c0 8 1 16 1 24l204-2c0-63 5-121 68-121 54 0 82 48 82 196 0 109-64 239-352 239v206c165 0 178 65 178 163 0 85-82 119-141 119-67 0-97-49-97-115 0-156 5-370 5-557 0-40 1-80 1-119 0-80-3-155-23-214C272 35 169-9 113-37L21 211c20 10 38 24 46 50s9 62 9 137v50c0 187-9 381-9 555z"/><glyph glyph-name="ampersand" unicode="&" d="M728 94C641 12 539-22 419-22 211-22 30 70 30 367c0 192 99 303 207 391-93 85-153 192-153 279 0 212 162 310 342 310 167 0 316-67 316-265 0-192-110-298-220-382l216-300c13 17 19 46 19 83 0 46-9 104-24 169h244c0-288-99-406-99-406l111-144L822-32zM355 573c-46-43-75-129-75-203 0-85 28-189 143-189 86 0 149 27 182 57zm39 294c61 48 105 128 105 189 0 43-24 90-79 90-58 0-98-50-98-93 0-72 27-133 72-186z"/><glyph glyph-name="uni00B5" unicode="µ" d="M314 8l-4-406-250 3 5 624c0 82 1 179 1 275 0 216-3 431-22 488l248 28c22-92 16-356 18-722 12-67 31-92 116-92 198 0 222 164 223 212l1 582h257l-1-694c2-52 67-119 118-140L881-17c-64 29-106 75-127 125C679 31 562 5 412 2h-9c-29 0-59 2-89 6z"/><glyph glyph-name="paragraph" unicode="¶" d="M697 1041v71H580c0-296 2-592 2-888 0-92-38-226-76-265L300 61c22 42 52 80 52 160v219C178 452 36 627 36 924c0 92 19 184 73 250 115 141 286 154 511 154 133 0 171-8 289-8V-9l-217-1c0 342 5 614 5 1051z"/><glyph glyph-name="periodcentered" unicode="·" d="M428 700h315V387H428v313z"/><glyph glyph-name="questiondown" unicode="¿" d="M608 837H256v270h352V837zM421-238C164-238 2-110 2 116c0 170 102 236 189 306 58 47 110 118 110 206v49l272-1v-44c0-146-98-259-167-320-82-73-153-112-153-199 0-92 49-159 158-159 102 0 164 49 166 158 0 39-25 77-46 103l218 149c46-64 87-133 87-224 0-259-185-378-415-378z"/><glyph glyph-name="dieresis" unicode="¨" d="M542 1359l282-3v-240l-282 3v240zm-420 0h279v-240H122v240z"/><glyph glyph-name="acute" unicode="´" d="M199 1441c143 48 317 160 432 268l134-172c-111-112-333-223-476-270z"/><glyph glyph-name="degree" unicode="°" d="M521 1535c-53 0-86-31-86-62s34-63 86-63 86 32 86 63-33 62-86 62zm-275-62c0 116 128 204 276 204s275-88 275-204c0-115-115-195-275-195-153 0-276 81-276 195z"/><glyph glyph-name="macron" unicode="¯" d="M738 1657v-194h-17c-58-2-156-7-230-7s-167 1-235 3l-18 1v197l19-2c65-2 180-3 272-3 61 0 147 5 192 5h17z"/><glyph glyph-name="dotlessi" unicode="ı" d="M354 1013h255c0-273 1-739 1-739 0-64 17-92 109-92 93 0 153 33 213 91l97-190C943 12 792-18 668-18c-85 0-177 14-221 38-85 47-93 127-93 186v607c-49 0-139-6-234-28L91 971c94 28 183 42 263 42z"/><glyph glyph-name="Amacron" unicode="Ā" d="M778 1571v-194h-17c-58-2-156-7-230-7s-167 1-235 3l-18 1v197l19-2c65-2 180-3 272-3 61 0 147 5 192 5h17zM651 504c-26 143-125 340-126 494-6-168-99-373-137-512 60 13 180 13 263 18zm-233 821h224L976 244c24-81 50-165 50-244H750c0 59-10 114-25 167l-32 114c-152-3-237 1-357-29l-30-90c-20-61-37-119-40-162H6c4 61 28 143 54 223z"/><glyph glyph-name="amacron" unicode="ā" d="M726 1384.3v-194h-17c-58-2-156-7-230-7s-167 1-235 3l-18 1v197l19-2c65-2 180-3 272-3 61 0 147 5 192 5h17zM318 317c0-98 69-128 133-128 110 0 192 102 210 158v47c-36 42-104 76-168 76-66 0-175-43-175-153zm587-1c0-92 19-144 76-189L868-22c-52 40-86 51-128 123C664 23 582-11 400-11 229-11 65 120 65 302c0 90 30 177 89 238 95 97 197 130 339 130 64 0 130-21 168-47 0 166-116 197-176 197-115 0-209-33-283-111L82 901c190 124 233 124 411 127 225 0 412-135 412-373V316z"/><glyph glyph-name="Cacute" unicode="Ć" d="M299 1507c143 48 317 160 432 268l134-172c-111-112-333-223-476-270zm267-379c-115 0-248-136-248-500 0-274 116-430 222-430h14c124 0 162 64 210 194l246-137C936 97 765-3 575-3h-3C461-3 329 22 235 116 115 241 56 408 56 636c0 259 81 418 133 496 72 108 208 200 383 200 140 0 314-63 402-225L742 982c-50 124-90 146-176 146z"/><glyph glyph-name="cacute" unicode="ć" d="M301 1225c143 48 317 160 432 268l134-172c-111-112-333-223-476-270zm26-697c0-319 168-325 215-325h12c100 0 154 66 202 147l226-134C914 66 782-7 564-7 460-7 337 1 241 73 111 174 71 328 71 527c0 340 178 491 493 491 95 0 192-19 255-61 60-40 106-99 128-151L727 704c-10 38-41 103-181 103-147 0-219-136-219-279z"/><glyph glyph-name="Ccircumflex" unicode="Ĉ" d="M554 1771l378-291-138-156-240 201-222-189-144 138zm12-643c-115 0-248-136-248-500 0-274 116-430 222-430h14c124 0 162 64 210 194l246-137C936 97 765-3 575-3h-3C461-3 329 22 235 116 115 241 56 408 56 636c0 259 81 418 133 496 72 108 208 200 383 200 140 0 314-63 402-225L742 982c-50 124-90 146-176 146z"/><glyph glyph-name="ccircumflex" unicode="ĉ" d="M525 1489l378-291-138-156-240 201-222-189-144 138zM327 528c0-319 168-325 215-325h12c100 0 154 66 202 147l226-134C914 66 782-7 564-7 460-7 337 1 241 73 111 174 71 328 71 527c0 340 178 491 493 491 95 0 192-19 255-61 60-40 106-99 128-151L727 704c-10 38-41 103-181 103-147 0-219-136-219-279z"/><glyph glyph-name="Cdotaccent" unicode="Ċ" d="M415 1669h284l2-246H416zm151-541c-115 0-248-136-248-500 0-274 116-430 222-430h14c124 0 162 64 210 194l246-137C936 97 765-3 575-3h-3C461-3 329 22 235 116 115 241 56 408 56 636c0 259 81 418 133 496 72 108 208 200 383 200 140 0 314-63 402-225L742 982c-50 124-90 146-176 146z"/><glyph glyph-name="cdotaccent" unicode="ċ" d="M386 1433.9h284l2-246H387zM327 528c0-319 168-325 215-325h12c100 0 154 66 202 147l226-134C914 66 782-7 564-7 460-7 337 1 241 73 111 174 71 328 71 527c0 340 178 491 493 491 95 0 192-19 255-61 60-40 106-99 128-151L727 704c-10 38-41 103-181 103-147 0-219-136-219-279z"/><glyph glyph-name="Ccaron" unicode="Č" d="M557 1346l-366 297 144 138 222-189 240 201 138-156zm9-218c-115 0-248-136-248-500 0-274 116-430 222-430h14c124 0 162 64 210 194l246-137C936 97 765-3 575-3h-3C461-3 329 22 235 116 115 241 56 408 56 636c0 259 81 418 133 496 72 108 208 200 383 200 140 0 314-63 402-225L742 982c-50 124-90 146-176 146z"/><glyph glyph-name="ccaron" unicode="č" d="M540 1058l-366 297 144 138 222-189 240 201 138-156zM327 528c0-319 168-325 215-325h12c100 0 154 66 202 147l226-134C914 66 782-7 564-7 460-7 337 1 241 73 111 174 71 328 71 527c0 340 178 491 493 491 95 0 192-19 255-61 60-40 106-99 128-151L727 704c-10 38-41 103-181 103-147 0-219-136-219-279z"/><glyph glyph-name="Dcaron" unicode="Ď" d="M426 1349L60 1646l144 138 222-189 240 201 138-156zm-23-222h-30c-16 0-28 0-45-3 1-26 1-56 1-87 0-63-1-84-1-153 0-306-3-588-4-686 88-3 39-3 99-3h3c40 0 183 2 249 158 19 45 27 136 27 191 0 381-143 583-299 583zM70 128c0 55 6 452 6 773v76c0 129-4 252-13 340 81 8 126 14 225 14 295 0 417-71 550-265 84-127 131-305 131-486C969 249 800 20 559-3c-55-5-106-7-161-7-84 0-217 7-331 7 0 34 0 33 3 131z"/><glyph glyph-name="emacron" unicode="ē" d="M770 1383.4v-194h-17c-58-2-156-7-230-7s-167 1-235 3l-18 1v197l19-2c65-2 180-3 272-3 61 0 147 5 192 5h17zM336 606c113 20 207 24 340 24-5 131-77 188-165 188-102 0-169-96-175-212zm173 415c319 0 428-208 428-544 0-20-1-43-1-43-285-4-498-18-600-38 16-111 104-200 196-200 106 0 154 36 222 110l178-156C831 38 765-10 526-10 240-10 78 203 78 516c0 286 148 505 431 505z"/><glyph glyph-name="Emacron" unicode="Ē" d="M741 1616v-194h-17c-58-2-156-7-230-7s-167 1-235 3l-18 1v197l19-2c65-2 180-3 272-3 61 0 147 5 192 5h17zm-639-297c56 4 126 4 204 4h208c149 0 285-3 359-3h16v-202H360V849h338V646H360v-31c0-207-2-332-2-411l416 2c56 0 125 27 125 27l72-199C923 21 882 0 784 0H102v1319z"/><glyph glyph-name="asterisk" unicode="*" d="M410 792l-44 406 294 2-30-408 282 180 114-248-362-114 276-270-220-176-196 354-202-358-206 172 262 280-346 94 90 260z"/><glyph glyph-name="uni00A0"/><glyph glyph-name="ordfeminine" unicode="ª" d="M316 836c0-53 38-69 73-69 60 0 106 55 116 85v26c-20 22-58 41-93 41-36 0-96-24-96-83zm323 0c0-50 10-78 41-102l-62-81c-29 22-47 27-70 66-42-42-87-60-187-60-94 0-184 71-184 169 0 48 17 95 49 128 52 52 108 71 186 71 35 0 72-12 93-26 0 90-64 107-97 107-63 0-96-32-126-74l-107 59c53 98 139 125 237 127 124 0 227-72 227-201V836zm29-253l1-151h-17c-58-2-128-2-202-2h-81c-53 0-154 0-203 3l-1 152h19c65-2 211-2 303-2h181z"/><glyph glyph-name="logicalnot" unicode="¬" d="M82 654c45 2 95 3 145 3 100 0 201-3 269-3h119c82 0 234-1 341-2h18V496h2V180H726v230H494c-43 0-134 3-234 3-57 0-117-1-172-4v122z"/><glyph glyph-name="uni00AD" unicode="­" d="M82 654c45 2 95 3 145 3 100 0 201-3 269-3h119c82 0 234-1 341-2h18V407h-18c-135 3-337 3-462 3-43 0-134 3-234 3-57 0-117-1-172-4v122z"/><glyph glyph-name="uni00B2" unicode="²" d="M436.39 1118.2l-137.18-22.954c-4.918 15.85-9.837 41.536-10.93 61.21v13.664c0 104.387 79.246 189.645 219.157 189.645 147.562 0 230.634-60.664 230.634-208.226 0-108.214-65.035-165.053-108.758-211.507-30.058-30.06-163.958-145.923-163.958-176.528h282.008V646.002H277.35c0 16.395-1.093 33.885-1.093 51.92 0 14.21.546 28.966 3.28 44.268 9.836 53.013 53.558 108.212 112.583 163.41 68.316 62.852 210.96 153.028 210.96 246.484 0 63.398-31.153 92.364-87.445 92.364-40.443 0-87.99-24.048-87.99-78.7 0-13.664 2.186-29.512 8.743-47.548z"/><glyph glyph-name="uni00B3" unicode="³" d="M298.222 842.63H434.05c0-62.894 47.62-78.074 90.913-78.074 64.938 0 104.44 50.965 104.44 101.93 0 59.638-24.35 82.41-53.573 101.386-31.387 20.603-79.55 29.82-122.84 29.82v108.436h8.658c69.808 0 133.663 31.988 133.663 101.93 0 35.782-29.22 61.265-80.09 61.265-58.442 0-89.288-58.555-99.028-78.074l-112.018 73.736c2.705 8.133 55.196 111.688 206.718 111.688h5.953c128.252 0 215.917-39.036 215.917-159.4 0-69.398-54.655-145.844-108.23-156.145 99.03-31.99 144.487-103.015 144.487-195.185 0-74.82-18.4-113.856-61.69-157.23-38.964-39.037-100.113-59.64-186.155-59.64-152.604 0-222.953 82.953-222.953 193.557z"/><glyph glyph-name="cedilla" unicode="¸" d="M672 56c-1-8-2-72-2-75 97-5 184-62 184-176 0-130-114-203-272-203-66 0-158 18-214 54l60 148c33-18 77-30 128-30 36 0 71 12 74 50v2c0 29-24 55-72 55s-81-2-109-12V57z"/><glyph glyph-name="uni00B9" unicode="¹" d="M510.938 1371.36l127.655-23.738V669.258H502.497l-1.055 507.454c-35.87-44.837-89.147-99.698-157.723-138.205l-75.96 112.886c161.94 81.235 238.957 212.055 243.177 219.968z"/><glyph glyph-name="ordmasculine" unicode="º" d="M668 583l1-151h-17c-58-2-128-2-202-2h-81c-53 0-154 0-203 3l-1 152h19c65-2 211-2 303-2h181zM521 793c33 28 42 86 42 154v8c-1 85-26 154-114 154-104 0-135-77-135-189 0-90 44-154 127-154 38 0 55 8 80 27zm-81-137c-213 0-299 104-299 255 0 201 97 307 298 307 135 0 211-38 259-109 28-43 41-104 41-156 0-154-66-297-297-297h-2z"/><glyph glyph-name="onequarter" unicode="¼" d="M278 1376l122-24V666H270l-1 513c-34-45-85-101-151-140l-73 114c155 82 229 215 233 223zM765 329v177c-40-70-94-131-139-178zm-294-25c18 25 256 263 299 408l135 1V329h69V214h-69V0H765v213l-245-2zM52 85l416 615 297 682 192-102-392-631L246-32z"/><glyph glyph-name="onehalf" unicode="½" d="M278 1376l122-24V666H270l-1 513c-34-45-85-101-151-140l-73 114c155 82 229 215 233 223zm423-910l-132-22c-5 15-10 40-11 59v14c0 102 77 184 212 184 142 0 222-59 222-203 0-105-63-161-105-206-29-29-158-142-158-172h272V6H548c0 16-1 33-1 51 0 14 0 28 3 43 9 52 52 105 109 159 66 61 203 149 203 240 0 62-30 90-84 90-39 0-85-24-85-77 0-13 2-28 8-46zM38 97l416 615 297 682 192-102-393-631L232-20z"/><glyph glyph-name="threequarters" unicode="¾" d="M765 329v177c-40-70-94-131-139-178zm-294-25c18 25 256 263 299 408l135 1V329h69V214h-69V0H765v213l-245-2zM3 844h134c0-63 47-78 90-78 64 0 103 51 103 102 0 60-24 82-53 101-31 21-78 30-121 30v108h8c69 0 132 32 132 102 0 36-29 61-79 61-58 0-88-59-98-78L9 1266c3 8 54 111 204 111h6c127 0 213-39 213-159 0-69-54-146-107-156 98-32 143-102 143-194 0-75-18-114-61-157-38-39-99-60-184-60C72 651 3 734 3 844zM52 85l416 615 297 682 192-102-392-631L246-32z"/><glyph glyph-name="Thorn" unicode="Þ" d="M714 829c0 120-117 159-199 159h-9c-61 0-105-4-150-5v-71c0-187-2-263-2-263 36-1 71-2 104-2 116 0 256 22 256 182zM354-10L104-9v1329c106 0 148 7 252 8v-129h37c225 0 396-13 511-154 54-66 72-109 72-201 0-207-124-405-468-405-48 0-100 1-154 3V-10z"/><glyph glyph-name="eth" unicode="ð" d="M601 825c-246 0-297-174-297-321 0-141 44-293 180-293 170 0 234 122 234 329 0 125-28 190-117 285zm-289 433c-22 34-73 65-76 73l219 113c30-40 71-81 99-116l296 94 58-202-250-39c178-215 312-378 312-642C970 201 806 1 484 1h-2C210 2 52 224 52 504c0 191 77 490 445 514-8 11-38 53-67 83-92-29-156-60-236-89l-59 202s116 22 177 44z"/><glyph glyph-name="thorn" unicode="þ" d="M104 739v315c0 83-12 166-22 231l228 26c9-24 20-62 20-100V921c56 62 140 90 252 90 275 0 365-192 365-460C947 215 874-8 512-8 412-8 365 29 336 60c4-40 11-77 14-121v-91c0-94 7-178 14-246l-248-7c-9 73-14 168-14 259zm587-208c0 193-37 280-125 280-129 0-173-67-218-155l2-345c38-58 92-118 167-118 115 0 174 71 174 338z"/><glyph glyph-name="Abreve" unicode="Ă" d="M517 1542c108 0 174 63 180 141l219-30c-24-177-153-294-393-294-225 0-357 78-405 303l219 30c27-117 105-150 180-150zM651 504c-26 143-125 340-126 494-6-168-99-373-137-512 60 13 180 13 263 18zm-233 821h224L976 244c24-81 50-165 50-244H750c0 59-10 114-25 167l-32 114c-152-3-237 1-357-29l-30-90c-20-61-37-119-40-162H6c4 61 28 143 54 223z"/><glyph glyph-name="abreve" unicode="ă" d="M474 1239c108 0 174 63 180 141l219-30c-24-177-153-294-393-294-225 0-357 78-405 303l219 30c27-117 105-150 180-150zM318 317c0-98 69-128 133-128 110 0 192 102 210 158v47c-36 42-104 76-168 76-66 0-175-43-175-153zm587-1c0-92 19-144 76-189L868-22c-52 40-86 51-128 123C664 23 582-11 400-11 229-11 65 120 65 302c0 90 30 177 89 238 95 97 197 130 339 130 64 0 130-21 168-47 0 166-116 197-176 197-115 0-209-33-283-111L82 901c190 124 233 124 411 127 225 0 412-135 412-373V316z"/><glyph glyph-name="Aogonek" unicode="Ą" d="M1028 0C788-100 657-143 657-248c0-43 56-57 120-57 58 0 98 29 128 51l124-141c-44-48-162-106-262-106-182 0-360 56-360 244C407-58 644-12 744 82c-4 29-11 57-19 85l-32 114c-152-3-237 1-357-29l-30-90c-20-61-37-119-40-162H6c4 61 28 143 54 223l358 1102h224L976 244c24-80 50-163 50-242zM651 504c-26 143-125 340-126 494-6-168-99-373-137-512 60 13 180 13 263 18z"/><glyph glyph-name="aogonek" unicode="ą" d="M299 317c0-98 69-128 133-128 110 0 192 102 210 158v47c-36 42-104 76-168 76-66 0-175-43-175-153zm422-216C645 23 563-11 381-11 210-11 46 120 46 302c0 90 30 177 89 238 95 97 197 130 339 130 64 0 130-21 168-47 0 166-116 197-176 197-115 0-174-60-228-137L42 793c96 182 254 232 432 235 225 0 412-135 412-373V316c0-92 19-144 76-189-184-289-378-274-378-376 0-43 56-57 120-57 58 0 98 29 128 51l124-141c-44-48-162-106-262-106-182 0-360 56-360 244 0 180 387 207 387 359z"/><glyph glyph-name="dcaron" unicode="ď" d="M284 478c0-190 38-305 139-305 57 0 123 74 171 176v334c-31 55-88 130-156 130-86 0-154-72-154-335zM45 459c0 381 114 554 361 554 107 0 175-55 210-83-17 77-22 132-22 222 0 91 5 187 13 260l232-9c-7-68-14-152-14-246 0-280-2-641-2-890v-24c0-83 10-170 19-236L658-13s-42 64-42 106C580 40 506-7 390-7 155-7 45 152 45 459zm1058 905c-30-115-50-226-85-380l-148 34c14 145 35 289 51 394z"/><glyph glyph-name="Dcroat" unicode="Đ" d="M403 1127h-30c-16 0-28 0-45-3 1-26 1-56 1-87 0-41-1-64-1-95h254l2-209-256-1c-1-244-3-452-4-534 88-3 39-3 99-3h3c40 0 183 2 249 158 19 45 27 136 27 191 0 381-106 583-299 583zM76 942v35c0 129-4 252-13 340 81 8 126 14 225 14 271 0 427-82 550-265 84-127 131-305 131-486 0-69-8-138-21-204C900 135 739 14 559-3c-55-5-106-7-161-7-84 0-217 7-331 7 0 34 0 33 3 131 0 46 5 326 6 604H6v210h70z"/><glyph glyph-name="dcroat" unicode="đ" d="M348 478c0-190 40-305 148-305 61 0 131 74 182 176v334c-33 55-94 130-166 130-92 0-164-72-164-335zM93 459c0 381 122 554 385 554 114 0 187-55 224-83-13 59-20 105-23 163H399v194h283c2 45 5 88 10 125l248-9c-4-35-8-74-11-116h41v-194h-45c0-269-1-596-1-826v-24c0-83 9-170 19-236L747-13s-45 64-45 106C664 40 585-7 461-7 210-7 93 152 93 459z"/><glyph glyph-name="Ebreve" unicode="Ĕ" d="M510 1528.89c108 0 174 63.664 180 142.486l219-30.316c-24-178.865-153-297.1-393-297.1-225 0-357 78.822-405 306.194l219 30.316c27-118.233 105-151.58 180-151.58zM102 1319c56 4 126 4 204 4h208c149 0 285-3 359-3h16v-202H360V849h338V646H360v-31c0-207-2-332-2-411l416 2c56 0 125 27 125 27l72-199C923 21 882 0 784 0H102v1319z"/><glyph glyph-name="ebreve" unicode="ĕ" d="M512 1230c108 0 174 63 180 141l219-30c-24-177-153-294-393-294-225 0-357 78-405 303l219 30c27-117 105-150 180-150zM336 606c113 20 207 24 340 24-5 131-77 188-165 188-102 0-169-96-175-212zm173 415c319 0 428-208 428-544 0-20-1-43-1-43-285-4-498-18-600-38 16-111 104-200 196-200 106 0 154 36 222 110l178-156C831 38 765-10 526-10 240-10 78 203 78 516c0 286 148 505 431 505z"/><glyph glyph-name="Edotaccent" unicode="Ė" d="M362 1669h284l2-246H363zm-260-350c56 4 126 4 204 4h208c149 0 285-3 359-3h16v-202H360V849h338V646H360v-31c0-207-2-332-2-411l416 2c56 0 125 27 125 27l72-199C923 21 882 0 784 0H102v1319z"/><glyph glyph-name="edotaccent" unicode="ė" d="M367 1428.5h284l2-246H368zM336 606c113 20 207 24 340 24-5 131-77 188-165 188-102 0-169-96-175-212zm173 415c319 0 428-208 428-544 0-20-1-43-1-43-285-4-498-18-600-38 16-111 104-200 196-200 106 0 154 36 222 110l178-156C831 38 765-10 526-10 240-10 78 203 78 516c0 286 148 505 431 505z"/><glyph glyph-name="Eogonek" unicode="Ę" d="M102 1319c56 4 126 4 204 4h208c149 0 285-3 359-3h16v-202H360V849h338V646H360v-31c0-207-2-332-2-411l416 2c56 0 125 27 125 27l72-199C694-126 566-147 566-249c0-43 56-57 120-57 58 0 98 29 128 51l124-141c-44-48-162-105-262-105-182 0-360 56-360 244 1 125 91 168 246 257H102v1319z"/><glyph glyph-name="eogonek" unicode="ę" d="M336 606c113 20 207 24 340 24-5 131-77 188-165 188-102 0-169-96-175-212zm173 415c319 0 428-208 428-544 0-20-1-43-1-43-285-4-498-18-600-38 16-111 80-200 172-200 106 0 141 9 202 98l200-128C766-61 522-142 522-249c0-43 56-57 120-57 58 0 98 29 128 51l124-141c-44-48-162-106-262-106-182 0-360 56-360 244 0 111 112 163 225 248C214-8 78 205 78 516c0 286 148 505 431 505z"/><glyph glyph-name="Ecaron" unicode="Ě" d="M519 1328l-366 297 144 138 222-189 240 201 138-156zm-417-9c56 4 126 4 204 4h208c149 0 285-3 359-3h16v-202H360V849h338V646H360v-31c0-207-2-332-2-411l416 2c56 0 125 27 125 27l72-199C923 21 882 0 784 0H102v1319z"/><glyph glyph-name="ecaron" unicode="ě" d="M509 1049l-366 297 144 138 222-189 240 201 138-156zM336 606c113 20 207 24 340 24-5 131-77 188-165 188-102 0-169-96-175-212zm173 415c319 0 428-208 428-544 0-20-1-43-1-43-285-4-498-18-600-38 16-111 104-200 196-200 106 0 154 36 222 110l178-156C831 38 765-10 526-10 240-10 78 203 78 516c0 286 148 505 431 505z"/><glyph glyph-name="Gcircumflex" unicode="Ĝ" d="M507 1759l378-291-138-156-240 201-222-189-144 138zm354-987c46 0 89 3 131 7V586C992 142 869 50 691 3 646-7 582-8 540-8 176-8 20 286 20 641c0 242 53 439 184 569 100 90 214 118 329 118h20c214-5 362-91 437-257L756 955c-36 118-84 166-216 166-168 0-259-202-259-491 0-264 77-432 249-432s198 176 198 370l-64-1c-71 0-140-5-230-39l-40 203c96 37 200 43 301 43 56 0 112-2 166-2z"/><glyph glyph-name="gcircumflex" unicode="ĝ" d="M478 1502l378-291-138-156-240 201-222-189-144 138zm63-1686c62 0 193 70 193 168 0 41-22 74-136 74l-267-1c-23-30-23-86-23-130 0-62 74-111 143-111h90zm104 910c0 86-75 96-161 96-88 0-157-30-157-105 0-90 68-118 158-118 118 0 160 52 160 127zm225 93s21-22 21-103c0-176-104-317-384-317h-3c-75 0-133 7-147 13-19-22-30-49-30-79 0-35 23-85 129-85h179c153 0 349-46 349-247 0-223-216-385-389-385H440C236-384 80-293 80-78c0 101 34 174 87 221-47 35-87 114-87 200 0 101 39 149 76 190-39 50-76 87-76 161 0 235 161 332 415 332 100 0 196-14 272-61 49 46 104 61 220 61V822c-12 2-31 5-41 5-34 0-52-2-76-8z"/><glyph glyph-name="Gbreve" unicode="Ğ" d="M504 1524c108 0 174 63 180 141l219-30c-24-177-153-294-393-294-225 0-357 78-405 303l219 30c27-117 105-150 180-150zm357-752c46 0 89 3 131 7V586C992 142 869 50 691 3 646-7 582-8 540-8 176-8 20 286 20 641c0 242 53 439 184 569 100 90 214 118 329 118h20c214-5 362-91 437-257L756 955c-36 118-84 166-216 166-168 0-259-202-259-491 0-264 77-432 249-432s198 176 198 370l-64-1c-71 0-140-5-230-39l-40 203c96 37 200 43 301 43 56 0 112-2 166-2z"/><glyph glyph-name="gbreve" unicode="ğ" d="M481 1243c108 0 174 63 180 141l219-30c-24-177-153-294-393-294-225 0-357 78-405 303l219 30c27-117 105-150 180-150zm60-1427c62 0 193 70 193 168 0 41-22 74-136 74l-267-1c-23-30-23-86-23-130 0-62 74-111 143-111h90zm104 910c0 86-75 96-161 96-88 0-157-30-157-105 0-90 68-118 158-118 118 0 160 52 160 127zm225 93s21-22 21-103c0-176-104-317-384-317h-3c-75 0-133 7-147 13-19-22-30-49-30-79 0-35 23-85 129-85h179c153 0 349-46 349-247 0-223-216-385-389-385H440C236-384 80-293 80-78c0 101 34 174 87 221-47 35-87 114-87 200 0 101 39 149 76 190-39 50-76 87-76 161 0 235 161 332 415 332 100 0 196-14 272-61 49 46 104 61 220 61V822c-12 2-31 5-41 5-34 0-52-2-76-8z"/><glyph glyph-name="Gdotaccent" unicode="Ġ" d="M395 1672h284l2-246H396zm466-900c46 0 89 3 131 7V586C992 142 869 50 691 3 646-7 582-8 540-8 176-8 20 286 20 641c0 242 53 439 184 569 100 90 214 118 329 118h20c214-5 362-91 437-257L756 955c-36 118-84 166-216 166-168 0-259-202-259-491 0-264 77-432 249-432s198 176 198 370l-64-1c-71 0-140-5-230-39l-40 203c96 37 200 43 301 43 56 0 112-2 166-2z"/><glyph glyph-name="gdotaccent" unicode="ġ" d="M354 1429.1h284l2-245.5H355zM541-184c62 0 193 70 193 168 0 41-22 74-136 74l-267-1c-23-30-23-86-23-130 0-62 74-111 143-111h90zm104 910c0 86-75 96-161 96-88 0-157-30-157-105 0-90 68-118 158-118 118 0 160 52 160 127zm225 93s21-22 21-103c0-176-104-317-384-317h-3c-75 0-133 7-147 13-19-22-30-49-30-79 0-35 23-85 129-85h179c153 0 349-46 349-247 0-223-216-385-389-385H440C236-384 80-293 80-78c0 101 34 174 87 221-47 35-87 114-87 200 0 101 39 149 76 190-39 50-76 87-76 161 0 235 161 332 415 332 100 0 196-14 272-61 49 46 104 61 220 61V822c-12 2-31 5-41 5-34 0-52-2-76-8z"/><glyph glyph-name="Gcommaaccent" unicode="Ģ" d="M416-130h270v-215c0-151-37-219-157-278L395-498c53 42 77 81 77 147h-56v221zm445 902c46 0 89 3 131 7V586C992 142 869 50 691 3 646-7 582-8 540-8 176-8 20 286 20 641c0 242 53 439 184 569 100 90 214 118 329 118h20c214-5 362-91 437-257L756 955c-36 118-84 166-216 166-168 0-259-202-259-491 0-264 77-432 249-432s198 176 198 370l-64-1c-71 0-140-5-230-39l-40 203c96 37 200 43 301 43 56 0 112-2 166-2z"/><glyph glyph-name="gcommaaccent" unicode="ģ" d="M412 1180c38 112 64 221 109 372l190-33c-18-142-45-283-66-386zM541-184c62 0 193 70 193 168 0 41-22 74-136 74l-267-1c-23-30-23-86-23-130 0-62 74-111 143-111h90zm104 910c0 86-75 96-161 96-88 0-157-30-157-105 0-90 68-118 158-118 118 0 160 52 160 127zm225 93s21-22 21-103c0-176-104-317-384-317h-3c-75 0-133 7-147 13-19-22-30-49-30-79 0-35 23-85 129-85h179c153 0 349-46 349-247 0-223-216-385-389-385H440C236-384 80-293 80-78c0 101 34 174 87 221-47 35-87 114-87 200 0 101 39 149 76 190-39 50-76 87-76 161 0 235 161 332 415 332 100 0 196-14 272-61 49 46 104 61 220 61V822c-12 2-31 5-41 5-34 0-52-2-76-8z"/><glyph glyph-name="Hcircumflex" unicode="Ĥ" d="M487 1780l378-291-138-156-240 201-222-189-144 138zm-170-458l-1-537c92 21 152 29 272 29h87c0 280-1 338-1 503h256V0H675v599h-32c-146 0-209-3-327-29 0-350 2-385 2-570H60v1320z"/><glyph glyph-name="hcircumflex" unicode="ĥ" d="M252 1817l378-291-138-156-240 201-222-189-144 138zM942 566V218c0-82 19-142 44-178L760-40c-23 32-64 106-64 216v315c0 309-96 322-188 322-77 0-142-76-175-131V0H88v1156c0 94-9 178-16 246l248 9c9-73 14-169 14-260 0-90-6-145-24-222 37 28 113 84 232 84 250 0 400-125 400-447z"/><glyph glyph-name="Hbar" unicode="Ħ" d="M60 1198v122l257 2v-124h357v119h256v-119h80V991h-80V0H675v599h-32c-146 0-209-3-327-29 0-350 2-385 2-570H60v991H0v207h60zm615-207H316V785c92 21 152 29 272 29h87v177z"/><glyph glyph-name="hbar" unicode="ħ" d="M972 566V218c0-82 7-157 28-196L772-32c-23 32-44 98-44 208v315c0 309-82 321-174 321-72 0-135-75-168-130V0H140l1 1114H0v207h133c-3 29-4 56-7 81l248 9c3-27 6-58 8-90h332v-207H387c-2-69-8-119-23-185 37 28 110 83 224 83 250 0 384-124 384-446z"/><glyph glyph-name="Itilde" unicode="Ĩ" d="M332 1676c216 0 235-132 325-132 50 0 80 31 86 100l177-54c-21-96-79-224-241-224-198 0-219 130-320 130-42 0-79-37-88-100l-184 78c33 93 104 202 245 202zm-200-352c156 4 257 5 353 5 105 0 205-1 368-3l-1-211c-123 0-135 5-230 5V219c46 0 31 1 82 1 45 0 92-1 144-4l1-217c-85 5-147 6-210 6-47 0-96-1-155-1-74 0-195-7-350-7v216c85 4 123 5 180 5h52v901c-66-1-122-1-228-7z"/><glyph glyph-name="itilde" unicode="ĩ" d="M284 1415c216 0 235-132 325-132 50 0 80 31 86 100l177-54c-21-96-79-224-241-224-198 0-219 130-320 130-42 0-79-37-88-100l-184 78c33 93 104 202 245 202zm70-402h255c0-273 1-739 1-739 0-64 17-92 109-92 93 0 153 33 213 91l97-190C943 12 792-18 668-18c-85 0-177 14-221 38-85 47-93 127-93 186v607c-49 0-139-6-234-28L91 971c94 28 183 42 263 42z"/><glyph glyph-name="Imacron" unicode="Ī" d="M734 1625v-194h-17c-58-2-156-7-230-7s-167 1-235 3l-18 1v197l19-2c65-2 180-3 272-3 61 0 147 5 192 5h17zm-602-301c156 4 257 5 353 5 105 0 205-1 368-3l-1-211c-123 0-135 5-230 5V219c46 0 31 1 82 1 45 0 92-1 144-4l1-217c-85 5-147 6-210 6-47 0-96-1-155-1-74 0-195-7-350-7v216c85 4 123 5 180 5h52v901c-66-1-122-1-228-7z"/><glyph glyph-name="imacron" unicode="ī" d="M704 1376v-194h-17c-58-2-156-7-230-7s-167 1-235 3l-18 1v197l19-2c65-2 180-3 272-3 61 0 147 5 192 5h17zm-350-363h255c0-273 1-739 1-739 0-64 17-92 109-92 93 0 153 33 213 91l97-190C943 12 792-18 668-18c-85 0-177 14-221 38-85 47-93 127-93 186v607c-49 0-139-6-234-28L91 971c94 28 183 42 263 42z"/><glyph glyph-name="Ibreve" unicode="Ĭ" d="M503 1525c108 0 174 63 180 141l219-30c-24-177-153-294-393-294-225 0-357 78-405 303l219 30c27-117 105-150 180-150zm-371-201c156 4 257 5 353 5 105 0 205-1 368-3l-1-211c-123 0-135 5-230 5V219c46 0 31 1 82 1 45 0 92-1 144-4l1-217c-85 5-147 6-210 6-47 0-96-1-155-1-74 0-195-7-350-7v216c85 4 123 5 180 5h52v901c-66-1-122-1-228-7z"/><glyph glyph-name="ibreve" unicode="ĭ" d="M473 1263c108 0 174 63 180 141l219-30c-24-177-153-294-393-294-225 0-357 78-405 303l219 30c27-117 105-150 180-150zm-119-250h255c0-273 1-739 1-739 0-64 17-92 109-92 93 0 153 33 213 91l97-190C943 12 792-18 668-18c-85 0-177 14-221 38-85 47-93 127-93 186v607c-49 0-139-6-234-28L91 971c94 28 183 42 263 42z"/><glyph glyph-name="Iogonek" unicode="Į" d="M132 1324c156 4 257 5 353 5 105 0 205-1 368-3l-1-211c-123 0-135 5-230 5V219c46 0 31 1 82 1 45 0 92-1 144-4l1-217C602-66 488-145 488-247c0-43 56-57 120-57 58 0 98 29 128 51l124-141c-44-48-162-106-262-106-182 0-360 56-360 244 0 119 78 179 226 260-75-1-188-7-330-7v216c85 4 123 5 180 5h52v901c-66-1-122-1-228-7z"/><glyph glyph-name="iogonek" unicode="į" d="M329 1406h291v-225H329v225zm25-393h255c0-273 1-739 1-739 0-64 17-92 109-92 93 0 153 33 213 91l97-190c-2-2-4-4-7-6-257-204-395-207-395-325 0-38 56-58 120-58 58 0 98 30 128 52l124-142c-44-48-162-105-262-105-182 0-360 56-360 244 0 112 86 161 213 243-59 6-112 17-143 34-85 47-93 127-93 186v607c-49 0-139-6-234-28L91 971c94 28 183 42 263 42z"/><glyph glyph-name="Idotaccent" unicode="İ" d="M343 1672h284l2-246H344zm-211-348c156 4 257 5 353 5 105 0 205-1 368-3l-1-211c-123 0-135 5-230 5V219c46 0 31 1 82 1 45 0 92-1 144-4l1-217c-85 5-147 6-210 6-47 0-96-1-155-1-74 0-195-7-350-7v216c85 4 123 5 180 5h52v901c-66-1-122-1-228-7z"/><glyph glyph-name="IJ" unicode="Ĳ" d="M731 0C496 0 415 215 413 435l235-1c6-153 38-222 77-222 61 0 71 91 71 427 0 95-15 374-55 465-49 0-44 4-72 4-78-3-88-12-108-18l-27 212c22 7 46 19 134 22 109 0 271-1 388-1l-2-217c-36 0-22 1-72 1 23-119 57-357 57-468 0-379-38-639-308-639zM10 1324c86 4 141 5 194 5 58 0 112-1 202-3v-211l-57 5V220l55-4V-1c-47 5-80 6-115 6-26 0-53-1-85-1C163 4 96-3 11-3v216c38 3 59 5 82 5v901l-80-7z"/><glyph glyph-name="ij" unicode="ĳ" d="M168 1013h256V274c0-64 0-92 59-92 60 0 71 2 109 60l90-159C627 12 529-18 450-18c-54 0-144 14-188 38-85 47-94 127-94 186v607h-25c-24 0-32-2-107-19L6 980c94 28 82 33 162 33zM990-78c0-153-82-311-368-311-26 0-52-1-78-1-95 0-198 14-396 146L298-70c128-116 232-118 296-118h24c120 0 116 105 118 140v861h-30c-35 0-69-2-144-19l-30 186c94 28 124 33 204 33h254V-78zM694 1406h290v-225H694v225zm-550 0h292v-225H144v225z"/><glyph glyph-name="Jcircumflex" unicode="Ĵ" d="M618 1771l378-291-138-156-240 201-222-189-144 138zM414-8C139-8 24 215 22 435l260-1c6-153 60-230 126-230 118 0 164 129 164 468 0 97-17 294-29 434-49 0-67 2-104 2-104-3-116-12-143-18l-37 212c30 7 61 19 179 22 145 0 362-1 518-1l-3-217c-48 0-94 4-144 4 16-182 23-326 23-452C832 297 744-8 414-8z"/><glyph glyph-name="jcircumflex" unicode="ĵ" d="M671 1501l378-291-138-156-240 201-222-189-144 138zM842-78c0-153-81-311-367-311-123 0-279 28-405 233L234-8c86-145 155-180 218-180h18c120 0 116 105 118 140v861c-49 0-140-6-235-28l-29 186c94 28 184 42 264 42h254V-78z"/><glyph glyph-name="Kcommaaccent" unicode="Ķ" d="M686-154h270v-215c0-151-37-219-157-278L665-522c53 42 77 81 77 147h-56v221zm-98 936c120-119 407-550 458-688L810-32C764 79 558 445 428 574c0 0-56-62-86-134V-5H84v1340h258V871c103 145 427 468 464 505l196-177c-182-135-354-343-414-417z"/><glyph glyph-name="kcommaaccent" unicode="ķ" d="M706-149h270v-215c0-151-37-219-157-278L685-517c53 42 77 81 77 147h-56v221zM578 597c90 0 101 60 101 133 0 36-18 83-75 83-73 0-221-128-221-128v-59c16-3 156-29 195-29zM383 0H134v1228c0 61-10 114-23 155l244 44c9-23 28-68 28-134v-223c0-58-11-121-30-174 0 0 117 121 260 121 200 0 321-88 321-283 0-123-27-207-171-276 103-36 132-110 164-216 13-44 63-81 96-105L831-27C701 23 667 129 631 255c-40 139-227 143-246 143h-2V0z"/><glyph glyph-name="kgreenlandic" unicode="ĸ" d="M594 588c120-119 385-340 436-478L794-16C748 95 564 251 434 380c0 0-56-62-86-134V0H90v1022h258V676c103 145 476 362 528 382l142-202C812 738 654 662 594 588z"/><glyph glyph-name="Lacute" unicode="Ĺ" d="M43 1509c143 48 317 160 432 268l134-172c-111-112-333-223-476-270zM157-3v1328h254V207h428c59 3 70 6 114 21l72-197C978 15 916-3 841-3H157z"/><glyph glyph-name="lacute" unicode="ĺ" d="M92 1605c143 48 317 160 432 268l134-172c-111-112-333-223-476-270zm263-175h254c0-273 2-1156 2-1156 0-64 16-92 108-92 93 0 153 33 213 91l97-190C943 12 792-18 668-18c-85 0-176 14-220 38-85 47-93 127-93 186 0 227-1 468-1 695 0 114 0 225 1 329h-40c-57 0-142-2-217-19l-29 186c94 28 206 33 286 33z"/><glyph glyph-name="Lcommaaccent" unicode="Ļ" d="M374-125h270v-215c0-151-37-219-157-278L353-493c53 42 77 81 77 147h-56v221zM157-3v1328h254V207h428c59 3 70 6 114 21l72-197C978 15 916-3 841-3H157z"/><glyph glyph-name="lcommaaccent" unicode="ļ" d="M532-140h270v-215c0-151-37-219-157-278L511-508c53 42 77 81 77 147h-56v221zM355 1430h254c0-273 2-1156 2-1156 0-64 16-92 108-92 93 0 153 33 213 91l97-190C943 12 792-18 668-18c-85 0-176 14-220 38-85 47-93 127-93 186 0 227-1 468-1 695 0 114 0 225 1 329h-40c-57 0-142-2-217-19l-29 186c94 28 206 33 286 33z"/><glyph glyph-name="Lcaron" unicode="Ľ" d="M972 1274c-30-115-50-226-85-380l-186 22c14 145 35 290 51 395zM157-3v1328h254V207h428c59 3 70 6 114 21l72-197C978 15 916-3 841-3H157z"/><glyph glyph-name="lcaron" unicode="ľ" d="M1019 1393c-30-115-50-226-85-380l-186 22c14 145 35 290 51 395zm-664 37h254c0-273 2-1156 2-1156 0-64 16-92 108-92 93 0 153 33 213 91l97-190C943 12 792-18 668-18c-85 0-176 14-220 38-85 47-93 127-93 186 0 227-1 468-1 695 0 114 0 225 1 329h-40c-57 0-142-2-217-19l-29 186c94 28 206 33 286 33z"/><glyph glyph-name="Ldot" unicode="Ŀ" d="M613.873 834.657h257.5v-244.88h-257.5v244.88zM157-3v1328h254V207h428c59 3 70 6 114 21l72-197C978 15 916-3 841-3H157z"/><glyph glyph-name="ldot" unicode="ŀ" d="M685.873 834.657h257.5v-244.88h-257.5v244.88zM355 1430h254c0-273 2-1156 2-1156 0-64 16-92 108-92 93 0 153 33 213 91l97-190C943 12 792-18 668-18c-85 0-176 14-220 38-85 47-93 127-93 186 0 227-1 468-1 695 0 114 0 225 1 329h-40c-57 0-142-2-217-19l-29 186c94 28 206 33 286 33z"/><glyph glyph-name="Lslash" unicode="Ł" d="M267 513l-132-70L32 637l235 125v563h254V896l232 123 103-195-335-177V207h318c59 3 70 6 114 21l72-197C978 15 916-3 841-3H267v516z"/><glyph glyph-name="lslash" unicode="ł" d="M344 1430h254c0-96 1-268 1-451l238 126 103-195-341-180c0-246 1-456 1-456 0-64 16-92 108-92 93 0 153 33 213 91l97-190C932 12 781-18 657-18c-85 0-176 14-220 38-85 47-93 127-93 186v389l-124-66-103 194 227 120v387c-49 0-140-6-235-28l-29 186c94 28 184 42 264 42z"/><glyph glyph-name="Nacute" unicode="Ń" d="M369 1489c143 48 317 160 432 268l134-172c-111-112-333-223-476-270zM691 0c-90 259-237 559-371 778V570c0-299 1-418 1-573H75v1328l211-7c126-188 360-580 410-814l-7 274c0 190 3 377 12 551l244-1c-6-115-8-267-8-433 0-231 4-490 4-725 0-58-1-116-1-170H691z"/><glyph glyph-name="nacute" unicode="ń" d="M324 1221c143 48 317 160 432 268l134-172c-111-112-333-223-476-270zm14-294c56 50 190 99 300 99 164 0 300-66 300-230V278c0-66 50-88 106-118L928-40C833-10 687 64 687 222v477c0 74-15 120-82 120-63 0-169-38-254-112V0H100v706c0 178-8 204-32 298l232 48c10-24 31-76 38-125z"/><glyph glyph-name="Ncommaaccent" unicode="Ņ" d="M74-125h270v-215c0-151-37-219-157-278L53-493c53 42 77 81 77 147H74v221zM691 0c-90 259-237 559-371 778V570c0-299 1-418 1-573H75v1328l211-7c126-188 360-580 410-814l-7 274c0 190 3 377 12 551l244-1c-6-115-8-267-8-433 0-231 4-490 4-725 0-58-1-116-1-170H691z"/><glyph glyph-name="ncommaaccent" unicode="ņ" d="M758-162h270v-215c0-151-37-219-157-278L737-530c53 42 77 81 77 147h-56v221zM338 927c56 50 190 99 300 99 164 0 300-66 300-230V278c0-66 50-88 106-118L928-40C833-10 687 64 687 222v477c0 74-15 120-82 120-63 0-169-38-254-112V0H100v706c0 178-8 204-32 298l232 48c10-24 31-76 38-125z"/><glyph glyph-name="Ncaron" unicode="Ň" d="M492 1310l-366 297 144 138 222-189 240 201 138-156zM691 0c-90 259-237 559-371 778V570c0-299 1-418 1-573H75v1328l211-7c126-188 360-580 410-814l-7 274c0 190 3 377 12 551l244-1c-6-115-8-267-8-433 0-231 4-490 4-725 0-58-1-116-1-170H691z"/><glyph glyph-name="ncaron" unicode="ň" d="M552 1048l-366 297 144 138 222-189 240 201 138-156zM338 927c56 50 190 99 300 99 164 0 300-66 300-230V278c0-66 50-88 106-118L928-40C833-10 687 64 687 222v477c0 74-15 120-82 120-63 0-169-38-254-112V0H100v706c0 178-8 204-32 298l232 48c10-24 31-76 38-125z"/><glyph glyph-name="Eng" unicode="Ŋ" d="M540 1296c290 0 408-195 408-436 0-231 4-460 4-695v-34c0-256-27-527-527-527h-34v222c285 0 309 116 309 280v746c0 184-43 235-162 235-105 0-174-149-210-217V0L75-3v1062c0 115-39 200-39 200l203 60c19-39 34-71 41-148 75 75 144 125 260 125z"/><glyph glyph-name="eng" unicode="ŋ" d="M338 927c56 50 152 99 262 99 164 0 292-66 292-230V278c0-397-64-685-478-685v219c216 0 226 222 226 379l-2 508c0 74-7 120-74 120-63 0-128-38-213-112l1-707H100v706c0 178-8 204-32 298l232 48c10-24 31-76 38-125z"/><glyph glyph-name="Omacron" unicode="Ō" d="M771 1610v-194h-17c-58-2-156-7-230-7s-167 1-235 3l-18 1v197l19-2c65-2 180-3 272-3 61 0 147 5 192 5h17zm-249-260c161 0 452-73 457-703v-11c0-167-31-324-79-419C825 70 675-16 510-16c-122 0-271 41-352 143C68 239 36 395 36 579c0 352 60 511 130 608 66 92 200 160 356 163zM351 277c47-74 85-90 159-90 79 0 128 62 159 139 27 59 48 215 49 314v17c0 107-9 256-45 352-40 106-92 138-152 138-65 0-103-25-143-96-47-83-81-216-81-459 0-97 13-250 54-315z"/><glyph glyph-name="omacron" unicode="ō" d="M736 1381.4v-194h-17c-58-2-156-7-230-7s-167 1-235 3l-18 1v197l19-2c65-2 180-3 272-3 61 0 147 5 192 5h17zM625 247c47 52 60 156 60 283v16c-2 157-37 284-165 284-151 0-196-140-196-348 0-166 63-285 184-285 55 1 81 14 117 50zM507-6C197-6 72 184 72 464c0 371 141 568 433 568 197 0 307-69 377-201 41-79 59-192 59-288C941 258 845-6 509-6h-2z"/><glyph glyph-name="Obreve" unicode="Ŏ" d="M513 1536c108 0 174 63 180 141l219-30c-24-177-153-294-393-294-225 0-357 78-405 303l219 30c27-117 105-150 180-150zm9-186c161 0 452-73 457-703v-11c0-167-31-324-79-419C825 70 675-16 510-16c-122 0-271 41-352 143C68 239 36 395 36 579c0 352 60 511 130 608 66 92 200 160 356 163zM351 277c47-74 85-90 159-90 79 0 128 62 159 139 27 59 48 215 49 314v17c0 107-9 256-45 352-40 106-92 138-152 138-65 0-103-25-143-96-47-83-81-216-81-459 0-97 13-250 54-315z"/><glyph glyph-name="obreve" unicode="ŏ" d="M466 1221c108 0 174 63 180 141l219-30c-24-177-153-294-393-294-225 0-357 78-405 303l219 30c27-117 105-150 180-150zm159-974c47 52 60 156 60 283v16c-2 157-37 284-165 284-151 0-196-140-196-348 0-166 63-285 184-285 55 1 81 14 117 50zM507-6C197-6 72 184 72 464c0 371 141 568 433 568 197 0 307-69 377-201 41-79 59-192 59-288C941 258 845-6 509-6h-2z"/><glyph glyph-name="Ohungarumlaut" unicode="Ő" d="M569 1489c117 95 230 261 300 402l201-127c-65-144-236-324-354-418zm-383 7c117 95 230 261 300 402l200-127c-65-144-235-324-353-418zm336-146c161 0 452-73 457-703v-11c0-167-31-324-79-419C825 70 675-16 510-16c-122 0-271 41-352 143C68 239 36 395 36 579c0 352 60 511 130 608 66 92 200 160 356 163zM351 277c47-74 85-90 159-90 79 0 128 62 159 139 27 59 48 215 49 314v17c0 107-9 256-45 352-40 106-92 138-152 138-65 0-103-25-143-96-47-83-81-216-81-459 0-97 13-250 54-315z"/><glyph glyph-name="ohungarumlaut" unicode="ő" d="M519 1177c117 95 230 261 300 402l201-127c-65-144-236-324-354-418zm-383 7c117 95 230 261 300 402l200-127c-65-144-235-324-353-418zm489-937c47 52 60 156 60 283v16c-2 157-37 284-165 284-151 0-196-140-196-348 0-166 63-285 184-285 55 1 81 14 117 50zM507-6C197-6 72 184 72 464c0 371 141 568 433 568 197 0 307-69 377-201 41-79 59-192 59-288C941 258 845-6 509-6h-2z"/><glyph glyph-name="Racute" unicode="Ŕ" d="M283 1515c143 48 317 160 432 268l134-172c-111-112-333-223-476-270zm416-963c78-124 181-275 237-341 18-16 66-52 108-63L922-44c-58 9-118 59-152 102-97 109-264 376-320 472-36 3-73 10-117 28V0H90v1136c0 68-1 116-5 178 42 4 157 15 218 15 250 0 469-8 591-161 48-60 74-154 74-240 0-224-125-355-269-376zm7 354c0 170-116 218-310 218-26 0-34 0-63-1V768c64-27 123-42 166-42h8c170 0 199 78 199 180z"/><glyph glyph-name="racute" unicode="ŕ" d="M346.5 1223c143 48 317 160 432 268l134-172c-111-112-333-223-476-270zM404 864c75 98 179 156 340 156 167 0 272-102 272-292v-30l-252-2c1 11 2 27 2 44 0 37-10 78-66 78s-136-73-232-258V-18H216v722c0 57-48 99-110 154l148 186c61-49 116-77 150-180z"/><glyph glyph-name="Rcommaaccent" unicode="Ŗ" d="M790-178h270v-215c0-151-37-219-157-278L769-546c53 42 77 81 77 147h-56v221zm-91 730c78-124 181-275 237-341 18-16 66-52 108-63L922-44c-58 9-118 59-152 102-97 109-264 376-320 472-36 3-73 10-117 28V0H90v1136c0 68-1 116-5 178 42 4 157 15 218 15 250 0 469-8 591-161 48-60 74-154 74-240 0-224-125-355-269-376zm7 354c0 170-116 218-310 218-26 0-34 0-63-1V768c64-27 123-42 166-42h8c170 0 199 78 199 180z"/><glyph glyph-name="rcommaaccent" unicode="ŗ" d="M217.5-122h270v-215c0-151-37-219-157-278l-134 125c53 42 77 81 77 147h-56v221zM404 864c75 98 179 156 340 156 167 0 272-102 272-292v-30l-252-2c1 11 2 27 2 44 0 37-10 78-66 78s-136-73-232-258V-18H216v722c0 57-48 99-110 154l148 186c61-49 116-77 150-180z"/><glyph glyph-name="Rcaron" unicode="Ř" d="M453 1331L87 1628l144 138 222-189 240 201 138-156zm246-779c78-124 181-275 237-341 18-16 66-52 108-63L922-44c-58 9-118 59-152 102-97 109-264 376-320 472-36 3-73 10-117 28V0H90v1136c0 68-1 116-5 178 42 4 157 15 218 15 250 0 469-8 591-161 48-60 74-154 74-240 0-224-125-355-269-376zm7 354c0 170-116 218-310 218-26 0-34 0-63-1V768c64-27 123-42 166-42h8c170 0 199 78 199 180z"/><glyph glyph-name="rcaron" unicode="ř" d="M586.5 1047l-366 297 144 138 222-189 240 201 138-156zM404 864c75 98 179 156 340 156 167 0 272-102 272-292v-30l-252-2c1 11 2 27 2 44 0 37-10 78-66 78s-136-73-232-258V-18H216v722c0 57-48 99-110 154l148 186c61-49 116-77 150-180z"/><glyph glyph-name="Sacute" unicode="Ś" d="M232 1507c143 48 317 160 432 268l134-172c-111-112-333-223-476-270zm-1-805C121 752 51 844 51 1006c0 220 164 322 419 322h9c240 0 436-82 481-250L687 976c-46 101-132 142-202 142-86 0-166-36-166-104 0-98 56-122 114-144 123-48 194-57 326-118 108-53 216-158 216-356C975 96 761-9 521-9h-19C149 0 27 194 27 422l266-2c0-143 62-220 214-220 108 0 210 36 210 182 0 109-71 165-150 200-116 51-203 59-336 120z"/><glyph glyph-name="sacute" unicode="ś" d="M201 1197c143 48 317 160 432 268l134-172c-111-112-333-223-476-270zm78-648c-82 40-137 121-137 232 0 186 190 248 365 248 139 0 292-15 403-136L733 730c-54 58-127 99-223 99-82 0-114-22-114-61 0-29 6-49 34-67 256-104 500-139 500-423C930 116 786 28 679 0c-56-13-116-20-173-20C250-20 94 115 94 330h253c0-108 48-148 157-148 59 0 172 20 172 108 0 59-21 92-70 125-69 44-234 89-327 134z"/><glyph glyph-name="Scircumflex" unicode="Ŝ" d="M481 1765l378-291-138-156-240 201-222-189-144 138zM231 702C121 752 51 844 51 1006c0 220 164 322 419 322h9c240 0 436-82 481-250L687 976c-46 101-132 142-202 142-86 0-166-36-166-104 0-98 56-122 114-144 123-48 194-57 326-118 108-53 216-158 216-356C975 96 761-9 521-9h-19C149 0 27 194 27 422l266-2c0-143 62-220 214-220 108 0 210 36 210 182 0 109-71 165-150 200-116 51-203 59-336 120z"/><glyph glyph-name="scircumflex" unicode="ŝ" d="M470 1489l378-291-138-156-240 201-222-189-144 138zM279 549c-82 40-137 121-137 232 0 186 190 248 365 248 139 0 292-15 403-136L733 730c-54 58-127 99-223 99-82 0-114-22-114-61 0-29 6-49 34-67 256-104 500-139 500-423C930 116 786 28 679 0c-56-13-116-20-173-20C250-20 94 115 94 330h253c0-108 48-148 157-148 59 0 172 20 172 108 0 59-21 92-70 125-69 44-234 89-327 134z"/><glyph glyph-name="Scedilla" unicode="Ş" d="M231 702C121 752 51 844 51 1006c0 220 164 322 419 322h9c240 0 436-82 481-250L687 976c-46 101-132 142-202 142-86 0-166-36-166-104 0-98 56-122 114-144 123-48 194-57 326-118 108-53 216-158 216-356C975 142 822 28 630-1c-1-18-1-67-1-70 97-5 183-62 183-176 0-130-114-202-272-202-66 0-158 18-214 54l60 147c33-18 78-29 129-29 36 0 70 11 73 49v2c0 29-24 56-72 56s-80-3-108-13V-2C127 37 27 216 27 422l265-2c0-143 63-220 215-220 108 0 210 36 210 182 0 109-71 165-150 200-116 51-203 59-336 120z"/><glyph glyph-name="scedilla" unicode="ş" d="M249 549c-82 40-137 121-137 232 0 186 190 248 365 248 139 0 292-15 403-136L703 730c-54 58-127 99-223 99-82 0-114-22-114-61 0-29 6-49 34-67 256-104 500-139 500-423C900 116 756 28 649 0c-18-4-36-8-55-11v-71c97-5 182-62 182-176 0-130-114-202-272-202-66 0-158 18-214 54l60 147c33-18 79-29 130-29 36 0 69 11 72 49v2c0 29-23 56-71 56s-81-3-109-13v182C178 20 64 146 64 330h253c0-108 48-148 157-148 59 0 172 20 172 108 0 59-21 92-70 125-69 44-234 89-327 134z"/><glyph glyph-name="Scaron" unicode="Š" d="M490 1331l-366 297 144 138 222-189 240 201 138-156zM231 702C121 752 51 844 51 1006c0 220 164 322 419 322h9c240 0 436-82 481-250L687 976c-46 101-132 142-202 142-86 0-166-36-166-104 0-98 56-122 114-144 123-48 194-57 326-118 108-53 216-158 216-356C975 96 761-9 521-9h-19C149 0 27 194 27 422l266-2c0-143 62-220 214-220 108 0 210 36 210 182 0 109-71 165-150 200-116 51-203 59-336 120z"/><glyph glyph-name="scaron" unicode="š" d="M491 1046l-366 297 144 138 222-189 240 201 138-156zM279 549c-82 40-137 121-137 232 0 186 190 248 365 248 139 0 292-15 403-136L733 730c-54 58-127 99-223 99-82 0-114-22-114-61 0-29 6-49 34-67 256-104 500-139 500-423C930 116 786 28 679 0c-56-13-116-20-173-20C250-20 94 115 94 330h253c0-108 48-148 157-148 59 0 172 20 172 108 0 59-21 92-70 125-69 44-234 89-327 134z"/><glyph glyph-name="Tcommaaccent" unicode="Ţ" d="M355-9v1127c-198 0-240-1-316-1v207c122 0 576 1 764 1 73 0 143-9 167-16l-60-203s-52 12-112 12H615V-9h-19c0-21-1-59-1-61 97-5 183-62 183-176 0-130-114-203-272-203-66 0-158 18-214 54l60 148c33-18 78-30 129-30 36 0 70 12 73 50v2c0 29-23 55-71 55s-81-2-109-12V-9h-19z"/><glyph glyph-name="tcommaaccent" unicode="ţ" d="M388 435v-40c0-133 39-181 123-195 18-3 52-4 65-4 65 0 95 13 120 27 52 29 63 97 70 116l208-100c-10-28-64-139-176-204-42-25-93-35-151-39 0-21-1-61-1-63 97-5 183-62 183-176 0-130-114-202-272-202-66 0-158 18-214 54l60 147c33-18 78-29 129-29 36 0 70 11 73 49v2c0 29-23 56-71 56s-81-3-109-13V2C313 18 225 60 175 164c-35 72-39 147-39 233v43c2 90 4 208 9 371h-14c-28 0-56-4-82-11l-17 203c24 9 69 12 102 12h15c0 70 1 164 1 234l251-6c0-66-1-155-2-223 109-1 376-4 384-4l-3-204c-137 0-250 2-383 2-6-167-5-279-9-379z"/><glyph glyph-name="Tcaron" unicode="Ť" d="M485 1337l-366 297 144 138 222-189 240 201 138-156zM355 0v1118c-198 0-240-1-316-1v207c122 0 576 1 764 1 73 0 143-9 167-16l-60-203s-52 12-112 12H615V0H355z"/><glyph glyph-name="tcaron" unicode="ť" d="M949 1476c-30-115-50-227-85-381l-186 22c14 145 36 290 52 395zM430 436v-40c0-134 39-182 123-196 18-2 52-4 65-4 65 0 95 14 120 28 52 28 63 96 70 116l208-100c-10-28-64-140-176-204C782 2 705-6 620-6 436-6 288 16 217 164c-35 72-39 148-39 234v42c2 90 4 201 9 365h-14c-28 0-56-4-82-12L74 997c24 8 69 12 102 12h15c0 70 1 171 1 241l251-6c0-66-1-163-2-231 109 0 421-4 429-4l-3-204c-137 0-295 2-428 2-6-166-5-271-9-371z"/><glyph glyph-name="Tbar" unicode="Ŧ" d="M355 504H128v217h227v397c-198 0-240-1-316-1v207c122 0 576 1 764 1 73 0 143-9 167-16l-60-203s-52 12-112 12H615V721h209V504H615V-9H355v513z"/><glyph glyph-name="tbar" unicode="ŧ" d="M471 433v-37c0-134 39-182 123-196 18-2 52-4 65-4 65 0 95 14 120 28 52 28 63 96 70 116l208-100c-10-28-64-140-176-204C823 2 746-6 661-6 477-6 329 16 258 164c-35 72-39 148-39 234v35H20v205h203c1 49 3 104 5 167h-14c-28 0-56-4-82-12l-17 204c24 8 69 12 102 12h15c0 70 1 171 1 241l251-6c0-66-1-163-2-231 109 0 421-4 429-4l-3-204c-137 0-295 2-428 2-2-64-4-120-5-169h240V433H471z"/><glyph glyph-name="Utilde" unicode="Ũ" d="M360 1673c216 0 235-132 325-132 50 0 80 31 86 100l177-54c-21-96-79-224-241-224-198 0-219 130-320 130-42 0-79-37-88-100l-184 78c33 93 104 202 245 202zm341-323l253-28c-7-50-8-85-8-127v-29c0-148 3-278 3-391v-59c0-237-5-463-117-595C750 24 621-5 492-10 184-10 86 159 68 456c-5 77-7 201-7 339 0 175 3 373 9 534h258c-4-168-8-397-8-586V602c0-64 1-117 6-154 14-94 24-244 164-248 200 9 203 231 203 518 0 126-5 275-5 448 0 72 3 121 13 184z"/><glyph glyph-name="utilde" unicode="ũ" d="M344 1379c216 0 235-132 325-132 50 0 80 31 86 100l177-54c-21-96-79-224-241-224-198 0-219 130-320 130-42 0-79-37-88-100l-184 78c33 93 104 202 245 202zM893-17c-64 29-106 75-127 125C691 31 576 5 426 2h-9C265 2 79 53 79 229c0 82 1 179 1 275 0 216-3 431-22 488l254 28c22-92 16-356 18-722 12-67 31-92 116-92 152 7 221 85 221 212v595h251V306c2-52 67-119 118-140z"/><glyph glyph-name="Umacron" unicode="Ū" d="M744 1622v-194h-17c-58-2-156-7-230-7s-167 1-235 3l-18 1v197l19-2c65-2 180-3 272-3 61 0 147 5 192 5h17zm-43-272l253-28c-7-50-8-85-8-127v-29c0-148 3-278 3-391v-59c0-237-5-463-117-595C750 24 621-5 492-10 184-10 86 159 68 456c-5 77-7 201-7 339 0 175 3 373 9 534h258c-4-168-8-397-8-586V602c0-64 1-117 6-154 14-94 24-244 164-248 200 9 203 231 203 518 0 126-5 275-5 448 0 72 3 121 13 184z"/><glyph glyph-name="umacron" unicode="ū" d="M704 1384.5v-194h-17c-58-2-156-7-230-7s-167 1-235 3l-18 1v197l19-2c65-2 180-3 272-3 61 0 147 5 192 5h17zM893-17c-64 29-106 75-127 125C691 31 576 5 426 2h-9C265 2 79 53 79 229c0 82 1 179 1 275 0 216-3 431-22 488l254 28c22-92 16-356 18-722 12-67 31-92 116-92 152 7 221 85 221 212v595h251V306c2-52 67-119 118-140z"/><glyph glyph-name="Ubreve" unicode="Ŭ" d="M510 1527c108 0 174 63 180 141l219-30c-24-177-153-294-393-294-225 0-357 78-405 303l219 30c27-117 105-150 180-150zm191-177l253-28c-7-50-8-85-8-127v-29c0-148 3-278 3-391v-59c0-237-5-463-117-595C750 24 621-5 492-10 184-10 86 159 68 456c-5 77-7 201-7 339 0 175 3 373 9 534h258c-4-168-8-397-8-586V602c0-64 1-117 6-154 14-94 24-244 164-248 200 9 203 231 203 518 0 126-5 275-5 448 0 72 3 121 13 184z"/><glyph glyph-name="ubreve" unicode="ŭ" d="M461 1281c108 0 174 63 180 141l219-30c-24-177-153-294-393-294-225 0-357 78-405 303l219 30c27-117 105-150 180-150zM893-17c-64 29-106 75-127 125C691 31 576 5 426 2h-9C265 2 79 53 79 229c0 82 1 179 1 275 0 216-3 431-22 488l254 28c22-92 16-356 18-722 12-67 31-92 116-92 152 7 221 85 221 212v595h251V306c2-52 67-119 118-140z"/><glyph glyph-name="Uring" unicode="Ů" d="M501 1641.1c-53 0-86-31-86-62s34-63 86-63 86 32 86 63-33 62-86 62zm-275-62c0 116 128 204 276 204s275-88 275-204c0-115-115-195-275-195-153 0-276 81-276 195zM701 1350l253-28c-7-50-8-85-8-127v-29c0-148 3-278 3-391v-59c0-237-5-463-117-595C750 24 621-5 492-10 184-10 86 159 68 456c-5 77-7 201-7 339 0 175 3 373 9 534h258c-4-168-8-397-8-586V602c0-64 1-117 6-154 14-94 24-244 164-248 200 9 203 231 203 518 0 126-5 275-5 448 0 72 3 121 13 184z"/><glyph glyph-name="uring" unicode="ů" d="M446 1341c-53 0-86-31-86-62s34-63 86-63 86 32 86 63-33 62-86 62zm-275-62c0 116 128 204 276 204s275-88 275-204c0-115-115-195-275-195-153 0-276 81-276 195zM893-17c-64 29-106 75-127 125C691 31 576 5 426 2h-9C265 2 79 53 79 229c0 82 1 179 1 275 0 216-3 431-22 488l254 28c22-92 16-356 18-722 12-67 31-92 116-92 152 7 221 85 221 212v595h251V306c2-52 67-119 118-140z"/><glyph glyph-name="Uhungarumlaut" unicode="Ű" d="M517 1470c117 95 230 261 300 402l201-127c-65-144-236-324-354-418zm-383 7c117 95 230 261 300 402l200-127c-65-144-235-324-353-418zm567-127l253-28c-7-50-8-85-8-127v-29c0-148 3-278 3-391v-59c0-237-5-463-117-595C750 24 621-5 492-10 184-10 86 159 68 456c-5 77-7 201-7 339 0 175 3 373 9 534h258c-4-168-8-397-8-586V602c0-64 1-117 6-154 14-94 24-244 164-248 200 9 203 231 203 518 0 126-5 275-5 448 0 72 3 121 13 184z"/><glyph glyph-name="uhungarumlaut" unicode="ű" d="M547 1192c117 95 230 261 300 402l201-127c-65-144-236-324-354-418zm-383 7c117 95 230 261 300 402l200-127c-65-144-235-324-353-418zM893-17c-64 29-106 75-127 125C691 31 576 5 426 2h-9C265 2 79 53 79 229c0 82 1 179 1 275 0 216-3 431-22 488l254 28c22-92 16-356 18-722 12-67 31-92 116-92 152 7 221 85 221 212v595h251V306c2-52 67-119 118-140z"/><glyph glyph-name="Uogonek" unicode="Ų" d="M701 1350l253-28c-7-50-8-85-8-127v-29c0-148 3-278 3-391v-59c0-237-5-463-117-595C690-47 510-130 510-250c0-43 56-57 120-57 58 0 98 29 128 51l124-141c-44-48-162-106-262-106-182 0-360 56-360 244 0 112 60 170 153 253C167 22 84 186 68 456c-5 77-7 201-7 339 0 175 3 373 9 534h258c-4-168-8-397-8-586V602c0-64 1-117 6-154 14-94 24-244 164-248 200 9 203 231 203 518 0 126-5 275-5 448 0 72 3 121 13 184z"/><glyph glyph-name="uogonek" unicode="ų" d="M754 108C679 31 547 5 397 2h-9C236 2 50 53 50 229c0 82 1 179 1 275 0 216-3 431-22 488l248 28c22-92 16-356 18-722 12-67 31-92 116-92 152 7 238 85 238 212l1 603h257l-1-715c2-52 67-119 118-140-218-321-436-314-436-416 0-43 56-57 120-57 58 0 98 29 128 51l124-141c-44-48-162-106-262-106-182 0-360 56-360 244 0 198 273 187 416 367z"/><glyph glyph-name="Wcircumflex" unicode="Ŵ" d="M487 1792l378-291-138-156-240 201-222-189-144 138zM395 0H154C111 173 58 1056 12 1312l236 29c26-193 28-291 31-355 11-246 9-574 19-670 0 0 119 600 125 672 21 0 53-3 86-3 39 0 81 4 110 19 29-218 120-685 120-685 17 139 12 407 27 643 4 65 1 192 38 381l224-38C976 1049 901 182 868 0H622s-70 397-102 585C473 355 400 12 395 0z"/><glyph glyph-name="wcircumflex" unicode="ŵ" d="M497 1503l378-291-138-156-240 201-222-189-144 138zM17 984l249 72c70-208 68-396 69-568v-31c0-94-17-216-28-248 120 4 158 90 158 254v372l161 1s5-78 5-243c0-96-2-222-7-379h5c137 0 142 199 142 399v48c0 56-1 110-1 158 0 72-13 194-13 194h246c2-32 2-53 2-97v-87c0-153-1-361-42-550C927 115 799 0 580 0h-34s-18 66-24 153C488 81 392-12 195-12h-6c-46 1-52 6-66 12-10 82 3 521-60 835-11 54-23 108-46 149z"/><glyph glyph-name="Ycircumflex" unicode="Ŷ" d="M483 1816l378-291-138-156-240 201-222-189-144 138zM368 0v138c0 92 7 354 7 475-79 113-310 501-361 609l219 141c40-79 191-371 278-511 98 142 215 435 253 524l228-136c-47-96-297-538-367-638 0-48-2-97-2-152-3-135-5-279-5-322V0H368z"/><glyph glyph-name="ycircumflex" unicode="ŷ" d="M501 1503l378-291-138-156-240 201-222-189-144 138zM352-174c89 0 157 150 177 244-210 480-331 681-428 681-20 0-34 0-44-1l-1 261s42 2 76 2c192 0 341-266 517-672 74 217 59 445 67 672h256c0-60 0-122-2-174-15-323-142-708-324-1013-103-173-187-202-334-202C98-376 46-173 42 0h236c0-114 26-174 74-174z"/><glyph glyph-name="Ydieresis" unicode="Ÿ" d="M556 1675l282-3v-240l-282 3v240zm-420 0h279v-240H136v240zM368 0v138c0 92 7 354 7 475-79 113-310 501-361 609l219 141c40-79 191-371 278-511 98 142 215 435 253 524l228-136c-47-96-297-538-367-638 0-48-2-97-2-152-3-135-5-279-5-322V0H368z"/><glyph glyph-name="Zacute" unicode="Ź" d="M287 1501c143 48 317 160 432 268l134-172c-111-112-333-223-476-270zM123 0L28 136l644 983c-214 0-469-5-583-5l-1 210c120 0 542 4 730 4 75 0 121-13 140-16v-7c0-39 16-145 16-179v-8L396 217l354-1c85 0 112 5 177 26l71-215C953 11 884 0 809 0H123z"/><glyph glyph-name="zacute" unicode="ź" d="M265 1207c143 48 317 160 432 268l134-172c-111-112-333-223-476-270zM93 815l31 202c46-5 157-6 281-6 186 0 402 3 472 5l77-190c-33-33-500-442-552-629l400 6h6c54 0 103-13 162-32L926-22C881-9 865 0 800 0H71v20c0 73 5 123 22 169 79 214 307 453 507 617-68-1-101-3-202-3-125 0-248 3-305 12z"/><glyph glyph-name="Zdotaccent" unicode="Ż" d="M404 1664h284l2-246H405zM123 0L28 136l644 983c-214 0-469-5-583-5l-1 210c120 0 542 4 730 4 75 0 121-13 140-16v-7c0-39 16-145 16-179v-8L396 217l354-1c85 0 112 5 177 26l71-215C953 11 884 0 809 0H123z"/><glyph glyph-name="zdotaccent" unicode="ż" d="M353 1429.1h284l2-245.5H354zM93 815l31 202c46-5 157-6 281-6 186 0 402 3 472 5l77-190c-33-33-500-442-552-629l400 6h6c54 0 103-13 162-32L926-22C881-9 865 0 800 0H71v20c0 73 5 123 22 169 79 214 307 453 507 617-68-1-101-3-202-3-125 0-248 3-305 12z"/><glyph glyph-name="Zcaron" unicode="Ž" d="M521 1352l-366 297 144 138 222-189 240 201 138-156zM123 0L28 136l644 983c-214 0-469-5-583-5l-1 210c120 0 542 4 730 4 75 0 121-13 140-16v-7c0-39 16-145 16-179v-8L396 217l354-1c85 0 112 5 177 26l71-215C953 11 884 0 809 0H123z"/><glyph glyph-name="zcaron" unicode="ž" d="M547 1043l-366 297 144 138 222-189 240 201 138-156zM93 815l31 202c46-5 157-6 281-6 186 0 402 3 472 5l77-190c-33-33-500-442-552-629l400 6h6c54 0 103-13 162-32L926-22C881-9 865 0 800 0H71v20c0 73 5 123 22 169 79 214 307 453 507 617-68-1-101-3-202-3-125 0-248 3-305 12z"/><glyph glyph-name="longs" unicode="ſ" d="M848 1206c-27 9-86 11-125 11-132 0-143-74-143-134 0-27 1-71 1-71V0H324v807H131v205h193v52c0 130 66 354 382 354 61 0 140-4 188-14z"/><glyph glyph-name="Euro" unicode="€" d="M794 866l-62-184h-12c-57-2-88-6-164-6H438c0-23-2-45-2-67v-25c30-1 34-1 72-1 86 0 76 1 165 2h26l-64-193-193 2c9-158 66-212 124-212h18c66 0 146 27 194 133l201-159C859 0 768-31 581-31c-79 0-205 28-289 138-66 85-99 165-118 287-27 1-51 2-75 2-29 0-57-1-90-2 12 54 30 128 55 189 40 0 78 1 96 1v48s0 30 1 44c-80 1-112 1-160 5 23 56 49 145 68 189 28-3 56-3 111-4 19 112 38 166 72 242 82 179 247 235 346 235 108 0 222-31 314-134l-94-259c-54 103-120 175-217 175-93 0-147-85-156-261h186c52 2 87 4 129 4z"/><glyph glyph-name="uniE000" unicode="" d="M76 491c59 112 122 153 186 153 104 0 199-100 257-100 23 0 47 16 70 80l9 26 104-104-7-14c-55-102-115-142-176-142-104 0-192 96-250 96-27 0-50-11-75-77l-8-22-119 88z"/><glyph glyph-name="uniE001" unicode="" d="M406-11C275-5 219 154 219 299v4c0 77 17 158 52 221 58 104 132 137 201 140h8c36 0 65-12 84-23-9 165-18 253-102 253-59 0-66-34-122-167l-8-18-104 61 6 17c55 176 130 254 228 257 41 0 99-19 140-77 42-60 80-162 80-304V229c3-74 8-72 27-96 1-2 5-5 8-7 10 6 16 23 22 43 32 98 35 217 35 346 0 385-139 676-318 676-178 0-310-290-310-676s140-677 310-677c60 0 118 33 168 90l12 15 77-96-11-13c-63-73-160-146-246-146C209-312 23 68 23 515s186 828 433 828 432-381 432-828c0-151-22-293-58-417-9-27-41-124-108-124h-5l-1 1c-19 5-48 16-68 41h-1c-12 18-38 43-51 94-23-30-43-45-72-72-32-27-73-49-118-49zm-1 152c26 0 54 14 71 29 65 59 78 129 89 164 0 33-1 99-1 118-31 43-61 61-92 61h-3c-55-2-121-98-121-203v-5c3-104 34-164 57-164z"/><glyph glyph-name="uniE002" unicode="" d="M800 703V231c3-72 22-105 54-133l17-15-95-79-11 16c-13 19-38 43-51 93-23-30-43-45-72-72-32-27-72-50-118-50-135 7-209 242-209 387v44c0 74 4 178 53 289 50 112 135 140 203 143h6c43 0 81-19 103-33-2 33-3 61-5 82-9 128-20 295-166 295-157 0-296-293-296-680 0-386 140-678 310-678 60 0 118 34 168 91l12 15 76-96-10-13c-63-73-160-147-246-147C276-310 90 71 90 518c0 446 172 833 419 833 265 0 291-355 291-648zM524 144c26 0 53 14 70 29 65 59 78 128 89 163v285c-32 44-87 81-116 81-100 0-123-204-123-327v-15c3-104 59-216 80-216z"/><glyph glyph-name="gravecomb" unicode="̀" d="M759 1441l-90-174c-143 47-365 158-476 270l134 172c115-108 289-220 432-268z"/><glyph glyph-name="acutecomb" unicode="́" d="M199 1441c143 48 317 160 432 268l134-172c-111-112-333-223-476-270z"/><glyph glyph-name="uni0302" unicode="̂" d="M519 1699l378-291-138-156-240 201-222-189-144 138z"/><glyph glyph-name="tildecomb" unicode="̃" d="M339 1686c216 0 235-132 325-132 50 0 80 31 86 100l177-54c-21-96-79-224-241-224-198 0-219 130-320 130-42 0-79-37-88-100l-184 78c33 93 104 202 245 202z"/><glyph glyph-name="uni0304" unicode="̄" d="M738 1657v-194h-17c-58-2-156-7-230-7s-167 1-235 3l-18 1v197l19-2c65-2 180-3 272-3 61 0 147 5 192 5h17z"/><glyph glyph-name="uni0305" unicode="̅" d="M879 1658v-201l-792 1v203z"/><glyph glyph-name="uni0306" unicode="̆" d="M510 1508c108 0 174 63 180 141l219-30c-24-177-153-294-393-294-225 0-357 78-405 303l219 30c27-117 105-150 180-150z"/><glyph glyph-name="uni0308" unicode="̈" d="M566 1654l282-3v-240l-282 3v240zm-420 0h279v-240H146v240z"/><glyph glyph-name="uni0307" unicode="̇" d="M310 1671h284l2-246H311z"/><glyph glyph-name="uni030A" unicode="̊" d="M521 1535c-53 0-86-31-86-62s34-63 86-63 86 32 86 63-33 62-86 62zm-275-62c0 116 128 204 276 204s275-88 275-204c0-115-115-195-275-195-153 0-276 81-276 195z"/><glyph glyph-name="uni0237" unicode="ȷ" d="M842-78c0-153-81-311-367-311-123 0-279 28-405 233L234-8c86-145 155-180 218-180h18c120 0 116 105 118 140v861c-49 0-140-6-235-28l-29 186c94 28 184 42 264 42h254V-78z"/><glyph glyph-name="uni030B" unicode="̋" d="M471 1286c117 95 230 261 300 402l201-127c-65-144-236-324-354-418zm-383 7c117 95 230 261 300 402l200-127c-65-144-235-324-353-418z"/><glyph glyph-name="uni030C" unicode="̌" d="M522 1206l-366 297 144 138 222-189 240 201 138-156z"/><glyph glyph-name="uni030F" unicode="̏" d="M578 1313l-148-143c-118 94-288 274-353 418l201 127c70-141 183-307 300-402zm383 7l-147-142c-118 94-289 274-354 418l201 126c70-141 183-307 300-402z"/><glyph glyph-name="hookabovecomb" unicode="̉"/><glyph glyph-name="uni030D" unicode="̍"/><glyph glyph-name="uni030E" unicode="̎"/><glyph glyph-name="uni0191" unicode="Ƒ" d="M405 78c-6-186-74-381-406-381v264C103-39 131-8 139 85v1239h685c102 0 147-17 181-34l-78-203c-26 14-48 27-146 28h-71c-104 0-127 0-310-1V856c120 0 82 2 204 2 90 0 157-18 197-36l-68-202c-37 17-87 22-132 22h-85c-30 0-51 0-116-2 0-101 4-404 5-562z"/><glyph glyph-name="florin" unicode="ƒ" d="M545 126c-4-246-131-466-451-466l2 244c142 0 188 66 192 234v669H146v205h142v52c0 130 66 354 382 354 196 0 276-50 354-205l-212-97c-26 82-63 101-124 101-132 0-144-74-144-134 0-27 2-71 2-71h184c105 0 146-12 176-21l-44-197c-21 7-42 13-98 13H544z"/><glyph glyph-name="alpha" unicode="α" d="M850 493c24-77 31-133 63-230 19-58 51-84 117-110L928-32C800 0 744 87 726 147c-7 23-14 46-21 68C640 67 567-7 436-7 148-7 53 259 53 527c0 367 189 491 364 491 165 0 251-95 299-251 31 99 48 177 84 270l220-70c-65-126-118-306-170-474zm-544 31c0-319 119-325 130-325h8c53 0 93 127 133 296-46 216-77 320-150 320-49 0-121-85-121-291z"/><glyph glyph-name="beta" unicode="β" d="M338 112V39c0-124-4-242-12-339L90-283c10 100 14 209 14 320 0 187-10 792-10 966 0 156 112 325 310 325 204 0 424-54 424-318 0-178-92-208-126-231 168-30 300-143 300-397C1002 50 858 0 614 0h-8C478 0 428 39 338 112zm278 87c122 0 140 92 140 188 0 183-148 247-350 247v207c140 0 176 42 176 162 0 55-44 119-140 119-60 0-96-39-96-129 0-100 4-353 4-595 98-175 202-199 266-199z"/><glyph glyph-name="gamma" unicode="γ" d="M469-376c0 107-3 366-21 444-57 247-186 515-280 672-35 59-50 64-62 71-15 9-36 9-61 9-5 0-10-1-15-1v222c33 0 72-1 100-5 63-10 138-26 198-119 97-152 190-365 260-566 74 217 208 710 208 710l228-75S816 387 720 15c6-82 7-190 7-306v-88z"/><glyph glyph-name="delta" unicode="δ" d="M515 748c-165-32-182-192-182-279 0-103 34-271 193-271 169 0 169 231 169 308 0 59-54 173-180 242zm429-244C944 244 848 1 526 1h-2C252 2 82 184 82 464c0 191 77 360 193 390-45 22-61 40-88 61-46 37-106 112-106 188 0 238 191 276 401 276 124 0 263-28 384-57l-42-211c-133 37-254 71-350 71-87 0-149-6-149-53 0-28 43-50 75-66 265-129 544-225 544-559z"/><glyph glyph-name="epsilon" unicode="ε" d="M1037 138C966 85 796-4 573-4 391-4 298 14 223 73c-77 61-120 163-120 228 0 130 58 247 210 283-153 17-211 107-211 205 0 184 232 235 454 235h13c233 0 347-61 365-73l-68-176c-24 15-163 50-308 50-115 0-188-12-188-64 0-72 218-96 317-96h30V468c-26 0-52 1-78 1-201 0-270-51-270-163 0-49 48-113 229-113 168 0 275 56 326 102z"/><glyph glyph-name="zeta" unicode="ζ" d="M204 1414c40-42 76-62 156-62 166 0 476 6 608 24l82-200C910 978 396 846 396 504c0-183 52-289 144-289 4 0 172 1 176 1 206 0 294-125 294-282 0-231-258-271-348-281l-36 198c84 13 162 34 162 72 0 74-52 77-140 77H490C288 0 138 177 138 504c0 357 264 487 508 660-130-7-138-9-266-9-114 0-232 20-310 119z"/><glyph glyph-name="eta" unicode="η" d="M953 296l1-357c0-66 14-203 32-251l-238-62c-18 79-47 144-47 306v278l-1 507c0 74-25 102-92 102-63 0-162-38-247-112l1-707H110v706c0 178-8 204-32 298l232 48c10-24 31-76 38-125 56 50 186 99 296 99 164 0 309-48 309-212V296z"/><glyph glyph-name="theta" unicode="θ" d="M351 277c47-74 85-90 159-90 79 0 128 62 159 139 21 46 38 149 45 240h-48c-86 0-192-3-368-17 3-94 17-216 53-272zm171 1073c161 0 452-73 457-703v-11c0-167-31-324-79-419C825 70 675-16 510-16c-122 0-271 41-352 143C68 239 36 395 36 579c0 352 60 511 130 608 66 92 200 160 356 163zm191-562c-5 79-17 161-40 221-40 106-92 138-152 138-65 0-103-25-143-96-34-59-61-144-73-277 134 12 250 14 349 14h59z"/><glyph glyph-name="iota" unicode="ι" d="M364 1013h255c0-273 1-717 1-717 0-64 34-112 92-112 45 0 130 68 148 152l180-98C1010 98 906-18 678-18c-85 0-177 14-221 38-85 47-93 127-93 186v607c-49 0-139-6-234-28l-29 186c94 28 183 42 263 42z"/><glyph glyph-name="kappa" unicode="κ" d="M594 588c120-119 385-340 436-478L794-16C748 95 564 251 434 380c0 0-56-62-86-134V0H90v1022h258V676c103 145 476 362 528 382l142-202C812 738 654 662 594 588z"/><glyph glyph-name="lambda" unicode="λ" d="M230-12L16 86c72 134 297 530 394 878-38 106-72 214-105 214-52 0-62-38-62-76l-211 2c0 213 125 285 284 285 149 0 241-90 279-198 55-178 180-610 229-783 18-65 45-164 93-164 26 0 45 12 45 12l82-196C970 10 952 0 850 0 684 0 621 252 601 332c-20 81-42 171-77 298C424 356 376 255 230-12z"/><glyph glyph-name="mu" unicode="μ" d="M314 8l-4-406-250 3 5 624c0 82 1 179 1 275 0 216-3 431-22 488l248 28c22-92 16-356 18-722 12-67 31-92 116-92 198 0 222 164 223 212l1 582h257l-1-694c2-52 67-119 118-140L881-17c-64 29-106 75-127 125C679 31 562 5 412 2h-9c-29 0-59 2-89 6z"/><glyph glyph-name="nu" unicode="ν" d="M219 1054c170-283 261-546 329-803 171 121 207 237 207 453 0 142-46 220-66 268l237 82c57-100 85-214 85-328C1011 190 685-8 352-8c0 258-219 749-345 932z"/><glyph glyph-name="xi" unicode="ξ" d="M200 1428c40-42 86-76 168-76 164 0 356 6 488 24l86-199c-82-74-394-131-394-213 0-93 106-106 256-106V661c-264-66-446-157-446-322 0-36 38-124 188-124 2 0 172 1 174 1 166 0 294-82 294-282 0-214-224-269-346-281l-36 198c84 13 160 32 160 72 0 56-26 77-114 77H494C294 0 100 58 100 325c0 252 218 391 334 427-42 11-152 47-152 215 0 90 76 158 168 194 0 0-58-6-88-6-116 0-214 27-290 109z"/><glyph glyph-name="omicron" unicode="ο" d="M625 247c47 52 60 156 60 283v16c-2 157-37 284-165 284-151 0-196-140-196-348 0-166 63-285 184-285 55 1 81 14 117 50zM507-6C197-6 72 184 72 464c0 371 141 568 433 568 197 0 307-69 377-201 41-79 59-192 59-288C941 258 845-6 509-6h-2z"/><glyph glyph-name="pi" unicode="π" d="M814 1020c41 0 56 18 80 68l150-74c-32-74-55-192-187-192h-31c18-45 25-103 25-235V316c0-51 18-79 40-79 25 0 42 3 60 22l99-174c-30-42-71-85-198-85-131 0-256 59-256 267v316c0 172-19 193-42 239l-121-1V215c0-73-8-171-22-228L158 21c18 68 19 125 19 198v595c-46-9-69-17-102-44L22 956c50 32 148 63 248 63 0 0 332 1 544 1z"/><glyph glyph-name="rho" unicode="ρ" d="M703 517v15c-1 152-44 286-179 286-98 0-184-84-184-285 0-209 99-341 198-341 136 0 165 159 165 325zm-601 45c0 292 179 470 441 470 197 0 307-69 377-201 41-79 59-192 59-288C979 258 902-6 580-6h-2C441-6 393 17 327 96c24-78 25-158 25-195 0-131 38-217 63-278l-255-61c-28 62-60 229-60 368z"/><glyph glyph-name="sigma1" unicode="ς" d="M383 528c0-216 92-302 169-306 3 0 171-9 174-9 166-9 283-79 283-279 0-214-224-269-347-281l-36 198c84 13 161 32 161 72 0 56-27 72-115 77-7 0-13 1-20 1-4 0-159 9-163 9-64 3-140 24-192 63-130 101-170 255-170 454 0 340 178 491 493 491 95 0 192-19 255-61 60-40 106-99 128-151L783 704c-10 38-41 103-181 103-147 0-219-136-219-279z"/><glyph glyph-name="sigma" unicode="σ" d="M900 814c35-78 51-182 51-271C951 258 855-6 519-6h-2C207-6 82 184 82 464c0 368 138 565 425 568h8c127 0 470-11 521-20l-8-208c-30 5-76 8-128 10zM635 247c47 52 60 156 60 283v16c-2 128-19 194-67 282 0 0-75 2-98 2-151 0-196-140-196-348 0-166 63-285 184-285 55 1 81 14 117 50z"/><glyph glyph-name="tau" unicode="τ" d="M570 1020h426V823l-304 2h-52c-9-204-9-285-13-385v-40c0-162 47-183 88-183 57 0 73 26 101 102l198-86C994 177 914-3 717-3 454-3 369 109 369 397v43c4 104 4 193 10 386-20-1-103-2-103-2-70-1-87-13-137-45L30 933c50 44 145 86 241 86z"/><glyph glyph-name="upsilon" unicode="υ" d="M92 364v183c0 204-1 392-22 456l262 29c17-72 18-254 18-459V455c0-120 29-250 127-250 58 0 118 23 173 104 58 86 62 122 62 360 0 92-44 211-70 294l252 86c62-96 84-293 84-359v-49c0-191-27-338-200-518C715 57 595-4 432-4 239-4 92 165 92 364z"/><glyph glyph-name="phi" unicode="φ" d="M630-11c2-204 3-366 4-387l-244 2c-2 21-2 185-2 388-92 17-171 66-232 141C66 243 36 389 36 569c0 228 55 410 148 491l188-120c-81-84-110-175-110-367 0-145 48-344 126-374v441c0 315 153 400 297 400 139 0 333-30 333-408v-11c0-164-26-349-74-442C880 56 762 9 630-11zm-2 207c134 33 160 209 162 428v19c0 169-33 192-103 192h-1c-38 0-60-12-60-191 0-142 1-275 2-448z"/><glyph glyph-name="chi" unicode="χ" d="M394 372S280 653 206 754c-43 58-98 68-176 68v219h68c103 0 166-8 246-107 104-129 172-358 172-358 93 201 232 481 232 481l194-98S795 650 634 317c61-172 196-487 250-487 12 0 16 4 22 20l144-100c-6-38-56-148-158-148-205 0-326 360-382 476L282-401 66-287z"/><glyph glyph-name="psi" unicode="ψ" d="M48 366v183c0 204-3 392-24 456l224 27c17-72 20-254 20-459V446c0-162 44-248 120-248 1 284 5 495 5 729v93h237V875c0-236-2-400-3-663 135 39 168 268 168 526 0 92-26 177-58 247l232 61c36-84 60-231 60-297v-49c0-191-5-423-178-603-46-48-99-68-224-89v-132c0-115-1-171-6-272l-238 1c4 62 5 105 5 160 0 47-1 103-1 189v42h-5C162-4 48 167 48 366z"/><glyph glyph-name="omega" unicode="ω" d="M399 684l232 19c-2-85-1-179-2-272 1-8 1-17 1-26 2-181 7-205 36-205 77 0 117 70 117 220 0 213-17 395-102 527l232 92c108-181 110-457 110-598 0-223-67-453-312-453-114 0-164 32-189 116-29-72-61-114-195-114C101-10 33 220 33 444c0 168 14 422 124 605l222-100c-81-127-114-274-114-481 0-169 38-272 92-272 42 0 44 91 44 199v29c-1 106 0 160-2 260z"/><glyph glyph-name="iotadieresis" unicode="ϊ" d="M537 1427.4l282-3v-240l-282 3v240zm-420 0h279v-240H117v240zM364 1013h255c0-273 1-717 1-717 0-64 34-112 92-112 45 0 130 68 148 152l180-98C1010 98 906-18 678-18c-85 0-177 14-221 38-85 47-93 127-93 186v607c-49 0-139-6-234-28l-29 186c94 28 183 42 263 42z"/><glyph glyph-name="upsilondieresis" unicode="ϋ" d="M550 1426.8l282-3v-240l-282 3v240zm-420 0h279v-240H130v240zM92 364v183c0 204-1 392-22 456l262 29c17-72 18-254 18-459V455c0-120 29-250 127-250 58 0 118 23 173 104 58 86 62 122 62 360 0 92-44 211-70 294l252 86c62-96 84-293 84-359v-49c0-191-27-338-200-518C715 57 595-4 432-4 239-4 92 165 92 364z"/><glyph glyph-name="Alpha" unicode="Α" d="M651 504c-26 143-125 340-126 494-6-168-99-373-137-512 60 13 180 13 263 18zm-233 821h224L976 244c24-81 50-165 50-244H750c0 59-10 114-25 167l-32 114c-152-3-237 1-357-29l-30-90c-20-61-37-119-40-162H6c4 61 28 143 54 223z"/><glyph glyph-name="Beta" unicode="Β" d="M66 837c0 177-3 341-12 471 81 6 223 17 336 17h18c222 0 381-91 381-311 0-144-52-190-127-231 163-45 307-149 307-375C969 106 793 23 626 3c-39-5-80-8-119-8-74 0-132 5-217 5H58c0 198 8 413 8 837zm465 175c0 108-86 111-109 111h-20c-39 0-56-2-86-5 3-35 3-73 3-114 0-54-1-112-1-170h38c73 0 175 12 175 170v8zm-52-374c-49 0-46-2-119-2h-44c-2-242-3-360-4-438 49-3 88-6 126-6 30 0 60 2 95 6 32 4 178 40 178 222 0 172-112 218-232 218z"/><glyph glyph-name="Gamma" unicode="Γ" d="M149 1328h683c75 0 137-18 184-34l-71-197c-44 15-56 18-115 21H403V0H149v1328z"/><glyph glyph-name="Epsilon" unicode="Ε" d="M102 1319c56 4 126 4 204 4h208c149 0 285-3 359-3h16v-202H360V849h338V646H360v-31c0-207-2-332-2-411l416 2c56 0 125 27 125 27l72-199C923 21 882 0 784 0H102v1319z"/><glyph glyph-name="Zeta" unicode="Ζ" d="M123 0L28 136l644 983c-214 0-469-5-583-5l-1 210c120 0 542 4 730 4 75 0 121-13 140-16v-7c0-39 16-145 16-179v-8L396 217l354-1c85 0 112 5 177 26l71-215C953 11 884 0 809 0H123z"/><glyph glyph-name="Eta" unicode="Η" d="M317 1322l-1-537c92 21 152 29 272 29h87c0 280-1 338-1 503h256V0H675v599h-32c-146 0-209-3-327-29 0-350 2-385 2-570H60v1320z"/><glyph glyph-name="Theta" unicode="Θ" d="M539 1350c166 0 467-73 472-703v-11c0-167-32-324-81-419C852 70 697-16 526-16c-126 0-280 41-364 143C69 239 36 395 36 579c0 352 62 511 134 608 69 92 207 160 369 163zM362 277c48-74 88-90 164-90 82 0 133 62 165 139 28 59 49 215 51 314v17c0 107-10 256-47 352-41 106-95 138-157 138-68 0-107-25-148-96-49-83-84-216-84-459 0-97 13-250 56-315zm2 541h320V615H364v203z"/><glyph glyph-name="Iota" unicode="Ι" d="M132 1324c156 4 257 5 353 5 105 0 205-1 368-3l-1-211c-123 0-135 5-230 5V219c46 0 31 1 82 1 45 0 92-1 144-4l1-217c-85 5-147 6-210 6-47 0-96-1-155-1-74 0-195-7-350-7v216c85 4 123 5 180 5h52v901c-66-1-122-1-228-7z"/><glyph glyph-name="Kappa" unicode="Κ" d="M588 782c120-119 407-550 458-688L810-32C764 79 558 445 428 574c0 0-56-62-86-134V-5H84v1340h258V871c103 145 427 468 464 505l196-177c-182-135-354-343-414-417z"/><glyph glyph-name="Mu" unicode="Μ" d="M62 1323h204c76-114 174-303 236-489 54 182 147 356 228 489h216c0-398 2-1323 2-1323H701l-2 596c0 104 25 302 25 302-63-123-133-310-144-347l-150-2S328 817 280 898c0 0 32-189 32-302V0H62v1323z"/><glyph glyph-name="Nu" unicode="Ν" d="M691 0c-90 259-237 559-371 778V570c0-299 1-418 1-573H75v1328l211-7c126-188 360-580 410-814l-7 274c0 190 3 377 12 551l244-1c-6-115-8-267-8-433 0-231 4-490 4-725 0-58-1-116-1-170H691z"/><glyph glyph-name="Omicron" unicode="Ο" d="M522 1350c161 0 452-73 457-703v-11c0-167-31-324-79-419C825 70 675-16 510-16c-122 0-271 41-352 143C68 239 36 395 36 579c0 352 60 511 130 608 66 92 200 160 356 163zM351 277c47-74 85-90 159-90 79 0 128 62 159 139 27 59 48 215 49 314v17c0 107-9 256-45 352-40 106-92 138-152 138-65 0-103-25-143-96-47-83-81-216-81-459 0-97 13-250 54-315z"/><glyph glyph-name="Rho" unicode="Ρ" d="M714 909c0 204-117 208-199 208h-9c-61 0-105-4-150-5v-71c0-187-2-392-2-392 36-1 71-2 104-2 116 0 256 29 256 262zM354 0H104v1320c118 0 156 8 289 8 225 0 396-13 511-154 54-66 72-158 72-250 0-324-124-485-468-485-48 0-100 1-154 3V0z"/><glyph glyph-name="Tau" unicode="Τ" d="M355 0v1118c-198 0-240-1-316-1v207c122 0 576 1 764 1 73 0 143-9 167-16l-60-203s-52 12-112 12H615V0H355z"/><glyph glyph-name="Upsilon" unicode="Υ" d="M368 0v138c0 92 7 354 7 475-79 113-310 501-361 609l219 141c40-79 191-371 278-511 98 142 215 435 253 524l228-136c-47-96-297-538-367-638 0-48-2-97-2-152-3-135-5-279-5-322V0H368z"/><glyph glyph-name="Chi" unicode="Χ" d="M794 1367l192-116-336-557c171-272 218-437 360-577L842-45C690 105 666 207 514 454L230-54 20 78l346 592C246 878 140 1059 0 1218l194 158c130-149 213-307 316-482z"/><glyph glyph-name="Delta" unicode="Δ" d="M698 199c-30 152-181 648-182 799-6-166-167-655-207-799h389zM149 0L-9 38l419 1287h223L1012 42 875 0H149z"/><glyph glyph-name="Lambda" unicode="Λ" d="M379 486L235-27-9 38l419 1287h223L1012 42 753-21 628 504c-26 143-111 340-112 494-6-168-99-373-137-512z"/><glyph glyph-name="Xi" unicode="Ξ" d="M312 849h377V646H312v203zM93 1319c56 4 126 4 204 4h209c149 0 285-3 359-3h15v-202H90zm0-1118l673 2c56 0 124 27 124 27l73-199C915 18 873-3 775-3H93v204z"/><glyph glyph-name="Pi" unicode="Π" d="M385 0H130v1087c-29-4-56-9-86-15L1 1266c92 21 210 30 330 30h676v-196H904V378c0-127 10-252 24-369L678-4c-19 121-28 259-28 388v716H507c-44 0-82 0-120-1z"/><glyph glyph-name="Sigma" unicode="Σ" d="M534 658L59 1134l117 188c23 2 41 2 60 2 29 0 60-1 107-1h209c148 0 284-3 359-3h15v-202H421l390-392-7-160-376-365c127 1 256 1 384 2 56 0 124 27 124 27l73-199C961 18 919-3 821-3L176 0 59 183z"/><glyph glyph-name="Phi" unicode="Φ" d="M364 420v584c-5-4-10-8-15-13-63-58-108-151-108-322 0-68 26-169 77-216 13-13 29-24 46-33zm287-8c36 18 65 43 86 71 36 41 64 151 65 220v12c0 75-17 175-65 242-26 37-56 62-88 78 1-171 2-320 2-575v-48zM365 214c-81 17-157 47-208 94C63 394 12 514 12 656c0 271 79 394 153 469 43 44 113 81 199 103v206h284v-192c170-28 380-139 384-533v-9c0-129-46-250-96-323-59-85-163-144-285-168-1-74-2-128-6-209L360 1c4 68 5 114 5 174v39z"/><glyph glyph-name="Psi" unicode="Ψ" d="M46 839v182c0 189-2 321-24 391l251 29c18-78 20-200 20-391V923c0-164 5-267 140-267 2 240 5 455 5 669v102l235 1v-158c0-197-1-383-3-614 135 0 139 116 139 465-1 100-5 209-14 294l257 18c10-89 14-199 14-271v-37c0-383-6-682-385-682-2-153-4-305-7-443H425c4 68 5 239 5 299v141C157 440 46 638 46 839z"/><glyph glyph-name="Omega" unicode="Ω" d="M405 1H29l-2 216h175C103 345 10 483 10 676c0 376 75 481 149 585 69 98 199 181 380 181 248 0 508-98 508-698v-12c0-271-127-407-221-515l83 1c59 0 123 28 123 28l46-213c-49-14-85-33-161-33H629l-47 211c55 61 203 233 203 523v53c0 101-2 197-38 289-44 113-138 149-205 149-72 0-135-30-179-105-52-88-86-177-86-437 0-209 124-435 185-468z"/><glyph glyph-name="tonos" unicode="΄" d="M326 1334c95 117 119 189 158 342l236-54c-33-154-116-284-211-400z"/><glyph glyph-name="alphatonos" unicode="ά" d="M294 1219c95 117 119 189 158 342l236-54c-33-154-116-284-211-400zm550-726c24-77 31-133 63-230 19-58 51-84 117-110L922-32C794 0 738 87 720 147c-7 23-14 46-21 68C634 67 561-7 430-7 142-7 47 259 47 527c0 367 189 491 364 491 165 0 251-95 299-251 31 99 48 177 84 270l220-70c-65-126-118-306-170-474zm-544 31c0-319 119-325 130-325h8c53 0 93 127 133 296-46 216-77 320-150 320-49 0-121-85-121-291z"/><glyph glyph-name="Iotadieresis" unicode="Ϊ" d="M589 1755l282-3v-240l-282 3v240zm-420 0h279v-240H169v240zm-37-431c156 4 257 5 353 5 105 0 205-1 368-3l-1-211c-123 0-135 5-230 5V219c46 0 31 1 82 1 45 0 92-1 144-4l1-217c-85 5-147 6-210 6-47 0-96-1-155-1-74 0-195-7-350-7v216c85 4 123 5 180 5h52v901c-66-1-122-1-228-7z"/><glyph glyph-name="Upsilondieresis" unicode="Ϋ" d="M534 1766l282-3v-240l-282 3v240zm-420 0h279v-240H114v240zM368 0v138c0 92 7 354 7 475-79 113-310 501-361 609l219 141c40-79 191-371 278-511 98 142 215 435 253 524l228-136c-47-96-297-538-367-638 0-48-2-97-2-152-3-135-5-279-5-322V0H368z"/><glyph glyph-name="epsilontonos" unicode="έ" d="M367 1227c95 117 119 189 158 342l236-54c-33-154-116-284-211-400zm635-1089C931 85 761-4 538-4 356-4 263 14 188 73 111 134 68 236 68 301c0 130 58 247 210 283C125 601 67 691 67 789c0 184 232 235 454 235h13c233 0 347-61 365-73l-68-176c-24 15-163 50-308 50-115 0-188-12-188-64 0-72 218-96 317-96h30V468c-26 0-52 1-78 1-201 0-270-51-270-163 0-49 48-113 229-113 168 0 275 56 326 102z"/><glyph glyph-name="etatonos" unicode="ή" d="M372 1210c95 117 119 189 158 342l236-54c-33-154-116-284-211-400zm584-914l1-357c0-66 14-203 32-251l-238-62c-18 79-47 144-47 306v278l-1 507c0 74-25 102-92 102-63 0-162-38-247-112l1-707H113v706c0 178-8 204-32 298l232 48c10-24 31-76 38-125 56 50 186 99 296 99 164 0 309-48 309-212V296z"/><glyph glyph-name="iotatonos" unicode="ί" d="M322 1224c95 117 119 189 158 342l236-54c-33-154-116-284-211-400zm6-211h255c0-273 1-717 1-717 0-64 34-112 92-112 45 0 130 68 148 152l180-98C974 98 870-18 642-18c-85 0-177 14-221 38-85 47-93 127-93 186v607c-49 0-139-6-234-28L65 971c94 28 183 42 263 42z"/><glyph glyph-name="upsilondieresistonos" unicode="ΰ" d="M372.03 1452.66c88.014 107.662 110.25 173.916 146.382 314.706l218.647-49.69c-30.575-141.71-107.472-261.335-195.486-368.077zM585 1386.27l282-2.56v-204.884l-282 2.56v204.884zm-420 0h279v-204.883H165v204.883zM103 364v183c0 204-1 392-22 456l262 29c17-72 18-254 18-459V455c0-120 29-250 127-250 58 0 118 23 173 104 58 86 62 122 62 360 0 92-44 211-70 294l252 86c62-96 84-293 84-359v-49c0-191-27-338-200-518C726 57 606-4 443-4 250-4 103 165 103 364z"/><glyph glyph-name="omicrontonos" unicode="ό" d="M306 1208c95 117 119 189 158 342l236-54c-33-154-116-284-211-400zm319-961c47 52 60 156 60 283v16c-2 157-37 284-165 284-151 0-196-140-196-348 0-166 63-285 184-285 55 1 81 14 117 50zM507-6C197-6 72 184 72 464c0 371 141 568 433 568 197 0 307-69 377-201 41-79 59-192 59-288C941 258 845-6 509-6h-2z"/><glyph glyph-name="upsilontonos" unicode="ύ" d="M334 1204c95 117 119 189 158 342l236-54c-33-154-116-284-211-400zM92 364v183c0 204-1 392-22 456l262 29c17-72 18-254 18-459V455c0-120 29-250 127-250 58 0 118 23 173 104 58 86 62 122 62 360 0 92-44 211-70 294l252 86c62-96 84-293 84-359v-49c0-191-27-338-200-518C715 57 595-4 432-4 239-4 92 165 92 364z"/><glyph glyph-name="omegatonos" unicode="ώ" d="M357 1142c95 117 119 189 158 342l236-54c-33-154-116-284-211-400zm42-458l232 19c-2-85-1-179-2-272 1-8 1-17 1-26 2-181 7-205 36-205 77 0 117 70 117 220 0 213-17 395-102 527l232 92c108-181 110-457 110-598 0-223-67-453-312-453-114 0-164 32-189 116-29-72-61-114-195-114C101-10 33 220 33 444c0 168 14 422 124 605l222-100c-81-127-114-274-114-481 0-169 38-272 92-272 42 0 44 91 44 199v29c-1 106 0 160-2 260z"/><glyph glyph-name="Upsilontonos" unicode="Ύ" d="M-21.783 1309c73.79 117 92.432 189 122.726 342l183.31-54c-25.632-154-90.1-284-163.892-400zM528.3 0v138c0 92 6.036 354 6.036 475-68.116 113-267.29 501-311.265 609l188.83 141c34.488-79 164.686-371 239.7-511 84.497 142 185.378 435 218.144 524l196.588-136c-40.524-96-256.082-538-316.438-638 0-48-1.724-97-1.724-152-2.586-135-4.31-279-4.31-322V0H528.3z"/><glyph glyph-name="Omegatonos" unicode="Ώ" d="M-25.86 1305c67.647 117 84.737 189 112.51 342l168.05-54c-23.497-154-82.6-284-150.248-400zM468.788 1H122.693l-1.84 216h161.08c-91.126 128-176.73 266-176.73 459 0 376 69.035 481 137.15 585 63.512 98 183.172 181 349.775 181 228.275 0 467.596-98 467.596-698v-12c0-271-116.898-407-203.423-515l76.4 1c54.307 0 113.218 28 113.218 28l42.34-213c-45.102-14-78.24-33-148.194-33H674.972l-43.263 211c50.625 61 186.853 233 186.853 523v53c0 101-1.84 197-34.977 289-40.5 113-127.024 149-188.695 149-66.273 0-124.262-30-164.762-105-47.865-88-79.16-177-79.16-437 0-209 114.138-435 170.285-468z"/><glyph glyph-name="iotadieresistonos" unicode="ΐ" d="M300.03 1459.26c88.014 107.662 110.25 173.916 146.382 314.706l218.647-49.69c-30.575-141.71-107.472-261.335-195.486-368.077zM513 1392.87l282-2.56v-204.884l-282 2.56v204.884zm-420 0h279v-204.883H93v204.883zM328 1013h255c0-273 1-717 1-717 0-64 34-112 92-112 45 0 130 68 148 152l180-98C974 98 870-18 642-18c-85 0-177 14-221 38-85 47-93 127-93 186v607c-49 0-139-6-234-28L65 971c94 28 183 42 263 42z"/><glyph glyph-name="Omicrontonos" unicode="Ό" d="M-14.83 1306c74.066 117 92.778 189 123.185 342l184-54c-25.73-154-90.44-284-164.508-400zm599.245 44c153.108 0 429.846-73 434.6-703v-11c0-167-29.48-324-75.127-419C872.564 70 729.916-16 573.003-16c-116.02 0-257.718 41-334.747 143-85.59 112-116.02 268-116.02 452 0 352 57.06 511 123.627 608 62.766 92 190.197 160 338.552 163zM421.795 277c44.697-74 80.835-90 151.208-90 75.128 0 121.727 62 151.207 139 25.677 59 45.647 215 46.598 314v17c0 107-8.56 256-42.794 352-38.04 106-87.49 138-144.55 138-61.815 0-97.952-25-135.99-96-44.697-83-77.03-216-77.03-459-.002-97 12.362-250 51.352-315z"/><glyph glyph-name="Epsilontonos" unicode="Έ" d="M-87.532 1309c75.903 117 95.08 189 126.24 342l188.56-54c-26.367-154-92.683-284-168.586-400zm359.766 10c49.54 4 111.466 4 180.468 4H636.71c131.81 0 252.124-3 317.588-3h14.154v-202h-467.98V849h299.012V646h-299.01v-31c0-207-1.77-332-1.77-411l368.014 2c49.54 0 110.58 27 110.58 27l63.695-199C998.53 21 962.26 0 875.563 0h-603.33v1319z"/><glyph glyph-name="Etatonos" unicode="Ή" d="M-14.028 1345c74.594 117 93.437 189 124.06 342l185.306-54c-25.91-154-91.082-284-165.675-400zm498.592-23l-.9-537c82.876 21 136.926 29 245.026 29h78.372c0 280-.9 338-.9 503h230.612V0H807.06v599h-28.825c-131.52 0-188.274-3-294.573-29 0-350 1.802-385 1.802-570H253.05v1320z"/><glyph glyph-name="Iotatonos" unicode="Ί" d="M11.146 1327c79.597 117 99.706 189 132.383 342l197.736-54c-27.65-154-97.193-284-176.79-400zM309 1324c156 4 257 5 353 5 105 0 205-1 368-3l-1-211c-123 0-135 5-230 5V219c46 0 31 1 82 1 45 0 92-1 144-4l1-217c-85 5-147 6-210 6-47 0-96-1-155-1-74 0-195-7-350-7v216c85 4 123 5 180 5h52v901c-66-1-122-1-228-7z"/><glyph glyph-name="Alphatonos" unicode="Ά" d="M29 1301c95 117 119 189 158 342l236-54c-33-154-116-284-211-400zm622-797c-26 143-125 340-126 494-6-168-99-373-137-512 60 13 180 13 263 18zm-233 821h224L976 244c24-81 50-165 50-244H750c0 59-10 114-25 167l-32 114c-152-3-237 1-357-29l-30-90c-20-61-37-119-40-162H6c4 61 28 143 54 223z"/><glyph glyph-name="dieresistonos" unicode="΅" d="M329.03 1388.54c88.014 107.662 110.25 173.916 146.382 314.706l218.647-49.69c-30.575-141.71-107.472-261.335-195.486-368.077zM542 1322.15l282-2.56v-204.884l-282 2.56v204.884zm-420 0h279v-204.883H122v204.883z"/><glyph glyph-name="anoteleia" unicode="·" d="M428 700h315V387H428v313z"/><glyph glyph-name="uni03D0" unicode="ϐ" d="M79 736c0 420 121 592 345 592 183 0 386-70 386-317 0-102-34-195-130-232 172-27 306-149 306-398C986 106 885 0 553 0 135 0 79 332 79 736zm249 102c159 0 238 16 238 167 0 79-68 115-142 115-58 0-96-112-96-282zm3-219c0-304 119-417 237-417 148 0 170 59 170 193 0 162-143 237-279 237-33 0-80-3-128-13z"/><glyph glyph-name="theta1" unicode="ϑ" d="M746 786c-17 207-9 354-209 354-123 0-235-91-235-213 0-114 84-135 196-135 180 0 197-1 248-6zM61 922c0 243 182 428 471 428 161 0 465-73 470-703v-11c0-167-44-324-92-419C835 70 685-16 520-16c-122 0-271 41-352 143C98 214 50 375 34 508l257 50c8-84 31-224 62-274 37-60 87-97 167-97 85 0 139 62 172 139 22 45 41 146 49 236-26 1-55 2-85 2-316 0-595 34-595 358z"/><glyph glyph-name="Upsilon1" unicode="ϒ" d="M512 1020c63 145 165 356 331 356 178 0 201-118 201-300v-6l-191-32c-2 42-5 97-6 110-18-13-198-241-198-502V0H388v637c0 181-162 476-361 525l69 243c198-42 362-243 416-385z"/><glyph glyph-name="uni03D3" unicode="ϓ" d="M-52.04 1293c73.134 117 91.61 189 121.633 342l181.677-54c-25.404-154-89.3-284-162.432-400zm660.554-273c53.957 145 141.317 356 283.49 356 152.453 0 172.152-118 172.152-300v-6l-163.587-32c-1.714 42-4.283 97-5.14 110-15.416-13-169.58-241-169.58-502V0H502.31v637c0 181-138.748 476-309.186 525l59.097 243c169.582-42 310.043-243 356.293-385z"/><glyph glyph-name="uni03D4" unicode="ϔ" d="M572 1695l282-3v-240l-282 3v240zm-420 0h279v-240H152v240zm360-675c63 145 165 356 331 356 178 0 201-118 201-300v-6l-191-32c-2 42-5 97-6 110-18-13-198-241-198-502V0H388v637c0 181-162 476-361 525l69 243c198-42 362-243 416-385z"/><glyph glyph-name="phi1" unicode="ϕ" d="M373 794c-93-54-125-167-125-312 0-116 44-208 130-254-1 177-3 378-5 566zm6-789C120 49 12 223 12 464c0 315 117 504 359 554-1 102-1 193-1 265v93h271v-145c0-60 0-131 1-208 150-22 243-87 307-192 47-79 69-192 69-288 0-249-85-482-365-537v-48c0-115-1-171-6-272l-272 1c4 62 5 105 5 160 0 41-1 89-1 158zm304 242c68 52 86 156 86 283v16c-2 118-31 219-124 262 3-193 6-402 7-580 10 6 20 12 31 19z"/><glyph glyph-name="omega1" unicode="ϖ" d="M35 1018c56 4 139 4 217 4h208c149 0 477-4 551-4h16V821h-82c53-138 78-280 78-380 0-223-67-453-312-453-114 0-164 32-189 116-29-72-61-114-195-114C101-10 33 220 33 444c0 116 24 247 75 377H37zm364-334l232 19c-2-85-1-179-2-272 1-8 1-17 1-26 2-181 7-205 36-205 77 0 117 70 117 220 0 157-36 289-89 401H358c-52-96-93-205-93-353 0-169 38-272 92-272 42 0 44 91 44 199v29c-1 106 0 160-2 260z"/><glyph glyph-name="uni03D7" unicode="ϗ" d="M21 838s77 182 303 182c168 0 232-96 232-242 0-66-16-123-38-169 0 0 63 66 126 117l17 14c34 140 99 281 235 281 108 0 134-76 134-142 0-110-147-211-249-291-29-77-37-152-37-242v-10c0-68 1-137 39-137 32 0 71 38 103 88l144-96v-22c0-45 1-88 1-128 0-257-25-406-391-406l2 187c203 0 214 22 214 204v10C829 16 794 0 737 0c-96 0-233 13-233 193 0 98 22 176 44 222-47-34-55-38-118-89l-14-13C370 171 270 1 133 1h-1C68 1 22 48 22 138c0 156 108 214 210 294 29 77 83 204 83 294 0 93-19 98-46 98s-69-55-110-120z"/><glyph glyph-name="uni03CF" unicode="Ϗ" d="M75-5v1340h258V871c103 145 427 468 464 505l196-177c-182-135-354-343-414-417 120-119 402-550 453-688-4-225-35-458-407-458v177c162 0 177 62 177 155-46 111-253 477-383 606 0 0-56-62-86-134V-5H75z"/><glyph glyph-name="uni03D8" unicode="Ϙ" d="M334 284c37-60 88-97 168-97 86 0 138 62 171 139 30 59 53 215 54 314v17c0 107-15 249-54 345-43 106-95 145-160 145-70 0-111-25-154-96-50-83-88-216-88-459 0-97 22-241 63-308zm179 1066c161 0 466-73 471-703v-11c0-167-45-324-93-419C835 108 737 31 623 0v-316H377V-3c-88 19-173 61-227 130C60 239 11 395 11 579c0 352 76 511 146 608 66 92 200 160 356 163z"/><glyph glyph-name="uni03D9" unicode="ϙ" d="M380 9C170 59 82 230 82 464c0 371 141 568 433 568 197 0 307-69 377-201 41-79 59-192 59-288 0-252-75-488-325-539v-319H380V9zm255 238c47 52 60 156 60 283v16c-2 157-37 284-165 284-151 0-196-140-196-348 0-166 63-285 184-285 55 1 81 14 117 50z"/><glyph glyph-name="uni03DB" unicode="ϛ" d="M446-3c-40 7-134 32-195 76C117 169 81 328 81 527c0 340 178 491 493 491 144 0 233 3 328 3 32 0 64 0 99-1l2-218c-25 4-143 5-261 5H556c-147 0-219-136-219-279 0-274 133-316 192-331C789 130 950 76 950-95c0-129-96-283-392-285l-24 198c114 14 184 30 184 83 0 72-184 81-272 96z"/><glyph glyph-name="uni03DA" unicode="Ϛ" d="M484 187c243-50 435-81 435-282 0-129-96-283-392-285l-24 198c114 14 185 30 185 83 0 72-189 79-273 96C155 58 48 320 48 636c0 259 80 418 132 496 72 108 209 200 384 200 126 0 208-9 358-9h54l3-213c-133 14-336 18-422 18-115 0-247-136-247-500 0-256 77-421 174-441z"/><glyph glyph-name="uni03DC" unicode="Ϝ" d="M380.1 0L100.8 3.27v1439.89h719.25c107.1 0 154.35-18.53 190.05-37.06l-81.9-221.27c-27.3 15.26-50.4 29.43-153.3 30.52h-73.5c-109.2 0-134.4 0-326.55-1.09V933.04c126 0 86.1 2.178 214.2 2.178 94.5 0 164.85-19.62 206.85-39.24L724.5 675.8c-38.85 18.53-91.35 23.98-138.6 23.98h-89.25c-31.5 0-53.55 0-121.8-2.18 0-134.07 5.25-594.05 5.25-697.6z"/><glyph glyph-name="uni03DD" unicode="ϝ" d="M574 150c0-253-54-497-430-497-30 0-62 1-96 5L60-99c28-4 54-6 78-6 124 0 178 97 178 255v914c0 130 66 354 382 354 196 0 222-15 311-61l-91-194c-73 45-112 54-202 54-132 0-144-74-144-134 0-27 2-71 2-71h184c105 0 146-12 176-21l-44-197c-21 7-42 13-98 13H572z"/><glyph glyph-name="uni0190" unicode="Ɛ" d="M990 158C919 105 778 0 520 0 338 0 244 34 163 106 71 189 36 289 36 390c0 178 84 304 236 340C160 766 90 877 90 985c0 195 175 312 465 312h13c233 0 339-63 413-104l-111-171c-72 42-168 86-313 86-120 0-214-48-214-123 0-112 151-150 262-150h23V629c-26 0-52 1-78 1-192 0-259-81-259-242 0-113 49-201 230-201 191 0 297 84 348 130z"/><glyph glyph-name="uni01CD" unicode="Ǎ" d="M546 1370l-366 297 144 138 222-189 240 201 138-156zm105-866c-26 143-125 340-126 494-6-168-99-373-137-512 60 13 180 13 263 18zm-233 821h224L976 244c24-81 50-165 50-244H750c0 59-10 114-25 167l-32 114c-152-3-237 1-357-29l-30-90c-20-61-37-119-40-162H6c4 61 28 143 54 223z"/><glyph glyph-name="uni01CE" unicode="ǎ" d="M484 1142l-366 297 144 138 222-189 240 201 138-156zM318 317c0-98 69-128 133-128 110 0 192 102 210 158v47c-36 42-104 76-168 76-66 0-175-43-175-153zm587-1c0-92 19-144 76-189L868-22c-52 40-86 51-128 123C664 23 582-11 400-11 229-11 65 120 65 302c0 90 30 177 89 238 95 97 197 130 339 130 64 0 130-21 168-47 0 166-116 197-176 197-115 0-209-33-283-111L82 901c190 124 233 124 411 127 225 0 412-135 412-373V316z"/><glyph glyph-name="uni01CF" unicode="Ǐ" d="M505 1405l-366 297 144 138 222-189 240 201 138-156zm-373-81c156 4 257 5 353 5 105 0 205-1 368-3l-1-211c-123 0-135 5-230 5V219c46 0 31 1 82 1 45 0 92-1 144-4l1-217c-85 5-147 6-210 6-47 0-96-1-155-1-74 0-195-7-350-7v216c85 4 123 5 180 5h52v901c-66-1-122-1-228-7z"/><glyph glyph-name="uni01D0" unicode="ǐ" d="M468 1142l-366 297 144 138 222-189 240 201 138-156zm-114-129h255c0-273 1-739 1-739 0-64 17-92 109-92 93 0 153 33 213 91l97-190C943 12 792-18 668-18c-85 0-177 14-221 38-85 47-93 127-93 186v607c-49 0-139-6-234-28L91 971c94 28 183 42 263 42z"/><glyph glyph-name="uni01D1" unicode="Ǒ" d="M537 1418l-366 297 144 138 222-189 240 201 138-156zm-15-68c161 0 452-73 457-703v-11c0-167-31-324-79-419C825 70 675-16 510-16c-122 0-271 41-352 143C68 239 36 395 36 579c0 352 60 511 130 608 66 92 200 160 356 163zM351 277c47-74 85-90 159-90 79 0 128 62 159 139 27 59 48 215 49 314v17c0 107-9 256-45 352-40 106-92 138-152 138-65 0-103-25-143-96-47-83-81-216-81-459 0-97 13-250 54-315z"/><glyph glyph-name="uni01D2" unicode="ǒ" d="M476 1142l-366 297 144 138 222-189 240 201 138-156zm149-895c47 52 60 156 60 283v16c-2 157-37 284-165 284-151 0-196-140-196-348 0-166 63-285 184-285 55 1 81 14 117 50zM507-6C197-6 72 184 72 464c0 371 141 568 433 568 197 0 307-69 377-201 41-79 59-192 59-288C941 258 845-6 509-6h-2z"/><glyph glyph-name="uni01D3" unicode="Ǔ" d="M469 1474l-366 297 144 138 222-189 240 201 138-156zm232-124l253-28c-7-50-8-85-8-127v-29c0-148 3-278 3-391v-59c0-237-5-463-117-595C750 24 621-5 492-10 184-10 86 159 68 456c-5 77-7 201-7 339 0 175 3 373 9 534h258c-4-168-8-397-8-586V602c0-64 1-117 6-154 14-94 24-244 164-248 200 9 203 231 203 518 0 126-5 275-5 448 0 72 3 121 13 184z"/><glyph glyph-name="uni01D4" unicode="ǔ" d="M474 1073l-366 297 144 138 222-189 240 201 138-156zM893-17c-64 29-106 75-127 125C691 31 576 5 426 2h-9C265 2 79 53 79 229c0 82 1 179 1 275 0 216-3 431-22 488l254 28c22-92 16-356 18-722 12-67 31-92 116-92 152 7 221 85 221 212v595h251V306c2-52 67-119 118-140z"/><glyph glyph-name="uni01D5" unicode="Ǖ" d="M766 2023v-194h-17c-58-2-156-7-230-7s-167 1-235 3l-18 1v197l19-2c65-2 180-3 272-3 61 0 147 5 192 5h17zm-180-327l282-3v-240l-282 3v240zm-420 0h279v-240H166v240zm535-346l253-28c-7-50-8-85-8-127v-29c0-148 3-278 3-391v-59c0-237-5-463-117-595C750 24 621-5 492-10 184-10 86 159 68 456c-5 77-7 201-7 339 0 175 3 373 9 534h258c-4-168-8-397-8-586V602c0-64 1-117 6-154 14-94 24-244 164-248 200 9 203 231 203 518 0 126-5 275-5 448 0 72 3 121 13 184z"/><glyph glyph-name="uni01D6" unicode="ǖ" d="M715 1677v-194h-17c-58-2-156-7-230-7s-167 1-235 3l-18 1v197l19-2c65-2 180-3 272-3 61 0 147 5 192 5h17zm-178-249.5l282-3v-240l-282 3v240zm-420 0h279v-240H117v240zM893-17c-64 29-106 75-127 125C691 31 576 5 426 2h-9C265 2 79 53 79 229c0 82 1 179 1 275 0 216-3 431-22 488l254 28c22-92 16-356 18-722 12-67 31-92 116-92 152 7 221 85 221 212v595h251V306c2-52 67-119 118-140z"/><glyph glyph-name="uni01D7" unicode="Ǘ" d="M234 1921c143 48 317 160 432 268l134-172c-111-112-333-223-476-270zm352-225l282-3v-240l-282 3v240zm-420 0h279v-240H166v240zm535-346l253-28c-7-50-8-85-8-127v-29c0-148 3-278 3-391v-59c0-237-5-463-117-595C750 24 621-5 492-10 184-10 86 159 68 456c-5 77-7 201-7 339 0 175 3 373 9 534h258c-4-168-8-397-8-586V602c0-64 1-117 6-154 14-94 24-244 164-248 200 9 203 231 203 518 0 126-5 275-5 448 0 72 3 121 13 184z"/><glyph glyph-name="uni01D8" unicode="ǘ" d="M196 1603c143 48 317 160 432 268l134-172c-111-112-333-223-476-270zm341-175.5l282-3v-240l-282 3v240zm-420 0h279v-240H117v240zM893-17c-64 29-106 75-127 125C691 31 576 5 426 2h-9C265 2 79 53 79 229c0 82 1 179 1 275 0 216-3 431-22 488l254 28c22-92 16-356 18-722 12-67 31-92 116-92 152 7 221 85 221 212v595h251V306c2-52 67-119 118-140z"/><glyph glyph-name="uni01D9" unicode="Ǚ" d="M506 1746l-366 297 144 138 222-189 240 201 138-156zm80-50l282-3v-240l-282 3v240zm-420 0h279v-240H166v240zm535-346l253-28c-7-50-8-85-8-127v-29c0-148 3-278 3-391v-59c0-237-5-463-117-595C750 24 621-5 492-10 184-10 86 159 68 456c-5 77-7 201-7 339 0 175 3 373 9 534h258c-4-168-8-397-8-586V602c0-64 1-117 6-154 14-94 24-244 164-248 200 9 203 231 203 518 0 126-5 275-5 448 0 72 3 121 13 184z"/><glyph glyph-name="uni01DA" unicode="ǚ" d="M454 1404L88 1701l144 138 222-189 240 201 138-156zm83 23.5l282-3v-240l-282 3v240zm-420 0h279v-240H117v240zM893-17c-64 29-106 75-127 125C691 31 576 5 426 2h-9C265 2 79 53 79 229c0 82 1 179 1 275 0 216-3 431-22 488l254 28c22-92 16-356 18-722 12-67 31-92 116-92 152 7 221 85 221 212v595h251V306c2-52 67-119 118-140z"/><glyph glyph-name="uni01DB" unicode="Ǜ" d="M774 1913l-90-174c-143 47-365 158-476 270l134 172c115-108 289-220 432-268zm-188-217l282-3v-240l-282 3v240zm-420 0h279v-240H166v240zm535-346l253-28c-7-50-8-85-8-127v-29c0-148 3-278 3-391v-59c0-237-5-463-117-595C750 24 621-5 492-10 184-10 86 159 68 456c-5 77-7 201-7 339 0 175 3 373 9 534h258c-4-168-8-397-8-586V602c0-64 1-117 6-154 14-94 24-244 164-248 200 9 203 231 203 518 0 126-5 275-5 448 0 72 3 121 13 184z"/><glyph glyph-name="uni01DC" unicode="ǜ" d="M744 1613l-90-174c-143 47-365 158-476 270l134 172c115-108 289-220 432-268zm-207-185.5l282-3v-240l-282 3v240zm-420 0h279v-240H117v240zM893-17c-64 29-106 75-127 125C691 31 576 5 426 2h-9C265 2 79 53 79 229c0 82 1 179 1 275 0 216-3 431-22 488l254 28c22-92 16-356 18-722 12-67 31-92 116-92 152 7 221 85 221 212v595h251V306c2-52 67-119 118-140z"/><glyph glyph-name="uni01DE" unicode="Ǟ" d="M782 1967v-194h-17c-58-2-156-7-230-7s-167 1-235 3l-18 1v197l19-2c65-2 180-3 272-3 61 0 147 5 192 5h17zm-182-316l282-3v-240l-282 3v240zm-420 0h279v-240H180v240zM651 504c-26 143-125 340-126 494-6-168-99-373-137-512 60 13 180 13 263 18zm-233 821h224L976 244c24-81 50-165 50-244H750c0 59-10 114-25 167l-32 114c-152-3-237 1-357-29l-30-90c-20-61-37-119-40-162H6c4 61 28 143 54 223z"/><glyph glyph-name="uni01DF" unicode="ǟ" d="M717 1687v-194h-17c-58-2-156-7-230-7s-167 1-235 3l-18 1v197l19-2c65-2 180-3 272-3 61 0 147 5 192 5h17zm-164-262l282-3v-240l-282 3v240zm-420 0h279v-240H133v240zM318 317c0-98 69-128 133-128 110 0 192 102 210 158v47c-36 42-104 76-168 76-66 0-175-43-175-153zm587-1c0-92 19-144 76-189L868-22c-52 40-86 51-128 123C664 23 582-11 400-11 229-11 65 120 65 302c0 90 30 177 89 238 95 97 197 130 339 130 64 0 130-21 168-47 0 166-116 197-176 197-115 0-209-33-283-111L82 901c190 124 233 124 411 127 225 0 412-135 412-373V316z"/><glyph glyph-name="uni01E2" unicode="Ǣ" d="M709 1747v-194h-17c-58-2-156-7-230-7s-167 1-235 3l-18 1v197l19-2c65-2 180-3 272-3 61 0 147 5 192 5h17zM1008 32C961 7 896-5 821-5H479c-11 155-20 272-33 424-18 2-33 3-47 3-28 0-51-4-85-12L234 0 0 45c95 386 177 849 272 1278l145-3c43 2 97 2 157 2h385v-206h-17c-83 0-71-2-194-2H606l24-268c51 1 40 4 125 4h106V642H755c-82 0-64-3-109-4l48-435h157c61 0 99 25 99 25zM429 631l-31 366-69-372c29 3 49 6 100 6z"/><glyph glyph-name="uni01E3" unicode="ǣ" d="M735 1379v-194h-17c-58-2-156-7-230-7s-167 1-235 3l-18 1v197l19-2c65-2 180-3 272-3 61 0 147 5 192 5h17zm-87-704v-21c38 0 100 0 144 6-6 104-31 148-90 148-40 0-54-48-54-133zM256 322c0-108 28-160 66-160 90 0 85 137 96 165v147c-43 25-50 34-104 34-33 0-58-85-58-186zM722 0C564 0 526 75 505 97 475 63 415 4 312 4c-63 0-128 15-182 53C49 114 23 211 23 309c0 167 64 352 268 352 77 0 89-16 127-32 0 97-5 179-111 179h-9c-53 0-71-20-100-106L0 784c70 186 182 234 300 234 56 0 102-3 163-50 19-16 38-40 50-59 17 26 76 109 178 109 201 0 299-222 307-448V454c-98-4-236-7-318-7h-32l-2-173c16-42 27-66 66-66 75 0 88 36 94 82l190-72S947 0 722 0z"/><glyph glyph-name="Gcaron" unicode="Ǧ" d="M503 1474l-366 297 144 138 222-189 240 201 138-156zm358-702c46 0 89 3 131 7V586C992 142 869 50 691 3 646-7 582-8 540-8 176-8 20 286 20 641c0 242 53 439 184 569 100 90 214 118 329 118h20c214-5 362-91 437-257L756 955c-36 118-84 166-216 166-168 0-259-202-259-491 0-264 77-432 249-432s198 176 198 370l-64-1c-71 0-140-5-230-39l-40 203c96 37 200 43 301 43 56 0 112-2 166-2z"/><glyph glyph-name="gcaron" unicode="ǧ" d="M476 1068l-366 297 144 138 222-189 240 201 138-156zm65-1252c62 0 193 70 193 168 0 41-22 74-136 74l-267-1c-23-30-23-86-23-130 0-62 74-111 143-111h90zm104 910c0 86-75 96-161 96-88 0-157-30-157-105 0-90 68-118 158-118 118 0 160 52 160 127zm225 93s21-22 21-103c0-176-104-317-384-317h-3c-75 0-133 7-147 13-19-22-30-49-30-79 0-35 23-85 129-85h179c153 0 349-46 349-247 0-223-216-385-389-385H440C236-384 80-293 80-78c0 101 34 174 87 221-47 35-87 114-87 200 0 101 39 149 76 190-39 50-76 87-76 161 0 235 161 332 415 332 100 0 196-14 272-61 49 46 104 61 220 61V822c-12 2-31 5-41 5-34 0-52-2-76-8z"/><glyph glyph-name="uni01E8" unicode="Ǩ" d="M471 1478l-366 297 144 138 222-189 240 201 138-156zm117-696c120-119 407-550 458-688L810-32C764 79 558 445 428 574c0 0-56-62-86-134V-5H84v1340h258V871c103 145 427 468 464 505l196-177c-182-135-354-343-414-417z"/><glyph glyph-name="uni01E9" unicode="ǩ" d="M264 1422l-366 297 144 138 222-189 240 201 138-156zm314-825c90 0 101 60 101 133 0 36-18 83-75 83-73 0-221-128-221-128v-59c16-3 156-29 195-29zM383 0H134v1228c0 61-10 114-23 155l244 44c9-23 28-68 28-134v-223c0-58-11-121-30-174 0 0 117 121 260 121 200 0 321-88 321-283 0-123-27-207-171-276 103-36 132-110 164-216 13-44 63-81 96-105L831-27C701 23 667 129 631 255c-40 139-227 143-246 143h-2V0z"/><glyph glyph-name="uni01F0" unicode="ǰ" d="M632 1057l-366 297 144 138 222-189 240 201 138-156zM812-78c0-153-81-311-367-311-123 0-279 28-405 233L204-8c86-145 155-180 218-180h18c120 0 116 105 118 140v861c-49 0-140-6-235-28l-29 186c94 28 184 42 264 42h254V-78z"/><glyph glyph-name="uni01F4" unicode="Ǵ" d="M214 1555c143 48 317 160 432 268l134-172c-111-112-333-223-476-270zm647-783c46 0 89 3 131 7V586C992 142 869 50 691 3 646-7 582-8 540-8 176-8 20 286 20 641c0 242 53 439 184 569 100 90 214 118 329 118h20c214-5 362-91 437-257L756 955c-36 118-84 166-216 166-168 0-259-202-259-491 0-264 77-432 249-432s198 176 198 370l-64-1c-71 0-140-5-230-39l-40 203c96 37 200 43 301 43 56 0 112-2 166-2z"/><glyph glyph-name="uni01F5" unicode="ǵ" d="M179 1235c143 48 317 160 432 268l134-172c-111-112-333-223-476-270zM541-184c62 0 193 70 193 168 0 41-22 74-136 74l-267-1c-23-30-23-86-23-130 0-62 74-111 143-111h90zm104 910c0 86-75 96-161 96-88 0-157-30-157-105 0-90 68-118 158-118 118 0 160 52 160 127zm225 93s21-22 21-103c0-176-104-317-384-317h-3c-75 0-133 7-147 13-19-22-30-49-30-79 0-35 23-85 129-85h179c153 0 349-46 349-247 0-223-216-385-389-385H440C236-384 80-293 80-78c0 101 34 174 87 221-47 35-87 114-87 200 0 101 39 149 76 190-39 50-76 87-76 161 0 235 161 332 415 332 100 0 196-14 272-61 49 46 104 61 220 61V822c-12 2-31 5-41 5-34 0-52-2-76-8z"/><glyph glyph-name="uni01F8" unicode="Ǹ" d="M721 1627l-90-174c-143 47-365 158-476 270l134 172c115-108 289-220 432-268zM691 0c-90 259-237 559-371 778V570c0-299 1-418 1-573H75v1328l211-7c126-188 360-580 410-814l-7 274c0 190 3 377 12 551l244-1c-6-115-8-267-8-433 0-231 4-490 4-725 0-58-1-116-1-170H691z"/><glyph glyph-name="uni01F9" unicode="ǹ" d="M775 1239l-90-174c-143 47-365 158-476 270l134 172c115-108 289-220 432-268zM338 927c56 50 190 99 300 99 164 0 300-66 300-230V278c0-66 50-88 106-118L928-40C833-10 687 64 687 222v477c0 74-15 120-82 120-63 0-169-38-254-112V0H100v706c0 178-8 204-32 298l232 48c10-24 31-76 38-125z"/><glyph glyph-name="Aringacute" unicode="Ǻ" d="M226 1865c143 48 317 160 432 268l134-172c-111-112-333-223-476-270zm300-349c-52 0-86-31-86-62s34-63 86-63 86 32 86 63-32 62-86 62zM651 504c-26 143-125 340-126 494-6-168-99-373-137-512 60 13 180 13 263 18zm-399 950c0 116 128 204 276 204s274-88 274-204c0-81-56-145-146-175L976 244c24-81 50-165 50-244H750c0 59-10 114-25 167l-32 114c-152-3-237 1-357-29l-30-90c-20-61-38-119-40-162H6c4 61 28 143 54 223l343 1055c-90 31-151 95-151 176z"/><glyph glyph-name="aringacute" unicode="ǻ" d="M148 1650c143 48 317 160 432 268l134-172c-111-112-333-223-476-270zm349-302c-53 0-86-31-86-62s34-63 86-63 86 32 86 63-33 62-86 62zm-275-62c0 116 128 204 276 204s275-88 275-204c0-115-115-195-275-195-153 0-276 81-276 195zm96-969c0-98 69-128 133-128 110 0 192 102 210 158v47c-36 42-104 76-168 76-66 0-175-43-175-153zm587-1c0-92 19-144 76-189L868-22c-52 40-86 51-128 123C664 23 582-11 400-11 229-11 65 120 65 302c0 90 30 177 89 238 95 97 197 130 339 130 64 0 130-21 168-47 0 166-116 197-176 197-115 0-209-33-283-111L82 901c190 124 233 124 411 127 225 0 412-135 412-373V316z"/><glyph glyph-name="AEacute" unicode="Ǽ" d="M251 1643c143 48 317 160 432 268l134-172c-111-112-333-223-476-270zM1008 32C961 7 896-5 821-5H479c-11 155-20 272-33 424-18 2-33 3-47 3-28 0-51-4-85-12L234 0 0 45c95 386 177 849 272 1278l145-3c43 2 97 2 157 2h385v-206h-17c-83 0-71-2-194-2H606l24-268c51 1 40 4 125 4h106V642H755c-82 0-64-3-109-4l48-435h157c61 0 99 25 99 25zM429 631l-31 366-69-372c29 3 49 6 100 6z"/><glyph glyph-name="aeacute" unicode="ǽ" d="M222 1267c143 48 317 160 432 268l134-172c-111-112-333-223-476-270zm426-592v-21c38 0 100 0 144 6-6 104-31 148-90 148-40 0-54-48-54-133zM256 322c0-108 28-160 66-160 90 0 85 137 96 165v147c-43 25-50 34-104 34-33 0-58-85-58-186zM722 0C564 0 526 75 505 97 475 63 415 4 312 4c-63 0-128 15-182 53C49 114 23 211 23 309c0 167 64 352 268 352 77 0 89-16 127-32 0 97-5 179-111 179h-9c-53 0-71-20-100-106L0 784c70 186 182 234 300 234 56 0 102-3 163-50 19-16 38-40 50-59 17 26 76 109 178 109 201 0 299-222 307-448V454c-98-4-236-7-318-7h-32l-2-173c16-42 27-66 66-66 75 0 88 36 94 82l190-72S947 0 722 0z"/><glyph glyph-name="Oslashacute" unicode="Ǿ" d="M194 1689c143 48 317 160 432 268l134-172c-111-112-333-223-476-270zm690-561c56-104 93-258 95-481v-11c0-167-31-324-79-419C825 70 675-16 510-16c-75 0-161 16-234 51l-84-150L33-11c33 58 65 117 98 175-69 109-95 251-95 415 0 352 60 511 130 608 66 92 200 160 356 163 65 0 152-12 232-68 27 49 54 97 81 146l160-101zM385 232c34-36 69-45 125-45 79 0 128 62 159 139 27 59 48 215 49 314v17c0 48-2 104-7 160zm255 844c-34 53-74 71-119 71-65 0-103-25-143-96-47-83-81-216-81-459 0-35 2-78 6-121 113 202 226 404 337 605z"/><glyph glyph-name="oslashacute" unicode="ǿ" d="M227 1242c143 48 317 160 432 268l134-172c-111-112-333-223-476-270zm398-995c47 52 60 156 60 283v16c0 14 0 27-1 40L383 259c30-39 72-62 125-62 55 1 81 14 117 50zm223 820l150-140-107-115c34-77 50-181 50-269C941 258 845-6 509-6h-2C382-6 288 25 219 80L146 0 0 133l104 115c-22 63-32 136-32 216 0 371 141 568 433 568 109 0 190-21 254-62zM607 802c-23 18-51 28-87 28-149 0-195-137-196-340z"/><glyph glyph-name="uni0200" unicode="Ȁ" d="M500 1605l-148-143c-118 94-288 274-353 418l201 127c70-141 183-307 300-402zm383 7l-147-142c-118 94-289 274-354 418l201 126c70-141 183-307 300-402zM651 504c-26 143-125 340-126 494-6-168-99-373-137-512 60 13 180 13 263 18zm-233 821h224L976 244c24-81 50-165 50-244H750c0 59-10 114-25 167l-32 114c-152-3-237 1-357-29l-30-90c-20-61-37-119-40-162H6c4 61 28 143 54 223z"/><glyph glyph-name="uni0201" unicode="ȁ" d="M571 1206l-148-143c-118 94-288 274-353 418l201 127c70-141 183-307 300-402zm383 7l-147-142c-118 94-289 274-354 418l201 126c70-141 183-307 300-402zM318 317c0-98 69-128 133-128 110 0 192 102 210 158v47c-36 42-104 76-168 76-66 0-175-43-175-153zm587-1c0-92 19-144 76-189L868-22c-52 40-86 51-128 123C664 23 582-11 400-11 229-11 65 120 65 302c0 90 30 177 89 238 95 97 197 130 339 130 64 0 130-21 168-47 0 166-116 197-176 197-115 0-209-33-283-111L82 901c190 124 233 124 411 127 225 0 412-135 412-373V316z"/><glyph glyph-name="uni0204" unicode="Ȅ" d="M478 1621l-148-143c-118 94-288 274-353 418l201 127c70-141 183-307 300-402zm383 7l-147-142c-118 94-289 274-354 418l201 126c70-141 183-307 300-402zm-759-309c56 4 126 4 204 4h208c149 0 285-3 359-3h16v-202H360V849h338V646H360v-31c0-207-2-332-2-411l416 2c56 0 125 27 125 27l72-199C923 21 882 0 784 0H102v1319z"/><glyph glyph-name="uni0205" unicode="ȅ" d="M615 1179l-148-143c-118 94-288 274-353 418l201 127c70-141 183-307 300-402zm383 7l-147-142c-118 94-289 274-354 418l201 126c70-141 183-307 300-402zM336 606c113 20 207 24 340 24-5 131-77 188-165 188-102 0-169-96-175-212zm173 415c319 0 428-208 428-544 0-20-1-43-1-43-285-4-498-18-600-38 16-111 104-200 196-200 106 0 154 36 222 110l178-156C831 38 765-10 526-10 240-10 78 203 78 516c0 286 148 505 431 505z"/><glyph glyph-name="uni0208" unicode="Ȉ" d="M548 1641l-148-143c-118 94-288 274-353 418l201 127c70-141 183-307 300-402zm383 7l-147-142c-118 94-289 274-354 418l201 126c70-141 183-307 300-402zm-799-324c156 4 257 5 353 5 105 0 205-1 368-3l-1-211c-123 0-135 5-230 5V219c46 0 31 1 82 1 45 0 92-1 144-4l1-217c-85 5-147 6-210 6-47 0-96-1-155-1-74 0-195-7-350-7v216c85 4 123 5 180 5h52v901c-66-1-122-1-228-7z"/><glyph glyph-name="uni0209" unicode="ȉ" d="M378 1188l-148-143c-118 94-288 274-353 418l201 127c70-141 183-307 300-402zm383 7l-147-142c-118 94-289 274-354 418l201 126c70-141 183-307 300-402zm-407-182h255c0-273 1-739 1-739 0-64 17-92 109-92 93 0 153 33 213 91l97-190C943 12 792-18 668-18c-85 0-177 14-221 38-85 47-93 127-93 186v607c-49 0-139-6-234-28L91 971c94 28 183 42 263 42z"/><glyph glyph-name="uni020C" unicode="Ȍ" d="M519 1665l-148-143c-118 94-288 274-353 418l201 127c70-141 183-307 300-402zm383 7l-147-142c-118 94-289 274-354 418l201 126c70-141 183-307 300-402zm-380-322c161 0 452-73 457-703v-11c0-167-31-324-79-419C825 70 675-16 510-16c-122 0-271 41-352 143C68 239 36 395 36 579c0 352 60 511 130 608 66 92 200 160 356 163zM351 277c47-74 85-90 159-90 79 0 128 62 159 139 27 59 48 215 49 314v17c0 107-9 256-45 352-40 106-92 138-152 138-65 0-103-25-143-96-47-83-81-216-81-459 0-97 13-250 54-315z"/><glyph glyph-name="uni020D" unicode="ȍ" d="M505 1194l-148-143c-118 94-288 274-353 418l201 127c70-141 183-307 300-402zm383 7l-147-142c-118 94-289 274-354 418l201 126c70-141 183-307 300-402zM625 247c47 52 60 156 60 283v16c-2 157-37 284-165 284-151 0-196-140-196-348 0-166 63-285 184-285 55 1 81 14 117 50zM507-6C197-6 72 184 72 464c0 371 141 568 433 568 197 0 307-69 377-201 41-79 59-192 59-288C941 258 845-6 509-6h-2z"/><glyph glyph-name="uni0210" unicode="Ȑ" d="M348 1637l-148-143c-118 94-288 274-353 418l201 127c70-141 183-307 300-402zm383 7l-147-142c-118 94-289 274-354 418l201 126c70-141 183-307 300-402zM699 552c78-124 181-275 237-341 18-16 66-52 108-63L922-44c-58 9-118 59-152 102-97 109-264 376-320 472-36 3-73 10-117 28V0H90v1136c0 68-1 116-5 178 42 4 157 15 218 15 250 0 469-8 591-161 48-60 74-154 74-240 0-224-125-355-269-376zm7 354c0 170-116 218-310 218-26 0-34 0-63-1V768c64-27 123-42 166-42h8c170 0 199 78 199 180z"/><glyph glyph-name="uni0211" unicode="ȑ" d="M559.5 1225l-148-143c-118 94-288 274-353 418l201 127c70-141 183-307 300-402zm383 7l-147-142c-118 94-289 274-354 418l201 126c70-141 183-307 300-402zM404 864c75 98 179 156 340 156 167 0 272-102 272-292v-30l-252-2c1 11 2 27 2 44 0 37-10 78-66 78s-136-73-232-258V-18H216v722c0 57-48 99-110 154l148 186c61-49 116-77 150-180z"/><glyph glyph-name="uni0214" unicode="Ȕ" d="M500 1673l-148-143c-118 94-288 274-353 418l201 127c70-141 183-307 300-402zm383 7l-147-142c-118 94-289 274-354 418l201 126c70-141 183-307 300-402zm-182-330l253-28c-7-50-8-85-8-127v-29c0-148 3-278 3-391v-59c0-237-5-463-117-595C750 24 621-5 492-10 184-10 86 159 68 456c-5 77-7 201-7 339 0 175 3 373 9 534h258c-4-168-8-397-8-586V602c0-64 1-117 6-154 14-94 24-244 164-248 200 9 203 231 203 518 0 126-5 275-5 448 0 72 3 121 13 184z"/><glyph glyph-name="uni0215" unicode="ȕ" d="M445 1191l-148-143c-118 94-288 274-353 418l201 127c70-141 183-307 300-402zm383 7l-147-142c-118 94-289 274-354 418l201 126c70-141 183-307 300-402zM893-17c-64 29-106 75-127 125C691 31 576 5 426 2h-9C265 2 79 53 79 229c0 82 1 179 1 275 0 216-3 431-22 488l254 28c22-92 16-356 18-722 12-67 31-92 116-92 152 7 221 85 221 212v595h251V306c2-52 67-119 118-140z"/><glyph glyph-name="Scommaaccent" unicode="Ș" d="M378-48h270v-215c0-151-37-219-157-278L357-416c53 42 77 81 77 147h-56v221zM231 702C121 752 51 844 51 1006c0 220 164 322 419 322h9c240 0 436-82 481-250L687 976c-46 101-132 142-202 142-86 0-166-36-166-104 0-98 56-122 114-144 123-48 194-57 326-118 108-53 216-158 216-356C975 96 761-9 521-9h-19C149 0 27 194 27 422l266-2c0-143 62-220 214-220 108 0 210 36 210 182 0 109-71 165-150 200-116 51-203 59-336 120z"/><glyph glyph-name="scommaaccent" unicode="ș" d="M350-88h270v-215c0-151-37-219-157-278L329-456c53 42 77 81 77 147h-56v221zm-71 637c-82 40-137 121-137 232 0 186 190 248 365 248 139 0 292-15 403-136L733 730c-54 58-127 99-223 99-82 0-114-22-114-61 0-29 6-49 34-67 256-104 500-139 500-423C930 116 786 28 679 0c-56-13-116-20-173-20C250-20 94 115 94 330h253c0-108 48-148 157-148 59 0 172 20 172 108 0 59-21 92-70 125-69 44-234 89-327 134z"/><glyph glyph-name="uni021A" unicode="Ț" d="M338-80h270v-215c0-151-37-219-157-278L317-448c53 42 77 81 77 147h-56v221zm17 80v1118c-198 0-240-1-316-1v207c122 0 576 1 764 1 73 0 143-9 167-16l-60-203s-52 12-112 12H615V0H355z"/><glyph glyph-name="uni021B" unicode="ț" d="M460-47h270v-215c0-151-37-219-157-278L439-415c53 42 77 81 77 147h-56v221zm-30 483v-40c0-134 39-182 123-196 18-2 52-4 65-4 65 0 95 14 120 28 52 28 63 96 70 116l208-100c-10-28-64-140-176-204C782 2 705-6 620-6 436-6 288 16 217 164c-35 72-39 148-39 234v42c2 90 4 201 9 365h-14c-28 0-56-4-82-12L74 997c24 8 69 12 102 12h15c0 70 1 171 1 241l251-6c0-66-1-163-2-231 109 0 421-4 429-4l-3-204c-137 0-295 2-428 2-6-166-5-271-9-371z"/><glyph glyph-name="uni021E" unicode="Ȟ" d="M474 1458l-366 297 144 138 222-189 240 201 138-156zm-157-136l-1-537c92 21 152 29 272 29h87c0 280-1 338-1 503h256V0H675v599h-32c-146 0-209-3-327-29 0-350 2-385 2-570H60v1320z"/><glyph glyph-name="uni021F" unicode="ȟ" d="M223 1444l-366 297L1 1879l222-189 240 201 138-156zm719-878V218c0-82 19-142 44-178L760-40c-23 32-64 106-64 216v315c0 309-96 322-188 322-77 0-142-76-175-131V0H88v1156c0 94-9 178-16 246l248 9c9-73 14-169 14-260 0-90-6-145-24-222 37 28 113 84 232 84 250 0 400-125 400-447z"/><glyph glyph-name="uni0226" unicode="Ȧ" d="M388 1660h284l2-246H389zM651 504c-26 143-125 340-126 494-6-168-99-373-137-512 60 13 180 13 263 18zm-233 821h224L976 244c24-81 50-165 50-244H750c0 59-10 114-25 167l-32 114c-152-3-237 1-357-29l-30-90c-20-61-37-119-40-162H6c4 61 28 143 54 223z"/><glyph glyph-name="uni0227" unicode="ȧ" d="M329 1406h291v-225H329v225zM318 317c0-98 69-128 133-128 110 0 192 102 210 158v47c-36 42-104 76-168 76-66 0-175-43-175-153zm587-1c0-92 19-144 76-189L868-22c-52 40-86 51-128 123C664 23 582-11 400-11 229-11 65 120 65 302c0 90 30 177 89 238 95 97 197 130 339 130 64 0 130-21 168-47 0 166-116 197-176 197-115 0-209-33-283-111L82 901c190 124 233 124 411 127 225 0 412-135 412-373V316z"/><glyph glyph-name="uni0228" unicode="Ȩ" d="M98 1438c59 4 132 4 214 4h219c156 0 299-3 377-3h16v-220H369V925h355V704H369v-34c0-226-2-365-2-451l437 2c59 0 131 30 131 30l76-217C961 20 917-3 814-3H654c-1-21-1-59-1-61 97-5 184-62 184-176 0-130-114-203-272-203-66 0-158 18-214 54l60 148c33-18 77-30 128-30 36 0 71 12 74 50v2c0 29-24 55-72 55s-81-2-109-12V-3H98v1441z"/><glyph glyph-name="uni0229" unicode="ȩ" d="M346 606c113 20 207 24 340 24-5 131-77 188-165 188-102 0-169-96-175-212zm173 415c319 0 428-208 428-544 0-20-1-43-1-43-285-4-498-18-600-38 16-111 80-200 172-200 106 0 141 9 202 98l200-128C865 80 787 17 631-3c-1-19-2-65-2-68 97-5 184-62 184-176 0-130-114-203-272-203-66 0-158 18-214 54l60 148c33-18 77-30 128-30 36 0 71 12 74 50v2c0 29-24 55-72 55s-81-2-109-12V0C192 46 88 243 88 516c0 286 148 505 431 505z"/><glyph glyph-name="uni022A" unicode="Ȫ" d="M758 2003v-194h-17c-58-2-156-7-230-7s-167 1-235 3l-18 1v197l19-2c65-2 180-3 272-3 61 0 147 5 192 5h17zm-166-322l282-3v-240l-282 3v240zm-420 0h279v-240H172v240zm350-331c161 0 452-73 457-703v-11c0-167-31-324-79-419C825 70 675-16 510-16c-122 0-271 41-352 143C68 239 36 395 36 579c0 352 60 511 130 608 66 92 200 160 356 163zM351 277c47-74 85-90 159-90 79 0 128 62 159 139 27 59 48 215 49 314v17c0 107-9 256-45 352-40 106-92 138-152 138-65 0-103-25-143-96-47-83-81-216-81-459 0-97 13-250 54-315z"/><glyph glyph-name="uni022B" unicode="ȫ" d="M766 1702v-194h-17c-58-2-156-7-230-7s-167 1-235 3l-18 1v197l19-2c65-2 180-3 272-3 61 0 147 5 192 5h17zm-178-274.9l282-3v-240l-282 3v240zm-420 0h279v-240H168v240zM625 247c47 52 60 156 60 283v16c-2 157-37 284-165 284-151 0-196-140-196-348 0-166 63-285 184-285 55 1 81 14 117 50zM507-6C197-6 72 184 72 464c0 371 141 568 433 568 197 0 307-69 377-201 41-79 59-192 59-288C941 258 845-6 509-6h-2z"/><glyph glyph-name="uni022C" unicode="Ȭ" d="M776 1971v-194h-17c-58-2-156-7-230-7s-167 1-235 3l-18 1v197l19-2c65-2 180-3 272-3 61 0 147 5 192 5h17zm-410-298c216 0 235-132 325-132 50 0 80 31 86 100l177-54c-21-96-79-224-241-224-198 0-219 130-320 130-42 0-79-37-88-100l-184 78c33 93 104 202 245 202zm156-323c161 0 452-73 457-703v-11c0-167-31-324-79-419C825 70 675-16 510-16c-122 0-271 41-352 143C68 239 36 395 36 579c0 352 60 511 130 608 66 92 200 160 356 163zM351 277c47-74 85-90 159-90 79 0 128 62 159 139 27 59 48 215 49 314v17c0 107-9 256-45 352-40 106-92 138-152 138-65 0-103-25-143-96-47-83-81-216-81-459 0-97 13-250 54-315z"/><glyph glyph-name="uni022D" unicode="ȭ" d="M800 1655v-194h-17c-58-2-156-7-230-7s-167 1-235 3l-18 1v197l19-2c65-2 180-3 272-3 61 0 147 5 192 5h17zm-454-240c216 0 235-132 325-132 50 0 80 31 86 100l177-54c-21-96-79-224-241-224-198 0-219 130-320 130-42 0-79-37-88-100l-184 78c33 93 104 202 245 202zM625 247c47 52 60 156 60 283v16c-2 157-37 284-165 284-151 0-196-140-196-348 0-166 63-285 184-285 55 1 81 14 117 50zM507-6C197-6 72 184 72 464c0 371 141 568 433 568 197 0 307-69 377-201 41-79 59-192 59-288C941 258 845-6 509-6h-2z"/><glyph glyph-name="uni022E" unicode="Ȯ" d="M383 1683h284l2-246H384zm139-333c161 0 452-73 457-703v-11c0-167-31-324-79-419C825 70 675-16 510-16c-122 0-271 41-352 143C68 239 36 395 36 579c0 352 60 511 130 608 66 92 200 160 356 163zM351 277c47-74 85-90 159-90 79 0 128 62 159 139 27 59 48 215 49 314v17c0 107-9 256-45 352-40 106-92 138-152 138-65 0-103-25-143-96-47-83-81-216-81-459 0-97 13-250 54-315z"/><glyph glyph-name="uni022F" unicode="ȯ" d="M376 1431h284l2-246H377zM625 247c47 52 60 156 60 283v16c-2 157-37 284-165 284-151 0-196-140-196-348 0-166 63-285 184-285 55 1 81 14 117 50zM507-6C197-6 72 184 72 464c0 371 141 568 433 568 197 0 307-69 377-201 41-79 59-192 59-288C941 258 845-6 509-6h-2z"/><glyph glyph-name="uni0230" unicode="Ȱ" d="M758 1971v-194h-17c-58-2-156-7-230-7s-167 1-235 3l-18 1v197l19-2c65-2 180-3 272-3 61 0 147 5 192 5h17zm-375-288h284l2-246H384zm139-333c161 0 452-73 457-703v-11c0-167-31-324-79-419C825 70 675-16 510-16c-122 0-271 41-352 143C68 239 36 395 36 579c0 352 60 511 130 608 66 92 200 160 356 163zM351 277c47-74 85-90 159-90 79 0 128 62 159 139 27 59 48 215 49 314v17c0 107-9 256-45 352-40 106-92 138-152 138-65 0-103-25-143-96-47-83-81-216-81-459 0-97 13-250 54-315z"/><glyph glyph-name="uni0231" unicode="ȱ" d="M759 1693v-194h-17c-58-2-156-7-230-7s-167 1-235 3l-18 1v197l19-2c65-2 180-3 272-3 61 0 147 5 192 5h17zm-383-262h284l2-246H377zM625 247c47 52 60 156 60 283v16c-2 157-37 284-165 284-151 0-196-140-196-348 0-166 63-285 184-285 55 1 81 14 117 50zM507-6C197-6 72 184 72 464c0 371 141 568 433 568 197 0 307-69 377-201 41-79 59-192 59-288C941 258 845-6 509-6h-2z"/><glyph glyph-name="uni0311" unicode="̑" d="M520 1508c-75 0-153-33-180-150l-219 30c48 225 180 303 405 303 240 0 369-117 393-294l-219-30c-6 78-72 141-180 141z"/><glyph glyph-name="uni0310" unicode="̐"/><glyph glyph-name="uni0313" unicode="̓" d="M438 1597h220v-215c0-151-67-227-196-283l-53 127c60 28 86 51 86 150h-57v221z"/><glyph glyph-name="uni0314" unicode="̔" d="M641 1597v-221h-57c0-99 26-122 86-150l-53-127c-129 56-196 132-196 283v215h220z"/><glyph glyph-name="uni0202" unicode="Ȃ" d="M503 1508c-75 0-153-33-180-150l-219 30c48 225 180 303 405 303 240 0 369-117 393-294l-219-30c-6 78-72 141-180 141zM651 504c-26 143-125 340-126 494-6-168-99-373-137-512 60 13 180 13 263 18zm-233 821h224L976 244c24-81 50-165 50-244H750c0 59-10 114-25 167l-32 114c-152-3-237 1-357-29l-30-90c-20-61-37-119-40-162H6c4 61 28 143 54 223z"/><glyph glyph-name="uni0203" unicode="ȃ" d="M457 1236c-75 0-153-33-180-150l-219 30c48 225 180 303 405 303 240 0 369-117 393-294l-219-30c-6 78-72 141-180 141zM318 317c0-98 69-128 133-128 110 0 192 102 210 158v47c-36 42-104 76-168 76-66 0-175-43-175-153zm587-1c0-92 19-144 76-189L868-22c-52 40-86 51-128 123C664 23 582-11 400-11 229-11 65 120 65 302c0 90 30 177 89 238 95 97 197 130 339 130 64 0 130-21 168-47 0 166-116 197-176 197-115 0-209-33-283-111L82 901c190 124 233 124 411 127 225 0 412-135 412-373V316z"/><glyph glyph-name="uni0206" unicode="Ȇ" d="M470 1636c-75 0-153-33-180-150l-219 30c48 225 180 303 405 303 240 0 369-117 393-294l-219-30c-6 78-72 141-180 141zm-368-317c56 4 126 4 204 4h208c149 0 285-3 359-3h16v-202H360V849h338V646H360v-31c0-207-2-332-2-411l416 2c56 0 125 27 125 27l72-199C923 21 882 0 784 0H102v1319z"/><glyph glyph-name="uni0207" unicode="ȇ" d="M502 1218c-75 0-153-33-180-150l-219 30c48 225 180 303 405 303 240 0 369-117 393-294l-219-30c-6 78-72 141-180 141zM336 606c113 20 207 24 340 24-5 131-77 188-165 188-102 0-169-96-175-212zm173 415c319 0 428-208 428-544 0-20-1-43-1-43-285-4-498-18-600-38 16-111 104-200 196-200 106 0 154 36 222 110l178-156C831 38 765-10 526-10 240-10 78 203 78 516c0 286 148 505 431 505z"/><glyph glyph-name="uni020A" unicode="Ȋ" d="M536 1642c-75 0-153-33-180-150l-219 30c48 225 180 303 405 303 240 0 369-117 393-294l-219-30c-6 78-72 141-180 141zm-404-318c156 4 257 5 353 5 105 0 205-1 368-3l-1-211c-123 0-135 5-230 5V219c46 0 31 1 82 1 45 0 92-1 144-4l1-217c-85 5-147 6-210 6-47 0-96-1-155-1-74 0-195-7-350-7v216c85 4 123 5 180 5h52v901c-66-1-122-1-228-7z"/><glyph glyph-name="uni020B" unicode="ȋ" d="M379 1218c-75 0-153-33-180-150l-219 30c48 225 180 303 405 303 240 0 369-117 393-294l-219-30c-6 78-72 141-180 141zm-25-205h255c0-273 1-739 1-739 0-64 17-92 109-92 93 0 153 33 213 91l97-190C943 12 792-18 668-18c-85 0-177 14-221 38-85 47-93 127-93 186v607c-49 0-139-6-234-28L91 971c94 28 183 42 263 42z"/><glyph glyph-name="uni020E" unicode="Ȏ" d="M500 1644c-75 0-153-33-180-150l-219 30c48 225 180 303 405 303 240 0 369-117 393-294l-219-30c-6 78-72 141-180 141zm22-294c161 0 452-73 457-703v-11c0-167-31-324-79-419C825 70 675-16 510-16c-122 0-271 41-352 143C68 239 36 395 36 579c0 352 60 511 130 608 66 92 200 160 356 163zM351 277c47-74 85-90 159-90 79 0 128 62 159 139 27 59 48 215 49 314v17c0 107-9 256-45 352-40 106-92 138-152 138-65 0-103-25-143-96-47-83-81-216-81-459 0-97 13-250 54-315z"/><glyph glyph-name="uni020F" unicode="ȏ" d="M498 1218c-75 0-153-33-180-150l-219 30c48 225 180 303 405 303 240 0 369-117 393-294l-219-30c-6 78-72 141-180 141zm127-971c47 52 60 156 60 283v16c-2 157-37 284-165 284-151 0-196-140-196-348 0-166 63-285 184-285 55 1 81 14 117 50zM507-6C197-6 72 184 72 464c0 371 141 568 433 568 197 0 307-69 377-201 41-79 59-192 59-288C941 258 845-6 509-6h-2z"/><glyph glyph-name="uni0212" unicode="Ȓ" d="M409 1652c-75 0-153-33-180-150l-219 30c48 225 180 303 405 303 240 0 369-117 393-294l-219-30c-6 78-72 141-180 141zM699 552c78-124 181-275 237-341 18-16 66-52 108-63L922-44c-58 9-118 59-152 102-97 109-264 376-320 472-36 3-73 10-117 28V0H90v1136c0 68-1 116-5 178 42 4 157 15 218 15 250 0 469-8 591-161 48-60 74-154 74-240 0-224-125-355-269-376zm7 354c0 170-116 218-310 218-26 0-34 0-63-1V768c64-27 123-42 166-42h8c170 0 199 78 199 180z"/><glyph glyph-name="uni0213" unicode="ȓ" d="M563.5 1327c-75 0-153-33-180-150l-219 30c48 225 180 303 405 303 240 0 369-117 393-294l-219-30c-6 78-72 141-180 141zM404 864c75 98 179 156 340 156 167 0 272-102 272-292v-30l-252-2c1 11 2 27 2 44 0 37-10 78-66 78s-136-73-232-258V-18H216v722c0 57-48 99-110 154l148 186c61-49 116-77 150-180z"/><glyph glyph-name="uni0312" unicode="̒" d="M287 1283c38 112 64 221 109 372l190-33c-18-142-45-283-66-386z"/><glyph glyph-name="uni0217" unicode="ȗ" d="M399 1271c-75 0-153-33-180-150L0 1151c48 225 180 303 405 303 240 0 369-117 393-294l-219-30c-6 78-72 141-180 141zM893-17c-64 29-106 75-127 125C691 31 576 5 426 2h-9C265 2 79 53 79 229c0 82 1 179 1 275 0 216-3 431-22 488l254 28c22-92 16-356 18-722 12-67 31-92 116-92 152 7 221 85 221 212v595h251V306c2-52 67-119 118-140z"/><glyph glyph-name="uni0327" unicode="̧" d="M672 56c-1-8-2-72-2-75 97-5 184-62 184-176 0-130-114-203-272-203-66 0-158 18-214 54l60 148c33-18 77-30 128-30 36 0 71 12 74 50v2c0 29-24 55-72 55s-81-2-109-12V57z"/><glyph glyph-name="uni0328" unicode="̨" d="M821 107C642-118 449-105 449-207c0-43 56-57 120-57 58 0 98 29 128 51l124-141c-44-48-162-106-262-106-182 0-360 56-360 244 0 198 242 176 386 324z"/><glyph glyph-name="ogonek" unicode="˛" d="M821 107C642-118 449-105 449-207c0-43 56-57 120-57 58 0 98 29 128 51l124-141c-44-48-162-106-262-106-182 0-360 56-360 244 0 198 242 176 386 324z"/><glyph glyph-name="uni01E0" unicode="Ǡ" d="M755 2036v-194h-17c-58-2-156-7-230-7s-167 1-235 3l-18 1v197l19-2c65-2 180-3 272-3 61 0 147 5 192 5h17zm-367-376h284l2-246H389zM651 504c-26 143-125 340-126 494-6-168-99-373-137-512 60 13 180 13 263 18zm-233 821h224L976 244c24-81 50-165 50-244H750c0 59-10 114-25 167l-32 114c-152-3-237 1-357-29l-30-90c-20-61-37-119-40-162H6c4 61 28 143 54 223z"/><glyph glyph-name="uni01E1" unicode="ǡ" d="M701 1693v-194h-17c-58-2-156-7-230-7s-167 1-235 3l-18 1v197l19-2c65-2 180-3 272-3 61 0 147 5 192 5h17zm-372-287h291v-225H329v225zM318 317c0-98 69-128 133-128 110 0 192 102 210 158v47c-36 42-104 76-168 76-66 0-175-43-175-153zm587-1c0-92 19-144 76-189L868-22c-52 40-86 51-128 123C664 23 582-11 400-11 229-11 65 120 65 302c0 90 30 177 89 238 95 97 197 130 339 130 64 0 130-21 168-47 0 166-116 197-176 197-115 0-209-33-283-111L82 901c190 124 233 124 411 127 225 0 412-135 412-373V316z"/><glyph glyph-name="uni01EA" unicode="Ǫ" d="M522 1350c161 0 452-73 457-703v-11c0-167-31-324-79-419C768-61 472-151 472-253c0-43 56-57 120-57 58 0 98 29 128 51l124-141c-44-48-162-106-262-106-182 0-360 56-360 244 0 96 120 167 237 248C349-4 228 39 158 127 68 239 36 395 36 579c0 352 60 511 130 608 66 92 200 160 356 163zM351 277c47-74 85-90 159-90 79 0 128 62 159 139 27 59 48 215 49 314v17c0 107-9 256-45 352-40 106-92 138-152 138-65 0-103-25-143-96-47-83-81-216-81-459 0-97 13-250 54-315z"/><glyph glyph-name="uni01EB" unicode="ǫ" d="M815 114C616-108 428-149 428-251c0-43 56-57 120-57 58 0 98 29 128 51l124-141c-44-48-162-106-262-106-182 0-360 56-360 244C178-131 284-92 416 0 172 34 72 213 72 464c0 371 141 568 433 568 197 0 307-69 377-201 41-79 59-192 59-288 0-166-33-325-126-429zM625 247c47 52 60 156 60 283v16c-2 157-37 284-165 284-151 0-196-140-196-348 0-166 63-285 184-285 55 1 81 14 117 50z"/><glyph glyph-name="uni01EC" unicode="Ǭ" d="M741 1743v-194h-17c-58-2-156-7-230-7s-167 1-235 3l-18 1v197l19-2c65-2 180-3 272-3 61 0 147 5 192 5h17zm-219-393c161 0 452-73 457-703v-11c0-167-31-324-79-419C768-61 472-151 472-253c0-43 56-57 120-57 58 0 98 29 128 51l124-141c-44-48-162-106-262-106-182 0-360 56-360 244 0 96 120 167 237 248C349-4 228 39 158 127 68 239 36 395 36 579c0 352 60 511 130 608 66 92 200 160 356 163zM351 277c47-74 85-90 159-90 79 0 128 62 159 139 27 59 48 215 49 314v17c0 107-9 256-45 352-40 106-92 138-152 138-65 0-103-25-143-96-47-83-81-216-81-459 0-97 13-250 54-315z"/><glyph glyph-name="uni01ED" unicode="ǭ" d="M746 1382v-194h-17c-58-2-156-7-230-7s-167 1-235 3l-18 1v197l19-2c65-2 180-3 272-3 61 0 147 5 192 5h17zm69-1268C616-108 428-149 428-251c0-43 56-57 120-57 58 0 98 29 128 51l124-141c-44-48-162-106-262-106-182 0-360 56-360 244C178-131 284-92 416 0 172 34 72 213 72 464c0 371 141 568 433 568 197 0 307-69 377-201 41-79 59-192 59-288 0-166-33-325-126-429zM625 247c47 52 60 156 60 283v16c-2 157-37 284-165 284-151 0-196-140-196-348 0-166 63-285 184-285 55 1 81 14 117 50z"/><glyph glyph-name="uni0326" unicode="̦" d="M390 4h270v-215c0-151-37-219-157-278L369-364c53 42 77 81 77 147h-56V4z"/><glyph glyph-name="uni0216" unicode="Ȗ" d="M499 1674c-75 0-153-33-180-150l-219 30c48 225 180 303 405 303 240 0 369-117 393-294l-219-30c-6 78-72 141-180 141zm202-324l253-28c-7-50-8-85-8-127v-29c0-148 3-278 3-391v-59c0-237-5-463-117-595C750 24 621-5 492-10 184-10 86 159 68 456c-5 77-7 201-7 339 0 175 3 373 9 534h258c-4-168-8-397-8-586V602c0-64 1-117 6-154 14-94 24-244 164-248 200 9 203 231 203 518 0 126-5 275-5 448 0 72 3 121 13 184z"/><glyph glyph-name="onedotenleader" unicode="․" d="M344 313h315V0H344v313z"/><glyph glyph-name="twodotenleader" unicode="‥" d="M616 313h315V0H616v313zm-480 0h315V0H136v313z"/><glyph glyph-name="ellipsis" unicode="…" d="M764.777 313h280V0h-280v313zm-800 0h280V0h-280v313zm400 0h280V0h-280v313z"/><glyph glyph-name="uni2010" unicode="‐" d="M82 654c45 2 95 3 145 3 100 0 201-3 269-3h119c82 0 234-1 341-2h18V407h-18c-135 3-337 3-462 3-43 0-134 3-234 3-57 0-117-1-172-4v122z"/><glyph glyph-name="uni2011" unicode="‑" d="M82 654c45 2 95 3 145 3 100 0 201-3 269-3h119c82 0 234-1 341-2h18V407h-18c-135 3-337 3-462 3-43 0-134 3-234 3-57 0-117-1-172-4v122z"/><glyph glyph-name="figuredash" unicode="‒" d="M52.677 654c47.017 2 99.26 3 151.502 3 104.483 0 210.012-3 281.06-3h124.337c85.678 0 244.493-1 356.29-2h18.807V407h-18.806c-141.054 3-352.11 3-482.716 3-44.93 0-140.01 3-244.493 3-59.557 0-122.247-1-179.713-4v122z"/><glyph glyph-name="endash" unicode="–" d="M82 654c45 2 95 3 145 3 100 0 201-3 269-3h119c82 0 234-1 341-2h18V407h-18c-135 3-337 3-462 3-43 0-134 3-234 3-57 0-117-1-172-4v122z"/><glyph glyph-name="emdash" unicode="—" d="M-5.405 654c51.91 2 109.59 3 167.27 3 115.36 0 231.872-3 310.316-3H609.46c94.594 0 269.94-1 393.374-2h20.764V407h-20.764c-155.734 3-388.76 3-532.96 3-49.603 0-154.58 3-269.938 3-65.755 0-134.97-1-198.418-4v122z"/><glyph glyph-name="afii00208" unicode="―" d="M-59.12 641c57.006 2 120.348 3 183.688 3 126.682 0 254.63-3 340.774-3h150.752c103.88 0 296.436-1 431.985-2h22.802V394h-22.803c-171.022 3-426.92 3-585.272 3-54.473 0-169.754 3-296.436 3-72.21 0-148.218-1-217.893-4v122z"/><glyph glyph-name="quoteleft" unicode="‘" d="M608 826l-325 19c2 354 202 599 363 712l143-164c-96-125-175-319-181-567z"/><glyph glyph-name="quoteright" unicode="’" d="M559 1469l323-40c-25-353-241-585-409-687L341 915c104 118 196 307 218 554z"/><glyph glyph-name="quotesinglbase" unicode="‚" d="M426 330l322-40C723-63 508-295 340-397L208-224C312-106 404 83 426 330z"/><glyph glyph-name="quotereversed" unicode="‛" d="M664 1469c22-247 114-436 218-554L750 742c-168 102-384 334-409 687z"/><glyph glyph-name="quotedblleft" unicode="“" d="M393 992c-10-34-15-66-20-99L73 957c5 41 12 76 24 117 74 258 163 421 284 524l199-157c-58-49-129-246-187-449zm445-16c-10-34-15-66-20-99l-300 64c5 41 11 76 23 117 74 258 164 421 285 524l198-157c-58-49-128-246-186-449z"/><glyph glyph-name="quotedblright" unicode="”" d="M710 1379c10 34 15 65 20 98l300-64c-5-41-11-76-23-117-74-258-164-421-285-524L524 930c58 49 128 246 186 449zm-444 16c10 34 14 65 19 98l300-64c-5-41-11-76-23-117-74-258-164-421-285-524L79 946c58 49 129 246 187 449z"/><glyph glyph-name="quotedblbase" unicode="„" d="M660 232c10 34 14 65 19 98l300-64c-5-41-11-76-23-117-74-258-164-421-285-524L473-217c58 49 129 246 187 449zm-445 15c10 34 15 66 20 99l300-64c-5-41-11-76-23-117-74-258-164-421-285-524L28-202c58 49 129 246 187 449z"/><glyph glyph-name="uni201F" unicode="‟" d="M393 1379c58-203 128-400 186-449L381 772c-121 103-211 266-285 524-12 41-18 76-23 117l300 64c5-33 10-64 20-98zm444 16c58-203 129-400 187-449L826 788c-121 103-211 266-285 524-12 41-18 76-23 117l300 64c5-33 9-64 19-98z"/><glyph glyph-name="uni2016" unicode="‖" d="M167 152c0 365-9 959-9 1247v93h271v-145c0-277 12-789 12-1123V74c0-115-1-171-6-272l-272 1c4 62 5 105 5 160 0 47-1 103-1 189zm481 0c0 365-9 959-9 1247v93h271v-145c0-277 12-789 12-1123V74c0-115-1-171-6-272l-272 1c4 62 5 105 5 160 0 47-1 103-1 189z"/><glyph glyph-name="underscoredbl" unicode="‗" d="M56-356h946v-174H52zm0 272h946v-174H52z"/><glyph glyph-name="daggerdbl" unicode="‡" d="M361 946c-79 2-169 8-280 15 0 30-1 80-1 127 0 35 1 69 2 91 109-7 199-10 277-11-1 88-1 167-1 231v93h271v-145c0-52 0-111 1-177 93 3 180 7 299 7l2-220c-117 0-204-4-298-8 3-180 6-376 7-550 98-2 189-5 294-5V170c-104 0-196 1-293 3V74c0-115-1-171-6-272l-272 1c4 62 5 105 5 160 0 47-1 103-1 189v23c-28 0-56 1-85 1-60 0-124-2-192-6l-2 224c104 6 193 7 278 8-1 174-3 366-5 544z"/><glyph glyph-name="dagger" unicode="†" d="M361 946c-79 2-169 8-280 15 0 30-1 80-1 127 0 35 1 69 2 91 109-7 199-10 277-11-1 88-1 167-1 231v93h271v-145c0-52 0-111 1-177 93 3 180 7 299 7l2-220c-117 0-204-4-298-8 3-245 8-519 8-725V74c0-115-1-171-6-272l-272 1c4 62 5 105 5 160 0 47-1 103-1 189 0 220-3 524-6 794z"/><glyph glyph-name="bullet" unicode="•" d="M144 504c0 202 164 366 366 366s366-164 366-366-164-366-366-366-366 164-366 366z"/><glyph glyph-name="uni2023" unicode="‣" d="M190 964l664-383V437L194 104l-32 88v696z"/><glyph glyph-name="uni2027" unicode="‧" d="M428 700h315V387H428v313z"/><glyph glyph-name="arrowleft" unicode="←" d="M1062 389c-45-2-95-3-145-3-100 0-201 3-269 3H529c-45 0-110 1-177 1 76-85 137-177 168-295L302 8C264 157 164 309 6 450v115c144 130 281 291 304 431l228-71c-25-119-89-211-163-291 99-1 201-1 275-1 43 0 134-3 234-3 57 0 117 1 172 4V512z"/><glyph glyph-name="arrowup" unicode="↑" d="M554 1396c130-144 291-281 431-304l-71-228c-116 24-207 84-285 156 1-229 3-450 3-732V138c0-115-1-171-6-272H354c4 62 5 105 5 160 0 47-1 104-1 190v815c-79-68-166-121-274-149l-87 218c149 38 301 138 442 296h115z"/><glyph glyph-name="arrowright" unicode="→" d="M12 628c45 2 95 3 145 3 100 0 201-3 269-3h296c-76 85-137 176-168 294l218 87c38-149 138-301 296-442V452C924 322 787 161 764 21L536 92c25 119 89 212 163 292H424c-43 0-134 3-234 3-57 0-117-1-172-4v122z"/><glyph glyph-name="arrowdown" unicode="↓" d="M554-92H439C298 66 146 166-3 204l87 218c108-28 195-82 274-150v816c0 86 1 141 1 188 0 55-1 98-5 160l272 2c5-101 6-157 6-272v-150c0-282-2-504-3-733 78 72 169 133 285 157l71-228C845 189 684 52 554-92z"/><glyph glyph-name="arrowboth" unicode="↔" d="M1090 455C946 325 809 164 786 24L558 95c25 118 87 211 161 290-40 1-77 1-107 1H493c-45 0-110 1-177 1 76-85 137-177 168-295L266 5C228 154 128 306-30 447v115c144 130 281 291 304 431l228-71c-25-119-89-211-163-291 99-1 201-1 275-1 28 0 75-1 132-2-77 85-139 178-170 297l218 87c38-149 138-301 296-442V455z"/><glyph glyph-name="arrowupdn" unicode="↕" d="M554 1396c130-144 291-281 431-304l-71-228c-116 24-207 84-285 156 1-229 3-450 3-732v-19c80 69 168 124 277 153l87-218C847 166 695 66 554-92H439C309 52 148 189 8 212l71 228c113-24 202-82 279-152v743c-79-68-166-121-274-149l-87 218c149 38 301 138 442 296h115z"/><glyph glyph-name="uni21C4" unicode="⇄" d="M32 1268c45 2 95 3 145 3 100 0 201-3 269-3h296c-76 85-137 177-168 295l218 87c38-149 138-301 296-442v-115C944 963 807 802 784 662l-228 71c25 119 88 211 162 291H444c-43 0-134 3-234 3-57 0-117-1-172-4v122zM1035 200c-45-2-95-3-145-3-100 0-201 3-269 3H502c-45 0-111 1-178 1 76-85 138-177 169-295l-218-87C237-32 137 120-21 261v115c144 130 281 291 304 431l228-71c-25-119-89-211-163-291 99-1 201-1 275-1 43 0 134-3 234-3 57 0 117 1 172 4V323z"/><glyph glyph-name="uni21C6" unicode="⇆" d="M1041 1268l-6-123v-122c-55 3-115 4-172 4-100 0-191-3-234-3H354c74-80 138-172 163-291l-228-71c-23 140-160 301-304 431v115c158 141 258 293 296 442l218-87c-31-118-93-210-169-295h297c68 0 169 3 269 3 50 0 100-1 145-3zM38 200l6 123v122c55-3 115-4 172-4 100 0 191 3 234 3 74 0 175 0 274 1-74 80-137 172-162 291l228 71c23-140 160-301 304-431V261C936 120 836-32 798-181L580-94c31 118 92 210 168 295-67 0-132-1-177-1H452c-68 0-169-3-269-3-50 0-100 1-145 3z"/><glyph glyph-name="uni21C9" unicode="⇉" d="M2 444c45 2 95 3 145 3 100 0 201-3 269-3h119c45 0 110-1 177-1-76 85-137 177-168 295 25 119 75 206 149 286-99 1-201 1-275 1-43 0-134 3-234 3-57 0-117-1-172-4v122l-6 123c45 2 95 3 145 3 100 0 201-3 269-3h119c45 0 110-1 177-1-76 85-137 177-168 295l218 87c38-149 138-301 296-442v-115C948 990 838 867 786 751c49-125 140-250 272-368V268C914 138 777-23 754-163L526-92c25 119 89 211 163 291-99 1-201 1-275 1-43 0-134 3-234 3-57 0-117-1-172-4v122z"/><glyph glyph-name="uni21C5" unicode="⇅" d="M382 1396c130-144 196-270 277-474L498 821c-32 76-76 199-76 199 1-229 3-450 3-732V138c0-115-1-171-6-272H182c4 62 5 105 5 160 0 47-1 104-1 190v815c-32-46-48-90-112-186L-74 969c64 104 200 269 341 427h115zM878-197H734C639-74 533 130 449 274l141 97c64-96 60-158 92-204v816c0 86 1 142 1 189 0 55-1 98-5 160l237 1c5-101 6-157 6-272V911c0-282-2-504-3-733 0 0 52 91 84 167l168-104c-72-96-162-294-292-438z"/><glyph glyph-name="uni21C8" unicode="⇈" d="M878 1393c130-144 220-342 292-438l-168-104c-32 76-84 167-84 167 1-229 3-451 3-733V135c0-115-1-171-6-272l-237 1c4 62 5 105 5 160 0 47-1 103-1 189v816c-53-44-67-138-82-208H498c-28 73-54 181-76 199 1-229 3-450 3-732V138c0-115-1-171-6-272H182c4 62 5 105 5 160 0 47-1 104-1 190v815c-32-46-48-90-112-186L-74 969c64 104 169 269 310 427h146c69-77 137-169 179-274 33 90 88 186 188 271h129z"/><glyph glyph-name="uni21CA" unicode="⇊" d="M878-197H763C657-106 598-3 564 92 525-20 456-117 382-199H267C126-41-10 123-74 227L74 351c64-96 80-140 112-186v816c0 86 1 142 1 189 0 55-1 98-5 160l237 1c5-101 6-157 6-272V909c0-282-2-504-3-733 0 0 44 123 76 199l92-4c64-96 60-158 92-204v816c0 86 1 142 1 189 0 55-1 98-5 160l237 1c5-101 6-157 6-272V911c0-282-2-504-3-733 0 0 52 91 84 167l168-104c-72-96-162-294-292-438z"/><glyph glyph-name="uni21C7" unicode="⇇" d="M1035 444l-6-123V199c-55 3-115 4-172 4-100 0-191-3-234-3-74 0-176 0-275-1 74-80 138-172 163-291l-228-71C260-23 123 138-21 268v115c132 118 223 243 272 368-52 116-162 239-276 342v115c158 141 258 293 296 442l218-87c-31-118-92-210-168-295 67 0 132 1 177 1h119c68 0 169 3 269 3 50 0 100-1 145-3l-6-123v-122c-55 3-115 4-172 4-100 0-191-3-234-3-74 0-176 0-275-1 74-80 124-167 149-286-31-118-92-210-168-295 67 0 132 1 177 1h119c68 0 169 3 269 3 50 0 100-1 145-3z"/><glyph glyph-name="guilsinglleft" unicode="‹" d="M227 576c144 130 281 291 304 431l228-71c-40-189-176-312-301-421 128-118 238-237 283-409L523 19c-38 149-138 301-296 442v115z"/><glyph glyph-name="guilsinglright" unicode="›" d="M826 454C682 324 545 163 522 23L294 94c40 189 176 312 301 421-128 118-238 237-283 409l218 87c38-149 138-301 296-442V454z"/><glyph glyph-name="exclamdbl" unicode="‼" d="M918 1376l-16-912-283-2-16 914h315zM586 270h350V0H586v270zM438 1376l-16-912-283-2-16 914h315zM106 270h350V0H106v270z"/><glyph glyph-name="uni203D" unicode="‽" d="M661 1133c-6-82-9-163-9-244v-35c69 41 131 80 131 140 0 62-54 113-122 139zm-278 193c-2 17-4 33-6 50h315c-3-15-6-29-8-44 196-38 350-157 350-341 0-170-170-248-259-306-62-41-110-118-110-206v-49l-272 1v44c0 29 3 57 10 84 6 92 9 183 9 275 0 95-3 191-10 286-55-26-99-67-100-125 0-39 25-77 46-103L130 743c-46 64-87 133-87 224 0 199 161 316 340 359zM360 270h350V0H360v270z"/><glyph glyph-name="uni2047" unicode="⁇" d="M-25 1221c87 88 211 124 314 124 98 0 173-19 228-55 71 38 150 55 220 55 257 0 353-128 353-354 0-170-85-236-172-306-58-47-61-118-61-206v-49l-272 1v44c0 146 49 259 118 320 82 73 136 112 136 199 0 92-25 159-92 159-37 0-75-25-112-64 5-30 7-63 7-98 0-170-85-236-172-306-58-47-61-118-61-206v-49l-272 1v44c0 146 49 259 118 320 82 73 136 112 136 199 0 92-25 159-92 159-64 0-133-76-189-168zm127-951h352V0H102v270zm444 0h352V0H546v270z"/><glyph glyph-name="uni2048" unicode="⁈" d="M-25 1221c87 88 211 124 314 124 257 0 353-128 353-354 0-170-85-236-172-306-58-47-61-118-61-206v-49l-272 1v44c0 146 49 259 118 320 82 73 136 112 136 199 0 92-25 159-92 159-64 0-133-76-189-168zm127-951h352V0H102v270zm577 0h350V0H679v270zm332 1106l-16-912-283-2-16 914h315z"/><glyph glyph-name="uni2049" unicode="⁉" d="M407 1221c87 88 211 124 314 124 257 0 353-128 353-354 0-170-85-236-172-306-58-47-61-118-61-206v-49l-272 1v44c0 146 49 259 118 320 82 73 136 112 136 199 0 92-25 159-92 159-64 0-133-76-189-168zm127-951h352V0H534v270zm-469 0h350V0H65v270zm332 1106l-16-912-283-2-16 914h315z"/><glyph glyph-name="uni0232" unicode="Ȳ" d="M745 1680v-194h-17c-58-2-156-7-230-7s-167 1-235 3l-18 1v197l19-2c65-2 180-3 272-3 61 0 147 5 192 5h17zM368 0v138c0 92 7 354 7 475-79 113-310 501-361 609l219 141c40-79 191-371 278-511 98 142 215 435 253 524l228-136c-47-96-297-538-367-638 0-48-2-97-2-152-3-135-5-279-5-322V0H368z"/><glyph glyph-name="uni0233" unicode="ȳ" d="M724 1387.1v-194h-17c-58-2-156-7-230-7s-167 1-235 3l-18 1v197l19-2c65-2 180-3 272-3 61 0 147 5 192 5h17zM352-174c89 0 157 150 177 244-210 480-331 681-428 681-20 0-34 0-44-1l-1 261s42 2 76 2c192 0 341-266 517-672 74 217 59 445 67 672h256c0-60 0-122-2-174-15-323-142-708-324-1013-103-173-187-202-334-202C98-376 46-173 42 0h236c0-114 26-174 74-174z"/><glyph glyph-name="uniE0A0" unicode="" d="M416-364H140V0c0 119 26 217 79 292 36 53 92 104 169 154l152 99c60 39 103 85 128 139 26 52 39 122 39 209v329H498l292 342 292-342H873V837c0-128-18-226-53-295-36-68-90-125-161-172l-75-50c-62-41-105-82-128-124-27-47-40-113-40-196v-364zm0 1067L140 525v1071h276V703z"/><glyph glyph-name="uniE0A1" unicode="" d="M582 880V748H76v900h154V880h352zm202-213h158v-900H776L530 352l20-390v-195H392v900h166L804 80l-20 429v158z"/><glyph glyph-name="uniE0A2" unicode="" d="M208 0C97 0 42 47 42 141v640c0 101 47 151 143 151v355c0 91 33 167 99 228 64 58 143 87 237 87s174-29 237-87c66-61 99-137 99-228V932c96 0 143-50 143-151V141c0-94-55-141-166-141H208zm313 1472c-53 0-94-17-127-50-31-33-48-78-48-135V932h350v355c0 57-17 102-47 135-34 33-75 50-128 50zm55-1236v274c45 23 68 60 68 111 0 34-12 63-36 88-25 24-54 36-88 36s-63-12-88-36c-24-25-36-54-36-88 0-51 23-88 68-111V236h112z"/><glyph glyph-name="uniE0B0" unicode="" d="M-78 1820h59L1040 658-20-504h-58v2324z"/><glyph glyph-name="uniE0B1" unicode="" d="M-57 1682l96 95L1060 658 39-461l-96 95L875 658z"/><glyph glyph-name="uniE0B2" unicode="" d="M1138-505h-58L20 658l1060 1162h58V-505z"/><glyph glyph-name="uniE0B3" unicode="" d="M185 658l932-1024-96-95L0 658l1021 1119 96-95z"/><glyph glyph-name="block" unicode="█" d="M-20 1820h1100V-505H-20v2325z"/><glyph glyph-name="uni0180" unicode="ƀ" d="M750 478c0 263-73 335-165 335-72 0-133-75-166-130V349c51-102 122-176 183-176 108 0 148 115 148 305zm255-19C1005 152 887-7 636-7 512-7 433 40 395 93c0-42-44-106-44-106L155 7c10 66 19 153 19 236v24c0 237-1 575-1 849H0v204h166c-2 30-5 58-8 83l247 9c3-28 6-59 8-92h219v-204H419c-2-70-8-120-24-186 37 28 111 83 225 83 272 0 385-182 385-554z"/><glyph glyph-name="SF110000" unicode="│" d="M613 1820V-505H448v2325h165z"/><glyph glyph-name="uni2503" unicode="┃" d="M660 1820V-505H400v2325h260z"/><glyph glyph-name="uni2506" unicode="┆" d="M613 1510v-421H448v421h165zm0-744V346H448v420h165zm0-743v-421H448V23h165z"/><glyph glyph-name="uni2507" unicode="┇" d="M660 1510v-421H400v421h260zm0-743V346H400v421h260zm0-744v-421H400V23h260z"/><glyph glyph-name="uni250A" unicode="┊" d="M613 1591v-316H448v316h165zm0-558V717H448v316h165zm0-558V160H448v315h165zm0-557v-316H448v316h165z"/><glyph glyph-name="uni250B" unicode="┋" d="M660 1591v-316H400v316h260zm0-558V717H400v316h260zm0-557V160H400v316h260zm0-558v-316H400v316h260z"/><glyph glyph-name="uni23B8" unicode="⎸" d="M165 1820V-505H0v2325h165z"/><glyph glyph-name="uni23B9" unicode="⎹" d="M1060 1820V-505H895v2325h165z"/></font>
</defs>
</svg>
