<svg><defs><font id="FantasqueSansMono-Regular" horiz-adv-x="1060"><font-face font-family="Fantasque Sans Mono" font-weight="400" units-per-em="2048" panose-1="2 11 5 9 2 2 4 3 2 4" ascent="1650" descent="-398" x-height="1021" cap-height="1302" bbox="-167 -797 1138 2143" underline-thickness="96" underline-position="-192" unicode-range="U+0020-E0B3"/><glyph glyph-name="a" unicode="a" d="M234 311c0-105 56-165 149-165 210 0 315 158 341 199v95c-57 35-131 64-235 64-136-1-255-75-255-193zm647 7c0-35 0-128 13-145 13-18 50-41 79-64L890-10c-52 40-112 65-130 166C682 81 580-6 383-6 212-6 78 135 78 301c0 76 30 165 89 226 95 97 196 121 314 121 126 0 189-18 243-51 0 189-69 280-239 280-138 0-201-30-281-173L74 786c96 182 230 242 409 242 242 0 398-155 398-380V318z"/><glyph glyph-name="b" unicode="b" d="M749 478c0 283-112 387-275 387-91 0-153-70-205-121V307c71-114 118-160 255-160 170 0 225 127 225 331zm157-19C906 191 799-7 524-7 412-7 332 28 269 84c-1-42-6-64-11-96L93 7c10 66 19 153 19 236v24c0 249-1 610-1 890 0 94-8 178-15 246l159 9c9-73 14-169 14-260V949c48 36 91 71 191 71 323 0 446-225 446-561z"/><glyph glyph-name="c" unicode="c" d="M230 527c0-370 207-377 317-377h13c156 0 231 65 283 152l126-91C936 169 843-7 564-7 460-7 337 1 241 73 111 174 71 328 71 527c0 367 178 491 493 491 95 0 169-24 229-70 61-47 92-107 114-159l-154-60c-11 41-40 136-200 136-221 0-323-99-323-338z"/><glyph glyph-name="d" unicode="d" d="M231 478c0-204 53-331 223-331 137 0 185 46 256 160v437c-52 51-161 124-252 124-163 0-227-107-227-390zm636-211v-26c0-83 8-169 18-234L721-12c-5 32-10 54-11 96C647 28 566-7 454-7 179-7 73 191 73 459c0 336 76 564 399 564 100 0 189-43 237-74v207c0 94-8 179-15 247l160 8c9-73 14-168 14-259z"/><glyph glyph-name="e" unicode="e" d="M236 580c129 1 386 15 528 31-6 156-118 258-254 258-170 0-273-135-274-289zm273 441c377 0 414-380 414-518 0-20 0-35-1-43-280-19-508-31-686-33 0-153 86-284 290-284 143 0 227 79 266 133l123-109C874 122 760-10 522-10 224-10 78 203 78 516c0 286 148 505 431 505z"/><glyph glyph-name="f" unicode="f" d="M568 1266c-147 0-156-98-156-206v-39c68 0 198-1 271-1 104-3 131-11 161-20l-29-146c-21 7-42 13-98 13H412c1-154 3-863 3-867H258c0 25-1 720-3 867H112v153h144c0 16-1 25-1 44 0 143 28 354 305 354 219 0 367-26 451-193l-126-77c-50 98-112 118-317 118z"/><glyph glyph-name="g" unicode="g" d="M237-76c0-126 75-156 207-156h105c115 0 254 41 254 207 0 85-149 96-270 96-9 0-66 0-212-2-56-22-84-82-84-145zm239 633c129 0 228 52 228 149 0 129-85 168-212 168-136 0-239-73-239-165 0-116 93-152 223-152zM95 699c0 210 151 327 397 327 115 0 189-20 254-60 56 52 109 62 219 62V864c-12 2-34 5-44 5-35 0-74-5-91-22 26-47 30-89 30-137 0-189-154-303-379-303-71 0-134 7-199 32-19-22-43-57-43-98 0-76 54-118 180-118 26 0 154 2 181 2 188 0 361-59 361-249 0-259-174-364-418-364H440C229-388 80-291 80-82c0 100 32 171 87 219-57 42-85 113-85 191 0 91 32 151 74 199-34 38-61 100-61 172z"/><glyph glyph-name="p" unicode="p" d="M763 527c0 204-54 331-224 331-137 0-185-46-256-160V262c52-51 109-114 200-114 163 0 280 96 280 379zM127 739v24c0 83-9 169-19 235l164 20c5-32 10-54 11-96 63 56 143 91 255 91 275 0 382-199 382-467C920 210 792-7 469-7 369-7 331 25 283 56v-207c0-94 9-178 16-246l-159-9c-9 73-14 169-14 260z"/><glyph glyph-name="h" unicode="h" d="M739 576c0 227-36 291-237 291-101 0-202-74-233-136V198c0-79-5-152-10-198L101 8c8 72 11 119 11 196 0 504-1 1198-1 1198h159V940c65 41 137 80 239 80 121 0 231-9 310-105 72-85 77-163 77-273v-66c0-164-1-241-1-353 0-55 26-84 86-123L893-17c-80 45-154 98-154 225v368z"/><glyph glyph-name="i" unicode="i" d="M313 1406h235v-225H313v225zm104-393h116c0-273 1-803 1-803 5-82 49-86 141-86 93 0 217 21 286 73l68-114C943 12 800-18 676-18c-85 0-161 14-205 38-85 47-93 127-93 186v651c-49 0-163-6-258-28L91 971c112 26 222 42 326 42z"/><glyph glyph-name="j" unicode="j" d="M560 1404l234-3v-225l-234 3v225zm67-1518l-1 978h-16c-98 0-150-8-240-29l-28 142c112 26 220 42 324 42h117V-118c0-145-61-269-299-269-123 0-267 22-393 227l126 98c99-162 183-169 246-169h17c112 0 145 82 147 117z"/><glyph glyph-name="k" unicode="k" d="M586 566c101 0 156 91 156 179 0 18-2 35-7 50-10 33-42 77-105 77-24 0-52-6-85-22-99-47-178-92-252-142v-90c84-13 149-28 198-39 37-8 68-13 95-13zM293 880c72 49 222 136 328 136 136 0 259-83 273-202 3-23 5-53 5-82 0-33-3-67-8-93-6-34-58-136-161-185 98-73 96-193 149-281 24-39 50-60 83-84L878-19C755 41 720 159 693 238c-50 145-275 217-399 231 0 0-2-190-2-340 0-50 1-96 1-129H136v1228c0 61-10 114-23 155l153 44c9-23 27-68 27-134V880z"/><glyph glyph-name="l" unicode="l" d="M415 1428h116c0-273 3-1216 3-1216 5-82 49-86 141-86 93 0 217 21 286 73l68-114C943 14 800-16 676-16c-85 0-161 14-205 38-85 47-93 127-93 186l-3 1065c-17 0-44 1-74 1-57 0-129-3-190-17l-28 143c112 26 228 28 332 28z"/><glyph glyph-name="m" unicode="m" d="M765 1026c145 0 170-192 170-287V216c0-51 51-88 92-104L966-21C895-7 795 50 795 191v582c0 35-4 100-64 100-48 0-100-46-162-181V0H428v806c0 28-2 67-48 67-48 0-117-46-179-182V0H60l-3 815c0 93-13 143-30 192l150 40c15-32 29-124 31-170 46 80 133 149 206 149 97 0 154-79 154-149 43 79 105 149 197 149z"/><glyph glyph-name="o" unicode="o" d="M654 215c65 61 89 167 89 315v18c-2 184-66 330-243 330-208 0-270-165-270-409 0-195 87-313 254-313 76 1 120 17 170 59zM482 1C210 2 72 184 72 464c0 292 102 568 394 568 197 0 307-69 377-201 41-79 59-192 59-288C902 258 806 1 484 1h-2z"/><glyph glyph-name="n" unicode="n" d="M270 927c126 66 218 95 328 95 120 0 299-77 299-226V211c0-66 50-88 106-118L919-19c-88 43-180 94-180 223v561c0 74-97 107-163 107-64 0-160-42-306-112V0L112-1v706c0 178-8 204-32 298l160 37c10-24 22-64 30-113z"/><glyph glyph-name="q" unicode="q" d="M270 527c0-283 117-379 280-379 91 0 149 63 201 114v436c-71 114-119 160-256 160-170 0-225-127-225-331zm638 236v-914c0-94 8-178 15-246l-159-9c-9 73-13 169-13 260V56C703 25 664-7 564-7 241-7 114 210 114 546c0 268 106 467 381 467 112 0 193-35 256-91 1 42 6 64 11 96l164-20c-10-66-18-152-18-235z"/><glyph glyph-name="r" unicode="r" d="M370 875c93 114 197 150 352 150 167 0 212-114 212-296v-6H778c-4 81 8 142-84 142-101 0-228-36-328-259V0L210 1v763c0 57-40 86-102 141l104 141c61-49 121-87 158-171z"/><glyph glyph-name="s" unicode="s" d="M269 571c-65 35-117 101-117 212 1 173 163 246 338 246 122 0 298-40 380-141L757 777c-53 62-167 104-253 104-106 0-195-29-195-94 0-48 20-71 60-89 265-112 527-133 527-417C896 119 782 28 675 0c-56-13-116-20-173-20-256 0-384 135-384 350l157-1c0-134 69-206 224-206 123 0 242 53 242 163 0 73-31 99-86 140-77 55-281 90-386 145z"/><glyph glyph-name="t" unicode="t" d="M359 437v-40c0-133 36-234 147-245 18-2 95-3 108-3 65 0 129 10 154 24 57 30 75 85 82 104l126-56c-10-28-33-119-145-184C773 3 701-6 616-6 432-6 310 13 239 161c-35 72-39 147-39 233v43c4 104 6 235 12 428h-14c-28 0-56-4-82-11l-20 146c24 9 69 12 102 12h15c0 70 1 164 1 234l158-1c0-66-1-160-2-228h122c145 1 299 2 299 2h18V872H492c-46 0-73-3-119-3-9-204-10-332-14-432z"/><glyph glyph-name="u" unicode="u" d="M906-10c-57 41-111 82-133 168C689 72 592 5 442 2h-9c-62 0-147 1-207 42-45 31-112 88-112 170-3 268 4 697-23 780l160 27c22-92 17-405 19-771 6-34 28-60 50-76 14-10 65-18 106-18 67 3 108 11 159 42 47 28 116 58 154 146v676h158V239c2-52 51-100 91-132z"/><glyph glyph-name="v" unicode="v" d="M153 1048c70-75 92-124 118-199 45-126 219-568 230-672 124 143 248 433 254 640 1 28 1 64 1 97 0 41 0 79-2 97l152 4c3-16 5-136 5-194-2-245-152-570-297-750C557 0 473-3 367-3c0 140-201 688-263 842-8 21-54 88-80 113z"/><glyph glyph-name="w" unicode="w" d="M6 976l148 76c34-59 65-137 88-257 46-242 43-468 50-646 119 0 181 153 181 412v263h140V520c0-158 41-271 72-373 90 0 164 161 164 534 0 124-12 269-24 339h156c5-47 8-230 8-310C989 220 860 0 648 0h-54c-17 64-43 147-57 209C500 129 416 0 224-3h-12c-27 1-43 5-60 12-5 104-15 574-69 781-16 59-56 149-77 186z"/><glyph glyph-name="x" unicode="x" d="M860 863c-50-85-168-268-248-375 78-103 212-310 232-323 4-3 20-9 54-9 18 0 36 3 52 6V9c-20-3-42-6-62-6-40 0-80 12-120 40-72 47-176 218-260 336C358 184 201 0 186-18L65 84c8 11 189 239 345 427-84 118-198 275-330 449l130 101c124-170 226-321 308-437 72 87 128 183 198 306 20 35 30 72 34 89l158 1c-6-49-16-106-48-157z"/><glyph glyph-name="y" unicode="y" d="M336-223c106 0 160 185 198 291-94 328-213 645-351 769-33 30-74 31-110 31v153c33 0 83-4 111-8 167-25 329-401 442-726 74 217 140 506 148 733h158c0-60-5-117-14-168-65-353-166-683-298-994-53-135-131-234-280-234C165-376 56-270 56 0h156c0-177 44-223 124-223z"/><glyph glyph-name="z" unicode="z" d="M96 874l27 151c46-5 154-5 278-5h478l24-115c-11-11-146-169-351-382-123-125-231-234-306-367l538-1c56 0 108-12 169-32L913-22C868-9 851 0 786 0H71v20c0 73 1 125 22 169 76 159 206 280 343 429 96 105 176 185 238 243h-31c-67 0-158 2-245 2-125 0-245 2-302 11z"/><glyph glyph-name="A" unicode="A" d="M718 495l-194 587-186-607c60 13 116 13 199 17zm-284 806h171L983 172c11-37 29-118 31-172H850c0 23-12 95-20 122l-70 210c-141-3-362-5-473-32l-59-179c-10-29-24-93-24-121H42c1 28 19 116 32 159z"/><glyph glyph-name="B" unicode="B" d="M97 823c0 173-3 335-12 462 81 6 130 14 243 14h18c206 0 402-81 402-297 0-96-25-179-86-235 155-52 280-184 280-374C942 168 793 23 626 3c-39-5-80-8-119-8-85 0-175 8-283 8H88c0 194 9 404 9 820zm494 169c0 113-97 158-234 158h-17c-39 0-55-2-85-5 3-37 4-81 4-128 0-67-2-140-2-214 146 3 196-4 286 51 27 16 48 71 48 130v8zm117-414c-73 61-134 71-229 71-49 0-107-2-180-2h-44c-2-237-3-418-4-494 108 0 148-7 223-7 40 0 75 2 110 7 106 13 199 112 199 256 0 79-23 126-75 169z"/><glyph glyph-name="C" unicode="C" d="M569 1152c-115 0-204-65-252-132-45-65-102-181-102-395 0-164 31-310 129-401 62-58 110-73 192-73h14c147 5 233 79 284 191l139-76C899 111 765-3 575-3h-3C461-3 329 22 235 114 115 236 56 400 56 623c0 254 81 410 133 486 72 106 208 197 383 197 140 0 268-84 356-243l-136-81c-61 120-137 170-223 170z"/><glyph glyph-name="D" unicode="D" d="M309 1152h-30c-16 0-28 1-45-2 1-25 1-56 1-86 0-62-1-130-1-198 0-300-3-626-4-722 88-3 133-3 193-3 169 0 295 26 360 205 16 45 27 133 27 187 0 159-36 326-101 421-89 128-179 198-400 198zM70 125c0 54 6 443 6 758v74c0 126-4 248-13 334 81 8 126 13 225 13 271 0 427-80 550-259 84-124 131-300 131-477 0-68-8-135-21-200C900 132 739 14 559-3c-55-5-106-7-161-7-84 0-217 7-331 7 0 33 0 32 3 128z"/><glyph glyph-name="E" unicode="E" d="M102 1293c56 4 126 4 204 4h208c149 0 285-3 359-3h16v-150H260V816h438V666H260v-30c0-203-3-412-3-489l525 2c56 0 117 26 117 26l44-148C895 14 860-3 784-3H102v1296z"/><glyph glyph-name="F" unicode="F" d="M277-1L116 3v1295h685c77-3 125-18 159-35l-56-146c-26 14-48 27-146 28h-70c-104 0-233-1-416-2V815c120 0 187 3 309 3 88 0 147-14 148-14l18-5-36-145c-37 9-88 14-133 14-106 0-198 0-306-3 0-121 5-573 5-666z"/><glyph glyph-name="G" unicode="G" d="M861 733c46 0 89 3 131 7V605C992 170 869 49 691 3 646-7 582-8 540-8 176-8 20 280 20 628c0 237 53 431 184 558 100 88 214 116 329 116h20c214-5 348-113 423-276l-143-69c-52 114-136 193-291 193-84 0-145-6-223-73-111-95-137-288-137-460 0-259 78-470 368-470 29 0 57 2 83 9 123 28 193 108 193 431-26-2-50-2-73-2-31 0-60 1-89 1-71 0-140-5-230-38l-40 145c96 36 200 42 301 42 56 0 112-2 166-2z"/><glyph glyph-name="H" unicode="H" d="M220 1296l-1-547c92 21 187 28 307 28h228c0 274-1 352-1 514h159V0H754v625H625c-146 0-288-3-406-28 0-343 2-416 2-597H60v1294z"/><glyph glyph-name="K" unicode="K" d="M484 725c120-117 467-531 518-666L868-17C822 92 518 474 388 600c0 0-84-98-114-169V-5H116v1313h158V703c80 111 151 190 250 293 191 195 317 293 338 314l111-106c-182-132-429-406-489-479z"/><glyph glyph-name="L" unicode="L" d="M141-3v1301h161V151h521c59 3 77 7 121 22l41-146C938 11 900-3 825-3H141z"/><glyph glyph-name="M" unicode="M" d="M59 1292l155-1c48-149 87-231 156-353 50-90 76-141 95-179 83 155 213 387 265 532h157L888-5H731l-2 925c-74-141-191-345-202-381l-122 3c-8 16-66 126-154 295-21 44-16 35-31 63V-5H62z"/><glyph glyph-name="N" unicode="N" d="M752-6C589 351 435 648 233 1001V797c0-293 1-648 1-800H75v1301l159-4c126-184 402-689 519-937-2 130-3 266-3 400 0 186 3 369 12 540h154c-6-113-8-262-8-425 0-226 4-480 4-710 0-57-1-114-1-167z"/><glyph glyph-name="O" unicode="O" d="M504 1326c124 0 445-74 450-691v-11c0-164-44-317-92-410C787 70 657-13 492-13c-122 0-249 43-330 143C72 240 24 392 24 572c0 345 76 494 146 589 66 90 178 162 334 165zM266 245c49-65 118-105 226-105 116 0 189 67 234 150 40 64 69 230 70 337v19c0 115-17 268-70 371-58 114-128 156-216 156-95 0-152-28-210-104-69-89-118-231-118-493 0-104 28-258 84-331z"/><glyph glyph-name="P" unicode="P" d="M784 900c0 208-123 245-369 251-61 0-106-4-151-5v-126c0-183-1-407-1-407 36-1 70-1 103-1 286 0 418 60 418 288zM262-10L104-9v1303c118 0 156 8 289 8 225 0 364-13 479-151 54-65 74-155 74-245 0-91-8-191-68-278-98-140-223-168-462-168-48 0-99 1-153 3 0-263-1-317-1-473z"/><glyph glyph-name="Q" unicode="Q" d="M889-146c-115 0-240 34-266 161C582 4 541-3 501-3 385-3 277 40 198 121 98 225 50 408 50 629c0 207 29 399 124 521 93 120 192 155 315 155 167 0 283-65 362-206 86-153 91-309 91-420 0-151-21-326-93-448-40-66-60-101-93-138 11-73 42-89 122-92h11c37 0 60 4 84 10v-148c-22-5-39-9-84-9zM502 430c105 0 186-37 212-144 56 71 69 214 69 378v27c0 105-3 220-69 332-46 77-126 129-227 129-181 0-278-169-278-461 0-102 4-322 75-427 38 133 147 166 218 166zm105-263c-3 99-36 137-119 137-66 0-121-49-121-114v-4c30-32 80-42 123-42 35 0 76 5 117 23z"/><glyph glyph-name="R" unicode="R" d="M652 540c78-122 190-302 246-367 18-16 49-50 91-61L930-22c-58 9-112 47-146 89-97 107-255 373-311 467-82 8-150 20-226 33l1-567H90v1113c0 67-1 114-5 175 42 4 157 15 218 15 250 0 419-14 541-164 48-59 83-146 83-230 0-220-99-340-275-369zm120 355c0 55-15 105-57 153-67 78-183 102-407 102-26 0-34 0-63-1l2-430c99-18 178-41 260-41 16 0 33 1 49 3 140 18 216 52 216 214z"/><glyph glyph-name="S" unicode="S" d="M247 709C156 752 72 843 72 989c0 216 187 313 398 313h9c223-3 393-79 431-286l-159-29c-38 127-122 161-276 161-102 0-163-21-209-66-24-25-35-54-35-88 0-82 46-121 102-147 117-56 274-55 406-115 108-52 210-170 210-344C949 119 761-9 521-9h-19C149 0 43 190 43 413h158c0-159 83-271 307-271 205 0 281 95 281 238 0 107-59 175-138 209-116 50-271 60-404 120z"/><glyph glyph-name="T" unicode="T" d="M403-9v1153c-198 0-288-1-364-1v155c122 0 576 1 764 1 73 0 122-12 140-15l-33-152s-62 12-112 12H563V-9H403z"/><glyph glyph-name="U" unicode="U" d="M777 1313l157-13c-9-60-9-103-9-157 0-145 2-272 2-383v-58c0-232-4-454-116-583C729 24 621-5 492-10 184-10 86 156 68 447c-5 75-7 197-7 332 0 172 3 365 9 523h158c-4-165-8-389-8-574 0-123 2-229 7-289 18-210 100-298 252-298 106 5 158 28 212 84 67 74 78 280 78 477 0 123-5 269-5 439 0 71 3 110 13 172z"/><glyph glyph-name="V" unicode="V" d="M413-5C389 187 102 1063 8 1286l152 53c101-252 236-646 334-1014 74 314 242 752 343 1000l151-53C890 1041 592 196 574-4z"/><glyph glyph-name="W" unicode="W" d="M332 0H201C158 170 52 1035 6 1286l154 32c120-643 86-710 130-1020 70 230 139 588 145 659 45 0 133 0 167 12 36-191 84-484 142-669 33 285-3 324 124 1015l158-32C974 1032 868 178 835 0H699S553 429 521 613C474 388 340 22 332 0z"/><glyph glyph-name="X" unicode="X" d="M794 1340l134-85-360-598C739 390 836 214 978 77L874-36C722 111 630 266 478 508L160-31 28 54l352 600c-120 204-217 428-357 584l125 93c130-146 224-360 327-532z"/><glyph glyph-name="Y" unicode="Y" d="M399-6v141c0 90 7 347 7 466-79 111-322 550-373 656l140 71c40-77 232-432 319-569 98 139 298 495 336 582l139-79c-47-94-120-236-225-404-87-131-157-242-176-268 0-47-2-95-2-149-3-132-5-274-5-316V-6H399z"/><glyph glyph-name="Z" unicode="Z" d="M123-5L28 83l727 1067c-214 0-552-5-666-5l-1 153c120 0 542 4 730 4 75 0 121-13 140-16-3-33-14-114-18-137L263 151l487-1c85 0 112 4 177 25l40-148C922 11 884-3 809-3H566C354-3 178-5 130-5h-7z"/><glyph glyph-name="I" unicode="I" d="M152 1298c156 4 237 4 333 4 105 0 201-1 364-3v-152c-123 0-171 5-267 5V152c46 0 72 1 123 1 45 0 92-1 144-4V-1c-85 5-147 6-210 6-47 0-96-1-155-1-74 0-174-7-329-7v149c85 4 135 5 192 5h75v1000c-66-1-158-1-264-7z"/><glyph glyph-name="J" unicode="J" d="M414-8C139-8 42 210 40 426l160-1c6-150 59-283 212-283 186 0 221 185 221 517 0 95-16 348-28 485-49 0-128 2-165 2-104-3-116-12-143-18l-38 148c30 7 61 19 179 22 145 0 362-1 518-1l-2-153c-48 0-135 1-185 1 16-178 22-380 22-503C791 288 744-8 414-8z"/><glyph glyph-name="zero" unicode="0" d="M280 455l389 498c-31 100-68 202-178 202-199 0-223-344-223-557 0-50 8-119 12-143zm426 363L314 317c26-95 68-180 179-180 207 0 219 323 219 542 0 49-2 98-6 139zm-216 490c303 0 377-349 377-648 0-302-56-676-374-676-300 0-380 328-380 632s74 692 377 692z"/><glyph glyph-name="period" unicode="." d="M397 269h251V0H397v269z"/><glyph glyph-name="comma" unicode="," d="M401 274h251l7-263V8c0-197-84-325-251-401l-61 139c92 51 142 121 142 259h-88v269z"/><glyph glyph-name="eacute" unicode="é" d="M240 1208c143 48 352 205 467 313l123-146c-111-112-379-268-522-315zm-4-628c129 1 386 15 528 31-6 156-118 258-254 258-170 0-273-135-274-289zm273 441c377 0 414-380 414-518 0-20 0-35-1-43-280-19-508-31-686-33 0-153 86-284 290-284 143 0 227 79 266 133l123-109C874 122 760-10 522-10 224-10 78 203 78 516c0 286 148 505 431 505z"/><glyph glyph-name="egrave" unicode="è" d="M744 1212l-68-148c-143 47-411 203-522 315l123 146c115-108 324-265 467-313zM236 580c129 1 386 15 528 31-6 156-118 258-254 258-170 0-273-135-274-289zm273 441c377 0 414-380 414-518 0-20 0-35-1-43-280-19-508-31-686-33 0-153 86-284 290-284 143 0 227 79 266 133l123-109C874 122 760-10 522-10 224-10 78 203 78 516c0 286 148 505 431 505z"/><glyph glyph-name="ecircumflex" unicode="ê" d="M497 1496l375-328-107-107-271 221-261-221-104 107zM236 580c129 1 386 15 528 31-6 156-118 258-254 258-170 0-273-135-274-289zm273 441c377 0 414-380 414-518 0-20 0-35-1-43-280-19-508-31-686-33 0-153 86-284 290-284 143 0 227 79 266 133l123-109C874 122 760-10 522-10 224-10 78 203 78 516c0 286 148 505 431 505z"/><glyph glyph-name="edieresis" unicode="ë" d="M201 1403l235-3v-225l-235 3v225zm406-3l235-3v-225l-235 3v225zM236 580c129 1 386 15 528 31-6 156-118 258-254 258-170 0-273-135-274-289zm273 441c377 0 414-380 414-518 0-20 0-35-1-43-280-19-508-31-686-33 0-153 86-284 290-284 143 0 227 79 266 133l123-109C874 122 760-10 522-10 224-10 78 203 78 516c0 286 148 505 431 505z"/><glyph glyph-name="agrave" unicode="à" d="M724 1212l-68-148c-143 47-411 203-522 315l123 146c115-108 324-265 467-313zM234 311c0-105 56-165 149-165 210 0 315 158 341 199v95c-57 35-131 64-235 64-136-1-255-75-255-193zm647 7c0-35 0-128 13-145 13-18 50-41 79-64L890-10c-52 40-112 65-130 166C682 81 580-6 383-6 212-6 78 135 78 301c0 76 30 165 89 226 95 97 196 121 314 121 126 0 189-18 243-51 0 189-69 280-239 280-138 0-201-30-281-173L74 786c96 182 230 242 409 242 242 0 398-155 398-380V318z"/><glyph glyph-name="aacute" unicode="á" d="M214 1212c143 48 352 205 467 313l123-146c-111-112-379-268-522-315zm20-901c0-105 56-165 149-165 210 0 315 158 341 199v95c-57 35-131 64-235 64-136-1-255-75-255-193zm647 7c0-35 0-128 13-145 13-18 50-41 79-64L890-10c-52 40-112 65-130 166C682 81 580-6 383-6 212-6 78 135 78 301c0 76 30 165 89 226 95 97 196 121 314 121 126 0 189-18 243-51 0 189-69 280-239 280-138 0-201-30-281-173L74 786c96 182 230 242 409 242 242 0 398-155 398-380V318z"/><glyph glyph-name="acircumflex" unicode="â" d="M453 1499l375-328-107-107-271 221-261-221-104 107zM234 311c0-105 56-165 149-165 210 0 315 158 341 199v95c-57 35-131 64-235 64-136-1-255-75-255-193zm647 7c0-35 0-128 13-145 13-18 50-41 79-64L890-10c-52 40-112 65-130 166C682 81 580-6 383-6 212-6 78 135 78 301c0 76 30 165 89 226 95 97 196 121 314 121 126 0 189-18 243-51 0 189-69 280-239 280-138 0-201-30-281-173L74 786c96 182 230 242 409 242 242 0 398-155 398-380V318z"/><glyph glyph-name="atilde" unicode="ã" d="M320 1364c148 0 206-121 296-121 64 0 133 39 147 127l148-52c-32-120-149-228-281-228-140 0-197 121-298 121-59 0-117-9-155-115l-138 74c74 164 171 194 281 194zM234 311c0-105 56-165 149-165 210 0 315 158 341 199v95c-57 35-131 64-235 64-136-1-255-75-255-193zm647 7c0-35 0-128 13-145 13-18 50-41 79-64L890-10c-52 40-112 65-130 166C682 81 580-6 383-6 212-6 78 135 78 301c0 76 30 165 89 226 95 97 196 121 314 121 126 0 189-18 243-51 0 189-69 280-239 280-138 0-201-30-281-173L74 786c96 182 230 242 409 242 242 0 398-155 398-380V318z"/><glyph glyph-name="adieresis" unicode="ä" d="M153 1406l235-3v-225l-235 3v225zm406-3l235-3v-225l-235 3v225zM234 311c0-105 56-165 149-165 210 0 315 158 341 199v95c-57 35-131 64-235 64-136-1-255-75-255-193zm647 7c0-35 0-128 13-145 13-18 50-41 79-64L890-10c-52 40-112 65-130 166C682 81 580-6 383-6 212-6 78 135 78 301c0 76 30 165 89 226 95 97 196 121 314 121 126 0 189-18 243-51 0 189-69 280-239 280-138 0-201-30-281-173L74 786c96 182 230 242 409 242 242 0 398-155 398-380V318z"/><glyph glyph-name="aring" unicode="å" d="M395.5 1286c0-35 36-72 87-72s85 37 85 72-33 69-85 69-87-34-87-69zm-129-2c0 111 102 195 217 195s216-84 216-195-101-195-216-195-217 84-217 195zM234 311c0-105 56-165 149-165 210 0 315 158 341 199v95c-57 35-131 64-235 64-136-1-255-75-255-193zm647 7c0-35 0-128 13-145 13-18 50-41 79-64L890-10c-52 40-112 65-130 166C682 81 580-6 383-6 212-6 78 135 78 301c0 76 30 165 89 226 95 97 196 121 314 121 126 0 189-18 243-51 0 189-69 280-239 280-138 0-201-30-281-173L74 786c96 182 230 242 409 242 242 0 398-155 398-380V318z"/><glyph glyph-name="ae" unicode="æ" d="M177 324c0-108 41-162 124-162 90 0 129 137 140 165v147c-43 25-85 34-139 34-78 0-125-83-125-184zm417 291c89 6 147 8 231 8 0 106-22 246-92 246-128 0-139-92-139-254zM505 97C475 63 415 4 312 4c-63 0-128 15-182 53C49 114 23 211 23 309c0 167 64 352 268 352 77 0 112-16 150-32 0 97-22 241-141 241h-9c-52 0-82-3-148-103l-10-14-117 74 11 18c85 134 150 178 273 178 56 0 102-8 163-55 19-16 38-40 50-59 41 61 89 114 211 114 244 0 252-349 252-548l-382-10V220c25-29 76-59 139-59 59 0 110 56 148 109l107-100C895 44 791 5 714 5c-81 0-153 33-209 92z"/><glyph glyph-name="colon" unicode=":" d="M394 1019.87h251v-269H394v269zM394 271h251V2H394v269z"/><glyph glyph-name="semicolon" unicode=";" d="M390 1020.4h251v-269H390v269zm3-746.4h251l7-263V8c0-197-84-325-251-401l-61 139c92 51 142 121 142 259h-88v269z"/><glyph glyph-name="exclam" unicode="!" d="M613 1376l-16-913-166-2-16 915h198zM388 270h250V0H388v270z"/><glyph glyph-name="space"/><glyph glyph-name="quotesingle" unicode="'" d="M552 1467l253-33c-36-299-218-509-347-618L322 956c67 57 206 283 230 511z"/><glyph glyph-name="Agrave" unicode="À" d="M771 1467l-68-148c-143 47-411 203-522 315l123 146c115-108 324-265 467-313zm-53-972l-194 587-186-607c60 13 116 13 199 17zm-284 806h171L983 172c11-37 29-118 31-172H850c0 23-12 95-20 122l-70 210c-141-3-362-5-473-32l-59-179c-10-29-24-93-24-121H42c1 28 19 116 32 159z"/><glyph glyph-name="Aacute" unicode="Á" d="M222 1478c143 48 352 205 467 313l123-146c-111-112-379-268-522-315zm496-983l-194 587-186-607c60 13 116 13 199 17zm-284 806h171L983 172c11-37 29-118 31-172H850c0 23-12 95-20 122l-70 210c-141-3-362-5-473-32l-59-179c-10-29-24-93-24-121H42c1 28 19 116 32 159z"/><glyph glyph-name="Acircumflex" unicode="Â" d="M505 1748l375-328-107-107-271 221-261-221-104 107zM718 495l-194 587-186-607c60 13 116 13 199 17zm-284 806h171L983 172c11-37 29-118 31-172H850c0 23-12 95-20 122l-70 210c-141-3-362-5-473-32l-59-179c-10-29-24-93-24-121H42c1 28 19 116 32 159z"/><glyph glyph-name="Atilde" unicode="Ã" d="M369 1634c148 0 206-121 296-121 64 0 133 39 147 127l148-52c-32-120-149-228-281-228-140 0-197 121-298 121-59 0-117-9-155-115l-138 74c74 164 171 194 281 194zM718 495l-194 587-186-607c60 13 116 13 199 17zm-284 806h171L983 172c11-37 29-118 31-172H850c0 23-12 95-20 122l-70 210c-141-3-362-5-473-32l-59-179c-10-29-24-93-24-121H42c1 28 19 116 32 159z"/><glyph glyph-name="Adieresis" unicode="Ä" d="M197 1607l235-3v-225l-235 3v225zm406-3l235-3v-225l-235 3v225zM718 495l-194 587-186-607c60 13 116 13 199 17zm-284 806h171L983 172c11-37 29-118 31-172H850c0 23-12 95-20 122l-70 210c-141-3-362-5-473-32l-59-179c-10-29-24-93-24-121H42c1 28 19 116 32 159z"/><glyph glyph-name="Aring" unicode="Å" d="M718 495l-194 587-186-607c60 13 116 13 199 17zm-289 952c0-35 36-72 87-72s85 37 85 72-33 69-85 69-87-34-87-69zm-129-2c0 111 102 195 217 195s216-84 216-195c0-77-49-142-118-174L983 172c11-37 29-118 31-172H850c0 23-12 95-20 122l-70 210c-141-3-362-5-473-32l-59-179c-10-29-24-93-24-121H42c1 28 19 116 32 159l350 1110c-72 31-124 97-124 176z"/><glyph glyph-name="igrave" unicode="ì" d="M670 1254l-68-148c-143 47-411 203-522 315l123 146c115-108 324-265 467-313zm-253-241h116c0-273 1-803 1-803 5-82 49-86 141-86 93 0 217 21 286 73l68-114C943 12 800-18 676-18c-85 0-161 14-205 38-85 47-93 127-93 186v651c-49 0-163-6-258-28L91 971c112 26 222 42 326 42z"/><glyph glyph-name="iacute" unicode="í" d="M234 1218c143 48 352 205 467 313l123-146c-111-112-379-268-522-315zm183-205h116c0-273 1-803 1-803 5-82 49-86 141-86 93 0 217 21 286 73l68-114C943 12 800-18 676-18c-85 0-161 14-205 38-85 47-93 127-93 186v651c-49 0-163-6-258-28L91 971c112 26 222 42 326 42z"/><glyph glyph-name="icircumflex" unicode="î" d="M464 1502l375-328-107-107-271 221-261-221-104 107zm-47-489h116c0-273 1-803 1-803 5-82 49-86 141-86 93 0 217 21 286 73l68-114C943 12 800-18 676-18c-85 0-161 14-205 38-85 47-93 127-93 186v651c-49 0-163-6-258-28L91 971c112 26 222 42 326 42z"/><glyph glyph-name="idieresis" unicode="ï" d="M125 1406l235-3v-225l-235 3v225zm406-3l235-3v-225l-235 3v225zm-114-390h116c0-273 1-803 1-803 5-82 49-86 141-86 93 0 217 21 286 73l68-114C943 12 800-18 676-18c-85 0-161 14-205 38-85 47-93 127-93 186v651c-49 0-163-6-258-28L91 971c112 26 222 42 326 42z"/><glyph glyph-name="ccedilla" unicode="ç" d="M230 527c0-370 207-377 317-377h13c156 0 231 65 283 152l126-91C939 172 857 19 625-4v-15c97-5 155-67 155-171 0-101-100-168-184-168-66 0-138 25-194 61l38 106c33-18 73-42 124-42 36 0 77 20 80 58v2c0 29-38 54-86 54s-50-7-78-17V-4c-82 6-168 24-239 77C111 174 71 328 71 527c0 367 178 491 493 491 95 0 169-24 229-70 61-47 92-107 114-159l-154-60c-11 41-40 136-200 136-221 0-323-99-323-338z"/><glyph glyph-name="AE" unicode="Æ" d="M979 27C934 11 896-5 821-5H479v125c-10 121-28 244-39 368-22 2-41 3-59 3-27 0-51-3-82-10L152-16 22 36c129 426 217 855 312 1284h83c71 3 174 3 282 3h260v-153h-17c-83 0-102-2-225-2H534v-45c0-21 17-216 25-295 51 1 111 5 196 5h106V681H755c-82 0-136-4-181-5 2-9 2-19 2-28 26-218 41-420 46-498h319zM429 631v14c-11 117-23 242-31 352l-69-372c32 3 30 4 83 6h17z"/><glyph glyph-name="Ccedilla" unicode="Ç" d="M569 1175c-115 0-204-66-252-134-45-66-102-185-102-403 0-167 31-316 129-409 62-59 110-75 192-75h14c147 5 233 81 284 195l139-78C906 127 789 18 625 0v-34c97-5 155-67 155-171 0-101-100-168-184-168-66 0-138 25-194 61l38 106c33-18 73-42 124-42 36 0 77 20 80 58v2c0 29-38 54-86 54s-50-7-78-17V3c-87 12-176 44-245 113C115 241 56 408 56 636c0 259 81 418 133 496 72 108 208 200 383 200 140 0 268-85 356-247l-136-83c-61 122-137 173-223 173z"/><glyph glyph-name="Egrave" unicode="È" d="M748 1478l-68-148c-143 47-411 203-522 315l123 146c115-108 324-265 467-313zm-646-185c56 4 126 4 204 4h208c149 0 285-3 359-3h16v-150H260V816h438V666H260v-30c0-203-3-412-3-489l525 2c56 0 117 26 117 26l44-148C895 14 860-3 784-3H102v1296z"/><glyph glyph-name="Eacute" unicode="É" d="M200 1480c143 48 352 205 467 313l123-146c-111-112-379-268-522-315zm-98-187c56 4 126 4 204 4h208c149 0 285-3 359-3h16v-150H260V816h438V666H260v-30c0-203-3-412-3-489l525 2c56 0 117 26 117 26l44-148C895 14 860-3 784-3H102v1296z"/><glyph glyph-name="Ecircumflex" unicode="Ê" d="M498 1784l375-328-107-107-271 221-261-221-104 107zm-396-491c56 4 126 4 204 4h208c149 0 285-3 359-3h16v-150H260V816h438V666H260v-30c0-203-3-412-3-489l525 2c56 0 117 26 117 26l44-148C895 14 860-3 784-3H102v1296z"/><glyph glyph-name="Edieresis" unicode="Ë" d="M199 1652l235-3v-225l-235 3v225zm406-3l235-3v-225l-235 3v225zm-503-356c56 4 126 4 204 4h208c149 0 285-3 359-3h16v-150H260V816h438V666H260v-30c0-203-3-412-3-489l525 2c56 0 117 26 117 26l44-148C895 14 860-3 784-3H102v1296z"/><glyph glyph-name="Igrave" unicode="Ì" d="M774 1500l-68-148c-143 47-411 203-522 315l123 146c115-108 324-265 467-313zm-622-202c156 4 237 4 333 4 105 0 201-1 364-3v-152c-123 0-171 5-267 5V152c46 0 72 1 123 1 45 0 92-1 144-4V-1c-85 5-147 6-210 6-47 0-96-1-155-1-74 0-174-7-329-7v149c85 4 135 5 192 5h75v1000c-66-1-158-1-264-7z"/><glyph glyph-name="Iacute" unicode="Í" d="M222 1488c143 48 352 205 467 313l123-146c-111-112-379-268-522-315zm-70-190c156 4 237 4 333 4 105 0 201-1 364-3v-152c-123 0-171 5-267 5V152c46 0 72 1 123 1 45 0 92-1 144-4V-1c-85 5-147 6-210 6-47 0-96-1-155-1-74 0-174-7-329-7v149c85 4 135 5 192 5h75v1000c-66-1-158-1-264-7z"/><glyph glyph-name="Icircumflex" unicode="Î" d="M491 1781l375-328-107-107-271 221-261-221-104 107zm-339-483c156 4 237 4 333 4 105 0 201-1 364-3v-152c-123 0-171 5-267 5V152c46 0 72 1 123 1 45 0 92-1 144-4V-1c-85 5-147 6-210 6-47 0-96-1-155-1-74 0-174-7-329-7v149c85 4 135 5 192 5h75v1000c-66-1-158-1-264-7z"/><glyph glyph-name="Idieresis" unicode="Ï" d="M155 1646l235-3v-225l-235 3v225zm406-3l235-3v-225l-235 3v225zm-409-345c156 4 237 4 333 4 105 0 201-1 364-3v-152c-123 0-171 5-267 5V152c46 0 72 1 123 1 45 0 92-1 144-4V-1c-85 5-147 6-210 6-47 0-96-1-155-1-74 0-174-7-329-7v149c85 4 135 5 192 5h75v1000c-66-1-158-1-264-7z"/><glyph glyph-name="quotedbl" unicode="&quot;" d="M256 1352c0 35-4 67-8 100l209 12c6-41 10-76 10-119 0-268-37-411-124-543l-153 88c40 63 66 251 66 462zm434-2c0 35-4 67-8 100l209 12c6-41 10-76 10-119 0-268-37-411-124-543l-153 88c40 63 66 251 66 462z"/><glyph glyph-name="numbersign" unicode="#" d="M417 795c-6-80-17-172-26-254 41 2 72 2 106 2h74c11 84 19 177 28 255-71 0-114-2-182-3zM341-19l-169 1c7 113 17 226 36 393-53-1-96-10-124-19L34 503c56 20 128 26 194 31 16 80 18 177 27 256h-14c-65-4-115-9-150-22L38 915c65 25 156 29 240 34 22 184 15 242 23 382 29 0 74 1 112 1 19 0 36 0 50-1-7-121-13-232-28-376h182c19 163 29 252 48 371l163-2c-25-121-39-210-58-368h135V795c-28 1-61 4-153 4-8-79-20-170-30-255h179V383c-27 1-77 3-191 3-22-197-28-287-37-408l-164 1c11 112 21 230 41 406h-24c-54 0-104-2-154-5-15-150-31-399-31-399z"/><glyph glyph-name="dollar" unicode="$" d="M247 709C156 752 72 843 72 989c0 199 187 286 398 286h9l9 235 175-14-22-232c129-20 263-101 317-218l-139-77c-32 88-117 124-190 139l-25-333c46-10 92-23 135-43 108-52 209-152 209-326 0-258-197-345-398-352l-12-230-179 14 29 227C171 106 60 231 60 439h158c0-136 71-196 182-222l32 434c-62 15-126 31-185 58zm221 412c-131-1-237-31-237-127 0-82 46-121 102-147 34-16 72-28 111-37zm93-914c143 9 227 62 227 191 0 107-58 157-137 191-19 8-39 15-59 22z"/><glyph glyph-name="oe" unicode="œ" d="M970 187S911 0 708 0c-92 0-168 40-221 95-24-32-77-95-151-95-56 0-125 5-205 91C28 202 24 380 24 459c0 46 1 126 11 176 21 123 83 382 292 382 79 0 118-27 159-63 11-9 18-17 23-23 23 37 67 87 182 87 201 0 276-222 284-448v-84h-68c-100-3-237-8-319-12l-2-259c39-39 87-61 126-61 75 0 103 67 119 102zM588 652v-21c88 5 151 4 227 11-6 104-46 220-124 220-40 0-79-11-92-57-11-35-11-96-11-153zM330 154c52 0 103 73 103 132l2 468c0 22-14 109-107 109-94 0-149-176-152-389v-18c0-71 13-187 65-265 18-27 56-37 89-37z"/><glyph glyph-name="bracketleft" unicode="[" d="M844 1483l32-154c-101-9-197-9-364-13V-101c96 3 201 4 220 4h13c63 0 129-6 143-9v-162c-25 3-65 9-136 9-59 0-305-5-398-5 0 178 2 261 2 441 0 90-1 211-2 390 0 175-2 351-2 482v421c93 0 337 7 388 7 72 3 81 4 104 6z"/><glyph glyph-name="bracketright" unicode="]" d="M199 1483c23-2 32-3 104-6 51 0 295-7 388-7v-421c0-131-2-307-2-482-1-179-2-300-2-390 0-180 2-263 2-441-93 0-339 5-398 5-71 0-111-6-136-9v162c14 3 80 9 143 9h13c19 0 124-1 220-4v1417c-167 4-263 4-364 13z"/><glyph glyph-name="parenleft" unicode="(" d="M893 1326h-9c-339 0-476-334-476-714S596-95 892-96v-166c-360 3-644 317-644 874 0 532 214 859 645 872v-158z"/><glyph glyph-name="parenright" unicode=")" d="M146 1326v158c431-13 645-340 645-872 0-557-284-871-644-874v166c296 1 484 328 484 708s-137 714-476 714h-9z"/><glyph glyph-name="hyphen" unicode="-" d="M148 594c136 6 229 6 348 6 148 0 277-2 443-2V445c-141 0-314 3-445 3-105 0-191 0-340-7z"/><glyph glyph-name="plus" unicode="+" d="M61 589c57 11 125 12 218 12h160v423l154-1c1-41 1-101 1-164 0-125-1-259-1-259 127-2 233-2 296-2h83V443h-15c-6 0-151 0-361 3l1-426-161 2v423c-199 0-307-1-375-11v155z"/><glyph glyph-name="less" unicode="&lt;" d="M874 75L749-30C725 6 681 42 633 80c-95 79-476 355-502 373v120c157 129 474 384 607 462 30 17 51 31 86 42l47-157c-161-85-396-280-555-403C459 416 782 207 874 75z"/><glyph glyph-name="greater" unicode="&gt;" d="M926 591V474C830 405 410 35 232-30l-68 139c175 94 436 304 577 417-126 90-370 268-484 374-27 25-49 44-68 74l118 102c106-126 532-418 619-485z"/><glyph glyph-name="slash" unicode="/" d="M100-80c6 13 34 70 52 112 96 225 479 1120 587 1406l148-58C749 1028 368 141 248-141z"/><glyph glyph-name="one" unicode="1" d="M496 1302l198-12V-9H530l-2 1064c-68-85-196-184-319-274L108 932c305 180 378 356 388 370z"/><glyph glyph-name="two" unicode="2" d="M301 857l-150-36c-9 29-18 76-20 112 0 9-1 17-1 25 0 222 165 348 363 348 239 0 368-118 368-378 0-127-79-240-159-325-85-85-204-171-306-271-71-70-99-141-101-177l585 2V2H121c0 30-2 62-2 95 0 26 1 53 6 81 18 97 64 182 172 283 106 98 206 164 284 240 77 73 121 164 121 225 0 116-56 224-201 224-130 0-213-70-213-230 0-21 9-52 13-63z"/><glyph glyph-name="three" unicode="3" d="M78 335l158 1c1-116 83-203 230-203 158 0 254 93 254 241 0 110-33 187-130 241-91 51-170 51-250 51v158h16c38 0 88 2 160 26 84 30 127 77 127 178 0 78-85 122-186 122-127 0-185-104-203-140l-142 79c5 15 92 214 335 214h11c179 0 343-79 343-270 0-128-51-235-142-276 161-78 221-211 221-381 0-85-29-196-96-275C718 24 625-22 466-22 225-22 78 131 78 335z"/><glyph glyph-name="four" unicode="4" d="M605 570v420c-73-129-226-323-318-420h318zM78 543c34 46 498 600 520 763h163V570h128V416H761V-2H605v415H138z"/><glyph glyph-name="five" unicode="5" d="M485 731c-131 0-212-91-229-108l-126 54 46 611 599-2v-154H317l-23-297c47 28 110 54 188 54 57 0 125-10 193-43 111-59 217-195 217-396C892 150 712 0 472-2h-2C295-2 176 114 106 231l133 88c52-86 122-165 234-165 167 0 261 105 261 294 0 148-51 221-129 257-42 20-84 26-120 26z"/><glyph glyph-name="six" unicode="6" d="M713 1175c-209-38-330-180-396-337-25-62-36-124-45-184 54 46 101 92 251 92 222 0 374-147 374-378C897 115 723-3 487-3 226-3 94 207 94 481c0 119 19 271 77 419 76 192 214 365 503 422zM257 403c18-165 98-253 230-253 144 0 251 82 251 218s-85 223-224 223c-133 0-241-103-257-188z"/><glyph glyph-name="seven" unicode="7" d="M151 1292c84 0 192-6 269-6h533l46-82C710 667 478 454 478 0H313c0 407 201 714 474 1133-52-2-127-2-198-2H460c-63 0-149 5-212 8-19-37-29-73-42-116l-135 61c19 59 54 133 80 208z"/><glyph glyph-name="eight" unicode="8" d="M487 147c166 0 263 87 263 221 0 152-131 229-263 289-132-60-263-137-263-289 0-134 97-221 263-221zm0 674c108 27 183 102 183 168 0 79-65 147-185 147s-185-68-185-147c0-66 79-141 187-168zm-2 472c219 0 342-135 342-308 0-103-82-208-170-247 112-54 252-178 252-360C909 156 746-9 487-9S65 156 65 378c0 182 140 306 252 360-88 39-174 144-174 247 0 173 123 308 342 308z"/><glyph glyph-name="nine" unicode="9" d="M504 1152c-130 0-249-58-249-200 0-130 122-184 242-184 128 0 212 91 232 160-13 110-108 224-225 224zM96 955c0 215 161 347 383 347 381 0 427-339 427-658C906 320 834-2 487-2 242-2 130 113 65 314l153 45c45-145 86-205 269-205 221 0 263 221 263 449 0 36-2 72-3 107-63-64-135-94-264-94-214 0-387 114-387 339z"/><glyph glyph-name="equal" unicode="=" d="M50 349c140 8 252 8 366 8 179 0 313-8 481-8l-2-161c-174 0-318 5-501 5-50 0-100 1-152 1-60 0-123-1-192-5v160zm-2 476c99-6 183-7 256-7h92c192 0 301 5 499 5V664c-193 0-304-8-501-8-96 0-204 2-349 11 0 53 0 107 3 158z"/><glyph glyph-name="backslash" unicode="\" d="M906-80l-148-61C638 141 258 1028 120 1380l148 58C376 1152 758 257 856 32c16-42 44-99 50-112z"/><glyph glyph-name="asciicircum" unicode="^" d="M520 1101l458-511-120-123-336 362-355-362L52 576z"/><glyph glyph-name="underscore" unicode="_" d="M46-84h946v-152H42z"/><glyph glyph-name="grave" unicode="`" d="M482 1463c70-218 253-411 330-453L708 845c-149 80-370 249-466 534z"/><glyph glyph-name="question" unicode="?" d="M505 1337c231 0 343-132 343-344 0-159-119-257-197-323-52-44-109-111-109-193v-46H367v44c0 120 52 198 136 272 100 89 185 136 185 242 0 112-59 193-191 193-124 0-223-61-225-193 0-47 29-93 55-125l-134-90c-41 60-78 125-78 210 0 243 183 353 390 353zM333 270h250V0H333v270z"/><glyph glyph-name="asciitilde" unicode="~" d="M335 750c156 0 283-175 373-175 87 0 127 108 141 173l143-61c-23-88-85-265-288-265-166 0-267 174-379 174-56 0-117-58-165-145L31 542c70 135 148 208 304 208z"/><glyph glyph-name="exclamdown" unicode="¡" d="M415.253-258.324l18.488 912.953 166.005 1.547 13.506-915.04zM643.266 847.059l-249.999.68.736 270 250-.681z"/><glyph glyph-name="Ograve" unicode="Ò" d="M775.5 1512l-68-148c-143 47-411 203-522 315l123 146c115-108 324-265 467-313zM504 1326c124 0 445-74 450-691v-11c0-164-44-317-92-410C787 70 657-13 492-13c-122 0-249 43-330 143C72 240 24 392 24 572c0 345 76 494 146 589 66 90 178 162 334 165zM266 245c49-65 118-105 226-105 116 0 189 67 234 150 40 64 69 230 70 337v19c0 115-17 268-70 371-58 114-128 156-216 156-95 0-152-28-210-104-69-89-118-231-118-493 0-104 28-258 84-331z"/><glyph glyph-name="Oacute" unicode="Ó" d="M271.5 1514c143 48 352 205 467 313l123-146c-111-112-379-268-522-315zM504 1326c124 0 445-74 450-691v-11c0-164-44-317-92-410C787 70 657-13 492-13c-122 0-249 43-330 143C72 240 24 392 24 572c0 345 76 494 146 589 66 90 178 162 334 165zM266 245c49-65 118-105 226-105 116 0 189 67 234 150 40 64 69 230 70 337v19c0 115-17 268-70 371-58 114-128 156-216 156-95 0-152-28-210-104-69-89-118-231-118-493 0-104 28-258 84-331z"/><glyph glyph-name="Ocircumflex" unicode="Ô" d="M500.5 1787l375-328-107-107-271 221-261-221-104 107zm3.5-461c124 0 445-74 450-691v-11c0-164-44-317-92-410C787 70 657-13 492-13c-122 0-249 43-330 143C72 240 24 392 24 572c0 345 76 494 146 589 66 90 178 162 334 165zM266 245c49-65 118-105 226-105 116 0 189 67 234 150 40 64 69 230 70 337v19c0 115-17 268-70 371-58 114-128 156-216 156-95 0-152-28-210-104-69-89-118-231-118-493 0-104 28-258 84-331z"/><glyph glyph-name="Otilde" unicode="Õ" d="M367.5 1673c148 0 206-121 296-121 64 0 133 39 147 127l148-52c-32-120-149-228-281-228-140 0-197 121-298 121-59 0-117-9-155-115l-138 74c74 164 171 194 281 194zM504 1326c124 0 445-74 450-691v-11c0-164-44-317-92-410C787 70 657-13 492-13c-122 0-249 43-330 143C72 240 24 392 24 572c0 345 76 494 146 589 66 90 178 162 334 165zM266 245c49-65 118-105 226-105 116 0 189 67 234 150 40 64 69 230 70 337v19c0 115-17 268-70 371-58 114-128 156-216 156-95 0-152-28-210-104-69-89-118-231-118-493 0-104 28-258 84-331z"/><glyph glyph-name="Odieresis" unicode="Ö" d="M188.5 1637l235-3v-225l-235 3v225zm406-3l235-3v-225l-235 3v225zM504 1326c124 0 445-74 450-691v-11c0-164-44-317-92-410C787 70 657-13 492-13c-122 0-249 43-330 143C72 240 24 392 24 572c0 345 76 494 146 589 66 90 178 162 334 165zM266 245c49-65 118-105 226-105 116 0 189 67 234 150 40 64 69 230 70 337v19c0 115-17 268-70 371-58 114-128 156-216 156-95 0-152-28-210-104-69-89-118-231-118-493 0-104 28-258 84-331z"/><glyph glyph-name="Oslash" unicode="Ø" d="M747 1026C631 751 483 417 377 174c36-17 79-26 132-26 116 0 189 64 234 149 40 65 71 231 71 340 0 0-4 265-60 376-2 4-5 9-7 13zM258 295c101 231 261 592 372 857-28 14-59 20-92 20-95 0-151-28-209-106-69-91-129-257-129-481 0-88 19-209 58-290zm-73-168c-2 2-4 5-6 7C89 246 41 397 41 581c0 314 88 482 158 579 66 92 178 165 334 168 39 0 96-5 156-31 12 29 22 55 31 79l148-58c-14-36-30-76-48-119 83-97 150-265 152-554v-11c0-167-44-320-92-415C805 72 674-8 509-8 443-8 375 4 314 31c-11-24-19-47-28-67L138 25c6 12 30 61 47 102z"/><glyph glyph-name="multiply" unicode="×" d="M381 522C261 642 171 748 63 848l99 123c109-101 221-218 334-335 178 170 319 309 336 327l104-123c-19-19-156-158-327-325 179-191 227-254 327-354L816 63c-80 104-158 176-322 344C342 258 232 132 186 82L69 180c60 72 169 200 312 342z"/><glyph glyph-name="Ugrave" unicode="Ù" d="M770 1502l-68-148c-143 47-411 203-522 315l123 146c115-108 324-265 467-313zm7-189l157-13c-9-60-9-103-9-157 0-145 2-272 2-383v-58c0-232-4-454-116-583C729 24 621-5 492-10 184-10 86 156 68 447c-5 75-7 197-7 332 0 172 3 365 9 523h158c-4-165-8-389-8-574 0-123 2-229 7-289 18-210 100-298 252-298 106 5 158 28 212 84 67 74 78 280 78 477 0 123-5 269-5 439 0 71 3 110 13 172z"/><glyph glyph-name="Uacute" unicode="Ú" d="M260 1484c143 48 352 205 467 313l123-146c-111-112-379-268-522-315zm517-171l157-13c-9-60-9-103-9-157 0-145 2-272 2-383v-58c0-232-4-454-116-583C729 24 621-5 492-10 184-10 86 156 68 447c-5 75-7 197-7 332 0 172 3 365 9 523h158c-4-165-8-389-8-574 0-123 2-229 7-289 18-210 100-298 252-298 106 5 158 28 212 84 67 74 78 280 78 477 0 123-5 269-5 439 0 71 3 110 13 172z"/><glyph glyph-name="Ucircumflex" unicode="Û" d="M510 1799l375-328-107-107-271 221-261-221-104 107zm267-486l157-13c-9-60-9-103-9-157 0-145 2-272 2-383v-58c0-232-4-454-116-583C729 24 621-5 492-10 184-10 86 156 68 447c-5 75-7 197-7 332 0 172 3 365 9 523h158c-4-165-8-389-8-574 0-123 2-229 7-289 18-210 100-298 252-298 106 5 158 28 212 84 67 74 78 280 78 477 0 123-5 269-5 439 0 71 3 110 13 172z"/><glyph glyph-name="Udieresis" unicode="Ü" d="M183 1652l235-3v-225l-235 3v225zm406-3l235-3v-225l-235 3v225zm188-336l157-13c-9-60-9-103-9-157 0-145 2-272 2-383v-58c0-232-4-454-116-583C729 24 621-5 492-10 184-10 86 156 68 447c-5 75-7 197-7 332 0 172 3 365 9 523h158c-4-165-8-389-8-574 0-123 2-229 7-289 18-210 100-298 252-298 106 5 158 28 212 84 67 74 78 280 78 477 0 123-5 269-5 439 0 71 3 110 13 172z"/><glyph glyph-name="Yacute" unicode="Ý" d="M230 1496c143 48 352 205 467 313l123-146c-111-112-379-268-522-315zM399-6v141c0 90 7 347 7 466-79 111-322 550-373 656l140 71c40-77 232-432 319-569 98 139 298 495 336 582l139-79c-47-94-120-236-225-404-87-131-157-242-176-268 0-47-2-95-2-149-3-132-5-274-5-316V-6H399z"/><glyph glyph-name="ntilde" unicode="ñ" d="M367.5 1402c148 0 206-121 296-121 64 0 133 39 147 127l148-52c-32-120-149-228-281-228-140 0-197 121-298 121-59 0-117-9-155-115l-138 74c74 164 171 194 281 194zM270 927c126 66 218 95 328 95 120 0 299-77 299-226V211c0-66 50-88 106-118L919-19c-88 43-180 94-180 223v561c0 74-97 107-163 107-64 0-160-42-306-112V0L112-1v706c0 178-8 204-32 298l160 37c10-24 22-64 30-113z"/><glyph glyph-name="ograve" unicode="ò" d="M698 1214l-68-148c-143 47-411 203-522 315l123 146c115-108 324-265 467-313zm-44-999c65 61 89 167 89 315v18c-2 184-66 330-243 330-208 0-270-165-270-409 0-195 87-313 254-313 76 1 120 17 170 59zM482 1C210 2 72 184 72 464c0 292 102 568 394 568 197 0 307-69 377-201 41-79 59-192 59-288C902 258 806 1 484 1h-2z"/><glyph glyph-name="oacute" unicode="ó" d="M242 1214c143 48 352 205 467 313l123-146c-111-112-379-268-522-315zm412-999c65 61 89 167 89 315v18c-2 184-66 330-243 330-208 0-270-165-270-409 0-195 87-313 254-313 76 1 120 17 170 59zM482 1C210 2 72 184 72 464c0 292 102 568 394 568 197 0 307-69 377-201 41-79 59-192 59-288C902 258 806 1 484 1h-2z"/><glyph glyph-name="ocircumflex" unicode="ô" d="M493 1493l375-328-107-107-271 221-261-221-104 107zM654 215c65 61 89 167 89 315v18c-2 184-66 330-243 330-208 0-270-165-270-409 0-195 87-313 254-313 76 1 120 17 170 59zM482 1C210 2 72 184 72 464c0 292 102 568 394 568 197 0 307-69 377-201 41-79 59-192 59-288C902 258 806 1 484 1h-2z"/><glyph glyph-name="otilde" unicode="õ" d="M348 1373c148 0 206-121 296-121 64 0 133 39 147 127l148-52c-32-120-149-228-281-228-140 0-197 121-298 121-59 0-117-9-155-115l-138 74c74 164 171 194 281 194zM654 215c65 61 89 167 89 315v18c-2 184-66 330-243 330-208 0-270-165-270-409 0-195 87-313 254-313 76 1 120 17 170 59zM482 1C210 2 72 184 72 464c0 292 102 568 394 568 197 0 307-69 377-201 41-79 59-192 59-288C902 258 806 1 484 1h-2z"/><glyph glyph-name="odieresis" unicode="ö" d="M185 1403l235-3v-225l-235 3v225zm406-3l235-3v-225l-235 3v225zm63-1185c65 61 89 167 89 315v18c-2 184-66 330-243 330-208 0-270-165-270-409 0-195 87-313 254-313 76 1 120 17 170 59zM482 1C210 2 72 184 72 464c0 292 102 568 394 568 197 0 307-69 377-201 41-79 59-192 59-288C902 258 806 1 484 1h-2z"/><glyph glyph-name="oslash" unicode="ø" d="M241 356l414 465c-37 36-88 57-155 57-208 0-270-165-270-409 0-41 3-79 11-113zm614 448c33-77 47-175 47-261C902 258 806 1 484 1h-2C368 2 278 33 212 91L121-9 10 95l109 123c-31 69-47 152-47 246 0 292 102 568 394 568 132 0 226-31 294-92l113 127 120-111zM654 215c65 61 89 167 89 315v18c0 42-3 82-11 119L320 212c41-36 96-56 164-56 76 1 120 17 170 59z"/><glyph glyph-name="ugrave" unicode="ù" d="M676 1212l-68-148c-143 47-411 203-522 315l123 146c115-108 324-265 467-313zM906-10c-57 41-111 82-133 168C689 72 592 5 442 2h-9c-62 0-147 1-207 42-45 31-112 88-112 170-3 268 4 697-23 780l160 27c22-92 17-405 19-771 6-34 28-60 50-76 14-10 65-18 106-18 67 3 108 11 159 42 47 28 116 58 154 146v676h158V239c2-52 51-100 91-132z"/><glyph glyph-name="uacute" unicode="ú" d="M288 1214c143 48 352 205 467 313l123-146c-111-112-379-268-522-315zM906-10c-57 41-111 82-133 168C689 72 592 5 442 2h-9c-62 0-147 1-207 42-45 31-112 88-112 170-3 268 4 697-23 780l160 27c22-92 17-405 19-771 6-34 28-60 50-76 14-10 65-18 106-18 67 3 108 11 159 42 47 28 116 58 154 146v676h158V239c2-52 51-100 91-132z"/><glyph glyph-name="ucircumflex" unicode="û" d="M497 1502l375-328-107-107-271 221-261-221-104 107zM906-10c-57 41-111 82-133 168C689 72 592 5 442 2h-9c-62 0-147 1-207 42-45 31-112 88-112 170-3 268 4 697-23 780l160 27c22-92 17-405 19-771 6-34 28-60 50-76 14-10 65-18 106-18 67 3 108 11 159 42 47 28 116 58 154 146v676h158V239c2-52 51-100 91-132z"/><glyph glyph-name="udieresis" unicode="ü" d="M197 1409l235-3v-225l-235 3v225zm406-3l235-3v-225l-235 3v225zM906-10c-57 41-111 82-133 168C689 72 592 5 442 2h-9c-62 0-147 1-207 42-45 31-112 88-112 170-3 268 4 697-23 780l160 27c22-92 17-405 19-771 6-34 28-60 50-76 14-10 65-18 106-18 67 3 108 11 159 42 47 28 116 58 154 146v676h158V239c2-52 51-100 91-132z"/><glyph glyph-name="plusminus" unicode="±" d="M82 822c173-10 243-11 344-11l2 361 160-1-2-361c155 3 153 9 342 9h17V669h-17c-186 0-184-6-342-11v-11c0-106-2-214-2-304 164-3 178-5 344-8l17-1V184l-17 1c-209 3-281 7-502 7-132 0-159-1-319-6H89v150h17c161 4 197 8 318 8 0 93 2 199 2 305v10c-107 0-166 3-344 13v150z"/><glyph glyph-name="divide" unicode="÷" d="M101 437l-5 157c159 5 284 6 362 6 138 0 203-3 413-6h17l-1-157h-18c-213 3-277 7-414 7-76 0-202-3-354-7zm254-179h250V-12H355v270zm-2 768h251V757H353v269z"/><glyph glyph-name="yacute" unicode="ý" d="M289 1214c143 48 352 205 467 313l123-146c-111-112-379-268-522-315zm47-1437c106 0 160 185 198 291-94 328-213 645-351 769-33 30-74 31-110 31v153c33 0 83-4 111-8 167-25 329-401 442-726 74 217 140 506 148 733h158c0-60-5-117-14-168-65-353-166-683-298-994-53-135-131-234-280-234C165-376 56-270 56 0h156c0-177 44-223 124-223z"/><glyph glyph-name="ydieresis" unicode="ÿ" d="M189 1402l235-3v-225l-235 3v225zm406-3l235-3v-225l-235 3v225zM336-223c106 0 160 185 198 291-94 328-213 645-351 769-33 30-74 31-110 31v153c33 0 83-4 111-8 167-25 329-401 442-726 74 217 140 506 148 733h158c0-60-5-117-14-168-65-353-166-683-298-994-53-135-131-234-280-234C165-376 56-270 56 0h156c0-177 44-223 124-223z"/><glyph glyph-name="OE" unicode="Œ" d="M463 146l1 1024c-261 0-300-219-300-592 0-226 4-429 254-434 16 0 32 1 45 2zm348 7c59 2 87 10 132 26l38-146C875 4 778-1 667-1c-47 0-97 1-152 1-17-7-112-8-127-8C82 4 11 291 11 597c0 436 98 733 433 733 26 0 54-2 80-7 59 3 122 3 185 3 85 0 171-1 253-1v-155c-92 0-150 1-221 1-35 0-74 0-121-1V835h275V682H620c0-202-4-450-4-529h195z"/><glyph glyph-name="yen" unicode="¥" d="M403 374H291c-67 0-137-1-213-5v162h17c123 4 215 7 311 7v75c-11 15-23 35-38 59-77 1-173 7-288 14v64c0 32 0 63 2 94 69-4 138-7 191-9-96 171-207 379-240 448l140 72c34-70 189-358 284-522h74c105 166 264 457 297 535l139-80c-47-96-120-242-225-413l-24-36c58 2 119 3 194 3h18V683h-18c-119 0-204-5-299-8-23-35-39-62-47-73 0-22 0-43-1-65 117-2 221-5 343-7h17l-3-162h-18c-120 2-226 5-342 6-2-110-3-211-3-246V-6H399v149c0 49 2 139 4 231z"/><glyph glyph-name="Ntilde" unicode="Ñ" d="M359 1652c148 0 206-121 296-121 64 0 133 39 147 127l148-52c-32-120-149-228-281-228-140 0-197 121-298 121-59 0-117-9-155-115l-138 74c74 164 171 194 281 194zM752-6C589 351 435 648 233 1001V797c0-293 1-648 1-800H75v1301l159-4c126-184 402-689 519-937-2 130-3 266-3 400 0 186 3 369 12 540h154c-6-113-8-262-8-425 0-226 4-480 4-710 0-57-1-114-1-167z"/><glyph glyph-name="Eth" unicode="Ð" d="M76 921v56c0 129-4 252-13 340 81 8 126 14 225 14 271 0 427-82 550-265 84-127 131-305 131-486 0-69-8-138-21-204C900 135 739 14 559-3c-55-5-106-7-161-7-84 0-217 7-331 7 0 34 0 33 3 131 0 48 5 355 6 645H4v148h72zm233 255h-30c-16 0-28 0-45-3 1-26 1-56 1-87 0-52-1-108-1-165h366l1-148H234c-1-272-3-540-4-626 88-3 133-3 193-3 169 0 295 26 360 209 16 46 27 136 27 191 0 162-36 332-101 429-89 131-179 203-400 203z"/><glyph glyph-name="currency" unicode="¤" d="M687 522c0 128-55 213-140 221l-15-2c-105-11-152-115-152-279 0-137 41-207 149-207s158 113 158 267zm-472-61v7c0 88 20 168 45 229L119 849l119 106 117-127c48 50 101 70 171 73h17c83 0 135-21 186-68l112 113 113-99-136-150c23-57 32-115 32-177-2-103-16-168-51-236l145-155L826 23 701 159c-50-39-111-61-177-61-84 1-137 29-185 69L214 43l-107 99 133 157c-21 55-25 104-25 162z"/><glyph glyph-name="sterling" unicode="£" d="M308 186c-33 30-51 68-74 83-10-7-23-38-23-68v-6c2-42 15-56 31-56 22 0 50 27 66 47zm553 505c-74-9-157-9-255-9H490c18-93 35-187 36-297 0-52-7-107-19-155 94-61 147-93 236-93 93 0 96 17 96 77v15l156 2v-41C991 54 910-15 769-16 651-16 551 25 442 95 394 29 309-13 222-13 122-13 60 80 60 192c0 101 31 178 103 220 17 9 36 12 51 12h9c59 0 111-55 144-90 2 20 2 41 2 63-1 106-19 192-38 288-52 2-97 2-142 2h-17v152h129c-13 71-24 138-24 204 0 205 112 308 301 308 147 0 236-106 267-233l-147-43c-16 62-39 121-120 123h-6c-117 0-137-82-137-147 0-54 15-151 26-217l147 3h57c74 0 140 1 196 7V691z"/><glyph glyph-name="cent" unicode="¢" d="M506 284h2c92 0 167 34 193 70l11 16 137-83-12-16c-52-77-147-124-255-136V-9H422v148c-46 9-96 25-141 55-104 70-139 162-139 296v11c0 123 38 204 79 252 56 64 128 98 201 112v168h162V867c117-17 184-81 217-172l-158-57-4 23c-11 53-47 59-126 59-61 0-125-18-162-63-19-22-47-61-47-143 0-130 60-231 185-231 6 0 11 1 17 1z"/><glyph glyph-name="percent" unicode="%" d="M667 225v-10c4-59 23-80 80-83h4c50 0 114 67 114 115v7c0 56-38 102-89 104h-2c-46 0-107-81-107-133zm-150 1v15c9 129 109 264 250 270h8c123-5 226-112 226-245v-12C1001 136 895-3 750-3 619-3 517 93 517 226zM284 885c43 0 105 73 105 123 0 60-27 83-88 86h-3c-43 0-108-69-108-113 0-53 40-96 94-96zm0-155C156 730 55 844 55 980c0 141 114 264 247 267h6c130 0 228-99 228-228v-6c-3-140-106-283-252-283zM168 24c128 277 448 998 581 1350l154-67C765 955 441 234 321-48z"/><glyph glyph-name="guillemotleft" unicode="«" d="M421 576c145 100 266 269 306 402l153-57c-47-142-138-288-268-405 122-106 201-229 246-382l6-18-155-53c-48 163-132 280-288 387v126zm-350-2c144 130 307 262 330 402l156-37c-40-189-176-312-301-421 128-118 238-237 283-409L387 55C349 204 229 318 71 459v115z"/><glyph glyph-name="guillemotright" unicode="»" d="M580.723 444.578C436.544 343.395 316.93 173.412 278.019 40.09L124.558 95.837c45.838 142.38 135.641 289.12 264.681 407.178-122.862 105-202.865 227.35-249.114 379.977l-6.147 17.95 154.562 54.266c49.33-162.603 134.284-278.912 291.154-384.634zm349.971 4.86C787.761 318.265 625.845 184.937 603.991 44.754L447.693 80.478c38.454 189.32 173.444 313.428 297.549 423.446-128.96 116.949-239.929 235.047-286.333 406.673l151.554 55.24c39.216-148.684 160.145-261.7 319.291-401.403z"/><glyph glyph-name="section" unicode="§" d="M679 319c48 20 56 39 56 73v17c-3 21-12 43-37 66-101 92-238 165-354 247-61-25-66-43-66-85 0-20 16-46 41-68 101-93 244-170 360-250zm-516 721c0 218 178 328 331 328 172 0 309-97 313-287l-151-1c-3 62-16 75-48 103-26 20-62 30-114 30-89-2-175-61-175-158 0-122 46-140 173-228 92-64 214-129 314-233 51-50 92-117 92-189 0-105-35-159-99-207 35-50 55-115 57-192v-9c0-220-185-319-340-319-175 0-313 97-318 291l155 1c9-60 17-81 49-105 25-19 63-32 113-32 92 3 180 55 180 158 0 18-2 39-8 64-12 46-73 104-167 165-96 61-216 128-317 230-49 53-83 118-83 191 0 104 43 153 106 200-36 52-63 130-63 199z"/><glyph glyph-name="braceleft" unicode="{" d="M284 530v160c121 34 249 75 249 209 0 30-7 64-21 104-24 65-53 137-53 208 0 50 15 100 55 147 93 108 242 120 375 126l5-158c-145-7-266-7-266-124 0-101 61-194 61-309 0-150-101-260-197-283 96-23 197-133 197-283 0-115-61-208-61-309 0-117 121-115 266-122l-5-158c-133 6-282 16-375 124-40 47-55 97-55 147 0 71 29 143 53 208 14 40 21 74 21 104 0 134-128 175-249 209z"/><glyph glyph-name="bar" unicode="|" d="M390 152c0 365-9 959-9 1247v93h160v-145c0-277 12-789 12-1123V74c0-115-1-171-6-272l-161 1c4 62 5 105 5 160 0 47-1 103-1 189z"/><glyph glyph-name="braceright" unicode="}" d="M776 530c-121-34-249-75-249-209 0-30 7-64 21-104 24-65 53-137 53-208 0-50-15-100-55-147-93-108-242-118-375-124l-5 158c145 7 266 5 266 122 0 101-61 194-61 309 0 150 101 260 197 283-96 23-197 133-197 283 0 115 61 208 61 309 0 117-121 117-266 124l5 158c133-6 282-18 375-126 40-47 55-97 55-147 0-71-29-143-53-208-14-40-21-74-21-104 0-134 128-175 249-209V530z"/><glyph glyph-name="at" unicode="@" d="M456 501c0-105 46-165 112-165 98 0 192 140 216 199v95c-48 41-126 63-190 63-95 0-138-72-138-192zm353-192c-59-63-115-125-241-125-135 0-268 141-268 307 0 216 124 362 285 362 69 0 145-17 199-66 0 157-9 352-232 352-221 0-368-216-368-638 0-308 156-579 395-579 48 0 96 17 153 53l60-135c-80-42-155-64-225-64-324 0-526 369-526 719 0 506 206 795 509 795 300 0 392-244 392-452V479c0-76 3-159 58-241l-151-64c-21 36-33 83-40 135z"/><glyph glyph-name="brokenbar" unicode="¦" d="M553 528c2-111 4-285 4-373 0-201 0-220-7-350l-161 1c4 74 5 104 5 165v147c0 98-2 286-4 410h163zM388 775c-4 267-7 464-7 624v93h160v-126c0-149 5-341 9-591H388z"/><glyph glyph-name="copyright" unicode="©" d="M481 1033h3c7 0 13 2 25 2 76-3 165-73 215-225l-141-57c-18 57-26 106-72 106-76 0-126-170-126-349 0-123 32-375 115-375 62 0 85 47 105 138l127-39C692 93 633-17 509-17c-234 0-272 345-272 504 0 201 43 325 72 387 36 78 99 145 172 159zm15 169c-166 0-326-297-326-690 0-392 146-693 326-693 185 0 327 299 327 691v17c0 385-190 675-327 675zm0 153c304 0 470-393 470-849 0-455-180-842-470-842C197-336 34 58 34 513c0 456 174 842 462 842z"/><glyph glyph-name="registered" unicode="®" d="M581 722c-7 129-53 169-116 169h-9V538c22-7 41-10 56-10 58 0 71 48 71 129 0 20-1 41-2 65zM618 0c-42 82-104 316-130 378-20 3-17-1-32 3 0-127 1-178 1-233 0-37 0-75-2-138l-148 2c0 309-2 995-2 995 42 35 96 32 148 36 8 1 16 1 24 1 171 0 235-178 241-360 0-114-20-251-86-292 41-94 98-280 126-300zM496 1202c-166 0-326-297-326-690 0-392 146-693 326-693 185 0 327 299 327 691v17c0 385-190 675-327 675zm0 153c304 0 470-393 470-849 0-455-180-842-470-842C197-336 34 58 34 513c0 456 174 842 462 842z"/><glyph glyph-name="germandbls" unicode="ß" d="M80 1003c0 156 111 325 310 325 203 0 364-95 364-317 0-102-28-179-84-232 177-49 274-181 274-398C944 171 844-2 624-2 437-2 290 94 290 297c0 8 1 16 1 24h155c2-129 29-170 178-170 135 0 166 110 166 244 0 261-209 274-497 274v153c165 0 308 0 308 183 0 113-74 171-211 171-96-1-157-93-157-183 0-156 5-356 5-543 0-124-3-242-11-339-7-81-58-120-114-148L36 90c20 10 37 11 40 38 10 100 13 209 13 320 0 187-9 381-9 555z"/><glyph glyph-name="ampersand" unicode="&amp;" d="M655 245C548 387 451 521 351 648c-78-69-145-157-145-272 0-149 103-243 218-243 100 0 179 52 231 112zm-102 824c0 88-53 125-128 125-68 0-135-73-135-150 0-72 48-132 93-185 74 52 110 91 133 122 26 35 37 60 37 88zM985 64L863-32c-15 20-61 79-113 148C659 18 549-22 419-22 211-22 47 129 47 367c0 179 92 314 206 404-48 58-121 150-121 266 0 169 133 310 294 310 145 0 284-90 284-262 0-162-119-258-236-344 87-113 173-224 261-343 22 70 25 141 25 250l149-1c0-167-21-311-72-392 40-51 125-160 148-191z"/><glyph glyph-name="uni00B5" unicode="µ" d="M906-10c-57 41-111 82-133 168C689 72 592 5 442 2h-9c-48 0-110 0-164 20l-3-422H109l5 614c-3 268 4 697-23 780l160 27c22-92 17-405 19-771 6-34 28-60 50-76 14-10 65-18 106-18 67 3 108 11 159 42 47 28 116 58 154 146l1 676h158l-1-781c2-52 51-100 91-132z"/><glyph glyph-name="paragraph" unicode="¶" d="M755 1041v128c-41 1-81 4-134 5 1-330 0-662 3-990 0-139-42-214-42-214L428 22s41 63 41 207l-2 244c-168 12-285 53-364 168-60 89-67 190-67 283 0 92 19 184 73 250 115 141 286 154 511 154 133 0 171-8 289-8V-9l-152-1c0 335-2 607-2 1051z"/><glyph glyph-name="periodcentered" unicode="·" d="M481 656h251V387H481v269z"/><glyph glyph-name="questiondown" unicode="¿" d="M417-230C186-230 74-98 74 114c0 159 119 257 197 323 52 44 109 111 109 193v46h175v-44c0-120-52-198-136-272-100-89-185-136-185-242C234 6 293-75 425-75c124 0 223 61 225 193 0 47-29 93-55 125l134 90c41-60 78-125 78-210 0-243-183-353-390-353zM589 837H339v270h250V837z"/><glyph glyph-name="dieresis" unicode="¨" d="M139 1315l235-3v-225l-235 3v225zm406-3l235-3v-225l-235 3v225z"/><glyph glyph-name="acute" unicode="´" d="M221 1349c143 48 318 160 433 268l110-147c-111-112-333-222-476-269z"/><glyph glyph-name="degree" unicode="°" d="M368 1119c0-35 36-72 87-72s85 37 85 72-33 69-85 69-87-34-87-69zm-129-2c0 111 102 195 217 195s216-84 216-195-101-195-216-195-217 84-217 195z"/><glyph glyph-name="macron" unicode="¯" d="M228 1340c36-4 79-5 125-5s97 1 148 1h181v-152h-17c-58-2-128-2-202-2h-81c-53 0-105 0-154 3v155z"/><glyph glyph-name="dotlessi" unicode="ı" d="M417 1013h116c0-273 1-803 1-803 5-82 49-86 141-86 93 0 217 21 286 73l68-114C943 12 800-18 676-18c-85 0-161 14-205 38-85 47-93 127-93 186v651c-49 0-163-6-258-28L91 971c112 26 222 42 326 42z"/><glyph glyph-name="Amacron" unicode="Ā" d="M750 1539v-152h-17c-58-2-128-2-202-2s-149 0-217 2l-18 1v155l19-2c65-2 162-2 254-2h181zM718 495l-194 587-186-607c60 13 116 13 199 17zm-284 806h171L983 172c11-37 29-118 31-172H850c0 23-12 95-20 122l-70 210c-141-3-362-5-473-32l-59-179c-10-29-24-93-24-121H42c1 28 19 116 32 159z"/><glyph glyph-name="amacron" unicode="ā" d="M693 1335.9v-152h-17c-58-2-128-2-202-2s-149 0-217 2l-18 1v155l19-2c65-2 162-2 254-2h181zM234 311c0-105 56-165 149-165 210 0 315 158 341 199v95c-57 35-131 64-235 64-136-1-255-75-255-193zm647 7c0-35 0-128 13-145 13-18 50-41 79-64L890-10c-52 40-112 65-130 166C682 81 580-6 383-6 212-6 78 135 78 301c0 76 30 165 89 226 95 97 196 121 314 121 126 0 189-18 243-51 0 189-69 280-239 280-138 0-201-30-281-173L74 786c96 182 230 242 409 242 242 0 398-155 398-380V318z"/><glyph glyph-name="Cacute" unicode="Ć" d="M324 1494c143 48 352 205 467 313l123-146c-111-112-379-268-522-315zm245-342c-115 0-204-65-252-132-45-65-102-181-102-395 0-164 31-310 129-401 62-58 110-73 192-73h14c147 5 233 79 284 191l139-76C899 111 765-3 575-3h-3C461-3 329 22 235 114 115 236 56 400 56 623c0 254 81 410 133 486 72 106 208 197 383 197 140 0 268-84 356-243l-136-81c-61 120-137 170-223 170z"/><glyph glyph-name="cacute" unicode="ć" d="M326 1212c143 48 352 205 467 313l123-146c-111-112-379-268-522-315zm-96-685c0-370 207-377 317-377h13c156 0 231 65 283 152l126-91C936 169 843-7 564-7 460-7 337 1 241 73 111 174 71 328 71 527c0 367 178 491 493 491 95 0 169-24 229-70 61-47 92-107 114-159l-154-60c-11 41-40 136-200 136-221 0-323-99-323-338z"/><glyph glyph-name="Ccircumflex" unicode="Ĉ" d="M554 1772l375-328-107-107-271 221-261-221-104 107zm15-620c-115 0-204-65-252-132-45-65-102-181-102-395 0-164 31-310 129-401 62-58 110-73 192-73h14c147 5 233 79 284 191l139-76C899 111 765-3 575-3h-3C461-3 329 22 235 114 115 236 56 400 56 623c0 254 81 410 133 486 72 106 208 197 383 197 140 0 268-84 356-243l-136-81c-61 120-137 170-223 170z"/><glyph glyph-name="ccircumflex" unicode="ĉ" d="M525 1490l375-328-107-107-271 221-261-221-104 107zM230 527c0-370 207-377 317-377h13c156 0 231 65 283 152l126-91C936 169 843-7 564-7 460-7 337 1 241 73 111 174 71 328 71 527c0 367 178 491 493 491 95 0 169-24 229-70 61-47 92-107 114-159l-154-60c-11 41-40 136-200 136-221 0-323-99-323-338z"/><glyph glyph-name="Cdotaccent" unicode="Ċ" d="M439 1649l236-3v-225l-236 3v225zm130-497c-115 0-204-65-252-132-45-65-102-181-102-395 0-164 31-310 129-401 62-58 110-73 192-73h14c147 5 233 79 284 191l139-76C899 111 765-3 575-3h-3C461-3 329 22 235 114 115 236 56 400 56 623c0 254 81 410 133 486 72 106 208 197 383 197 140 0 268-84 356-243l-136-81c-61 120-137 170-223 170z"/><glyph glyph-name="cdotaccent" unicode="ċ" d="M405 1403h235v-225H405v225zM230 527c0-370 207-377 317-377h13c156 0 231 65 283 152l126-91C936 169 843-7 564-7 460-7 337 1 241 73 111 174 71 328 71 527c0 367 178 491 493 491 95 0 169-24 229-70 61-47 92-107 114-159l-154-60c-11 41-40 136-200 136-221 0-323-99-323-338z"/><glyph glyph-name="Ccaron" unicode="Č" d="M556 1358l-370 318 104 107 267-218 265 218 106-107zm13-206c-115 0-204-65-252-132-45-65-102-181-102-395 0-164 31-310 129-401 62-58 110-73 192-73h14c147 5 233 79 284 191l139-76C899 111 765-3 575-3h-3C461-3 329 22 235 114 115 236 56 400 56 623c0 254 81 410 133 486 72 106 208 197 383 197 140 0 268-84 356-243l-136-81c-61 120-137 170-223 170z"/><glyph glyph-name="ccaron" unicode="č" d="M539 1070l-370 318 104 107 267-218 265 218 106-107zM230 527c0-370 207-377 317-377h13c156 0 231 65 283 152l126-91C936 169 843-7 564-7 460-7 337 1 241 73 111 174 71 328 71 527c0 367 178 491 493 491 95 0 169-24 229-70 61-47 92-107 114-159l-154-60c-11 41-40 136-200 136-221 0-323-99-323-338z"/><glyph glyph-name="Dcaron" unicode="Ď" d="M425 1361L55 1679l104 107 267-218 265 218 106-107zm-116-209h-30c-16 0-28 1-45-2 1-25 1-56 1-86 0-62-1-130-1-198 0-300-3-626-4-722 88-3 133-3 193-3 169 0 295 26 360 205 16 45 27 133 27 187 0 159-36 326-101 421-89 128-179 198-400 198zM70 125c0 54 6 443 6 758v74c0 126-4 248-13 334 81 8 126 13 225 13 271 0 427-80 550-259 84-124 131-300 131-477 0-68-8-135-21-200C900 132 739 14 559-3c-55-5-106-7-161-7-84 0-217 7-331 7 0 33 0 32 3 128z"/><glyph glyph-name="emacron" unicode="ē" d="M739 1333.9v-152h-17c-58-2-128-2-202-2s-149 0-217 2l-18 1v155l19-2c65-2 162-2 254-2h181zM236 580c129 1 386 15 528 31-6 156-118 258-254 258-170 0-273-135-274-289zm273 441c377 0 414-380 414-518 0-20 0-35-1-43-280-19-508-31-686-33 0-153 86-284 290-284 143 0 227 79 266 133l123-109C874 122 760-10 522-10 224-10 78 203 78 516c0 286 148 505 431 505z"/><glyph glyph-name="Emacron" unicode="Ē" d="M713 1584v-152h-17c-58-2-128-2-202-2s-149 0-217 2l-18 1v155l19-2c65-2 162-2 254-2h181zm-611-291c56 4 126 4 204 4h208c149 0 285-3 359-3h16v-150H260V816h438V666H260v-30c0-203-3-412-3-489l525 2c56 0 117 26 117 26l44-148C895 14 860-3 784-3H102v1296z"/><glyph glyph-name="asterisk" unicode="*" d="M434 740l-4 425 169 1-2-427 326 146 74-138-363-153 272-321-126-111-258 367-245-366-132 105 256 326L48 736l66 144z"/><glyph glyph-name="uni00A0"/><glyph glyph-name="ordfeminine" unicode="ª" d="M364 764c71 0 149 66 168 89v52c-27 15-66 23-112 26h-6c-62 0-132-44-132-94 0-41 29-73 82-73zm257-106c-27 22-61 40-77 81-41-36-100-71-176-71-94 0-176 76-176 171 0 43 16 86 51 120 56 53 115 67 178 67 40 0 80-7 109-16-9 89-40 115-116 115-71 0-107-27-148-103l-78 48 10 18c54 91 125 130 214 132 120 0 200-77 208-202 3-32 4-80 4-100 0-41-1-55-1-77 0-20 2-61 8-71 2-2 36-27 49-35zm47-75l1-114h-17c-58-2-128-2-202-2h-81c-53 0-105 0-154 3l-1 115h19c65-2 162-2 254-2h181z"/><glyph glyph-name="logicalnot" unicode="¬" d="M147 592c136 7 247 8 349 8h119c82 0 167-1 274-2h19V174H754v270c-135 3-135 4-260 4-67 0-189-1-341-9v84z"/><glyph glyph-name="uni00AD" unicode="­" d="M147 592c136 7 247 8 349 8h119c82 0 167-1 274-2h18V445h-18c-135 3-270 3-395 3-67 0-189-1-341-9v84z"/><glyph glyph-name="uni00B2" unicode="²" d="M402.504 1114.37l-81.978-19.675c-4.92 15.849-9.838 41.536-10.931 61.211 0 4.918-.546 9.29-.546 13.663 0 121.328 90.177 190.19 198.389 190.19 130.619 0 201.12-64.49 201.12-206.587 0-69.408-43.175-131.166-86.897-177.62-46.454-46.455-111.49-93.456-167.237-148.109-38.802-38.257-54.105-77.06-55.198-96.734l319.718 1.093V647.09H304.131c0 16.396-1.094 33.884-1.094 51.92 0 14.21.547 28.965 3.28 44.268 9.838 53.014 34.977 99.468 94.003 154.667 57.931 53.56 112.584 89.631 155.213 131.167 42.083 39.896 66.13 89.63 66.13 122.968 0 63.398-30.606 122.422-109.852 122.422-71.05 0-116.41-38.257-116.41-125.7 0-11.477 4.919-28.42 7.104-34.432z"/><glyph glyph-name="uni00B3" unicode="³" d="M311.209 842.629l85.502.542c.541-62.893 44.915-110.062 124.464-110.062 85.501 0 137.451 50.423 137.451 130.664 0 59.64-17.858 101.388-70.35 130.665-49.244 27.65-91.995 27.65-135.286 27.65v85.664h8.659c20.563 0 47.62 1.085 86.583 14.097 45.457 16.266 68.725 41.748 68.725 96.508 0 42.29-45.997 66.144-100.652 66.144-68.726 0-100.112-56.385-109.854-75.904l-76.843 42.832c2.706 8.133 49.786 116.025 181.284 116.025h5.954c96.865 0 185.613-42.832 185.613-146.387 0-69.4-27.6-127.412-76.843-149.64 87.124-42.29 119.593-114.4 119.593-206.57 0-46.085-15.694-106.267-51.95-149.099-35.715-41.748-86.042-66.687-172.084-66.687-130.417 0-209.966 82.953-209.966 193.557z"/><glyph glyph-name="cedilla" unicode="¸" d="M626 56c-1-8-1-72-1-75 97-5 155-67 155-171 0-101-100-168-184-168-66 0-138 25-194 61l38 106c33-18 73-42 124-42 36 0 77 20 80 58v2c0 29-38 54-86 54s-50-7-78-17V52z"/><glyph glyph-name="uni00B9" unicode="¹" d="M495.64 1360.8l104.445-6.33V669.248h-86.51l-1.055 561.26c-35.87-44.838-103.39-97.06-168.272-144.535l-53.278 79.652c160.888 94.95 199.396 187.79 204.67 195.175z"/><glyph glyph-name="ordmasculine" unicode="º" d="M442 788c96 0 153 69 153 166 0 74-47 147-145 147h-2c-106 0-157-74-157-180 0-83 45-133 148-133h3zM165 918c0 164 100 300 274 300 123 0 186-45 235-115 29-42 46-92 46-145 0-21-4-49-9-69-27-117-100-217-270-218h-3c-171 0-273 95-273 247zm503-335l1-114h-17c-58-2-128-2-202-2h-81c-53 0-105 0-154 3l-1 115h19c65-2 162-2 254-2h181z"/><glyph glyph-name="onequarter" unicode="¼" d="M307 1374l89-23V672h-86l-1 562c-36-45-109-99-178-138l-44 73c162 81 216 197 220 205zM763 306v227c-39-70-122-175-172-227h172zm-285-15c18 25 269 324 281 412h88V306h69v-83h-69V-3h-84v224H511zM174 41c6 13 33 70 50 112 97 225 424 953 532 1239l92-44C710 996 386 276 266-6z"/><glyph glyph-name="onehalf" unicode="½" d="M268 1383l89-23V681h-86l-1 562c-36-45-109-99-178-138l-44 73c162 81 216 197 220 205zm354-911l-82-19c-5 16-10 41-11 61 0 5-1 10-1 14 0 121 90 190 198 190 131 0 202-65 202-207 0-69-43-131-87-177-46-46-112-94-168-149-39-38-54-76-55-96l320 1V5H523c0 16-1 34-1 52 0 14 0 29 3 44 10 53 35 100 94 155 58 54 113 89 156 131 42 40 66 90 66 123 0 63-31 123-110 123-71 0-117-39-117-126 0-11 6-29 8-35zM139 45c6 13 34 70 51 112 97 225 423 953 531 1239l92-44C675 1000 351 280 231-2z"/><glyph glyph-name="threequarters" unicode="¾" d="M47 849h86c1-63 44-110 124-110 86 0 138 51 138 131 0 60-19 101-71 130-49 28-92 28-135 28v86h9c21 0 47 1 86 14 45 16 69 41 69 96 0 42-46 74-101 74-69 0-100-63-110-83l-76 42c3 8 50 126 181 126h6c97 0 185-52 185-156 0-69-27-128-76-150 87-42 119-114 119-206 0-46-16-106-52-149-36-42-86-67-172-67-130 0-210 83-210 194zm728-537v227c-39-70-122-175-172-227h172zm-285-15c18 25 269 324 281 412h88V312h69v-83h-69V3h-84v224H523zM218 53c6 13 34 70 51 112 97 225 423 953 531 1239l92-44C754 1008 430 288 310 6z"/><glyph glyph-name="Thorn" unicode="Þ" d="M784 800c0 136-95 208-369 208-61 0-106-3-151-4V878c0-183-1-265-1-265 36-1 70-1 103-1 286 0 418 20 418 188zM262-10L104-9v1303c68 0 111 1 160 3v-140c35 2 75 3 129 3 225 0 364-14 479-152 54-65 74-154 74-244 0-280-305-304-530-304-48 0-99 1-153 3 0-263-1-317-1-473z"/><glyph glyph-name="eth" unicode="ð" d="M601 864c-313 0-371-165-371-360s87-348 254-348c76 1 120 17 170 59 69 64 91 185 91 326 0 125-55 228-144 323zm2 303c177-254 299-395 299-628C902 279 806 1 484 1h-2C210 2 72 219 72 499c0 191 57 495 425 519-10 15-40 57-75 106l-205-48-32 136 152 36c-31 46-56 82-61 93l157 87c30-49 58-94 86-137l218 53 32-136z"/><glyph glyph-name="thorn" unicode="þ" d="M755 527c0 204-54 331-224 331-137 0-185-46-256-160V262c52-51 109-114 200-114 163 0 280 96 280 379zM119 739v378c0 70-8 136-19 179l164 20c1-8 11-57 11-91V922c63 56 143 91 255 91 275 0 382-199 382-467C912 210 784-7 461-7 361-7 323 25 275 56v-207c0-94 9-178 16-246l-159-9c-9 73-14 169-14 260z"/><glyph glyph-name="Abreve" unicode="Ă" d="M517 1544c108 0 190 63 196 141l166-30c-24-177-197-264-362-264-126 0-308 48-356 273l156 30c27-117 107-150 200-150zM718 495l-194 587-186-607c60 13 116 13 199 17zm-284 806h171L983 172c11-37 29-118 31-172H850c0 23-12 95-20 122l-70 210c-141-3-362-5-473-32l-59-179c-10-29-24-93-24-121H42c1 28 19 116 32 159z"/><glyph glyph-name="abreve" unicode="ă" d="M474 1241c108 0 190 63 196 141l166-30c-24-177-197-264-362-264-126 0-308 48-356 273l156 30c27-117 107-150 200-150zM234 311c0-105 56-165 149-165 210 0 315 158 341 199v95c-57 35-131 64-235 64-136-1-255-75-255-193zm647 7c0-35 0-128 13-145 13-18 50-41 79-64L890-10c-52 40-112 65-130 166C682 81 580-6 383-6 212-6 78 135 78 301c0 76 30 165 89 226 95 97 196 121 314 121 126 0 189-18 243-51 0 189-69 280-239 280-138 0-201-30-281-173L74 786c96 182 230 242 409 242 242 0 398-155 398-380V318z"/><glyph glyph-name="Aogonek" unicode="Ą" d="M434 1301h171L983 172c11-37 29-118 31-172-105-85-335-155-335-238 0-56 57-84 121-84 58 0 99 34 129 56l78-107c-44-48-132-93-211-93-188 0-272 93-272 228C524-60 792-19 846 40c-4 29-11 65-16 82l-70 210c-141-3-362-5-473-32l-59-179c-10-29-24-93-24-121H42c1 28 19 116 32 159zm284-806l-194 587-186-607c60 13 116 13 199 17z"/><glyph glyph-name="aogonek" unicode="ą" d="M948 81C720-115 576-128 576-216c0-56 56-83 120-83 58 0 99 33 129 55l78-107c-44-48-132-93-211-93-188 0-271 93-271 228C421-70 608-19 764 86c-13 20-26 38-32 70C654 81 565-6 383-6 212-6 78 135 78 301c0 76 30 165 89 226 95 97 196 121 314 121 85 0 160-18 214-51 0 195-67 280-219 280-138 0-193-49-273-192L73 767c96 182 223 258 401 261 225 0 375-150 375-371l4-339c0-35 2-126 13-145 12-20 53-69 82-92zM234 311c0-105 56-165 149-165 180 0 287 158 313 199v95c-57 35-137 64-207 64-136 0-255-75-255-193z"/><glyph glyph-name="dcaron" unicode="ď" d="M184 478c0-204 51-331 214-331 131 0 177 46 245 160v437c-50 51-105 114-193 114-156 0-266-97-266-380zm609-211v-26c0-83 8-169 17-234L653-12c-4 32-9 54-10 96C583 28 505-7 398-7 134-7 33 191 33 459c0 336 122 554 431 554 96 0 132-33 178-64v207c0 94-8 179-14 247l153 8c8-73 13-168 13-259zm277 1096c-38-112-64-221-110-372l-152 34c18 142 46 283 68 386z"/><glyph glyph-name="Dcroat" unicode="Đ" d="M76 921v56c0 129-4 252-13 340 81 8 126 14 225 14 271 0 427-82 550-265 84-127 131-305 131-486 0-69-8-138-21-204C900 135 739 14 559-3c-55-5-106-7-161-7-84 0-217 7-331 7 0 34 0 33 3 131 0 48 5 355 6 645H4v148h72zm233 255h-30c-16 0-28 0-45-3 1-26 1-56 1-87 0-52-1-108-1-165h366l1-148H234c-1-272-3-540-4-626 88-3 133-3 193-3 169 0 295 26 360 209 16 46 27 136 27 191 0 162-36 332-101 429-89 131-179 203-400 203z"/><glyph glyph-name="dcroat" unicode="đ" d="M877 267v-26c0-83 8-169 18-234L732-12c-5 32-10 54-11 96C658 28 577-7 465-7 190-7 84 191 84 459c0 336 127 554 450 554 100 0 138-33 186-64v169H400v152h316c-3 49-7 94-11 133l159 8c5-42 9-90 11-141h95v-152h-92zM240 478c0-204 55-331 225-331 137 0 185 46 256 160v437c-52 51-110 114-201 114-163 0-280-97-280-380z"/><glyph glyph-name="Ebreve" unicode="Ĕ" d="M510 1530.92c108 0 190 63.664 196 142.486l166-30.316c-24-178.865-197-266.782-362-266.782-126 0-308 48.506-356 275.877l156 30.316c27-118.232 107-151.581 200-151.581zM102 1293c56 4 126 4 204 4h208c149 0 285-3 359-3h16v-150H260V816h438V666H260v-30c0-203-3-412-3-489l525 2c56 0 117 26 117 26l44-148C895 14 860-3 784-3H102v1296z"/><glyph glyph-name="ebreve" unicode="ĕ" d="M512 1232c108 0 190 63 196 141l166-30c-24-177-197-264-362-264-126 0-308 48-356 273l156 30c27-117 107-150 200-150zM236 580c129 1 386 15 528 31-6 156-118 258-254 258-170 0-273-135-274-289zm273 441c377 0 414-380 414-518 0-20 0-35-1-43-280-19-508-31-686-33 0-153 86-284 290-284 143 0 227 79 266 133l123-109C874 122 760-10 522-10 224-10 78 203 78 516c0 286 148 505 431 505z"/><glyph glyph-name="Edotaccent" unicode="Ė" d="M386 1649l236-3v-225l-236 3v225zm-284-356c56 4 126 4 204 4h208c149 0 285-3 359-3h16v-150H260V816h438V666H260v-30c0-203-3-412-3-489l525 2c56 0 117 26 117 26l44-148C895 14 860-3 784-3H102v1296z"/><glyph glyph-name="edotaccent" unicode="ė" d="M392 1403h234v-225H392v225zM236 580c129 1 386 15 528 31-6 156-118 258-254 258-170 0-273-135-274-289zm273 441c377 0 414-380 414-518 0-20 0-35-1-43-280-19-508-31-686-33 0-153 86-284 290-284 143 0 227 79 266 133l123-109C874 122 760-10 522-10 224-10 78 203 78 516c0 286 148 505 431 505z"/><glyph glyph-name="Eogonek" unicode="Ę" d="M102 1293c56 4 126 4 204 4h208c149 0 285-3 359-3h16v-150H260V816h438V666H260v-30c0-203-3-412-3-489l525 2c56 0 117 26 117 26l44-148C794-17 625-155 625-229c0-56 56-83 120-83 58 0 99 33 129 55l78-107c-44-48-132-93-211-93-188 0-271 93-271 228 0 88 66 162 151 226H102v1296z"/><glyph glyph-name="eogonek" unicode="ę" d="M236 580c129 1 386 15 528 31-6 156-118 258-254 258-170 0-273-135-274-289zm273 441c377 0 414-380 414-518 0-20 0-35-1-43-280-19-508-31-686-33 0-153 83-284 269-284 157 0 245 87 280 143l121-103c-3-5-10-15-22-30C714-76 524-140 524-216c0-56 56-83 120-83 58 0 99 33 129 55l78-107c-44-48-132-93-211-93-188 0-271 93-271 228 0 100 69 129 168 207-12-1-24-1-36-1C215-10 78 203 78 516c0 286 148 505 431 505z"/><glyph glyph-name="Ecaron" unicode="Ě" d="M518 1340l-370 318 104 107 267-218 265 218 106-107zm-416-47c56 4 126 4 204 4h208c149 0 285-3 359-3h16v-150H260V816h438V666H260v-30c0-203-3-412-3-489l525 2c56 0 117 26 117 26l44-148C895 14 860-3 784-3H102v1296z"/><glyph glyph-name="ecaron" unicode="ě" d="M508 1061l-370 318 104 107 267-218 265 218 106-107zM236 580c129 1 386 15 528 31-6 156-118 258-254 258-170 0-273-135-274-289zm273 441c377 0 414-380 414-518 0-20 0-35-1-43-280-19-508-31-686-33 0-153 86-284 290-284 143 0 227 79 266 133l123-109C874 122 760-10 522-10 224-10 78 203 78 516c0 286 148 505 431 505z"/><glyph glyph-name="Gcircumflex" unicode="Ĝ" d="M507 1760l375-328-107-107-271 221-261-221-104 107zM861 733c46 0 89 3 131 7V605C992 170 869 49 691 3 646-7 582-8 540-8 176-8 20 280 20 628c0 237 53 431 184 558 100 88 214 116 329 116h20c214-5 348-113 423-276l-143-69c-52 114-136 193-291 193-84 0-145-6-223-73-111-95-137-288-137-460 0-259 78-470 368-470 29 0 57 2 83 9 123 28 193 108 193 431-26-2-50-2-73-2-31 0-60 1-89 1-71 0-140-5-230-38l-40 145c96 36 200 42 301 42 56 0 112-2 166-2z"/><glyph glyph-name="gcircumflex" unicode="ĝ" d="M478 1503l375-328-107-107-271 221-261-221-104 107zM237-76c0-126 75-156 207-156h105c115 0 254 41 254 207 0 85-149 96-270 96-9 0-66 0-212-2-56-22-84-82-84-145zm239 633c129 0 228 52 228 149 0 129-85 168-212 168-136 0-239-73-239-165 0-116 93-152 223-152zM95 699c0 210 151 327 397 327 115 0 189-20 254-60 56 52 109 62 219 62V864c-12 2-34 5-44 5-35 0-74-5-91-22 26-47 30-89 30-137 0-189-154-303-379-303-71 0-134 7-199 32-19-22-43-57-43-98 0-76 54-118 180-118 26 0 154 2 181 2 188 0 361-59 361-249 0-259-174-364-418-364H440C229-388 80-291 80-82c0 100 32 171 87 219-57 42-85 113-85 191 0 91 32 151 74 199-34 38-61 100-61 172z"/><glyph glyph-name="Gbreve" unicode="Ğ" d="M504 1526c108 0 190 63 196 141l166-30c-24-177-197-264-362-264-126 0-308 48-356 273l156 30c27-117 107-150 200-150zm357-793c46 0 89 3 131 7V605C992 170 869 49 691 3 646-7 582-8 540-8 176-8 20 280 20 628c0 237 53 431 184 558 100 88 214 116 329 116h20c214-5 348-113 423-276l-143-69c-52 114-136 193-291 193-84 0-145-6-223-73-111-95-137-288-137-460 0-259 78-470 368-470 29 0 57 2 83 9 123 28 193 108 193 431-26-2-50-2-73-2-31 0-60 1-89 1-71 0-140-5-230-38l-40 145c96 36 200 42 301 42 56 0 112-2 166-2z"/><glyph glyph-name="gbreve" unicode="ğ" d="M481 1245c108 0 190 63 196 141l166-30c-24-177-197-264-362-264-126 0-308 48-356 273l156 30c27-117 107-150 200-150zM237-76c0-126 75-156 207-156h105c115 0 254 41 254 207 0 85-149 96-270 96-9 0-66 0-212-2-56-22-84-82-84-145zm239 633c129 0 228 52 228 149 0 129-85 168-212 168-136 0-239-73-239-165 0-116 93-152 223-152zM95 699c0 210 151 327 397 327 115 0 189-20 254-60 56 52 109 62 219 62V864c-12 2-34 5-44 5-35 0-74-5-91-22 26-47 30-89 30-137 0-189-154-303-379-303-71 0-134 7-199 32-19-22-43-57-43-98 0-76 54-118 180-118 26 0 154 2 181 2 188 0 361-59 361-249 0-259-174-364-418-364H440C229-388 80-291 80-82c0 100 32 171 87 219-57 42-85 113-85 191 0 91 32 151 74 199-34 38-61 100-61 172z"/><glyph glyph-name="Gdotaccent" unicode="Ġ" d="M419 1652l236-3v-225l-236 3v225zm442-919c46 0 89 3 131 7V605C992 170 869 49 691 3 646-7 582-8 540-8 176-8 20 280 20 628c0 237 53 431 184 558 100 88 214 116 329 116h20c214-5 348-113 423-276l-143-69c-52 114-136 193-291 193-84 0-145-6-223-73-111-95-137-288-137-460 0-259 78-470 368-470 29 0 57 2 83 9 123 28 193 108 193 431-26-2-50-2-73-2-31 0-60 1-89 1-71 0-140-5-230-38l-40 145c96 36 200 42 301 42 56 0 112-2 166-2z"/><glyph glyph-name="gdotaccent" unicode="ġ" d="M379 1403h235v-225H379v225zM237-76c0-126 75-156 207-156h105c115 0 254 41 254 207 0 85-149 96-270 96-9 0-66 0-212-2-56-22-84-82-84-145zm239 633c129 0 228 52 228 149 0 129-85 168-212 168-136 0-239-73-239-165 0-116 93-152 223-152zM95 699c0 210 151 327 397 327 115 0 189-20 254-60 56 52 109 62 219 62V864c-12 2-34 5-44 5-35 0-74-5-91-22 26-47 30-89 30-137 0-189-154-303-379-303-71 0-134 7-199 32-19-22-43-57-43-98 0-76 54-118 180-118 26 0 154 2 181 2 188 0 361-59 361-249 0-259-174-364-418-364H440C229-388 80-291 80-82c0 100 32 171 87 219-57 42-85 113-85 191 0 91 32 151 74 199-34 38-61 100-61 172z"/><glyph glyph-name="Gcommaaccent" unicode="Ģ" d="M438-130h251l7-263v-3c0-197-84-325-251-401l-61 139c92 51 142 121 142 259h-88v269zm423 863c46 0 89 3 131 7V605C992 170 869 49 691 3 646-7 582-8 540-8 176-8 20 280 20 628c0 237 53 431 184 558 100 88 214 116 329 116h20c214-5 348-113 423-276l-143-69c-52 114-136 193-291 193-84 0-145-6-223-73-111-95-137-288-137-460 0-259 78-470 368-470 29 0 57 2 83 9 123 28 193 108 193 431-26-2-50-2-73-2-31 0-60 1-89 1-71 0-140-5-230-38l-40 145c96 36 200 42 301 42 56 0 112-2 166-2z"/><glyph glyph-name="gcommaaccent" unicode="ģ" d="M461 1170c38 112 64 221 109 372l152-34c-18-142-46-283-67-386zM237-76c0-126 75-156 207-156h105c115 0 254 41 254 207 0 85-149 96-270 96-9 0-66 0-212-2-56-22-84-82-84-145zm239 633c129 0 228 52 228 149 0 129-85 168-212 168-136 0-239-73-239-165 0-116 93-152 223-152zM95 699c0 210 151 327 397 327 115 0 189-20 254-60 56 52 109 62 219 62V864c-12 2-34 5-44 5-35 0-74-5-91-22 26-47 30-89 30-137 0-189-154-303-379-303-71 0-134 7-199 32-19-22-43-57-43-98 0-76 54-118 180-118 26 0 154 2 181 2 188 0 361-59 361-249 0-259-174-364-418-364H440C229-388 80-291 80-82c0 100 32 171 87 219-57 42-85 113-85 191 0 91 32 151 74 199-34 38-61 100-61 172z"/><glyph glyph-name="Hcircumflex" unicode="Ĥ" d="M487 1781l375-328-107-107-271 221-261-221-104 107zm-267-485l-1-547c92 21 187 28 307 28h228c0 274-1 352-1 514h159V0H754v625H625c-146 0-288-3-406-28 0-343 2-416 2-597H60v1294z"/><glyph glyph-name="hcircumflex" unicode="ĥ" d="M261 1809l375-328-107-107-271 221-261-221-104 107zM739 576c0 227-36 291-237 291-101 0-202-74-233-136V198c0-79-5-152-10-198L101 8c8 72 11 119 11 196 0 504-1 1198-1 1198h159V940c65 41 137 80 239 80 121 0 231-9 310-105 72-85 77-163 77-273v-66c0-164-1-241-1-353 0-55 26-84 86-123L893-17c-80 45-154 98-154 225v368z"/><glyph glyph-name="Hbar" unicode="Ħ" d="M60 1145v149l160 2v-151h533v146h159v-146h85V995h-85V0H754v625H625c-146 0-288-3-406-28 0-343 2-416 2-597H60v995H0v150h60zm694-150H219V749c92 21 187 28 307 28h228v218z"/><glyph glyph-name="hbar" unicode="ħ" d="M718 576c0 227-36 291-237 291-101 0-202-74-233-136V198c0-79-5-152-10-198L80 8c8 72 11 119 11 196 0 299-1 664-1 912H0v150h90v135l158 1v-136h367v-150H249V940c65 41 137 80 239 80 121 0 231-9 310-105 72-85 77-163 77-273v-66c0-164-1-241-1-353 0-55 26-84 86-123L872-17c-80 45-154 98-154 225v368z"/><glyph glyph-name="Itilde" unicode="Ĩ" d="M334 1676c148 0 206-121 296-121 64 0 133 39 147 127l148-52c-32-120-149-228-281-228-140 0-197 121-298 121-59 0-117-9-155-115l-138 74c74 164 171 194 281 194zm-182-378c156 4 237 4 333 4 105 0 201-1 364-3v-152c-123 0-171 5-267 5V152c46 0 72 1 123 1 45 0 92-1 144-4V-1c-85 5-147 6-210 6-47 0-96-1-155-1-74 0-174-7-329-7v149c85 4 135 5 192 5h75v1000c-66-1-158-1-264-7z"/><glyph glyph-name="itilde" unicode="ĩ" d="M289 1391c148 0 206-121 296-121 64 0 133 39 147 127l148-52c-32-120-149-228-281-228-140 0-197 121-298 121-59 0-117-9-155-115L8 1197c74 164 171 194 281 194zm128-378h116c0-273 1-803 1-803 5-82 49-86 141-86 93 0 217 21 286 73l68-114C943 12 800-18 676-18c-85 0-161 14-205 38-85 47-93 127-93 186v651c-49 0-163-6-258-28L91 971c112 26 222 42 326 42z"/><glyph glyph-name="Imacron" unicode="Ī" d="M706 1593v-152h-17c-58-2-128-2-202-2s-149 0-217 2l-18 1v155l19-2c65-2 162-2 254-2h181zm-554-295c156 4 237 4 333 4 105 0 201-1 364-3v-152c-123 0-171 5-267 5V152c46 0 72 1 123 1 45 0 92-1 144-4V-1c-85 5-147 6-210 6-47 0-96-1-155-1-74 0-174-7-329-7v149c85 4 135 5 192 5h75v1000c-66-1-158-1-264-7z"/><glyph glyph-name="imacron" unicode="ī" d="M679 1332.8v-152h-17c-58-2-128-2-202-2s-149 0-217 2l-18 1v155l19-2c65-2 162-2 254-2h181zM417 1013h116c0-273 1-803 1-803 5-82 49-86 141-86 93 0 217 21 286 73l68-114C943 12 800-18 676-18c-85 0-161 14-205 38-85 47-93 127-93 186v651c-49 0-163-6-258-28L91 971c112 26 222 42 326 42z"/><glyph glyph-name="Ibreve" unicode="Ĭ" d="M503 1527c108 0 190 63 196 141l166-30c-24-177-197-264-362-264-126 0-308 48-356 273l156 30c27-117 107-150 200-150zm-351-229c156 4 237 4 333 4 105 0 201-1 364-3v-152c-123 0-171 5-267 5V152c46 0 72 1 123 1 45 0 92-1 144-4V-1c-85 5-147 6-210 6-47 0-96-1-155-1-74 0-174-7-329-7v149c85 4 135 5 192 5h75v1000c-66-1-158-1-264-7z"/><glyph glyph-name="ibreve" unicode="ĭ" d="M473 1265c108 0 190 63 196 141l166-30c-24-177-197-264-362-264-126 0-308 48-356 273l156 30c27-117 107-150 200-150zm-56-252h116c0-273 1-803 1-803 5-82 49-86 141-86 93 0 217 21 286 73l68-114C943 12 800-18 676-18c-85 0-161 14-205 38-85 47-93 127-93 186v651c-49 0-163-6-258-28L91 971c112 26 222 42 326 42z"/><glyph glyph-name="Iogonek" unicode="Į" d="M132 1298c156 4 257 4 353 4 105 0 205-1 368-3v-152c-123 0-175 5-271 5V152c46 0 72 1 123 1 45 0 92-1 144-4V-1C669-114 529-170 529-244c0-56 56-83 120-83 58 0 99 33 129 55l78-107c-44-48-132-93-211-93-188 0-271 93-271 228C374-101 541-43 634 5c-45 0-93-1-150-1-74 0-195-7-350-7v149c85 4 156 5 213 5h75v1000c-66-1-178-1-284-7z"/><glyph glyph-name="iogonek" unicode="į" d="M314 1403l235-3v-225l-235 3v225zm103-390h120c0-273 1-803 1-803 5-82 45-86 137-86 93 0 217 21 286 73l68-114C794-123 663-125 663-241c0-56 56-83 120-83 58 0 99 33 129 55l78-107c-44-48-132-93-211-93-188 0-271 93-271 228 0 104 78 154 185 223h-17c-85 0-161 14-205 38-85 47-93 127-93 186v651c-49 0-163-6-258-28L91 971c112 26 222 42 326 42z"/><glyph glyph-name="Idotaccent" unicode="İ" d="M367 1652l236-3v-225l-236 3v225zm-215-354c156 4 237 4 333 4 105 0 201-1 364-3v-152c-123 0-171 5-267 5V152c46 0 72 1 123 1 45 0 92-1 144-4V-1c-85 5-147 6-210 6-47 0-96-1-155-1-74 0-174-7-329-7v149c85 4 135 5 192 5h75v1000c-66-1-158-1-264-7z"/><glyph glyph-name="IJ" unicode="Ĳ" d="M381 1151c-38 1-64 1-99 1V152l80-2V0c-30 1-67 1-105 1-75 0-157-1-206-1v146c22 4 39 6 54 6h17v1000c-66-1-43-2-70-8l-2 154c40 4 40 4 136 4h197zm133 145c49 0 91-1 130-1 116 0 202 2 366 2l-2-153c-48 0-36 1-86 1 16-178 22-380 22-503C944 288 930-8 664-8 471-8 410 210 408 426l160-1c6-150 37-283 94-283 114 0 125 120 125 340 0 54-1 112-1 177 0 95-16 348-28 485-122 0-130 0-246 2z"/><glyph glyph-name="ij" unicode="ĳ" d="M811-114l-1 978h-16c-98 0-150-8-240-29l-28 142c112 26 220 42 324 42h117V-118c0-145-61-269-299-269-123 0-245 7-459 118l58 149c153-105 317-111 380-111h17c112 0 145 82 147 117zM287 1020h120c0-273 1-803 1-803 0-64 39-86 90-86s88 22 112 61l83-102C646 19 549-6 481-6 304-6 248 97 248 213v651h-12c-42 0-72-1-159-21L48 985c112 26 135 35 239 35zm457 384l234-3v-225l-234 3v225zm-560 6l235-3v-225l-235 3v225z"/><glyph glyph-name="Jcircumflex" unicode="Ĵ" d="M618 1772l375-328-107-107-271 221-261-221-104 107zM414-8C139-8 42 210 40 426l160-1c6-150 59-283 212-283 186 0 221 185 221 517 0 95-16 348-28 485-49 0-128 2-165 2-104-3-116-12-143-18l-38 148c30 7 61 19 179 22 145 0 362-1 518-1l-2-153c-48 0-135 1-185 1 16-178 22-380 22-503C791 288 744-8 414-8z"/><glyph glyph-name="jcircumflex" unicode="ĵ" d="M671 1502l375-328-107-107-271 221-261-221-104 107zM627-114l-1 978h-16c-98 0-150-8-240-29l-28 142c112 26 220 42 324 42h117V-118c0-145-61-269-299-269-123 0-267 22-393 227l126 98c99-162 183-169 246-169h17c112 0 145 82 147 117z"/><glyph glyph-name="Kcommaaccent" unicode="Ķ" d="M451-34h220v-215c0-151-67-227-196-283l-54 127c60 28 86 51 86 150h-56v221zm33 759c120-117 467-531 518-666L868-17C822 92 518 474 388 600c0 0-84-98-114-169V-5H116v1313h158V703c80 111 151 190 250 293 191 195 317 293 338 314l111-106c-182-132-429-406-489-479z"/><glyph glyph-name="kcommaaccent" unicode="ķ" d="M463-29h220v-215c0-151-67-227-196-283l-54 127c60 28 86 51 86 150h-56v221zm123 595c101 0 156 91 156 179 0 18-2 35-7 50-10 33-42 77-105 77-24 0-52-6-85-22-99-47-178-92-252-142v-90c84-13 149-28 198-39 37-8 68-13 95-13zM293 880c72 49 222 136 328 136 136 0 259-83 273-202 3-23 5-53 5-82 0-33-3-67-8-93-6-34-58-136-161-185 98-73 96-193 149-281 24-39 50-60 83-84L878-19C755 41 720 159 693 238c-50 145-275 217-399 231 0 0-2-190-2-340 0-50 1-96 1-129H136v1228c0 61-10 114-23 155l153 44c9-23 27-68 27-134V880z"/><glyph glyph-name="kgreenlandic" unicode="ĸ" d="M558 605C668 478 933 185 984 50L850-26C804 83 565 364 446 501c0 0-119-102-174-177V0H116v1020h156V550c93 92 198 175 305 269 207 178 285 211 308 230l97-129C789 804 624 673 558 605z"/><glyph glyph-name="Lacute" unicode="Ĺ" d="M52 1496c143 48 352 205 467 313l123-146c-111-112-379-268-522-315zM141-3v1301h161V151h521c59 3 77 7 121 22l41-146C938 11 900-3 825-3H141z"/><glyph glyph-name="lacute" unicode="ĺ" d="M191 1580c143 48 352 205 467 313l123-146c-111-112-379-268-522-315zm224-152h116c0-273 3-1216 3-1216 5-82 49-86 141-86 93 0 217 21 286 73l68-114C943 14 800-16 676-16c-85 0-161 14-205 38-85 47-93 127-93 186l-3 1065c-17 0-44 1-74 1-57 0-129-3-190-17l-28 143c112 26 228 28 332 28z"/><glyph glyph-name="Lcommaaccent" unicode="Ļ" d="M388-125h220v-215c0-151-67-227-196-283l-54 127c60 28 86 51 86 150h-56v221zM141-3v1301h161V151h521c59 3 77 7 121 22l41-146C938 11 900-3 825-3H141z"/><glyph glyph-name="lcommaaccent" unicode="ļ" d="M597-138h220v-215c0-151-67-227-196-283l-54 127c60 28 86 51 86 150h-56v221zM415 1428h116c0-273 3-1216 3-1216 5-82 49-86 141-86 93 0 217 21 286 73l68-114C943 14 800-16 676-16c-85 0-161 14-205 38-85 47-93 127-93 186l-3 1065c-17 0-44 1-74 1-57 0-129-3-190-17l-28 143c112 26 228 28 332 28z"/><glyph glyph-name="Lcaron" unicode="Ľ" d="M894 1241c-38-112-64-221-109-372l-152 34c18 142 46 283 67 386zM141-3v1301h161V151h521c59 3 77 7 121 22l41-146C938 11 900-3 825-3H141z"/><glyph glyph-name="lcaron" unicode="ľ" d="M1027 1392c-38-112-65-221-110-372l-152 34c18 142 47 283 68 386zm-612 36h116c0-273 3-1216 3-1216 5-82 49-86 141-86 93 0 217 21 286 73l68-114C943 14 800-16 676-16c-85 0-161 14-205 38-85 47-93 127-93 186l-3 1065c-17 0-44 1-74 1-57 0-129-3-190-17l-28 143c112 26 228 28 332 28z"/><glyph glyph-name="Ldot" unicode="Ŀ" d="M526.929 818.44h216V589.445h-216V818.44zM141-3v1301h161V151h521c59 3 77 7 121 22l41-146C938 11 900-3 825-3H141z"/><glyph glyph-name="ldot" unicode="ŀ" d="M747.929 818.44h216V589.445h-216V818.44zM415 1428h116c0-273 3-1216 3-1216 5-82 49-86 141-86 93 0 217 21 286 73l68-114C943 14 800-16 676-16c-85 0-161 14-205 38-85 47-93 127-93 186l-3 1065c-17 0-44 1-74 1-57 0-129-3-190-17l-28 143c112 26 228 28 332 28z"/><glyph glyph-name="Lslash" unicode="Ł" d="M267 678l-147-56-50 130 197 76v470h161V890l253 98 50-131-303-117V151h395c59 3 77 7 121 22l41-146C938 11 900-3 825-3H267v681z"/><glyph glyph-name="lslash" unicode="ł" d="M396 1428h120c0-91 1-255 1-434l255 98 50-131-305-117c1-318 2-632 2-632 5-82 45-86 137-86 93 0 217 21 286 73l68-114C924 14 781-16 657-16c-85 0-161 14-205 38-85 47-93 127-93 186l-2 575-146-57-50 131 196 75-1 341c-49 0-162-7-257-29l-28 143c112 26 221 41 325 41z"/><glyph glyph-name="Nacute" unicode="Ń" d="M394 1476c143 48 352 205 467 313l123-146c-111-112-379-268-522-315zM752-6C589 351 435 648 233 1001V797c0-293 1-648 1-800H75v1301l159-4c126-184 402-689 519-937-2 130-3 266-3 400 0 186 3 369 12 540h154c-6-113-8-262-8-425 0-226 4-480 4-710 0-57-1-114-1-167z"/><glyph glyph-name="nacute" unicode="ń" d="M379.5 1208c143 48 352 205 467 313l123-146c-111-112-379-268-522-315zM270 927c126 66 218 95 328 95 120 0 299-77 299-226V211c0-66 50-88 106-118L919-19c-88 43-180 94-180 223v561c0 74-97 107-163 107-64 0-160-42-306-112V0L112-1v706c0 178-8 204-32 298l160 37c10-24 22-64 30-113z"/><glyph glyph-name="Ncommaaccent" unicode="Ņ" d="M412-28h220v-215c0-151-67-227-196-283l-54 127c60 28 86 51 86 150h-56v221zM752-6C589 351 435 648 233 1001V797c0-293 1-648 1-800H75v1301l159-4c126-184 402-689 519-937-2 130-3 266-3 400 0 186 3 369 12 540h154c-6-113-8-262-8-425 0-226 4-480 4-710 0-57-1-114-1-167z"/><glyph glyph-name="ncommaaccent" unicode="ņ" d="M453.5-39h220v-215c0-151-67-227-196-283l-54 127c60 28 86 51 86 150h-56v221zM270 927c126 66 218 95 328 95 120 0 299-77 299-226V211c0-66 50-88 106-118L919-19c-88 43-180 94-180 223v561c0 74-97 107-163 107-64 0-160-42-306-112V0L112-1v706c0 178-8 204-32 298l160 37c10-24 22-64 30-113z"/><glyph glyph-name="Ncaron" unicode="Ň" d="M491 1322l-370 318 104 107 267-218 265 218 106-107zM752-6C589 351 435 648 233 1001V797c0-293 1-648 1-800H75v1301l159-4c126-184 402-689 519-937-2 130-3 266-3 400 0 186 3 369 12 540h154c-6-113-8-262-8-425 0-226 4-480 4-710 0-57-1-114-1-167z"/><glyph glyph-name="ncaron" unicode="ň" d="M581.5 1060l-370 318 104 107 267-218 265 218 106-107zM270 927c126 66 218 95 328 95 120 0 299-77 299-226V211c0-66 50-88 106-118L919-19c-88 43-180 94-180 223v561c0 74-97 107-163 107-64 0-160-42-306-112V0L112-1v706c0 178-8 204-32 298l160 37c10-24 22-64 30-113z"/><glyph glyph-name="Eng" unicode="Ŋ" d="M540 1296c290 0 368-195 368-436 0-231 4-460 4-695v-34c0-256-50-490-486-490h-34v155c346 6 364 146 364 310v746c0 184-95 291-214 291-194 0-272-159-308-227V-3H75v1062c0 115-39 200-39 200l155 57c19-39 34-71 41-148 60 102 172 128 308 128z"/><glyph glyph-name="eng" unicode="ŋ" d="M271 927c126 66 186 95 296 95 121 0 289-77 289-226V211c0-299-2-579-420-579h-4l-3 156h3c231 0 265 98 265 361v616c0 74-85 107-152 107-63 0-128-42-273-112L271 0 113-1v706c0 178-8 204-32 298l160 37c10-24 23-64 30-113z"/><glyph glyph-name="Omacron" unicode="Ō" d="M757.5 1584v-152h-17c-58-2-128-2-202-2s-149 0-217 2l-18 1v155l19-2c65-2 162-2 254-2h181zM504 1326c124 0 445-74 450-691v-11c0-164-44-317-92-410C787 70 657-13 492-13c-122 0-249 43-330 143C72 240 24 392 24 572c0 345 76 494 146 589 66 90 178 162 334 165zM266 245c49-65 118-105 226-105 116 0 189 67 234 150 40 64 69 230 70 337v19c0 115-17 268-70 371-58 114-128 156-216 156-95 0-152-28-210-104-69-89-118-231-118-493 0-104 28-258 84-331z"/><glyph glyph-name="omacron" unicode="ō" d="M708 1338.3v-152h-17c-58-2-128-2-202-2s-149 0-217 2l-18 1v155l19-2c65-2 162-2 254-2h181zM654 215c65 61 89 167 89 315v18c-2 184-66 330-243 330-208 0-270-165-270-409 0-195 87-313 254-313 76 1 120 17 170 59zM482 1C210 2 72 184 72 464c0 292 102 568 394 568 197 0 307-69 377-201 41-79 59-192 59-288C902 258 806 1 484 1h-2z"/><glyph glyph-name="Obreve" unicode="Ŏ" d="M512.5 1538c108 0 190 63 196 141l166-30c-24-177-197-264-362-264-126 0-308 48-356 273l156 30c27-117 107-150 200-150zm-8.5-212c124 0 445-74 450-691v-11c0-164-44-317-92-410C787 70 657-13 492-13c-122 0-249 43-330 143C72 240 24 392 24 572c0 345 76 494 146 589 66 90 178 162 334 165zM266 245c49-65 118-105 226-105 116 0 189 67 234 150 40 64 69 230 70 337v19c0 115-17 268-70 371-58 114-128 156-216 156-95 0-152-28-210-104-69-89-118-231-118-493 0-104 28-258 84-331z"/><glyph glyph-name="obreve" unicode="ŏ" d="M466 1223c108 0 190 63 196 141l166-30c-24-177-197-264-362-264-126 0-308 48-356 273l156 30c27-117 107-150 200-150zM654 215c65 61 89 167 89 315v18c-2 184-66 330-243 330-208 0-270-165-270-409 0-195 87-313 254-313 76 1 120 17 170 59zM482 1C210 2 72 184 72 464c0 292 102 568 394 568 197 0 307-69 377-201 41-79 59-192 59-288C902 258 806 1 484 1h-2z"/><glyph glyph-name="Ohungarumlaut" unicode="Ő" d="M542.5 1476c117 95 243 261 313 402l154-100c-65-144-234-323-352-417zm-336 7c117 95 243 261 313 402l154-99c-65-144-235-324-353-418zM504 1326c124 0 445-74 450-691v-11c0-164-44-317-92-410C787 70 657-13 492-13c-122 0-249 43-330 143C72 240 24 392 24 572c0 345 76 494 146 589 66 90 178 162 334 165zM266 245c49-65 118-105 226-105 116 0 189 67 234 150 40 64 69 230 70 337v19c0 115-17 268-70 371-58 114-128 156-216 156-95 0-152-28-210-104-69-89-118-231-118-493 0-104 28-258 84-331z"/><glyph glyph-name="ohungarumlaut" unicode="ő" d="M551 1164c117 95 243 261 313 402l154-100c-65-144-234-323-352-417zm-336 7c117 95 243 261 313 402l154-99c-65-144-235-324-353-418zm439-956c65 61 89 167 89 315v18c-2 184-66 330-243 330-208 0-270-165-270-409 0-195 87-313 254-313 76 1 120 17 170 59zM482 1C210 2 72 184 72 464c0 292 102 568 394 568 197 0 307-69 377-201 41-79 59-192 59-288C902 258 806 1 484 1h-2z"/><glyph glyph-name="Racute" unicode="Ŕ" d="M308 1502c143 48 352 205 467 313l123-146c-111-112-379-268-522-315zm344-962c78-122 190-302 246-367 18-16 49-50 91-61L930-22c-58 9-112 47-146 89-97 107-255 373-311 467-82 8-150 20-226 33l1-567H90v1113c0 67-1 114-5 175 42 4 157 15 218 15 250 0 419-14 541-164 48-59 83-146 83-230 0-220-99-340-275-369zm120 355c0 55-15 105-57 153-67 78-183 102-407 102-26 0-34 0-63-1l2-430c99-18 178-41 260-41 16 0 33 1 49 3 140 18 216 52 216 214z"/><glyph glyph-name="racute" unicode="ŕ" d="M346 1210c143 48 352 205 467 313l123-146c-111-112-379-268-522-315zm24-335c93 114 197 150 352 150 167 0 212-114 212-296v-6H778c-4 81 8 142-84 142-101 0-228-36-328-259V0L210 1v763c0 57-40 86-102 141l104 141c61-49 121-87 158-171z"/><glyph glyph-name="Rcommaaccent" unicode="Ŗ" d="M388-60h220v-215c0-151-67-227-196-283l-54 127c60 28 86 51 86 150h-56v221zm264 600c78-122 190-302 246-367 18-16 49-50 91-61L930-22c-58 9-112 47-146 89-97 107-255 373-311 467-82 8-150 20-226 33l1-567H90v1113c0 67-1 114-5 175 42 4 157 15 218 15 250 0 419-14 541-164 48-59 83-146 83-230 0-220-99-340-275-369zm120 355c0 55-15 105-57 153-67 78-183 102-407 102-26 0-34 0-63-1l2-430c99-18 178-41 260-41 16 0 33 1 49 3 140 18 216 52 216 214z"/><glyph glyph-name="rcommaaccent" unicode="ŗ" d="M187-83h220v-215c0-151-67-227-196-283l-54 127c60 28 86 51 86 150h-56v221zm183 958c93 114 197 150 352 150 167 0 212-114 212-296v-6H778c-4 81 8 142-84 142-101 0-228-36-328-259V0L210 1v763c0 57-40 86-102 141l104 141c61-49 121-87 158-171z"/><glyph glyph-name="Rcaron" unicode="Ř" d="M452 1343L82 1661l104 107 267-218 265 218 106-107zm200-803c78-122 190-302 246-367 18-16 49-50 91-61L930-22c-58 9-112 47-146 89-97 107-255 373-311 467-82 8-150 20-226 33l1-567H90v1113c0 67-1 114-5 175 42 4 157 15 218 15 250 0 419-14 541-164 48-59 83-146 83-230 0-220-99-340-275-369zm120 355c0 55-15 105-57 153-67 78-183 102-407 102-26 0-34 0-63-1l2-430c99-18 178-41 260-41 16 0 33 1 49 3 140 18 216 52 216 214z"/><glyph glyph-name="rcaron" unicode="ř" d="M560 1059l-370 318 104 107 267-218 265 218 106-107zM370 875c93 114 197 150 352 150 167 0 212-114 212-296v-6H778c-4 81 8 142-84 142-101 0-228-36-328-259V0L210 1v763c0 57-40 86-102 141l104 141c61-49 121-87 158-171z"/><glyph glyph-name="Sacute" unicode="Ś" d="M257 1494c143 48 352 205 467 313l123-146c-111-112-379-268-522-315zm-10-785C156 752 72 843 72 989c0 216 187 313 398 313h9c223-3 393-79 431-286l-159-29c-38 127-122 161-276 161-102 0-163-21-209-66-24-25-35-54-35-88 0-82 46-121 102-147 117-56 274-55 406-115 108-52 210-170 210-344C949 119 761-9 521-9h-19C149 0 43 190 43 413h158c0-159 83-271 307-271 205 0 281 95 281 238 0 107-59 175-138 209-116 50-271 60-404 120z"/><glyph glyph-name="sacute" unicode="ś" d="M262 1184c143 48 352 205 467 313l123-146c-111-112-379-268-522-315zm7-613c-65 35-117 101-117 212 1 173 163 246 338 246 122 0 298-40 380-141L757 777c-53 62-167 104-253 104-106 0-195-29-195-94 0-48 20-71 60-89 265-112 527-133 527-417C896 119 782 28 675 0c-56-13-116-20-173-20-256 0-384 135-384 350l157-1c0-134 69-206 224-206 123 0 242 53 242 163 0 73-31 99-86 140-77 55-281 90-386 145z"/><glyph glyph-name="Scircumflex" unicode="Ŝ" d="M481 1766l375-328-107-107-271 221-261-221-104 107zM247 709C156 752 72 843 72 989c0 216 187 313 398 313h9c223-3 393-79 431-286l-159-29c-38 127-122 161-276 161-102 0-163-21-209-66-24-25-35-54-35-88 0-82 46-121 102-147 117-56 274-55 406-115 108-52 210-170 210-344C949 119 761-9 521-9h-19C149 0 43 190 43 413h158c0-159 83-271 307-271 205 0 281 95 281 238 0 107-59 175-138 209-116 50-271 60-404 120z"/><glyph glyph-name="scircumflex" unicode="ŝ" d="M500 1491.9l375-328-107-107-271 221-261-221-104 107zM269 571c-65 35-117 101-117 212 1 173 163 246 338 246 122 0 298-40 380-141L757 777c-53 62-167 104-253 104-106 0-195-29-195-94 0-48 20-71 60-89 265-112 527-133 527-417C896 119 782 28 675 0c-56-13-116-20-173-20-256 0-384 135-384 350l157-1c0-134 69-206 224-206 123 0 242 53 242 163 0 73-31 99-86 140-77 55-281 90-386 145z"/><glyph glyph-name="Scedilla" unicode="Ş" d="M247 723c-91 44-175 137-175 286 0 220 187 319 398 319h9c223-3 393-80 431-291l-159-30c-38 130-122 164-276 164-102 0-163-21-209-67-24-26-35-55-35-90 0-84 46-123 102-150 117-57 274-56 406-117 108-53 210-173 210-351C949 146 793 15 584-6c-1-21-1-62-1-64 97-5 155-67 155-171 0-101-100-168-184-168-66 0-138 25-194 61l38 106c33-18 73-42 124-42 36 0 77 20 80 58v2c0 29-38 54-86 54s-50-7-78-17V-5C136 25 43 207 43 421h158c0-162 83-276 307-276 205 0 281 97 281 243 0 109-59 178-138 213-116 51-271 61-404 122z"/><glyph glyph-name="scedilla" unicode="ş" d="M243 571c-65 35-117 101-117 212 1 173 163 246 338 246 122 0 298-40 380-141L731 777c-53 62-167 104-253 104-106 0-192-34-192-94 0-48 17-71 57-89 265-112 527-158 527-417C870 119 756 28 649 0c-33-8-67-13-100-16-1-21-1-63-1-65 97-5 155-67 155-171 0-101-100-168-184-168-66 0-138 25-194 61l38 106c33-18 73-42 124-42 36 0 77 20 80 58v2c0 29-38 54-86 54s-50-7-78-17v182C196 8 92 137 92 330l157-1c0-134 69-206 224-206 123 0 242 53 242 163 0 73-31 99-86 140-77 55-294 98-386 145z"/><glyph glyph-name="Scaron" unicode="Š" d="M489 1343l-370 318 104 107 267-218 265 218 106-107zM247 709C156 752 72 843 72 989c0 216 187 313 398 313h9c223-3 393-79 431-286l-159-29c-38 127-122 161-276 161-102 0-163-21-209-66-24-25-35-54-35-88 0-82 46-121 102-147 117-56 274-55 406-115 108-52 210-170 210-344C949 119 761-9 521-9h-19C149 0 43 190 43 413h158c0-159 83-271 307-271 205 0 281 95 281 238 0 107-59 175-138 209-116 50-271 60-404 120z"/><glyph glyph-name="scaron" unicode="š" d="M523 1058l-370 318 104 107 267-218 265 218 106-107zM269 571c-65 35-117 101-117 212 1 173 163 246 338 246 122 0 298-40 380-141L757 777c-53 62-167 104-253 104-106 0-195-29-195-94 0-48 20-71 60-89 265-112 527-133 527-417C896 119 782 28 675 0c-56-13-116-20-173-20-256 0-384 135-384 350l157-1c0-134 69-206 224-206 123 0 242 53 242 163 0 73-31 99-86 140-77 55-281 90-386 145z"/><glyph glyph-name="Tcommaaccent" unicode="Ţ" d="M403-9v1176c-198 0-288-1-364-1v158c122 0 576 1 764 1 73 0 122-12 140-15l-33-155s-62 12-112 12H563V-28c97-5 145-67 145-171 0-101-100-168-184-168-66 0-138 25-194 61l38 106c33-18 73-42 124-42 36 0 77 20 80 58v2c0 29-38 54-86 54s-50-7-78-17v31c-3 33-4 73-5 105z"/><glyph glyph-name="tcommaaccent" unicode="ţ" d="M321 437v-40c0-133 36-234 147-245 18-2 95-3 108-3 65 0 129 10 154 24 57 30 75 85 82 104l126-56c-10-28-33-119-145-184C747 10 691-1 627-5v-33c97-5 155-67 155-171 0-101-100-168-184-168-66 0-138 25-194 61l38 106c33-18 73-42 124-42 36 0 77 20 80 58v2c0 29-38 54-86 54s-50-7-78-17V-3C351 5 259 40 201 161c-35 72-39 147-39 233v43c4 104 6 235 12 428h-14c-28 0-56-4-82-11l-20 146c24 9 69 12 102 12h15c0 70 1 164 1 234l158-1c0-66-1-160-2-228h122c145 1 299 2 299 2h18V872H454c-46 0-73-3-119-3-9-204-10-332-14-432z"/><glyph glyph-name="Tcaron" unicode="Ť" d="M484 1349l-370 318 104 107 267-218 265 218 106-107zM403-9v1153c-198 0-288-1-364-1v155c122 0 576 1 764 1 73 0 122-12 140-15l-33-152s-62 12-112 12H563V-9H403z"/><glyph glyph-name="tcaron" unicode="ť" d="M863 1469c-38-112-64-221-109-372l-152 34c18 142 46 283 67 386zM359 437v-40c0-133 36-234 147-245 18-2 95-3 108-3 65 0 129 10 154 24 57 30 75 85 82 104l126-56c-10-28-33-119-145-184C773 3 701-6 616-6 432-6 310 13 239 161c-35 72-39 147-39 233v43c4 104 6 235 12 428h-14c-28 0-56-4-82-11l-20 146c24 9 69 12 102 12h15c0 70 1 164 1 234l158-1c0-66-1-160-2-228h122c145 1 299 2 299 2h18V872H492c-46 0-73-3-119-3-9-204-10-332-14-432z"/><glyph glyph-name="Tbar" unicode="Ŧ" d="M403 577H161v158h242v409c-198 0-288-1-364-1v155c122 0 576 1 764 1 73 0 122-12 140-15l-33-152s-62 12-112 12H563V735h253V577H563V-9H403v586z"/><glyph glyph-name="tbar" unicode="ŧ" d="M363 437v-40c0-133 36-234 147-245 18-2 95-3 108-3 65 0 129 10 154 24 57 30 75 85 82 104l126-56c-10-28-33-119-145-184C777 3 705-6 620-6 436-6 314 13 243 161c-35 72-39 147-39 233v43c1 21 1 43 2 67H28v158h182c1 59 4 126 6 203h-14c-28 0-56-4-82-11l-20 146c24 9 69 12 102 12h15c0 70 1 164 1 234l158-1c0-66-1-160-2-228h122c145 1 299 2 299 2h18V872H496c-46 0-73-3-119-3-4-79-6-148-8-207h269V504H365c-1-24-1-46-2-67z"/><glyph glyph-name="Utilde" unicode="Ũ" d="M362 1673c148 0 206-121 296-121 64 0 133 39 147 127l148-52c-32-120-149-228-281-228-140 0-197 121-298 121-59 0-117-9-155-115l-138 74c74 164 171 194 281 194zm415-360l157-13c-9-60-9-103-9-157 0-145 2-272 2-383v-58c0-232-4-454-116-583C729 24 621-5 492-10 184-10 86 156 68 447c-5 75-7 197-7 332 0 172 3 365 9 523h158c-4-165-8-389-8-574 0-123 2-229 7-289 18-210 100-298 252-298 106 5 158 28 212 84 67 74 78 280 78 477 0 123-5 269-5 439 0 71 3 110 13 172z"/><glyph glyph-name="utilde" unicode="ũ" d="M346 1379c148 0 206-121 296-121 64 0 133 39 147 127l148-52c-32-120-149-228-281-228-140 0-197 121-298 121-59 0-117-9-155-115l-138 74c74 164 171 194 281 194zM906-10c-57 41-111 82-133 168C689 72 592 5 442 2h-9c-62 0-147 1-207 42-45 31-112 88-112 170-3 268 4 697-23 780l160 27c22-92 17-405 19-771 6-34 28-60 50-76 14-10 65-18 106-18 67 3 108 11 159 42 47 28 116 58 154 146v676h158V239c2-52 51-100 91-132z"/><glyph glyph-name="Umacron" unicode="Ū" d="M716 1590v-152h-17c-58-2-128-2-202-2s-149 0-217 2l-18 1v155l19-2c65-2 162-2 254-2h181zm61-277l157-13c-9-60-9-103-9-157 0-145 2-272 2-383v-58c0-232-4-454-116-583C729 24 621-5 492-10 184-10 86 156 68 447c-5 75-7 197-7 332 0 172 3 365 9 523h158c-4-165-8-389-8-574 0-123 2-229 7-289 18-210 100-298 252-298 106 5 158 28 212 84 67 74 78 280 78 477 0 123-5 269-5 439 0 71 3 110 13 172z"/><glyph glyph-name="umacron" unicode="ū" d="M736 1331.6v-152h-17c-58-2-128-2-202-2s-149 0-217 2l-18 1v155l19-2c65-2 162-2 254-2h181zM906-10c-57 41-111 82-133 168C689 72 592 5 442 2h-9c-62 0-147 1-207 42-45 31-112 88-112 170-3 268 4 697-23 780l160 27c22-92 17-405 19-771 6-34 28-60 50-76 14-10 65-18 106-18 67 3 108 11 159 42 47 28 116 58 154 146v676h158V239c2-52 51-100 91-132z"/><glyph glyph-name="Ubreve" unicode="Ŭ" d="M510 1529c108 0 190 63 196 141l166-30c-24-177-197-264-362-264-126 0-308 48-356 273l156 30c27-117 107-150 200-150zm267-216l157-13c-9-60-9-103-9-157 0-145 2-272 2-383v-58c0-232-4-454-116-583C729 24 621-5 492-10 184-10 86 156 68 447c-5 75-7 197-7 332 0 172 3 365 9 523h158c-4-165-8-389-8-574 0-123 2-229 7-289 18-210 100-298 252-298 106 5 158 28 212 84 67 74 78 280 78 477 0 123-5 269-5 439 0 71 3 110 13 172z"/><glyph glyph-name="ubreve" unicode="ŭ" d="M518 1217c108 0 190 63 196 141l166-30c-24-177-197-264-362-264-126 0-308 48-356 273l156 30c27-117 107-150 200-150zM906-10c-57 41-111 82-133 168C689 72 592 5 442 2h-9c-62 0-147 1-207 42-45 31-112 88-112 170-3 268 4 697-23 780l160 27c22-92 17-405 19-771 6-34 28-60 50-76 14-10 65-18 106-18 67 3 108 11 159 42 47 28 116 58 154 146v676h158V239c2-52 51-100 91-132z"/><glyph glyph-name="Uring" unicode="Ů" d="M420 1537c0-35 36-72 87-72s85 37 85 72-33 69-85 69-87-34-87-69zm-129-2c0 111 102 195 217 195s216-84 216-195-101-195-216-195-217 84-217 195zm486-222l157-13c-9-60-9-103-9-157 0-145 2-272 2-383v-58c0-232-4-454-116-583C729 24 621-5 492-10 184-10 86 156 68 447c-5 75-7 197-7 332 0 172 3 365 9 523h158c-4-165-8-389-8-574 0-123 2-229 7-289 18-210 100-298 252-298 106 5 158 28 212 84 67 74 78 280 78 477 0 123-5 269-5 439 0 71 3 110 13 172z"/><glyph glyph-name="uring" unicode="ů" d="M428 1243c0-35 36-72 87-72s85 37 85 72-33 69-85 69-87-34-87-69zm-129-2c0 111 102 195 217 195s216-84 216-195-101-195-216-195-217 84-217 195zM906-10c-57 41-111 82-133 168C689 72 592 5 442 2h-9c-62 0-147 1-207 42-45 31-112 88-112 170-3 268 4 697-23 780l160 27c22-92 17-405 19-771 6-34 28-60 50-76 14-10 65-18 106-18 67 3 108 11 159 42 47 28 116 58 154 146v676h158V239c2-52 51-100 91-132z"/><glyph glyph-name="Uhungarumlaut" unicode="Ű" d="M543 1437c117 95 243 261 313 402l154-100c-65-144-234-323-352-417zm-336 7c117 95 243 261 313 402l154-99c-65-144-235-324-353-418zm570-131l157-13c-9-60-9-103-9-157 0-145 2-272 2-383v-58c0-232-4-454-116-583C729 24 621-5 492-10 184-10 86 156 68 447c-5 75-7 197-7 332 0 172 3 365 9 523h158c-4-165-8-389-8-574 0-123 2-229 7-289 18-210 100-298 252-298 106 5 158 28 212 84 67 74 78 280 78 477 0 123-5 269-5 439 0 71 3 110 13 172z"/><glyph glyph-name="uhungarumlaut" unicode="ű" d="M521 1179c117 95 243 261 313 402l154-100c-65-144-234-323-352-417zm-336 7c117 95 243 261 313 402l154-99c-65-144-235-324-353-418zM906-10c-57 41-111 82-133 168C689 72 592 5 442 2h-9c-62 0-147 1-207 42-45 31-112 88-112 170-3 268 4 697-23 780l160 27c22-92 17-405 19-771 6-34 28-60 50-76 14-10 65-18 106-18 67 3 108 11 159 42 47 28 116 58 154 146v676h158V239c2-52 51-100 91-132z"/><glyph glyph-name="Uogonek" unicode="Ų" d="M777 1313l157-13c-9-60-9-103-9-157 0-145 2-272 2-383v-58c0-232-4-454-116-583C713 0 545-72 545-227c0-56 56-83 120-83 58 0 99 33 129 55l78-107c-44-48-132-93-211-93-188 0-271 93-271 228 0 102 54 148 125 218-7 0-15-1-23-1C184-10 86 156 68 447c-5 75-7 197-7 332 0 172 3 365 9 523h158c-4-165-8-389-8-574 0-123 2-229 7-289 18-210 100-298 252-298 106 5 158 28 212 84 67 74 78 280 78 477 0 123-5 269-5 439 0 71 3 110 13 172z"/><glyph glyph-name="uogonek" unicode="ų" d="M984 82C756-114 616-128 616-216c0-56 56-83 120-83 58 0 99 33 129 55l78-107c-44-48-132-93-211-93-188 0-271 93-271 228C461-70 648-19 804 86c-12 16-22 38-31 72C689 72 592 5 442 2h-9c-62 0-147 1-207 42-45 31-112 88-112 170-3 268 4 697-23 780l160 27c22-92 17-405 19-771 6-34 28-60 50-76 14-10 65-18 106-18 67 3 108 11 159 42 47 28 116 58 154 146l1 676h158l-1-781c2-52 47-125 87-157z"/><glyph glyph-name="Wcircumflex" unicode="Ŵ" d="M503 1793l375-328-107-107-271 221-261-221-104 107zM332 0H201C158 170 52 1035 6 1286l154 32c120-643 86-710 130-1020 70 230 139 588 145 659 45 0 133 0 167 12 36-191 84-484 142-669 33 285-3 324 124 1015l158-32C974 1032 868 178 835 0H699S553 429 521 613C474 388 340 22 332 0z"/><glyph glyph-name="wcircumflex" unicode="ŵ" d="M487 1504l375-328-107-107-271 221-261-221-104 107zM6 976l148 76c34-59 65-137 88-257 46-242 43-468 50-646 119 0 181 153 181 412v263h140V520c0-158 41-271 72-373 90 0 164 161 164 534 0 124-12 269-24 339h156c5-47 8-230 8-310C989 220 860 0 648 0h-54c-17 64-43 147-57 209C500 129 416 0 224-3h-12c-27 1-43 5-60 12-5 104-15 574-69 781-16 59-56 149-77 186z"/><glyph glyph-name="Ycircumflex" unicode="Ŷ" d="M483 1817l375-328-107-107-271 221-261-221-104 107zM399-6v141c0 90 7 347 7 466-79 111-322 550-373 656l140 71c40-77 232-432 319-569 98 139 298 495 336 582l139-79c-47-94-120-236-225-404-87-131-157-242-176-268 0-47-2-95-2-149-3-132-5-274-5-316V-6H399z"/><glyph glyph-name="ycircumflex" unicode="ŷ" d="M497 1504l375-328-107-107-271 221-261-221-104 107zM336-223c106 0 160 185 198 291-94 328-213 645-351 769-33 30-74 31-110 31v153c33 0 83-4 111-8 167-25 329-401 442-726 74 217 140 506 148 733h158c0-60-5-117-14-168-65-353-166-683-298-994-53-135-131-234-280-234C165-376 56-270 56 0h156c0-177 44-223 124-223z"/><glyph glyph-name="Ydieresis" unicode="Ÿ" d="M153 1631l235-3v-225l-235 3v225zm406-3l235-3v-225l-235 3v225zM399-6v141c0 90 7 347 7 466-79 111-322 550-373 656l140 71c40-77 232-432 319-569 98 139 298 495 336 582l139-79c-47-94-120-236-225-404-87-131-157-242-176-268 0-47-2-95-2-149-3-132-5-274-5-316V-6H399z"/><glyph glyph-name="Zacute" unicode="Ź" d="M312 1488c143 48 352 205 467 313l123-146c-111-112-379-268-522-315zM123-5L28 83l727 1067c-214 0-552-5-666-5l-1 153c120 0 542 4 730 4 75 0 121-13 140-16-3-33-14-114-18-137L263 151l487-1c85 0 112 4 177 25l40-148C922 11 884-3 809-3H566C354-3 178-5 130-5h-7z"/><glyph glyph-name="zacute" unicode="ź" d="M290 1194c143 48 352 205 467 313l123-146c-111-112-379-268-522-315zM96 874l27 151c46-5 154-5 278-5h478l24-115c-11-11-146-169-351-382-123-125-231-234-306-367l538-1c56 0 108-12 169-32L913-22C868-9 851 0 786 0H71v20c0 73 1 125 22 169 76 159 206 280 343 429 96 105 176 185 238 243h-31c-67 0-158 2-245 2-125 0-245 2-302 11z"/><glyph glyph-name="Zdotaccent" unicode="Ż" d="M428 1644l236-3v-225l-236 3v225zM123-5L28 83l727 1067c-214 0-552-5-666-5l-1 153c120 0 542 4 730 4 75 0 121-13 140-16-3-33-14-114-18-137L263 151l487-1c85 0 112 4 177 25l40-148C922 11 884-3 809-3H566C354-3 178-5 130-5h-7z"/><glyph glyph-name="zdotaccent" unicode="ż" d="M385 1403h235v-225H385v225zM96 874l27 151c46-5 154-5 278-5h478l24-115c-11-11-146-169-351-382-123-125-231-234-306-367l538-1c56 0 108-12 169-32L913-22C868-9 851 0 786 0H71v20c0 73 1 125 22 169 76 159 206 280 343 429 96 105 176 185 238 243h-31c-67 0-158 2-245 2-125 0-245 2-302 11z"/><glyph glyph-name="Zcaron" unicode="Ž" d="M520 1364l-370 318 104 107 267-218 265 218 106-107zM123-5L28 83l727 1067c-214 0-552-5-666-5l-1 153c120 0 542 4 730 4 75 0 121-13 140-16-3-33-14-114-18-137L263 151l487-1c85 0 112 4 177 25l40-148C922 11 884-3 809-3H566C354-3 178-5 130-5h-7z"/><glyph glyph-name="zcaron" unicode="ž" d="M546 1055l-370 318 104 107 267-218 265 218 106-107zM96 874l27 151c46-5 154-5 278-5h478l24-115c-11-11-146-169-351-382-123-125-231-234-306-367l538-1c56 0 108-12 169-32L913-22C868-9 851 0 786 0H71v20c0 73 1 125 22 169 76 159 206 280 343 429 96 105 176 185 238 243h-31c-67 0-158 2-245 2-125 0-245 2-302 11z"/><glyph glyph-name="longs" unicode="ſ" d="M867 1256c-42 8-110 10-181 10-148 0-156-98-156-206v-47c0-154 2-1009 2-1013H376c0 25-2 712-4 859H148v153h226c0 16-2 33-2 52 0 143 28 354 306 354 76 0 158-3 218-14z"/><glyph glyph-name="Euro" unicode="€" d="M783 833l-51-151h-12c-57-2-88-6-164-6H314c-1-23-2-45-2-67v-25c30-1 48-1 86-1 86 0 186 1 275 2h26l-52-150-321-4c27-178 125-307 241-307h19c99 0 179 57 227 163l131-87C870 26 720-31 581-31c-79 0-199 34-283 144-66 85-110 196-129 319-29 1-53 1-78 1-19 0-38 0-63-1l-24-1 6 25c8 37 31 69 50 116l4 11h11c42 1 66 1 85 1v48s0 30 1 44c-63 1-106 1-135 3l-25 2 10 26c17 46 37 83 50 114l5 12 12-1c17-1 53-2 99-3 19 113 48 197 82 273 82 179 240 241 339 241 108 0 213-56 305-159l-65-185c-54 103-142 181-243 181-132 0-227-157-264-353h297c52 2 87 4 129 5z"/><glyph glyph-name="uniE000" unicode="" d="M76 491c59 112 122 153 186 153 104 0 199-100 257-100 23 0 47 16 70 80l9 26 104-104-7-14c-55-102-115-142-176-142-104 0-192 96-250 96-27 0-50-11-75-77l-8-22-119 88z"/><glyph glyph-name="uniE001" unicode="" d="M406-11C275-5 219 154 219 299v4c0 77 17 158 52 221 58 104 132 137 201 140h8c36 0 65-12 84-23-9 165-18 253-102 253-59 0-66-34-122-167l-8-18-104 61 6 17c55 176 130 254 228 257 41 0 99-19 140-77 42-60 80-162 80-304V229c3-74 8-72 27-96 1-2 5-5 8-7 10 6 16 23 22 43 32 98 35 217 35 346 0 385-139 676-318 676-178 0-310-290-310-676s140-677 310-677c60 0 118 33 168 90l12 15 77-96-11-13c-63-73-160-146-246-146C209-312 23 68 23 515s186 828 433 828 432-381 432-828c0-151-22-293-58-417-9-27-41-124-108-124h-5l-1 1c-19 5-48 16-68 41h-1c-12 18-38 43-51 94-23-30-43-45-72-72-32-27-73-49-118-49zm-1 152c26 0 54 14 71 29 65 59 78 129 89 164 0 33-1 99-1 118-31 43-61 61-92 61h-3c-55-2-121-98-121-203v-5c3-104 34-164 57-164z"/><glyph glyph-name="uniE002" unicode="" d="M800 703V231c3-72 22-105 54-133l17-15-95-79-11 16c-13 19-38 43-51 93-23-30-43-45-72-72-32-27-72-50-118-50-135 7-209 242-209 387v44c0 74 4 178 53 289 50 112 135 140 203 143h6c43 0 81-19 103-33-2 33-3 61-5 82-9 128-20 295-166 295-157 0-296-293-296-680 0-386 140-678 310-678 60 0 118 34 168 91l12 15 76-96-10-13c-63-73-160-147-246-147C276-310 90 71 90 518c0 446 172 833 419 833 265 0 291-355 291-648zM524 144c26 0 53 14 70 29 65 59 78 128 89 163v285c-32 44-87 81-116 81-100 0-123-204-123-327v-15c3-104 59-216 80-216z"/><glyph glyph-name="gravecomb" unicode="̀" d="M752 1428l-68-148c-143 47-411 203-522 315l123 146c115-108 324-265 467-313z"/><glyph glyph-name="acutecomb" unicode="́" d="M224 1428c143 48 352 205 467 313l123-146c-111-112-379-268-522-315z"/><glyph glyph-name="uni0302" unicode="̂" d="M519 1700l375-328-107-107-271 221-261-221-104 107z"/><glyph glyph-name="tildecomb" unicode="̃" d="M341 1686c148 0 206-121 296-121 64 0 133 39 147 127l148-52c-32-120-149-228-281-228-140 0-197 121-298 121-59 0-117-9-155-115l-138 74c74 164 171 194 281 194z"/><glyph glyph-name="uni0304" unicode="̄" d="M710 1625v-152h-17c-58-2-128-2-202-2s-149 0-217 2l-18 1v155l19-2c65-2 162-2 254-2h181z"/><glyph glyph-name="uni0305" unicode="̅" d="M861 1625v-152H87v155z"/><glyph glyph-name="uni0306" unicode="̆" d="M510 1510c108 0 190 63 196 141l166-30c-24-177-197-264-362-264-126 0-308 48-356 273l156 30c27-117 107-150 200-150z"/><glyph glyph-name="uni0308" unicode="̈" d="M583 1638l235-3v-225l-235 3v225zm-406 3l235-3v-225l-235 3v225z"/><glyph glyph-name="uni0307" unicode="̇" d="M334 1651l236-3v-225l-236 3v225z"/><glyph glyph-name="uni030A" unicode="̊" d="M520 1543c-55 0-90-35-90-70s36-71 90-71 91 36 91 71-36 70-91 70zm-228-70c0 111 106 195 229 195s229-84 229-195c0-110-96-187-229-187-127 0-229 78-229 187z"/><glyph glyph-name="uni0237" unicode="ȷ" d="M627-114l-1 978h-16c-98 0-150-8-240-29l-28 142c112 26 220 42 324 42h117V-118c0-145-61-269-299-269-123 0-267 22-393 227l126 98c99-162 183-169 246-169h17c112 0 145 82 147 117z"/><glyph glyph-name="uni030B" unicode="̋" d="M445 1273c117 95 243 261 313 402l154-100c-65-144-234-323-352-417zm-336 7c117 95 243 261 313 402l154-99c-65-144-235-324-353-418z"/><glyph glyph-name="uni030C" unicode="̌" d="M521 1218l-370 318 104 107 267-218 265 218 106-107z"/><glyph glyph-name="uni030F" unicode="̏" d="M903 1295l-125-104c-108 105-259 302-310 451l164 83c56-147 164-324 271-430zm-326-29l-125-104c-108 105-259 302-310 451l164 83c56-147 164-324 271-430z"/><glyph glyph-name="hookabovecomb" unicode="̉" d="M626 953l-146 4v188c28-10 30-17 78-17s86 25 86 54v2c-3 38-44 58-80 58-51 0-91-24-124-42l-38 106c56 36 128 61 194 61 84 0 184-67 184-168 0-104-58-166-155-171 0-3 0-67 1-75z"/><glyph glyph-name="uni030D" unicode="̍" d="M423 1628h159v-348H423v348z"/><glyph glyph-name="uni030E" unicode="̎" d="M587 1628h159v-348H587v348zm-264 0h159v-348H323v348z"/><glyph glyph-name="uni0191" unicode="Ƒ" d="M17-80c99 0 183 79 183 178l-1 1201 602-1c77-3 125-18 159-35l-56-146c-26 14-48 27-146 28h-70c-104 0-150 0-333-1V816c120 0 104 2 226 2 88 0 147-14 148-14l18-5-36-145c-37 9-88 14-133 14h-93c-36 0-65 0-130-2 0-121 5-482 5-575 0-192-150-328-335-336z"/><glyph glyph-name="florin" unicode="ƒ" d="M330 152c0 25-2 560-4 707H184v153h144c0 16-2 33-2 52 0 143 29 354 306 354 161 0 295-26 379-193l-126-77c-50 98-113 118-245 118-147 0-157-98-157-206v-47c68 0 127-1 200-1 104-3 131-11 161-20l-29-146c-21 7-42 13-98 13H483c1-154 5-703 5-707 0-257-71-465-401-465l12 147c173 0 231 73 231 318z"/><glyph glyph-name="alpha" unicode="α" d="M230 527c0-370 189-377 207-377h13c85 0 149 148 213 344-74 251-122 371-239 371-78 0-194-99-194-338zm593-34c24-77 50-164 82-261 19-58 43-98 109-124L946-32C818 0 774 120 756 180c-7 23-14 46-21 68C670 100 585-7 454-7 166-7 71 259 71 527c0 367 189 491 364 491 165 0 234-78 306-275 31 99 63 198 99 291l146-70c-65-126-111-303-163-471z"/><glyph glyph-name="beta" unicode="β" d="M599 153c122 0 191 108 191 242 0 261-209 274-497 274v153c165 0 308 0 308 183 0 113-74 171-211 171-96-1-157-93-157-183 0-100 3-384 4-626 97-175 193-214 362-214zm-361-41V39c0-124-3-242-11-339L76-283C86-183 89-74 89 37c0 187-9 792-9 966 0 156 111 325 310 325 203 0 364-95 364-317 0-102-28-179-84-232 177-49 274-181 274-398C944 171 851 2 599 0h-7C438 0 328 39 238 112z"/><glyph glyph-name="gamma" unicode="γ" d="M491-376c0 107-3 366-21 444-57 247-196 559-290 716-35 59-72 89-84 96-15 9-36 9-61 9-5 0-10-1-15-1v153c33 0 72-1 100-5 63-10 113-60 173-153 97-152 199-395 269-596 74 217 248 773 248 773l154-56S739 388 643 16c6-82 7-190 7-306v-88z"/><glyph glyph-name="delta" unicode="δ" d="M902 504C902 244 806 1 484 1h-2C210 2 72 184 72 464c0 191 61 340 245 415-45 22-85 42-112 63-46 37-86 92-86 168 0 19 3 39 8 61 40 159 180 208 345 208 124 0 263-28 384-57l-38-158c-133 37-256 63-352 63-89 0-154-23-181-80-5-11-7-21-7-30 0-28 21-48 48-67 242-156 576-212 576-546zM506 786c-165-32-276-122-276-317s87-313 254-313c76 1 120 17 170 59 69 64 91 150 91 291 0 125-113 211-239 280z"/><glyph glyph-name="epsilon" unicode="ε" d="M929 131C858 78 715-4 492-4 310-4 229 31 154 90c-77 61-90 146-90 211 0 130 65 247 217 283C120 595 64 691 64 789c0 146 138 235 448 235h14c232 0 304-52 322-64l-68-130c-24 15-120 41-266 41-204 0-294-25-294-88 0-114 282-122 393-122h23V509c-26 0-52 1-78 1-63 0-125-4-199-32-111-41-138-112-138-179 0-93 91-149 272-149 168 0 299 56 350 102z"/><glyph glyph-name="zeta" unicode="ζ" d="M137 1428c40-42 86-76 167-76 165 0 435 6 566 24l65-158c-141-198-694-347-694-738 0-225 90-330 240-330 3 0 120 1 123 1 175 0 307-60 307-217 0-208-220-230-310-240l-24 138c84 13 178 29 178 91 0 74-51 77-139 77H433C232 0 82 177 82 504c0 357 359 523 603 696-130-7-234-9-361-9-115 0-213 27-290 109z"/><glyph glyph-name="eta" unicode="η" d="M271 900c108 79 223 122 333 122 121 0 289-77 289-226V-79c0-66 13-203 31-251l-158-32c-18 79-32 147-32 276v851c0 74-85 107-152 107-63 0-179-52-310-139L271 0 113-1v706c0 178-8 204-32 298l160 37c10-24 23-91 30-140z"/><glyph glyph-name="theta" unicode="θ" d="M288 247c49-65 114-110 222-110 116 0 187 87 232 170 35 56 63 177 70 278-44 7-100 10-166 10-122 0-277-10-445-19 5-106 36-262 87-329zm234 1076c110 0 450-90 450-691v-11c0-164-46-297-94-390C803 87 675-16 510-16c-122 0-247 48-328 148C92 242 41 410 41 590c0 277 89 469 159 564 66 90 180 169 322 169zm288-578c-8 94-29 194-67 269-58 114-144 156-216 156-78 0-139-32-197-108-54-70-103-183-122-330 219 15 363 21 459 21 68 0 113-3 143-8z"/><glyph glyph-name="iota" unicode="ι" d="M417 1013h120c0-273 1-754 1-754 0-118 45-135 137-135 93 0 185 61 235 175l114-78C954 71 860-18 676-18c-85 0-161 14-205 38-85 47-93 176-93 235v602c-49 0-163-6-258-28L91 971c112 26 222 42 326 42z"/><glyph glyph-name="kappa" unicode="κ" d="M558 605C668 478 933 185 984 50L850-26C804 83 565 364 446 501c0 0-119-102-174-177V0H116v1020h156V550c93 92 198 175 305 269 207 178 285 211 308 230l97-129C789 804 624 673 558 605z"/><glyph glyph-name="lambda" unicode="λ" d="M176-17L36 67c97 104 310 657 429 908-38 106-81 259-155 259-52 0-88-48-88-112H66v2c0 128 81 265 240 265 149 0 221-109 262-205 108-253 200-588 240-776 14-66 49-252 83-252 26 0 46 41 46 41l101-110C979 22 962 0 876 0 710 0 680 268 662 348c-36 159-61 278-105 408C408 480 354 273 176-17z"/><glyph glyph-name="mu" unicode="μ" d="M906-10c-57 41-111 82-133 168C689 72 592 5 442 2h-9c-48 0-110 0-164 20l-3-422H109l5 614c-3 268 4 697-23 780l160 27c22-92 17-405 19-771 6-34 28-60 50-76 14-10 65-18 106-18 67 3 108 11 159 42 47 28 116 58 154 146l1 657h158l-1-762c2-52 51-100 91-132z"/><glyph glyph-name="nu" unicode="ν" d="M153 1048c70-75 97-113 123-188 45-126 214-604 225-708 288 99 289 331 289 581v5c0 92-22 194-54 264l160 44c36-84 50-226 50-292v-66c0-184-7-375-175-550C708 72 607 0 367-3c0 140-201 688-263 842-8 21-54 88-80 113z"/><glyph glyph-name="xi" unicode="ξ" d="M139 1428c40-42 86-76 167-76 165 0 315 6 446 24l66-158c-81-74-381-122-381-254 0-93 155-115 305-115V695c-263-66-503-148-503-394 0-120 92-151 242-151 3 0 120 1 123 1 175 0 307-60 307-217 0-208-224-244-314-254l-20 153c84 13 178 28 178 90 0 74-51 77-139 77H433C232 0 80 58 80 325c0 252 220 396 336 432-42 11-153 36-153 210 0 155 139 195 271 245-60-9-112-21-208-21-115 0-213 27-290 109z"/><glyph glyph-name="omicron" unicode="ο" d="M482 1C210 2 72 184 72 464c0 292 102 568 394 568 197 0 307-69 377-201 41-79 59-192 59-288C902 258 806 1 484 1h-2zm172 214c65 61 89 167 89 315v18c-2 184-66 330-243 330-208 0-270-165-270-409 0-195 87-313 254-313 76 1 120 17 170 59z"/><glyph glyph-name="pi" unicode="π" d="M804 1020c41 0 56 18 80 68l150-74c-32-74-86-153-218-153h-31c18-45 25-103 25-235V217c0-51 18-69 40-69 25 0 54 21 72 40l70-118C955 42 899 0 842 0c-77 0-190 49-190 204v418c0 172-19 193-42 239-85 0-169-1-254-1V215c0-73-14-170-28-227L166 8c18 68 30 138 30 211v634c-46-9-87-26-120-53L12 956c50 32 148 63 248 63 0 0 332 1 544 1z"/><glyph glyph-name="rho" unicode="ρ" d="M139 562c0 292 156 470 394 470 197 0 307-69 377-201 41-79 59-192 59-288C969 258 896 0 574 0h-2C435 0 345 80 296 168V-75c0-131 32-260 57-321l-155-42c-28 62-60 229-60 368zm671-32v18c-2 184-66 330-243 330-143 0-270-85-270-329 0-221 144-393 289-393 177 2 224 173 224 374z"/><glyph glyph-name="sigma1" unicode="ς" d="M230 527c0-377 212-372 278-377 262-21 408-71 408-245 0-96-50-248-314-256l-22 152c114 14 180 31 180 100 0 66-163 83-248 92C204 24 71 187 71 527c0 367 178 491 493 491 95 0 169-24 229-70 61-47 92-107 114-159l-154-60c-11 41-40 136-200 136-221 0-323-99-323-338z"/><glyph glyph-name="sigma" unicode="σ" d="M625 874h-63c-256 0-332-161-332-405 0-195 87-313 254-313 171 0 226 186 226 374v18c-2 126-16 259-85 326zm171-2c8-8 16-19 23-32 41-79 50-201 50-297C869 258 761 1 484 1h-2C210 2 72 184 72 464c0 292 108 555 461 558 17 0 76 1 148 1 127 0 294-2 345-11l-20-153c-45 7-128 11-210 13z"/><glyph glyph-name="tau" unicode="τ" d="M560 1020h426V873l-304 2H561c-9-204-8-335-12-435v-40c0-196 12-248 156-248 70 0 117 58 145 134l132-58C962 172 904-3 707-3 444-3 390 109 390 397v43c4 104 4 243 10 436-20-1-134-2-134-2-70-1-128-35-178-67L20 933c50 44 145 86 241 86z"/><glyph glyph-name="upsilon" unicode="υ" d="M114 366v183c0 204-2 392-23 456l160 27c17-72 19-254 19-459V402c0-179 64-250 197-250 58 0 169 41 225 121 87 125 98 227 98 465 0 92-22 194-54 264l160 44c36-84 50-226 50-292v-49c0-191-5-402-178-582C705 57 585-4 422-4 229-4 114 167 114 366z"/><glyph glyph-name="phi" unicode="φ" d="M578 145c79 20 134 73 170 139 40 64 67 233 68 340v19c0 169-28 251-139 251h-1c-27 0-100-1-100-250 0-142 1-326 2-499zm1-156c2-204 4-366 5-387l-162 2c-2 21-2 185-2 388-92 17-180 60-241 135C89 237 41 389 41 569c0 228 54 394 147 475l126-90c-81-84-116-189-116-381 0-104 30-258 86-331 34-45 77-78 136-94v492c0 315 111 400 255 400 139 0 297-30 297-408v-11c0-164-44-317-92-410C816 88 711 9 579-11z"/><glyph glyph-name="chi" unicode="χ" d="M424 289c-53 176-101 342-213 503-58 84-113 96-191 96v153c147 0 215-9 311-128 104-129 210-447 210-447 93 201 269 594 269 594l154-56S796 606 635 273c43-173 204-515 279-515 31 0 29 19 37 31l92-59c-6-38-30-128-132-128-218 0-352 392-394 512L286-410l-177 72z"/><glyph glyph-name="psi" unicode="ψ" d="M72 366v183c0 204-2 392-23 456l160 27c17-72 19-254 19-459V402c0-162 76-236 200-248 1 284 5 539 5 773v93h160V875c0-236-2-444-3-707 66 19 118 54 154 105 87 125 98 227 98 465 0 92-22 194-54 264l160 44c36-84 50-226 50-292v-49c0-191-5-402-178-582C774 75 715 29 590 8v-132c0-115-1-171-6-272l-161 1c4 62 5 105 5 160 0 47-1 103-1 189v42h-5C202-4 72 167 72 366z"/><glyph glyph-name="omega" unicode="ω" d="M434 684l159 19c-2-85-1-179-2-272 1-8 1-17 1-26 2-181 52-261 133-261 89 0 117 126 117 276 0 213-28 415-113 547l152 66c108-181 118-451 118-592 0-223-53-453-298-453-75 0-142 45-189 116C462 34 393-10 317-10 91-10 35 220 35 444c0 168 6 414 116 597l152-66c-81-127-106-300-106-507 0-169 33-323 113-323 70 0 115 51 128 176-1 16-2 31-2 47-1 106 0 216-2 316z"/><glyph glyph-name="iotadieresis" unicode="ϊ" d="M157 1407.2l235-3v-225l-235 3v225zm406-3l235-3v-225l-235 3v225zM417 1013h120c0-273 1-754 1-754 0-118 45-135 137-135 93 0 185 61 235 175l114-78C954 71 860-18 676-18c-85 0-161 14-205 38-85 47-93 176-93 235v602c-49 0-163-6-258-28L91 971c112 26 222 42 326 42z"/><glyph glyph-name="upsilondieresis" unicode="ϋ" d="M188 1408l235-3v-225l-235 3v225zm406-3l235-3v-225l-235 3v225zM114 366v183c0 204-2 392-23 456l160 27c17-72 19-254 19-459V402c0-179 64-250 197-250 58 0 169 41 225 121 87 125 98 227 98 465 0 92-22 194-54 264l160 44c36-84 50-226 50-292v-49c0-191-5-402-178-582C705 57 585-4 422-4 229-4 114 167 114 366z"/><glyph glyph-name="Alpha" unicode="Α" d="M461 1298h112L997 11 833-19l-99 345c-141-3-336-2-447-29L185-24 23 0zm216-808L517 982 344 470c60 13 110 15 193 19z"/><glyph glyph-name="Beta" unicode="Β" d="M708 578c-73 61-134 71-229 71-49 0-107-2-180-2h-44c-2-237-3-418-4-494 108 0 148-7 223-7 40 0 75 2 110 7 106 13 199 112 199 256 0 79-23 126-75 169zM591 992c0 113-97 158-234 158h-17c-39 0-55-2-85-5 3-37 4-81 4-128 0-67-2-140-2-214 146 3 196-4 286 51 27 16 48 71 48 130v8zM97 823c0 173-3 335-12 462 81 6 130 14 243 14h18c206 0 402-81 402-297 0-96-25-179-86-235 155-52 280-184 280-374C942 168 793 23 626 3c-39-5-80-8-119-8-85 0-175 8-283 8H88c0 194 9 404 9 820z"/><glyph glyph-name="Gamma" unicode="Γ" d="M111 1301h684c75 0 113-14 160-30l-41-146c-44 15-62 19-121 22H272V0H111v1301z"/><glyph glyph-name="Epsilon" unicode="Ε" d="M102 1293c56 4 126 4 204 4h208c149 0 285-3 359-3h16v-150H260V816h438V666H260v-30c0-203-3-412-3-489l525 2c56 0 117 26 117 26l44-148C895 14 860-3 784-3H102v1296z"/><glyph glyph-name="Zeta" unicode="Ζ" d="M123-5L28 83l727 1067c-214 0-552-5-666-5l-1 153c120 0 542 4 730 4 75 0 121-13 140-16-3-33-14-114-18-137L263 151l487-1c85 0 112 4 177 25l40-148C922 11 884-3 809-3H566C354-3 178-5 130-5h-7z"/><glyph glyph-name="Eta" unicode="Η" d="M220 1296l-1-547c92 21 187 28 307 28h228c0 274-1 352-1 514h159V0H754v625H625c-146 0-288-3-406-28 0-343 2-416 2-597H60v1294z"/><glyph glyph-name="Theta" unicode="Θ" d="M284 242c49-65 118-105 226-105 116 0 188 67 233 150 40 64 70 230 71 337v19c0 115-18 268-71 371-58 114-128 156-216 156-95 0-151-28-209-104-69-89-118-231-118-493 0-104 28-258 84-331zm238 1081c124 0 445-74 450-691v-11c0-164-44-317-92-410C805 67 675-16 510-16c-122 0-250 43-331 143C89 237 41 389 41 569c0 345 77 494 147 589 66 90 178 162 334 165zM296 725h414V572H296v153z"/><glyph glyph-name="Iota" unicode="Ι" d="M132 1298c156 4 257 4 353 4 105 0 205-1 368-3v-152c-123 0-175 5-271 5V152c46 0 72 1 123 1 45 0 92-1 144-4V-1c-85 5-147 6-210 6-47 0-96-1-155-1-74 0-195-7-350-7v149c85 4 156 5 213 5h75v1000c-66-1-178-1-284-7z"/><glyph glyph-name="Kappa" unicode="Κ" d="M484 725c120-117 467-531 518-666L868-17C822 92 518 474 388 600c0 0-84-98-114-169V-5H116v1313h158V703c80 111 151 190 250 293 191 195 317 293 338 314l111-106c-182-132-429-406-489-479z"/><glyph glyph-name="Mu" unicode="Μ" d="M59 1304l101 9c67-97 141-253 210-375 50-90 76-141 95-179 83 155 225 424 306 554h116L888-5H731l-2 925c-74-141-191-345-202-381l-122 3c-8 16-66 126-154 295-21 44-16 35-31 63V-5H62z"/><glyph glyph-name="Nu" unicode="Ν" d="M752-6C589 351 435 648 233 1001V797c0-293 1-648 1-800H75v1301l159-4c126-184 402-689 519-937-2 130-3 266-3 400 0 186 3 369 12 540h154c-6-113-8-262-8-425 0-226 4-480 4-710 0-57-1-114-1-167z"/><glyph glyph-name="Omicron" unicode="Ο" d="M284 242c49-65 118-105 226-105 116 0 188 67 233 150 40 64 70 230 71 337v19c0 115-18 268-71 371-58 114-128 156-216 156-95 0-151-28-209-104-69-89-118-231-118-493 0-104 28-258 84-331zm238 1081c124 0 445-74 450-691v-11c0-164-44-317-92-410C805 67 675-16 510-16c-122 0-250 43-331 143C89 237 41 389 41 569c0 345 77 494 147 589 66 90 178 162 334 165z"/><glyph glyph-name="Rho" unicode="Ρ" d="M262-10L104-9v1303c118 0 156 8 289 8 225 0 396-13 511-151 54-65 73-155 73-245 0-91-7-191-67-278-98-140-255-168-494-168-48 0-99 1-153 3 0-263-1-317-1-473zm553 910c0 208-154 245-400 251-61 0-106-4-151-5v-126c0-183-1-407-1-407 36-1 70-1 103-1 286 0 449 60 449 288z"/><glyph glyph-name="Tau" unicode="Τ" d="M403-9v1153c-198 0-288-1-364-1v155c122 0 576 1 764 1 73 0 122-12 140-15l-33-152s-62 12-112 12H563V-9H403z"/><glyph glyph-name="Upsilon" unicode="Υ" d="M399-6v141c0 90 7 347 7 466-79 111-322 550-373 656l140 71c40-77 232-432 319-569 98 139 298 495 336 582l139-79c-47-94-120-236-225-404-87-131-157-242-176-268 0-47-2-95-2-149-3-132-5-274-5-316V-6H399z"/><glyph glyph-name="Chi" unicode="Χ" d="M794 1340l134-85-360-598C739 390 836 214 978 77L874-36C722 111 630 266 478 508L160-31 28 54l352 600c-120 204-217 428-357 584l125 93c130-146 224-360 327-532z"/><glyph glyph-name="Delta" unicode="Δ" d="M834 0L186-5 24 19l437 1279h112L998 30zM517 982c-94-284-191-544-281-831h555c-81 293-183 548-274 831z"/><glyph glyph-name="Lambda" unicode="Λ" d="M833-19C723 318 625 651 517 982 403 650 309 306 185-24L23 0l438 1298h112L997 11z"/><glyph glyph-name="Xi" unicode="Ξ" d="M260 816h438V666H260v150zm-158 477c56 4 126 4 204 4h208c149 0 285-3 359-3h16v-150H104zm-2-1146l682 2c56 0 117 26 117 26l44-148C895 14 860-3 784-3H102z"/><glyph glyph-name="Pi" unicode="Π" d="M300 0H139v1131c-29-4-57-9-87-15l-19 152c92 21 187 28 307 28h660v-152h-88V378c0-127 10-252 24-369L782-4c-19 121-29 259-29 388v760H421c-44 0-84 0-122-1z"/><glyph glyph-name="Sigma" unicode="Σ" d="M321 1144l424-392-7-132-473-473 517 2c56 0 117 26 117 26l44-148C895 14 860-3 784-3H102L77 172l517 515-522 483 30 123c56 4 126 4 204 4h208c149 0 285-3 359-3h16v-150H321z"/><glyph glyph-name="Phi" unicode="Φ" d="M416 170c-90 12-177 44-237 98C89 348 41 460 41 591c0 252 77 361 147 430 50 50 126 92 228 110v176h160v-169c144-16 392-107 396-501v-8c0-120-44-232-92-300-64-90-169-147-302-161 0-26 1-46 1-66 0-28-1-56-3-102L414 1c2 31 2 48 2 63v106zm162 162c77 13 130 48 165 90 40 41 70 148 71 216v12c0 74-18 172-71 238-47 59-102 87-167 96 1-186 2-345 2-602v-50zm-163 3c0 250 1 446 1 640-36-10-67-28-98-54-69-57-118-148-118-316 0-67 28-164 84-211 33-28 75-49 131-59z"/><glyph glyph-name="Psi" unicode="Ψ" d="M74 770v167c0 173-2 294-24 358l160 27c18-72 20-184 20-359V806c0-194 110-244 230-244 0 52 1 103 1 154 0 205-3 405-3 594h163c0-191 3-370 3-567 0-59 0-119-1-182 219 0 247 119 247 467-2 92-6 192-14 270l156 17c10-82 14-183 14-249v-34c0-388-46-593-405-628-2-140-4-277-7-404L453 1c4 62 5 219 5 274v128C203 426 74 586 74 770z"/><glyph glyph-name="Omega" unicode="Ω" d="M394 1H36l-2 150h167C107 268 18 443 18 620c0 345 72 442 142 537 66 90 190 166 362 166 236 0 484-90 484-640v-11c0-249-121-422-211-521l79 1c56 0 117 26 117 26l44-148C988 17 954 0 882 0H608l-29 148c73 61 269 235 269 527v54c0 102-2 198-50 291-58 114-183 150-271 150-95 0-179-29-237-105-69-89-113-179-113-441 0-211 163-439 244-472z"/><glyph glyph-name="tonos" unicode="΄" d="M362 1311c95 117 141 249 180 402l180-49c-33-154-128-326-223-442z"/><glyph glyph-name="alphatonos" unicode="ά" d="M354 1196c95 117 141 249 180 402l180-49c-33-154-128-326-223-442zM230 527c0-370 189-377 207-377h13c85 0 149 148 213 344-74 251-122 371-239 371-78 0-194-99-194-338zm593-34c24-77 50-164 82-261 19-58 43-98 109-124L946-32C818 0 774 120 756 180c-7 23-14 46-21 68C670 100 585-7 454-7 166-7 71 259 71 527c0 367 189 491 364 491 165 0 234-78 306-275 31 99 63 198 99 291l146-70c-65-126-111-303-163-471z"/><glyph glyph-name="Iotadieresis" unicode="Ϊ" d="M165 1676l235-3v-225l-235 3v225zm406-3l235-3v-225l-235 3v225zm-439-375c156 4 257 4 353 4 105 0 205-1 368-3v-152c-123 0-175 5-271 5V152c46 0 72 1 123 1 45 0 92-1 144-4V-1c-85 5-147 6-210 6-47 0-96-1-155-1-74 0-195-7-350-7v149c85 4 156 5 213 5h75v1000c-66-1-178-1-284-7z"/><glyph glyph-name="Upsilondieresis" unicode="Ϋ" d="M163 1601l235-3v-225l-235 3v225zm406-3l235-3v-225l-235 3v225zM399-6v141c0 90 7 347 7 466-79 111-322 550-373 656l140 71c40-77 232-432 319-569 98 139 298 495 336 582l139-79c-47-94-120-236-225-404-87-131-157-242-176-268 0-47-2-95-2-149-3-132-5-274-5-316V-6H399z"/><glyph glyph-name="epsilontonos" unicode="έ" d="M357 1204c95 117 141 249 180 402l180-49c-33-154-128-326-223-442zM929 131C858 78 715-4 492-4 310-4 229 31 154 90c-77 61-90 146-90 211 0 130 65 247 217 283C120 595 64 691 64 789c0 146 138 235 448 235h14c232 0 304-52 322-64l-68-130c-24 15-120 41-266 41-204 0-294-25-294-88 0-114 282-122 393-122h23V509c-26 0-52 1-78 1-63 0-125-4-199-32-111-41-138-112-138-179 0-93 91-149 272-149 168 0 299 56 350 102z"/><glyph glyph-name="etatonos" unicode="ή" d="M395 1187c95 117 141 249 180 402l180-49c-33-154-128-326-223-442zM271 900c108 79 223 122 333 122 121 0 289-77 289-226V-79c0-66 13-203 31-251l-158-32c-18 79-32 147-32 276v851c0 74-85 107-152 107-63 0-179-52-310-139L271 0 113-1v706c0 178-8 204-32 298l160 37c10-24 23-91 30-140z"/><glyph glyph-name="iotatonos" unicode="ί" d="M384 1201c95 117 141 249 180 402l180-49c-33-154-128-326-223-442zm33-188h120c0-273 1-754 1-754 0-118 45-135 137-135 93 0 185 61 235 175l114-78C954 71 860-18 676-18c-85 0-161 14-205 38-85 47-93 176-93 235v602c-49 0-163-6-258-28L91 971c112 26 222 42 326 42z"/><glyph glyph-name="upsilondieresistonos" unicode="ΰ" d="M402.383 1431.62c88.015 107.662 130.632 229.128 166.765 369.917l166.765-45.09c-30.573-141.709-118.588-299.982-206.604-406.725zM173 1379.83l235-2.56V1185.19l-235 2.561v192.078zm406-2.56l235-2.562V1182.63l-235 2.562v192.078zM114 366v183c0 204-2 392-23 456l160 27c17-72 19-254 19-459V402c0-179 64-250 197-250 58 0 169 41 225 121 87 125 98 227 98 465 0 92-22 194-54 264l160 44c36-84 50-226 50-292v-49c0-191-5-402-178-582C705 57 585-4 422-4 229-4 114 167 114 366z"/><glyph glyph-name="omicrontonos" unicode="ό" d="M332 1185c95 117 141 249 180 402l180-49c-33-154-128-326-223-442zM482 1C210 2 72 184 72 464c0 292 102 568 394 568 197 0 307-69 377-201 41-79 59-192 59-288C902 258 806 1 484 1h-2zm172 214c65 61 89 167 89 315v18c-2 184-66 330-243 330-208 0-270-165-270-409 0-195 87-313 254-313 76 1 120 17 170 59z"/><glyph glyph-name="upsilontonos" unicode="ύ" d="M360 1181c95 117 141 249 180 402l180-49c-33-154-128-326-223-442zM114 366v183c0 204-2 392-23 456l160 27c17-72 19-254 19-459V402c0-179 64-250 197-250 58 0 169 41 225 121 87 125 98 227 98 465 0 92-22 194-54 264l160 44c36-84 50-226 50-292v-49c0-191-5-402-178-582C705 57 585-4 422-4 229-4 114 167 114 366z"/><glyph glyph-name="omegatonos" unicode="ώ" d="M383 1119c95 117 141 249 180 402l180-49c-33-154-128-326-223-442zm51-435l159 19c-2-85-1-179-2-272 1-8 1-17 1-26 2-181 52-261 133-261 89 0 117 126 117 276 0 213-28 415-113 547l152 66c108-181 118-451 118-592 0-223-53-453-298-453-75 0-142 45-189 116C462 34 393-10 317-10 91-10 35 220 35 444c0 168 6 414 116 597l152-66c-81-127-106-300-106-507 0-169 33-323 113-323 70 0 115 51 128 176-1 16-2 31-2 47-1 106 0 216-2 316z"/><glyph glyph-name="Upsilontonos" unicode="Ύ" d="M10.209 1268c79.571 117 118.101 249 150.767 402l150.768-49c-27.64-154-107.212-326-186.784-442zM525.778-6v141c0 90 6.33 347 6.33 466-71.433 111-291.155 550-337.27 656l126.59 71c36.167-77 209.775-432 288.441-569 88.612 139 269.453 495 303.813 582l125.685-79c-42.498-94-108.505-236-203.446-404-78.666-131-141.96-242-159.14-268 0-47-1.81-95-1.81-149-2.712-132-4.52-274-4.52-316V-6H525.777z"/><glyph glyph-name="Omegatonos" unicode="Ώ" d="M27.93 1210c80.285 117 119.16 249 152.12 402l152.12-49c-27.889-154-108.175-326-188.46-442zM442.309 1H111.288l-1.85 150h154.415C176.937 268 94.644 443 94.644 620c0 345 66.575 442 131.3 537 61.026 90 175.681 166 334.72 166 218.214 0 447.524-90 447.524-640v-11c0-249-111.88-422-195.099-521l73.047 1c51.78 0 108.183 26 108.183 26l40.684-148c-43.458-13-74.896-30-141.47-30H640.18l-26.814 148c67.499 61 248.729 235 248.729 527v54c0 102-1.85 198-46.233 291-53.629 114-169.209 150-250.577 150-87.84 0-165.51-29-219.14-105-63.8-89-104.484-179-104.484-441 0-211 150.717-439 225.612-472z"/><glyph glyph-name="iotadieresistonos" unicode="ΐ" d="M368.383 1431.06c88.015 107.662 130.632 229.128 166.765 369.917l166.765-45.09c-30.573-141.709-118.588-299.982-206.604-406.725zM139 1379.28l235-2.56V1184.64l-235 2.561v192.078zm406-2.56l235-2.562V1182.08l-235 2.562v192.078zM417 1013h120c0-273 1-754 1-754 0-118 45-135 137-135 93 0 185 61 235 175l114-78C954 71 860-18 676-18c-85 0-161 14-205 38-85 47-93 176-93 235v602c-49 0-163-6-258-28L91 971c112 26 222 42 326 42z"/><glyph glyph-name="Omicrontonos" unicode="Ό" d="M27.545 1226c89.107 117 132.254 249 168.835 402l168.835-49c-30.953-154-120.061-326-209.168-442zM320 242c49-65 118-105 226-105 116 0 188 67 233 150 40 64 70 230 71 337v19c0 115-18 268-71 371-58 114-128 156-216 156-95 0-151-28-209-104-69-89-118-231-118-493 0-104 28-258 84-331zm238 1081c124 0 445-74 450-691v-11c0-164-44-317-92-410C841 67 711-16 546-16c-122 0-250 43-331 143C125 237 77 389 77 569c0 345 77 494 147 589 66 90 178 162 334 165z"/><glyph glyph-name="Epsilontonos" unicode="Έ" d="M16.07 1295c85.832 117 127.394 249 162.631 402l162.631-49c-29.815-154-115.648-326-201.482-442zm206.563-2c52.504 4 118.134 4 191.265 4h195.016c139.698 0 267.209-3 336.589-3h15v-150H370.772V816h410.657V666H370.77v-30c0-203-2.813-412-2.813-489l492.226 2c52.505 0 109.696 26 109.696 26l41.254-148C966.13 14 933.314-3 862.06-3H222.634v1296z"/><glyph glyph-name="Etatonos" unicode="Ή" d="M1.617 1322c86.502 117 128.387 249 163.898 402l163.897-49c-30.048-154-116.55-326-203.05-442zm337.292-26l-.95-547c87.363 21 177.574 28 291.524 28h216.506c0 274-.95 352-.95 514h150.985V0H845.989v625H723.492c-138.64 0-273.481-3-385.532-28 0-343 1.899-416 1.899-597H186.975v1294z"/><glyph glyph-name="Iotatonos" unicode="Ί" d="M15.03 1262c85.56 117 126.99 249 162.114 402l162.114-49c-29.721-154-115.28-326-200.842-442zm225.359 21c144.641 4 238.286 4 327.296 4 97.355 0 190.072-1 341.203-3v-152c-114.043 0-162.257 5-251.267 5V137c42.65 0 66.757 1 114.044 1 41.723 0 85.3-1 133.515-4V-16c-78.812 5-136.297 6-194.709 6-43.578 0-89.01-1-143.714-1-68.611 0-180.801-7-324.515-7v149c78.811 4 144.642 5 197.49 5h69.54v1000c-61.195-1-165.04-1-263.32-7z"/><glyph glyph-name="Alphatonos" unicode="Ά" d="M95 1278c95 117 141 249 180 402l180-49c-33-154-128-326-223-442zm366 20h112L997 11 833-19l-99 345c-141-3-336-2-447-29L185-24 23 0zm216-808L517 982 344 470c60 13 110 15 193 19z"/><glyph glyph-name="dieresistonos" unicode="΅" d="M368.383 1336.37c88.015 107.662 130.632 229.128 166.765 369.917l166.765-45.09c-30.573-141.709-118.588-299.982-206.604-406.725zM139 1284.59l235-2.56V1089.95l-235 2.561v192.078zm406-2.56l235-2.562V1087.39l-235 2.562v192.078z"/><glyph glyph-name="anoteleia" unicode="·" d="M481 656h251V387H481v269z"/><glyph glyph-name="uni03D0" unicode="ϐ" d="M227 644c7-262 55-491 316-491 140 0 247 108 247 242 0 196-138 273-341 273-68 0-142-8-222-24zm1 155c181 12 373 23 373 206 0 113-76 171-187 171-65 0-172-66-186-377zM69 736c0 420 159 592 345 592 183 0 340-95 340-317 0-102-28-179-84-232 177-49 274-181 274-398C944 171 811 0 543 0 125 0 69 332 69 736z"/><glyph glyph-name="theta1" unicode="ϑ" d="M200 603c0-104 32-283 88-356 49-65 114-110 222-110 116 0 187 87 232 170 35 56 63 176 70 277-43 6-98 7-162 7-51 0-108-1-170-1-160 0-376 82-376 328 0 72 13 151 80 242 66 90 196 163 338 163 110 0 450-90 450-691v-11c0-164-46-297-94-390C803 87 675-16 510-16c-122 0-247 48-328 148C92 242 41 410 41 590zm610 139c-8 95-28 197-67 272-58 114-144 156-216 156-78 0-153-27-213-102-48-60-52-111-52-141 4-158 114-179 226-179 180 0 271-1 322-6z"/><glyph glyph-name="Upsilon1" unicode="ϒ" d="M502 1020c63 145 208 348 341 348 167 0 174-110 174-292v-6H860c-4 81-12 130-19 142-18-13-253-267-253-528V0L432 1v682c0 181-205 483-404 532l62 161c174-48 358-214 412-356z"/><glyph glyph-name="uni03D3" unicode="ϓ" d="M1.675 1276c73.133 117 108.544 249 138.567 402l138.567-49c-25.405-154-98.537-326-171.67-442zm574.273-256c53.958 145 178.146 348 292.057 348 143.031 0 149.026-110 149.026-292v-6H882.565c-3.427 81-10.278 130-16.273 142-15.416-13-216.687-267-216.687-528V0l-133.61 1v682c0 181-175.576 483-346.014 532l53.1 161c149.026-48 306.617-214 352.866-356z"/><glyph glyph-name="uni03D4" unicode="ϔ" d="M159 1651l235-3v-225l-235 3v225zm406-3l235-3v-225l-235 3v225zm-63-628c63 145 208 348 341 348 167 0 174-110 174-292v-6H860c-4 81-12 130-19 142-18-13-253-267-253-528V0L432 1v682c0 181-205 483-404 532l62 161c174-48 358-214 412-356z"/><glyph glyph-name="phi1" unicode="ϕ" d="M656 414c65 44 89 120 89 226v13c-2 111-47 203-168 229 1-147 1-291 1-500v-1c28 7 52 17 78 33zM415 221C188 245 74 384 74 589c0 220 90 429 342 454v264h160v-268c131-18 213-70 269-155 41-63 59-155 59-232 0-206-77-393-326-429 0-57 1-89 1-121 0-28-1-56-3-102L414 1c2 31 2 48 2 63v57s-1 60-1 100zm1 660c-139-30-184-137-184-285 0-118 62-197 183-218 0 190 1 350 1 503z"/><glyph glyph-name="omega1" unicode="ϖ" d="M434 684l159 19c-2-85-1-179-2-272 1-8 1-17 1-26 2-181 52-261 133-261 89 0 117 126 117 276 0 190-44 327-114 448H309c-66-109-112-219-112-400 0-169 33-323 113-323 70 0 115 51 128 176-1 16-2 31-2 47-1 106 0 216-2 316zM38 1018c56 4 126 4 204 4h208c149 0 443-4 517-4h16V868h-74c65-153 90-314 90-427 0-223-53-453-298-453-75 0-142 45-189 116C462 34 393-10 317-10 91-10 35 220 35 444c0 133 27 278 92 424H40z"/><glyph glyph-name="uni03D7" unicode="ϗ" d="M18 828s104 192 251 192c120 0 238-100 238-280 0-25-15-124-37-170 47 34 110 88 173 139l17 15c62 154 109 294 256 294 64 0 88-49 88-116 0-110-131-234-233-314-29-77-82-211-82-301 0-93 32-131 84-131s82 24 106 84l141-49v-22c0-291-5-514-387-514v150c203 0 257 68 257 250v10C842 30 784 0 727 0c-96 0-196 99-196 279 0 25 15 125 37 171-47-34-112-90-175-141l-15-13C316 142 269 1 122 1 58 1 35 51 35 118c0 131 134 236 236 316 29 77 78 208 78 298 0 93-32 131-84 131s-103-74-159-129z"/><glyph glyph-name="uni03CF" unicode="Ϗ" d="M868-17C822 92 518 474 388 600c0 0-84-98-114-169V-5H116v1313h158V703c80 111 151 190 250 293 191 195 317 293 338 314l111-106c-182-132-429-406-489-479 120-117 467-531 518-666-4-225-45-404-369-404v134c162 0 222 78 235 194z"/><glyph glyph-name="uni03D8" unicode="Ϙ" d="M284 242c49-65 118-105 226-105 116 0 188 67 233 150 40 64 70 230 71 337v19c0 115-18 268-71 371-58 114-128 156-216 156-95 0-151-28-209-104-69-89-118-231-118-493 0-104 28-258 84-331zm238 1081c124 0 445-74 450-691v-11c0-164-44-317-92-410C819 93 721 16 597-8v-307H426V-9C332 7 241 50 179 127 89 237 41 389 41 569c0 345 77 494 147 589 66 90 178 162 334 165z"/><glyph glyph-name="uni03D9" unicode="ϙ" d="M654 215c65 61 89 167 89 315v18c-2 184-66 330-243 330-208 0-270-165-270-409 0-195 87-313 254-313 76 1 120 17 170 59zM394 8C180 45 72 216 72 464c0 292 102 568 394 568 197 0 307-69 377-201 41-79 59-192 59-288 0-260-80-496-337-536v-322H394V8z"/><glyph glyph-name="uni03DB" unicode="ϛ" d="M230 527c0-377 148-372 214-377 262-21 408-71 408-245 0-96-50-248-314-256l-22 152c114 14 180 31 180 100 0 66-163 83-248 92C140 24 71 187 71 527c0 367 178 491 493 491 106 0 187-1 263-1 57 0 110 0 167 3l3-165c-42 4-284 10-444 10-221 0-323-99-323-338z"/><glyph glyph-name="uni03DA" unicode="Ϛ" d="M230 700c0-377 64-519 214-550C701 97 852 79 852-95c0-96-50-248-314-256l-22 152c114 14 180 31 180 100 0 66-164 79-248 92C84 49 71 360 71 700c0 367 115 621 483 621 106 0 188-1 264-1 57 0 110 0 167 3l3-166c-42 4-285 11-445 11-261 0-313-229-313-468z"/><glyph glyph-name="uni03DC" unicode="Ϝ" d="M277-1L116 3v1295h685c77-3 125-18 159-35l-56-146c-26 14-48 27-146 28h-70c-104 0-233-1-416-2V815c120 0 187 3 309 3 88 0 147-14 148-14l18-5-36-145c-37 9-88 14-133 14-106 0-198 0-306-3 0-121 5-573 5-666z"/><glyph glyph-name="uni03DD" unicode="ϝ" d="M384 152c0 123-4 705-4 912 0 143 29 354 306 354h46c118 0 135-5 275-97l-71-130c-92 60-110 75-242 75-147 0-156-98-156-206v-47c68 0 126-1 199-1 104-3 131-11 161-20l-29-146c-21 7-42 13-98 13H538c1-154 3-703 3-707 0-236-66-460-405-460-30 0-62 1-96 5l10 147c28-4 54-6 78-6 208 0 256 156 256 314z"/><glyph glyph-name="uni0190" unicode="Ɛ" d="M940 161C871 108 750 0 501 0 326 0 235 34 157 106 68 189 53 289 53 390c0 178 62 304 209 340-108 36-152 147-152 255 0 195 146 312 425 312h12c225 0 311-61 383-102l-77-140c-70 42-177 89-316 89-160 0-276-62-276-159 0-165 215-178 322-178h22V655c-25 0-51 1-76 1-61 0-119-4-191-32-107-41-133-169-133-236 0-147 123-234 297-234 184 0 290 84 340 130z"/><glyph glyph-name="uni01CD" unicode="Ǎ" d="M516 1445l-370 318 104 107 267-218 265 218 106-107zm202-950l-194 587-186-607c60 13 116 13 199 17zm-284 806h171L983 172c11-37 29-118 31-172H850c0 23-12 95-20 122l-70 210c-141-3-362-5-473-32l-59-179c-10-29-24-93-24-121H42c1 28 19 116 32 159z"/><glyph glyph-name="uni01CE" unicode="ǎ" d="M473 1154l-370 318 104 107 267-218 265 218 106-107zM234 311c0-105 56-165 149-165 210 0 315 158 341 199v95c-57 35-131 64-235 64-136-1-255-75-255-193zm647 7c0-35 0-128 13-145 13-18 50-41 79-64L890-10c-52 40-112 65-130 166C682 81 580-6 383-6 212-6 78 135 78 301c0 76 30 165 89 226 95 97 196 121 314 121 126 0 189-18 243-51 0 189-69 280-239 280-138 0-201-30-281-173L74 786c96 182 230 242 409 242 242 0 398-155 398-380V318z"/><glyph glyph-name="uni01CF" unicode="Ǐ" d="M505 1331l-370 318 104 107 267-218 265 218 106-107zm-353-33c156 4 237 4 333 4 105 0 201-1 364-3v-152c-123 0-171 5-267 5V152c46 0 72 1 123 1 45 0 92-1 144-4V-1c-85 5-147 6-210 6-47 0-96-1-155-1-74 0-174-7-329-7v149c85 4 135 5 192 5h75v1000c-66-1-158-1-264-7z"/><glyph glyph-name="uni01D0" unicode="ǐ" d="M457 1154L87 1472l104 107 267-218 265 218 106-107zm-40-141h116c0-273 1-803 1-803 5-82 49-86 141-86 93 0 217 21 286 73l68-114C943 12 800-18 676-18c-85 0-161 14-205 38-85 47-93 127-93 186v651c-49 0-163-6-258-28L91 971c112 26 222 42 326 42z"/><glyph glyph-name="uni01D1" unicode="Ǒ" d="M520.5 1340l-370 318 104 107 267-218 265 218 106-107zm-16.5-14c124 0 445-74 450-691v-11c0-164-44-317-92-410C787 70 657-13 492-13c-122 0-249 43-330 143C72 240 24 392 24 572c0 345 76 494 146 589 66 90 178 162 334 165zM266 245c49-65 118-105 226-105 116 0 189 67 234 150 40 64 69 230 70 337v19c0 115-17 268-70 371-58 114-128 156-216 156-95 0-152-28-210-104-69-89-118-231-118-493 0-104 28-258 84-331z"/><glyph glyph-name="uni01D2" unicode="ǒ" d="M465 1154L95 1472l104 107 267-218 265 218 106-107zm189-939c65 61 89 167 89 315v18c-2 184-66 330-243 330-208 0-270-165-270-409 0-195 87-313 254-313 76 1 120 17 170 59zM482 1C210 2 72 184 72 464c0 292 102 568 394 568 197 0 307-69 377-201 41-79 59-192 59-288C902 258 806 1 484 1h-2z"/><glyph glyph-name="uni01D3" unicode="Ǔ" d="M494 1304l-370 318 104 107 267-218 265 218 106-107zm283 9l157-13c-9-60-9-103-9-157 0-145 2-272 2-383v-58c0-232-4-454-116-583C729 24 621-5 492-10 184-10 86 156 68 447c-5 75-7 197-7 332 0 172 3 365 9 523h158c-4-165-8-389-8-574 0-123 2-229 7-289 18-210 100-298 252-298 106 5 158 28 212 84 67 74 78 280 78 477 0 123-5 269-5 439 0 71 3 110 13 172z"/><glyph glyph-name="uni01D4" unicode="ǔ" d="M511 1085l-370 318 104 107 267-218 265 218 106-107zM906-10c-57 41-111 82-133 168C689 72 592 5 442 2h-9c-62 0-147 1-207 42-45 31-112 88-112 170-3 268 4 697-23 780l160 27c22-92 17-405 19-771 6-34 28-60 50-76 14-10 65-18 106-18 67 3 108 11 159 42 47 28 116 58 154 146v676h158V239c2-52 51-100 91-132z"/><glyph glyph-name="uni01D5" unicode="Ǖ" d="M714 1864v-152h-17c-58-2-128-2-202-2s-149 0-217 2l-18 1v155l19-2c65-2 162-2 254-2h181zm-531-212l235-3v-225l-235 3v225zm406-3l235-3v-225l-235 3v225zm188-336l157-13c-9-60-9-103-9-157 0-145 2-272 2-383v-58c0-232-4-454-116-583C729 24 621-5 492-10 184-10 86 156 68 447c-5 75-7 197-7 332 0 172 3 365 9 523h158c-4-165-8-389-8-574 0-123 2-229 7-289 18-210 100-298 252-298 106 5 158 28 212 84 67 74 78 280 78 477 0 123-5 269-5 439 0 71 3 110 13 172z"/><glyph glyph-name="uni01D6" unicode="ǖ" d="M733 1642v-152h-17c-58-2-128-2-202-2s-149 0-217 2l-18 1v155l19-2c65-2 162-2 254-2h181zm-536-233l235-3v-225l-235 3v225zm406-3l235-3v-225l-235 3v225zM906-10c-57 41-111 82-133 168C689 72 592 5 442 2h-9c-62 0-147 1-207 42-45 31-112 88-112 170-3 268 4 697-23 780l160 27c22-92 17-405 19-771 6-34 28-60 50-76 14-10 65-18 106-18 67 3 108 11 159 42 47 28 116 58 154 146v676h158V239c2-52 51-100 91-132z"/><glyph glyph-name="uni01D7" unicode="Ǘ" d="M271 1830c143 48 352 205 467 313l123-146c-111-112-379-268-522-315zm-88-178l235-3v-225l-235 3v225zm406-3l235-3v-225l-235 3v225zm188-336l157-13c-9-60-9-103-9-157 0-145 2-272 2-383v-58c0-232-4-454-116-583C729 24 621-5 492-10 184-10 86 156 68 447c-5 75-7 197-7 332 0 172 3 365 9 523h158c-4-165-8-389-8-574 0-123 2-229 7-289 18-210 100-298 252-298 106 5 158 28 212 84 67 74 78 280 78 477 0 123-5 269-5 439 0 71 3 110 13 172z"/><glyph glyph-name="uni01D8" unicode="ǘ" d="M246 1586c143 48 352 205 467 313l123-146c-111-112-379-268-522-315zm-49-177l235-3v-225l-235 3v225zm406-3l235-3v-225l-235 3v225zM906-10c-57 41-111 82-133 168C689 72 592 5 442 2h-9c-62 0-147 1-207 42-45 31-112 88-112 170-3 268 4 697-23 780l160 27c22-92 17-405 19-771 6-34 28-60 50-76 14-10 65-18 106-18 67 3 108 11 159 42 47 28 116 58 154 146v676h158V239c2-52 51-100 91-132z"/><glyph glyph-name="uni01D9" unicode="Ǚ" d="M502 1650l-370 318 104 107 267-218 265 218 106-107zm-319 2l235-3v-225l-235 3v225zm406-3l235-3v-225l-235 3v225zm188-336l157-13c-9-60-9-103-9-157 0-145 2-272 2-383v-58c0-232-4-454-116-583C729 24 621-5 492-10 184-10 86 156 68 447c-5 75-7 197-7 332 0 172 3 365 9 523h158c-4-165-8-389-8-574 0-123 2-229 7-289 18-210 100-298 252-298 106 5 158 28 212 84 67 74 78 280 78 477 0 123-5 269-5 439 0 71 3 110 13 172z"/><glyph glyph-name="uni01DA" unicode="ǚ" d="M517 1423l-370 318 104 107 267-218 265 218 106-107zm-320-14l235-3v-225l-235 3v225zm406-3l235-3v-225l-235 3v225zM906-10c-57 41-111 82-133 168C689 72 592 5 442 2h-9c-62 0-147 1-207 42-45 31-112 88-112 170-3 268 4 697-23 780l160 27c22-92 17-405 19-771 6-34 28-60 50-76 14-10 65-18 106-18 67 3 108 11 159 42 47 28 116 58 154 146v676h158V239c2-52 51-100 91-132z"/><glyph glyph-name="uni01DB" unicode="Ǜ" d="M731 1830l-68-148c-143 47-411 203-522 315l123 146c115-108 324-265 467-313zm-548-178l235-3v-225l-235 3v225zm406-3l235-3v-225l-235 3v225zm188-336l157-13c-9-60-9-103-9-157 0-145 2-272 2-383v-58c0-232-4-454-116-583C729 24 621-5 492-10 184-10 86 156 68 447c-5 75-7 197-7 332 0 172 3 365 9 523h158c-4-165-8-389-8-574 0-123 2-229 7-289 18-210 100-298 252-298 106 5 158 28 212 84 67 74 78 280 78 477 0 123-5 269-5 439 0 71 3 110 13 172z"/><glyph glyph-name="uni01DC" unicode="ǜ" d="M727 1571l-68-148c-143 47-411 203-522 315l123 146c115-108 324-265 467-313zm-530-162l235-3v-225l-235 3v225zm406-3l235-3v-225l-235 3v225zM906-10c-57 41-111 82-133 168C689 72 592 5 442 2h-9c-62 0-147 1-207 42-45 31-112 88-112 170-3 268 4 697-23 780l160 27c22-92 17-405 19-771 6-34 28-60 50-76 14-10 65-18 106-18 67 3 108 11 159 42 47 28 116 58 154 146v676h158V239c2-52 51-100 91-132z"/><glyph glyph-name="uni01DE" unicode="Ǟ" d="M728 1827v-152h-17c-58-2-128-2-202-2s-149 0-217 2l-18 1v155l19-2c65-2 162-2 254-2h181zm-531-220l235-3v-225l-235 3v225zm406-3l235-3v-225l-235 3v225zM718 495l-194 587-186-607c60 13 116 13 199 17zm-284 806h171L983 172c11-37 29-118 31-172H850c0 23-12 95-20 122l-70 210c-141-3-362-5-473-32l-59-179c-10-29-24-93-24-121H42c1 28 19 116 32 159z"/><glyph glyph-name="uni01DF" unicode="ǟ" d="M695 1640v-152h-17c-58-2-128-2-202-2s-149 0-217 2l-18 1v155l19-2c65-2 162-2 254-2h181zm-542-234l235-3v-225l-235 3v225zm406-3l235-3v-225l-235 3v225zM234 311c0-105 56-165 149-165 210 0 315 158 341 199v95c-57 35-131 64-235 64-136-1-255-75-255-193zm647 7c0-35 0-128 13-145 13-18 50-41 79-64L890-10c-52 40-112 65-130 166C682 81 580-6 383-6 212-6 78 135 78 301c0 76 30 165 89 226 95 97 196 121 314 121 126 0 189-18 243-51 0 189-69 280-239 280-138 0-201-30-281-173L74 786c96 182 230 242 409 242 242 0 398-155 398-380V318z"/><glyph glyph-name="uni01E2" unicode="Ǣ" d="M702 1560v-152h-17c-58-2-128-2-202-2s-149 0-217 2l-18 1v155l19-2c65-2 162-2 254-2h181zM979 27C934 11 896-5 821-5H479v125c-10 121-28 244-39 368-22 2-41 3-59 3-27 0-51-3-82-10L152-16 22 36c129 426 217 855 312 1284h83c71 3 174 3 282 3h260v-153h-17c-83 0-102-2-225-2H534v-45c0-21 17-216 25-295 51 1 111 5 196 5h106V681H755c-82 0-136-4-181-5 2-9 2-19 2-28 26-218 41-420 46-498h319zM429 631v14c-11 117-23 242-31 352l-69-372c32 3 30 4 83 6h17z"/><glyph glyph-name="uni01E3" unicode="ǣ" d="M748 1342.1v-152h-17c-58-2-128-2-202-2s-149 0-217 2l-18 1v155l19-2c65-2 162-2 254-2h181zM177 324c0-108 41-162 124-162 90 0 129 137 140 165v147c-43 25-85 34-139 34-78 0-125-83-125-184zm417 291c89 6 147 8 231 8 0 106-22 246-92 246-128 0-139-92-139-254zM505 97C475 63 415 4 312 4c-63 0-128 15-182 53C49 114 23 211 23 309c0 167 64 352 268 352 77 0 112-16 150-32 0 97-22 241-141 241h-9c-52 0-82-3-148-103l-10-14-117 74 11 18c85 134 150 178 273 178 56 0 102-8 163-55 19-16 38-40 50-59 41 61 89 114 211 114 244 0 252-349 252-548l-382-10V220c25-29 76-59 139-59 59 0 110 56 148 109l107-100C895 44 791 5 714 5c-81 0-153 33-209 92z"/><glyph glyph-name="Gcaron" unicode="Ǧ" d="M539 1325l-370 318 104 107 267-218 265 218 106-107zm322-592c46 0 89 3 131 7V605C992 170 869 49 691 3 646-7 582-8 540-8 176-8 20 280 20 628c0 237 53 431 184 558 100 88 214 116 329 116h20c214-5 348-113 423-276l-143-69c-52 114-136 193-291 193-84 0-145-6-223-73-111-95-137-288-137-460 0-259 78-470 368-470 29 0 57 2 83 9 123 28 193 108 193 431-26-2-50-2-73-2-31 0-60 1-89 1-71 0-140-5-230-38l-40 145c96 36 200 42 301 42 56 0 112-2 166-2z"/><glyph glyph-name="gcaron" unicode="ǧ" d="M513 1116l-370 318 104 107 267-218 265 218 106-107zM237-76c0-126 75-156 207-156h105c115 0 254 41 254 207 0 85-149 96-270 96-9 0-66 0-212-2-56-22-84-82-84-145zm239 633c129 0 228 52 228 149 0 129-85 168-212 168-136 0-239-73-239-165 0-116 93-152 223-152zM95 699c0 210 151 327 397 327 115 0 189-20 254-60 56 52 109 62 219 62V864c-12 2-34 5-44 5-35 0-74-5-91-22 26-47 30-89 30-137 0-189-154-303-379-303-71 0-134 7-199 32-19-22-43-57-43-98 0-76 54-118 180-118 26 0 154 2 181 2 188 0 361-59 361-249 0-259-174-364-418-364H440C229-388 80-291 80-82c0 100 32 171 87 219-57 42-85 113-85 191 0 91 32 151 74 199-34 38-61 100-61 172z"/><glyph glyph-name="uni01E8" unicode="Ǩ" d="M516 1304l-370 318 104 107 267-218 265 218 106-107zm-32-579c120-117 467-531 518-666L868-17C822 92 518 474 388 600c0 0-84-98-114-169V-5H116v1313h158V703c80 111 151 190 250 293 191 195 317 293 338 314l111-106c-182-132-429-406-489-479z"/><glyph glyph-name="uni01E9" unicode="ǩ" d="M273 1437l-370 318L7 1862l267-218 265 218 106-107zm313-871c101 0 156 91 156 179 0 18-2 35-7 50-10 33-42 77-105 77-24 0-52-6-85-22-99-47-178-92-252-142v-90c84-13 149-28 198-39 37-8 68-13 95-13zM293 880c72 49 222 136 328 136 136 0 259-83 273-202 3-23 5-53 5-82 0-33-3-67-8-93-6-34-58-136-161-185 98-73 96-193 149-281 24-39 50-60 83-84L878-19C755 41 720 159 693 238c-50 145-275 217-399 231 0 0-2-190-2-340 0-50 1-96 1-129H136v1228c0 61-10 114-23 155l153 44c9-23 27-68 27-134V880z"/><glyph glyph-name="uni01F0" unicode="ǰ" d="M680 1090l-370 318 104 107 267-218 265 218 106-107zM627-114l-1 978h-16c-98 0-150-8-240-29l-28 142c112 26 220 42 324 42h117V-118c0-145-61-269-299-269-123 0-267 22-393 227l126 98c99-162 183-169 246-169h17c112 0 145 82 147 117z"/><glyph glyph-name="uni01F4" unicode="Ǵ" d="M289 1450c143 48 352 205 467 313l123-146c-111-112-379-268-522-315zm572-717c46 0 89 3 131 7V605C992 170 869 49 691 3 646-7 582-8 540-8 176-8 20 280 20 628c0 237 53 431 184 558 100 88 214 116 329 116h20c214-5 348-113 423-276l-143-69c-52 114-136 193-291 193-84 0-145-6-223-73-111-95-137-288-137-460 0-259 78-470 368-470 29 0 57 2 83 9 123 28 193 108 193 431-26-2-50-2-73-2-31 0-60 1-89 1-71 0-140-5-230-38l-40 145c96 36 200 42 301 42 56 0 112-2 166-2z"/><glyph glyph-name="uni01F5" unicode="ǵ" d="M305 1213c143 48 352 205 467 313l123-146c-111-112-379-268-522-315zM237-76c0-126 75-156 207-156h105c115 0 254 41 254 207 0 85-149 96-270 96-9 0-66 0-212-2-56-22-84-82-84-145zm239 633c129 0 228 52 228 149 0 129-85 168-212 168-136 0-239-73-239-165 0-116 93-152 223-152zM95 699c0 210 151 327 397 327 115 0 189-20 254-60 56 52 109 62 219 62V864c-12 2-34 5-44 5-35 0-74-5-91-22 26-47 30-89 30-137 0-189-154-303-379-303-71 0-134 7-199 32-19-22-43-57-43-98 0-76 54-118 180-118 26 0 154 2 181 2 188 0 361-59 361-249 0-259-174-364-418-364H440C229-388 80-291 80-82c0 100 32 171 87 219-57 42-85 113-85 191 0 91 32 151 74 199-34 38-61 100-61 172z"/><glyph glyph-name="uni01F8" unicode="Ǹ" d="M704 1425l-68-148c-143 47-411 203-522 315l123 146c115-108 324-265 467-313zM752-6C589 351 435 648 233 1001V797c0-293 1-648 1-800H75v1301l159-4c126-184 402-689 519-937-2 130-3 266-3 400 0 186 3 369 12 540h154c-6-113-8-262-8-425 0-226 4-480 4-710 0-57-1-114-1-167z"/><glyph glyph-name="uni01F9" unicode="ǹ" d="M788.5 1226l-68-148c-143 47-411 203-522 315l123 146c115-108 324-265 467-313zM270 927c126 66 218 95 328 95 120 0 299-77 299-226V211c0-66 50-88 106-118L919-19c-88 43-180 94-180 223v561c0 74-97 107-163 107-64 0-160-42-306-112V0L112-1v706c0 178-8 204-32 298l160 37c10-24 22-64 30-113z"/><glyph glyph-name="Aringacute" unicode="Ǻ" d="M284 1827c143 48 352 205 467 313l123-146c-111-112-379-268-522-315zM718 495l-194 587-186-607c60 13 116 13 199 17zm-289 952c0-35 36-72 87-72s85 37 85 72-33 69-85 69-87-34-87-69zm-129-2c0 111 102 195 217 195s216-84 216-195c0-77-49-142-118-174L983 172c11-37 29-118 31-172H850c0 23-12 95-20 122l-70 210c-141-3-362-5-473-32l-59-179c-10-29-24-93-24-121H42c1 28 19 116 32 159l350 1110c-72 31-124 97-124 176z"/><glyph glyph-name="aringacute" unicode="ǻ" d="M396 1253c0-35 36-72 86-72 52 0 86 37 86 72s-34 69-86 69-86-34-86-69zm-130-2c0 111 102 195 218 195 114 0 216-84 216-195s-102-195-216-195c-116 0-218 84-218 195zm-32-940c0-105 56-165 149-165 210 0 315 158 341 199v95c-57 35-131 64-235 64-136-1-255-75-255-193zm647 7c0-35 0-128 13-145 13-18 50-41 79-64L890-10c-52 40-112 65-130 166C682 81 580-6 383-6 212-6 78 135 78 301c0 76 30 165 89 226 95 97 196 121 314 121 126 0 189-18 243-51 0 189-69 280-239 280-138 0-201-30-281-173L74 786c96 182 230 242 409 242 242 0 398-155 398-380V318zM284 1580c143 48 352 205 467 313l123-146c-111-112-379-268-522-315z"/><glyph glyph-name="AEacute" unicode="Ǽ" d="M353 1494c143 48 352 205 467 313l123-146c-111-112-379-268-522-315zM979 27C934 11 896-5 821-5H479v125c-10 121-28 244-39 368-22 2-41 3-59 3-27 0-51-3-82-10L152-16 22 36c129 426 217 855 312 1284h83c71 3 174 3 282 3h260v-153h-17c-83 0-102-2-225-2H534v-45c0-21 17-216 25-295 51 1 111 5 196 5h106V681H755c-82 0-136-4-181-5 2-9 2-19 2-28 26-218 41-420 46-498h319zM429 631v14c-11 117-23 242-31 352l-69-372c32 3 30 4 83 6h17z"/><glyph glyph-name="aeacute" unicode="ǽ" d="M237 1197c143 48 352 205 467 313l123-146c-111-112-379-268-522-315zm-60-873c0-108 41-162 124-162 90 0 129 137 140 165v147c-43 25-85 34-139 34-78 0-125-83-125-184zm417 291c89 6 147 8 231 8 0 106-22 246-92 246-128 0-139-92-139-254zM505 97C475 63 415 4 312 4c-63 0-128 15-182 53C49 114 23 211 23 309c0 167 64 352 268 352 77 0 112-16 150-32 0 97-22 241-141 241h-9c-52 0-82-3-148-103l-10-14-117 74 11 18c85 134 150 178 273 178 56 0 102-8 163-55 19-16 38-40 50-59 41 61 89 114 211 114 244 0 252-349 252-548l-382-10V220c25-29 76-59 139-59 59 0 110 56 148 109l107-100C895 44 791 5 714 5c-81 0-153 33-209 92z"/><glyph glyph-name="Oslashacute" unicode="Ǿ" d="M278 1486c143 48 352 205 467 313l123-146c-111-112-379-268-522-315zm469-460C631 751 483 417 377 174c36-17 79-26 132-26 116 0 189 64 234 149 40 65 71 231 71 340 0 0-4 265-60 376-2 4-5 9-7 13zM258 295c101 231 261 592 372 857-28 14-59 20-92 20-95 0-151-28-209-106-69-91-129-257-129-481 0-88 19-209 58-290zm-73-168c-2 2-4 5-6 7C89 246 41 397 41 581c0 314 88 482 158 579 66 92 178 165 334 168 39 0 96-5 156-31 12 29 22 55 31 79l148-58c-14-36-30-76-48-119 83-97 150-265 152-554v-11c0-167-44-320-92-415C805 72 674-8 509-8 443-8 375 4 314 31c-11-24-19-47-28-67L138 25c6 12 30 61 47 102z"/><glyph glyph-name="oslashacute" unicode="ǿ" d="M242 1214c143 48 352 205 467 313l123-146c-111-112-379-268-522-315zm-1-858l414 465c-37 36-88 57-155 57-208 0-270-165-270-409 0-41 3-79 11-113zm614 448c33-77 47-175 47-261C902 258 806 1 484 1h-2C368 2 278 33 212 91L121-9 10 95l109 123c-31 69-47 152-47 246 0 292 102 568 394 568 132 0 226-31 294-92l113 127 120-111zM654 215c65 61 89 167 89 315v18c0 42-3 82-11 119L320 212c41-36 96-56 164-56 76 1 120 17 170 59z"/><glyph glyph-name="uni0200" unicode="Ȁ" d="M804 1389.23l-125-90.848c-108 91.722-259 263.808-310 393.965l164 72.503c56-128.409 164-283.025 271-375.62zm-326-25.33l-125-90.848c-108 91.721-259 263.808-310 393.964l164 72.504c56-128.41 164-283.025 271-375.62zM718 495l-194 587-186-607c60 13 116 13 199 17zm-284 806h171L983 172c11-37 29-118 31-172H850c0 23-12 95-20 122l-70 210c-141-3-362-5-473-32l-59-179c-10-29-24-93-24-121H42c1 28 19 116 32 159z"/><glyph glyph-name="uni0201" unicode="ȁ" d="M868 1188l-125-104c-108 105-259 302-310 451l164 83c56-147 164-324 271-430zm-326-29l-125-104c-108 105-259 302-310 451l164 83c56-147 164-324 271-430zM234 311c0-105 56-165 149-165 210 0 315 158 341 199v95c-57 35-131 64-235 64-136-1-255-75-255-193zm647 7c0-35 0-128 13-145 13-18 50-41 79-64L890-10c-52 40-112 65-130 166C682 81 580-6 383-6 212-6 78 135 78 301c0 76 30 165 89 226 95 97 196 121 314 121 126 0 189-18 243-51 0 189-69 280-239 280-138 0-201-30-281-173L74 786c96 182 230 242 409 242 242 0 398-155 398-380V318z"/><glyph glyph-name="uni0204" unicode="Ȅ" d="M869 1408.35l-125-84.031c-108 84.84-259 244.015-310 364.405l164 67.063c56-118.775 164-261.79 271-347.438zm-326-23.43l-125-84.031c-108 84.839-259 244.014-310 364.405l164 67.063c56-118.775 164-261.79 271-347.438zM102 1293c56 4 126 4 204 4h208c149 0 285-3 359-3h16v-150H260V816h438V666H260v-30c0-203-3-412-3-489l525 2c56 0 117 26 117 26l44-148C895 14 860-3 784-3H102v1296z"/><glyph glyph-name="uni0205" unicode="ȅ" d="M900 1161l-125-104c-108 105-259 302-310 451l164 83c56-147 164-324 271-430zm-326-29l-125-104c-108 105-259 302-310 451l164 83c56-147 164-324 271-430zM236 580c129 1 386 15 528 31-6 156-118 258-254 258-170 0-273-135-274-289zm273 441c377 0 414-380 414-518 0-20 0-35-1-43-280-19-508-31-686-33 0-153 86-284 290-284 143 0 227 79 266 133l123-109C874 122 760-10 522-10 224-10 78 203 78 516c0 286 148 505 431 505z"/><glyph glyph-name="uni0208" unicode="Ȉ" d="M844 1418.14l-125-75.903c-108 76.634-259 220.412-310 329.158l164 60.576c56-107.286 164-236.468 271-313.831zm-326-21.16l-125-75.903c-108 76.633-259 220.41-310 329.158l164 60.576c56-107.286 164-236.468 271-313.831zM152 1298c156 4 237 4 333 4 105 0 201-1 364-3v-152c-123 0-171 5-267 5V152c46 0 72 1 123 1 45 0 92-1 144-4V-1c-85 5-147 6-210 6-47 0-96-1-155-1-74 0-174-7-329-7v149c85 4 135 5 192 5h75v1000c-66-1-158-1-264-7z"/><glyph glyph-name="uni0209" unicode="ȉ" d="M768 1170l-125-104c-108 105-259 302-310 451l164 83c56-147 164-324 271-430zm-326-29l-125-104C209 1142 58 1339 7 1488l164 83c56-147 164-324 271-430zm-25-128h116c0-273 1-803 1-803 5-82 49-86 141-86 93 0 217 21 286 73l68-114C943 12 800-18 676-18c-85 0-161 14-205 38-85 47-93 127-93 186v651c-49 0-163-6-258-28L91 971c112 26 222 42 326 42z"/><glyph glyph-name="uni020C" unicode="Ȍ" d="M836.5 1423.45l-125-74.001c-108 74.712-259 214.887-310 320.907l164 59.058c56-104.597 164-230.54 271-305.964zm-326-20.63l-125-74.001c-108 74.712-259 214.887-310 320.906l164 59.059c56-104.597 164-230.54 271-305.964zM504 1326c124 0 445-74 450-691v-11c0-164-44-317-92-410C787 70 657-13 492-13c-122 0-249 43-330 143C72 240 24 392 24 572c0 345 76 494 146 589 66 90 178 162 334 165zM266 245c49-65 118-105 226-105 116 0 189 67 234 150 40 64 69 230 70 337v19c0 115-17 268-70 371-58 114-128 156-216 156-95 0-152-28-210-104-69-89-118-231-118-493 0-104 28-258 84-331z"/><glyph glyph-name="uni020D" unicode="ȍ" d="M788 1176l-125-104c-108 105-259 302-310 451l164 83c56-147 164-324 271-430zm-326-29l-125-104c-108 105-259 302-310 451l164 83c56-147 164-324 271-430zm192-932c65 61 89 167 89 315v18c-2 184-66 330-243 330-208 0-270-165-270-409 0-195 87-313 254-313 76 1 120 17 170 59zM482 1C210 2 72 184 72 464c0 292 102 568 394 568 197 0 307-69 377-201 41-79 59-192 59-288C902 258 806 1 484 1h-2z"/><glyph glyph-name="uni0210" unicode="Ȑ" d="M794 1412.87l-125-74.998c-108 75.72-259 217.783-310 325.233l164 59.853c56-106.007 164-233.648 271-310.089zm-326-20.91l-125-74.998c-108 75.72-259 217.783-310 325.233l164 59.855c56-106.009 164-233.649 271-310.09zM652 540c78-122 190-302 246-367 18-16 49-50 91-61L930-22c-58 9-112 47-146 89-97 107-255 373-311 467-82 8-150 20-226 33l1-567H90v1113c0 67-1 114-5 175 42 4 157 15 218 15 250 0 419-14 541-164 48-59 83-146 83-230 0-220-99-340-275-369zm120 355c0 55-15 105-57 153-67 78-183 102-407 102-26 0-34 0-63-1l2-430c99-18 178-41 260-41 16 0 33 1 49 3 140 18 216 52 216 214z"/><glyph glyph-name="uni0211" unicode="ȑ" d="M921 1186l-125-104c-108 105-259 302-310 451l164 83c56-147 164-324 271-430zm-326-29l-125-104c-108 105-259 302-310 451l164 83c56-147 164-324 271-430zM370 875c93 114 197 150 352 150 167 0 212-114 212-296v-6H778c-4 81 8 142-84 142-101 0-228-36-328-259V0L210 1v763c0 57-40 86-102 141l104 141c61-49 121-87 158-171z"/><glyph glyph-name="uni0214" unicode="Ȕ" d="M812 1377.83l-125-75.959c-108 76.69-259 220.573-310 329.398l164 60.621c56-107.365 164-236.64 271-314.06zm-326-21.18l-125-75.959c-108 76.69-259 220.572-310 329.398l164 60.621c56-107.365 164-236.64 271-314.06zM777 1313l157-13c-9-60-9-103-9-157 0-145 2-272 2-383v-58c0-232-4-454-116-583C729 24 621-5 492-10 184-10 86 156 68 447c-5 75-7 197-7 332 0 172 3 365 9 523h158c-4-165-8-389-8-574 0-123 2-229 7-289 18-210 100-298 252-298 106 5 158 28 212 84 67 74 78 280 78 477 0 123-5 269-5 439 0 71 3 110 13 172z"/><glyph glyph-name="uni0215" unicode="ȕ" d="M870 1161l-125-104c-108 105-259 302-310 451l164 83c56-147 164-324 271-430zm-326-29l-125-104c-108 105-259 302-310 451l164 83c56-147 164-324 271-430zM906-10c-57 41-111 82-133 168C689 72 592 5 442 2h-9c-62 0-147 1-207 42-45 31-112 88-112 170-3 268 4 697-23 780l160 27c22-92 17-405 19-771 6-34 28-60 50-76 14-10 65-18 106-18 67 3 108 11 159 42 47 28 116 58 154 146v676h158V239c2-52 51-100 91-132z"/><glyph glyph-name="Scommaaccent" unicode="Ș" d="M416-131h220v-215c0-151-67-227-196-283l-54 127c60 28 86 51 86 150h-56v221zM247 709C156 752 72 843 72 989c0 216 187 313 398 313h9c223-3 393-79 431-286l-159-29c-38 127-122 161-276 161-102 0-163-21-209-66-24-25-35-54-35-88 0-82 46-121 102-147 117-56 274-55 406-115 108-52 210-170 210-344C949 119 761-9 521-9h-19C149 0 43 190 43 413h158c0-159 83-271 307-271 205 0 281 95 281 238 0 107-59 175-138 209-116 50-271 60-404 120z"/><glyph glyph-name="scommaaccent" unicode="ș" d="M405-142h220v-215c0-151-67-227-196-283l-54 127c60 28 86 51 86 150h-56v221zM269 571c-65 35-117 101-117 212 1 173 163 246 338 246 122 0 298-40 380-141L757 777c-53 62-167 104-253 104-106 0-195-29-195-94 0-48 20-71 60-89 265-112 527-133 527-417C896 119 782 28 675 0c-56-13-116-20-173-20-256 0-384 135-384 350l157-1c0-134 69-206 224-206 123 0 242 53 242 163 0 73-31 99-86 140-77 55-281 90-386 145z"/><glyph glyph-name="uni021A" unicode="Ț" d="M388-131h220v-215c0-151-67-227-196-283l-54 127c60 28 86 51 86 150h-56v221zM403-9v1153c-198 0-288-1-364-1v155c122 0 576 1 764 1 73 0 122-12 140-15l-33-152s-62 12-112 12H563V-9H403z"/><glyph glyph-name="uni021B" unicode="ț" d="M521-128h220v-215c0-151-67-227-196-283l-54 127c60 28 86 51 86 150h-56v221zM359 437v-40c0-133 36-234 147-245 18-2 95-3 108-3 65 0 129 10 154 24 57 30 75 85 82 104l126-56c-10-28-33-119-145-184C773 3 701-6 616-6 432-6 310 13 239 161c-35 72-39 147-39 233v43c4 104 6 235 12 428h-14c-28 0-56-4-82-11l-20 146c24 9 69 12 102 12h15c0 70 1 164 1 234l158-1c0-66-1-160-2-228h122c145 1 299 2 299 2h18V872H492c-46 0-73-3-119-3-9-204-10-332-14-432z"/><glyph glyph-name="uni021E" unicode="Ȟ" d="M499 1319l-370 318 104 107 267-218 265 218 106-107zm-279-23l-1-547c92 21 187 28 307 28h228c0 274-1 352-1 514h159V0H754v625H625c-146 0-288-3-406-28 0-343 2-416 2-597H60v1294z"/><glyph glyph-name="uni021F" unicode="ȟ" d="M203 1468l-370 318 104 107 267-218 265 218 106-107zm536-892c0 227-36 291-237 291-101 0-202-74-233-136V198c0-79-5-152-10-198L101 8c8 72 11 119 11 196 0 504-1 1198-1 1198h159V940c65 41 137 80 239 80 121 0 231-9 310-105 72-85 77-163 77-273v-66c0-164-1-241-1-353 0-55 26-84 86-123L893-17c-80 45-154 98-154 225v368z"/><glyph glyph-name="uni0226" unicode="Ȧ" d="M399 1673l236-3v-225l-236 3v225zM718 495l-194 587-186-607c60 13 116 13 199 17zm-284 806h171L983 172c11-37 29-118 31-172H850c0 23-12 95-20 122l-70 210c-141-3-362-5-473-32l-59-179c-10-29-24-93-24-121H42c1 28 19 116 32 159z"/><glyph glyph-name="uni0227" unicode="ȧ" d="M355 1403h235v-225H355v225zM234 311c0-105 56-165 149-165 210 0 315 158 341 199v95c-57 35-131 64-235 64-136-1-255-75-255-193zm647 7c0-35 0-128 13-145 13-18 50-41 79-64L890-10c-52 40-112 65-130 166C682 81 580-6 383-6 212-6 78 135 78 301c0 76 30 165 89 226 95 97 196 121 314 121 126 0 189-18 243-51 0 189-69 280-239 280-138 0-201-30-281-173L74 786c96 182 230 242 409 242 242 0 398-155 398-380V318z"/><glyph glyph-name="uni0228" unicode="Ȩ" d="M102 1293c56 4 126 4 204 4h208c149 0 285-3 359-3h16v-150H260V816h438V666H260v-30c0-203-3-412-3-489l525 2c56 0 117 26 117 26l44-148C895 14 860-3 784-3H515v-61c97-5 155-67 155-171 0-101-100-168-184-168-66 0-138 25-194 61l38 106c33-18 73-42 124-42 36 0 77 20 80 58v2c0 29-38 54-86 54s-50-7-78-17V-3H102v1296z"/><glyph glyph-name="uni0229" unicode="ȩ" d="M236 580c108 11 350 26 493 30l35 1c-6 156-118 258-254 258-170 0-273-135-274-289zm273 441c377 0 414-380 414-518 0-20 0-35-1-43-285-4-521-21-686-33 0-153 83-284 269-284 157 0 245 87 280 143l121-103C894 163 801 20 574-6c-1-20-1-63-1-65 97-5 155-67 155-171 0-101-100-168-184-168-66 0-138 25-194 61l38 106c33-18 73-42 124-42 36 0 77 20 80 58v2c0 29-38 54-86 54s-50-7-78-17V-5C192 29 78 231 78 516c0 286 148 505 431 505z"/><glyph glyph-name="uni022A" unicode="Ȫ" d="M718.5 1880v-152h-17c-58-2-128-2-202-2s-149 0-217 2l-18 1v155l19-2c65-2 162-2 254-2h181zm-530-243l235-3v-225l-235 3v225zm406-3l235-3v-225l-235 3v225zM504 1326c124 0 445-74 450-691v-11c0-164-44-317-92-410C787 70 657-13 492-13c-122 0-249 43-330 143C72 240 24 392 24 572c0 345 76 494 146 589 66 90 178 162 334 165zM266 245c49-65 118-105 226-105 116 0 189 67 234 150 40 64 69 230 70 337v19c0 115-17 268-70 371-58 114-128 156-216 156-95 0-152-28-210-104-69-89-118-231-118-493 0-104 28-258 84-331z"/><glyph glyph-name="uni022B" unicode="ȫ" d="M718 1607v-152h-17c-58-2-128-2-202-2s-149 0-217 2l-18 1v155l19-2c65-2 162-2 254-2h181zm-533-204l235-3v-225l-235 3v225zm406-3l235-3v-225l-235 3v225zm63-1185c65 61 89 167 89 315v18c-2 184-66 330-243 330-208 0-270-165-270-409 0-195 87-313 254-313 76 1 120 17 170 59zM482 1C210 2 72 184 72 464c0 292 102 568 394 568 197 0 307-69 377-201 41-79 59-192 59-288C902 258 806 1 484 1h-2z"/><glyph glyph-name="uni022C" unicode="Ȭ" d="M734.5 1922v-152h-17c-58-2-128-2-202-2s-149 0-217 2l-18 1v155l19-2c65-2 162-2 254-2h181zm-367-249c148 0 206-121 296-121 64 0 133 39 147 127l148-52c-32-120-149-228-281-228-140 0-197 121-298 121-59 0-117-9-155-115l-138 74c74 164 171 194 281 194zM504 1326c124 0 445-74 450-691v-11c0-164-44-317-92-410C787 70 657-13 492-13c-122 0-249 43-330 143C72 240 24 392 24 572c0 345 76 494 146 589 66 90 178 162 334 165zM266 245c49-65 118-105 226-105 116 0 189 67 234 150 40 64 69 230 70 337v19c0 115-17 268-70 371-58 114-128 156-216 156-95 0-152-28-210-104-69-89-118-231-118-493 0-104 28-258 84-331z"/><glyph glyph-name="uni022D" unicode="ȭ" d="M740 1623v-152h-17c-58-2-128-2-202-2s-149 0-217 2l-18 1v155l19-2c65-2 162-2 254-2h181zm-392-250c148 0 206-121 296-121 64 0 133 39 147 127l148-52c-32-120-149-228-281-228-140 0-197 121-298 121-59 0-117-9-155-115l-138 74c74 164 171 194 281 194zM654 215c65 61 89 167 89 315v18c-2 184-66 330-243 330-208 0-270-165-270-409 0-195 87-313 254-313 76 1 120 17 170 59zM482 1C210 2 72 184 72 464c0 292 102 568 394 568 197 0 307-69 377-201 41-79 59-192 59-288C902 258 806 1 484 1h-2z"/><glyph glyph-name="uni022E" unicode="Ȯ" d="M421.5 1634l236-3v-225l-236 3v225zm82.5-308c124 0 445-74 450-691v-11c0-164-44-317-92-410C787 70 657-13 492-13c-122 0-249 43-330 143C72 240 24 392 24 572c0 345 76 494 146 589 66 90 178 162 334 165zM266 245c49-65 118-105 226-105 116 0 189 67 234 150 40 64 69 230 70 337v19c0 115-17 268-70 371-58 114-128 156-216 156-95 0-152-28-210-104-69-89-118-231-118-493 0-104 28-258 84-331z"/><glyph glyph-name="uni022F" unicode="ȯ" d="M351 1403h235v-225H351v225zM654 215c65 61 89 167 89 315v18c-2 184-66 330-243 330-208 0-270-165-270-409 0-195 87-313 254-313 76 1 120 17 170 59zM482 1C210 2 72 184 72 464c0 292 102 568 394 568 197 0 307-69 377-201 41-79 59-192 59-288C902 258 806 1 484 1h-2z"/><glyph glyph-name="uni0230" unicode="Ȱ" d="M762.5 1893v-152h-17c-58-2-128-2-202-2s-149 0-217 2l-18 1v155l19-2c65-2 162-2 254-2h181zm-341-259l236-3v-225l-236 3v225zm82.5-308c124 0 445-74 450-691v-11c0-164-44-317-92-410C787 70 657-13 492-13c-122 0-249 43-330 143C72 240 24 392 24 572c0 345 76 494 146 589 66 90 178 162 334 165zM266 245c49-65 118-105 226-105 116 0 189 67 234 150 40 64 69 230 70 337v19c0 115-17 268-70 371-58 114-128 156-216 156-95 0-152-28-210-104-69-89-118-231-118-493 0-104 28-258 84-331z"/><glyph glyph-name="uni0231" unicode="ȱ" d="M698 1625v-152h-17c-58-2-128-2-202-2s-149 0-217 2l-18 1v155l19-2c65-2 162-2 254-2h181zm-347-222h235v-225H351v225zM654 215c65 61 89 167 89 315v18c-2 184-66 330-243 330-208 0-270-165-270-409 0-195 87-313 254-313 76 1 120 17 170 59zM482 1C210 2 72 184 72 464c0 292 102 568 394 568 197 0 307-69 377-201 41-79 59-192 59-288C902 258 806 1 484 1h-2z"/><glyph glyph-name="uni0311" unicode="̑" d="M510 1510c-93 0-173-33-200-150l-156 30c48 225 230 273 356 273 165 0 338-87 362-264l-166-30c-6 78-88 141-196 141z"/><glyph glyph-name="uni0310" unicode="̐"/><glyph glyph-name="uni0312" unicode="̒" d="M277 1283c38 112 64 221 109 372l152-34c-18-142-46-283-67-386z"/><glyph glyph-name="uni0313" unicode="̓" d="M428 1597h220v-215c0-151-67-227-196-283l-53 127c60 28 86 51 86 150h-57v221z"/><glyph glyph-name="uni0314" unicode="̔" d="M631 1597v-221h-57c0-99 26-122 86-150l-53-127c-129 56-196 132-196 283v215h220z"/><glyph glyph-name="uni0202" unicode="Ȃ" d="M505 1441c-93 0-173-33-200-150l-156 30c48 225 230 273 356 273 165 0 338-87 362-264l-166-30c-6 78-88 141-196 141zm213-946l-194 587-186-607c60 13 116 13 199 17zm-284 806h171L983 172c11-37 29-118 31-172H850c0 23-12 95-20 122l-70 210c-141-3-362-5-473-32l-59-179c-10-29-24-93-24-121H42c1 28 19 116 32 159z"/><glyph glyph-name="uni0203" unicode="ȃ" d="M471 1304c-93 0-173-33-200-150l-156 30c48 225 230 273 356 273 165 0 338-87 362-264l-166-30c-6 78-88 141-196 141zM234 311c0-105 56-165 149-165 210 0 315 158 341 199v95c-57 35-131 64-235 64-136-1-255-75-255-193zm647 7c0-35 0-128 13-145 13-18 50-41 79-64L890-10c-52 40-112 65-130 166C682 81 580-6 383-6 212-6 78 135 78 301c0 76 30 165 89 226 95 97 196 121 314 121 126 0 189-18 243-51 0 189-69 280-239 280-138 0-201-30-281-173L74 786c96 182 230 242 409 242 242 0 398-155 398-380V318z"/><glyph glyph-name="uni0206" unicode="Ȇ" d="M476 1487c-93 0-173-33-200-150l-156 30c48 225 230 273 356 273 165 0 338-87 362-264l-166-30c-6 78-88 141-196 141zm-374-194c56 4 126 4 204 4h208c149 0 285-3 359-3h16v-150H260V816h438V666H260v-30c0-203-3-412-3-489l525 2c56 0 117 26 117 26l44-148C895 14 860-3 784-3H102v1296z"/><glyph glyph-name="uni0207" unicode="ȇ" d="M506 1304c-93 0-173-33-200-150l-156 30c48 225 230 273 356 273 165 0 338-87 362-264l-166-30c-6 78-88 141-196 141zM236 580c129 1 386 15 528 31-6 156-118 258-254 258-170 0-273-135-274-289zm273 441c377 0 414-380 414-518 0-20 0-35-1-43-280-19-508-31-686-33 0-153 86-284 290-284 143 0 227 79 266 133l123-109C874 122 760-10 522-10 224-10 78 203 78 516c0 286 148 505 431 505z"/><glyph glyph-name="uni020A" unicode="Ȋ" d="M488 1487c-93 0-173-33-200-150l-156 30c48 225 230 273 356 273 165 0 338-87 362-264l-166-30c-6 78-88 141-196 141zm-336-189c156 4 237 4 333 4 105 0 201-1 364-3v-152c-123 0-171 5-267 5V152c46 0 72 1 123 1 45 0 92-1 144-4V-1c-85 5-147 6-210 6-47 0-96-1-155-1-74 0-174-7-329-7v149c85 4 135 5 192 5h75v1000c-66-1-158-1-264-7z"/><glyph glyph-name="uni020B" unicode="ȋ" d="M455 1304c-93 0-173-33-200-150l-156 30c48 225 230 273 356 273 165 0 338-87 362-264l-166-30c-6 78-88 141-196 141zm-38-291h116c0-273 1-803 1-803 5-82 49-86 141-86 93 0 217 21 286 73l68-114C943 12 800-18 676-18c-85 0-161 14-205 38-85 47-93 127-93 186v651c-49 0-163-6-258-28L91 971c112 26 222 42 326 42z"/><glyph glyph-name="uni020E" unicode="Ȏ" d="M500.5 1487c-93 0-173-33-200-150l-156 30c48 225 230 273 356 273 165 0 338-87 362-264l-166-30c-6 78-88 141-196 141zm3.5-161c124 0 445-74 450-691v-11c0-164-44-317-92-410C787 70 657-13 492-13c-122 0-249 43-330 143C72 240 24 392 24 572c0 345 76 494 146 589 66 90 178 162 334 165zM266 245c49-65 118-105 226-105 116 0 189 67 234 150 40 64 69 230 70 337v19c0 115-17 268-70 371-58 114-128 156-216 156-95 0-152-28-210-104-69-89-118-231-118-493 0-104 28-258 84-331z"/><glyph glyph-name="uni020F" unicode="ȏ" d="M463 1304c-93 0-173-33-200-150l-156 30c48 225 230 273 356 273 165 0 338-87 362-264l-166-30c-6 78-88 141-196 141zM654 215c65 61 89 167 89 315v18c-2 184-66 330-243 330-208 0-270-165-270-409 0-195 87-313 254-313 76 1 120 17 170 59zM482 1C210 2 72 184 72 464c0 292 102 568 394 568 197 0 307-69 377-201 41-79 59-192 59-288C902 258 806 1 484 1h-2z"/><glyph glyph-name="uni0212" unicode="Ȓ" d="M447 1502c-93 0-173-33-200-150l-156 30c48 225 230 273 356 273 165 0 338-87 362-264l-166-30c-6 78-88 141-196 141zm205-962c78-122 190-302 246-367 18-16 49-50 91-61L930-22c-58 9-112 47-146 89-97 107-255 373-311 467-82 8-150 20-226 33l1-567H90v1113c0 67-1 114-5 175 42 4 157 15 218 15 250 0 419-14 541-164 48-59 83-146 83-230 0-220-99-340-275-369zm120 355c0 55-15 105-57 153-67 78-183 102-407 102-26 0-34 0-63-1l2-430c99-18 178-41 260-41 16 0 33 1 49 3 140 18 216 52 216 214z"/><glyph glyph-name="uni0213" unicode="ȓ" d="M518 1329c-93 0-173-33-200-150l-156 30c48 225 230 273 356 273 165 0 338-87 362-264l-166-30c-6 78-88 141-196 141zM370 875c93 114 197 150 352 150 167 0 212-114 212-296v-6H778c-4 81 8 142-84 142-101 0-228-36-328-259V0L210 1v763c0 57-40 86-102 141l104 141c61-49 121-87 158-171z"/><glyph glyph-name="uni0216" unicode="Ȗ" d="M522 1487c-93 0-173-33-200-150l-156 30c48 225 230 273 356 273 165 0 338-87 362-264l-166-30c-6 78-88 141-196 141zm255-174l157-13c-9-60-9-103-9-157 0-145 2-272 2-383v-58c0-232-4-454-116-583C729 24 621-5 492-10 184-10 86 156 68 447c-5 75-7 197-7 332 0 172 3 365 9 523h158c-4-165-8-389-8-574 0-123 2-229 7-289 18-210 100-298 252-298 106 5 158 28 212 84 67 74 78 280 78 477 0 123-5 269-5 439 0 71 3 110 13 172z"/><glyph glyph-name="uni0217" unicode="ȗ" d="M504 1276c-93 0-173-33-200-150l-156 30c48 225 230 273 356 273 165 0 338-87 362-264l-166-30c-6 78-88 141-196 141zM906-10c-57 41-111 82-133 168C689 72 592 5 442 2h-9c-62 0-147 1-207 42-45 31-112 88-112 170-3 268 4 697-23 780l160 27c22-92 17-405 19-771 6-34 28-60 50-76 14-10 65-18 106-18 67 3 108 11 159 42 47 28 116 58 154 146v676h158V239c2-52 51-100 91-132z"/><glyph glyph-name="uni0327" unicode="̧" d="M626 56c-1-8-1-72-1-75 97-5 155-67 155-171 0-101-100-168-184-168-66 0-138 25-194 61l38 106c33-18 73-42 124-42 36 0 77 20 80 58v2c0 29-38 54-86 54s-50-7-78-17V52z"/><glyph glyph-name="uni0328" unicode="̨" d="M784 41C679-44 465-142 465-216c0-56 57-84 121-84 58 0 99 33 129 55l78-106c-44-48-132-93-211-93-188 0-272 93-272 228C310-36 574 7 623 68z"/><glyph glyph-name="ogonek" unicode="˛" d="M784 41C679-44 465-142 465-216c0-56 57-84 121-84 58 0 99 33 129 55l78-106c-44-48-132-93-211-93-188 0-272 93-272 228C310-36 574 7 623 68z"/><glyph glyph-name="uni01E0" unicode="Ǡ" d="M746 1917v-152h-17c-58-2-128-2-202-2s-149 0-217 2l-18 1v155l19-2c65-2 162-2 254-2h181zm-347-244l236-3v-225l-236 3v225zM718 495l-194 587-186-607c60 13 116 13 199 17zm-284 806h171L983 172c11-37 29-118 31-172H850c0 23-12 95-20 122l-70 210c-141-3-362-5-473-32l-59-179c-10-29-24-93-24-121H42c1 28 19 116 32 159z"/><glyph glyph-name="uni01E1" unicode="ǡ" d="M694 1634v-152h-17c-58-2-128-2-202-2s-149 0-217 2l-18 1v155l19-2c65-2 162-2 254-2h181zm-339-231h235v-225H355v225zM234 311c0-105 56-165 149-165 210 0 315 158 341 199v95c-57 35-131 64-235 64-136-1-255-75-255-193zm647 7c0-35 0-128 13-145 13-18 50-41 79-64L890-10c-52 40-112 65-130 166C682 81 580-6 383-6 212-6 78 135 78 301c0 76 30 165 89 226 95 97 196 121 314 121 126 0 189-18 243-51 0 189-69 280-239 280-138 0-201-30-281-173L74 786c96 182 230 242 409 242 242 0 398-155 398-380V318z"/><glyph glyph-name="uni01EA" unicode="Ǫ" d="M522 1323c124 0 445-74 450-691v-11c0-164-44-317-92-410C773-14 485-60 484-248c0-56 56-84 120-84 58 0 100 33 130 55l78-106c-44-48-133-93-212-93-188 0-272 93-272 228 0 99 43 160 122 236C348 0 247 43 179 127 89 237 41 389 41 569c0 345 77 494 147 589 66 90 178 162 334 165zM284 242c49-65 118-105 226-105 116 0 188 67 233 150 40 64 70 230 71 337v19c0 115-18 268-71 371-58 114-128 156-216 156-95 0-151-28-209-104-69-89-118-231-118-493 0-104 28-258 84-331z"/><glyph glyph-name="uni01EB" unicode="ǫ" d="M654 215c65 61 89 167 89 315v18c-2 184-66 330-243 330-208 0-270-165-270-409 0-195 87-313 254-313 76 1 120 17 170 59zm148-66C684-26 436-135 436-245c0-56 57-84 121-84 58 0 99 33 129 55l78-106c-44-48-132-93-211-93-188 0-272 93-272 228 0 103 83 174 174 247C201 15 72 193 72 464c0 292 102 568 394 568 197 0 307-69 377-201 41-79 59-192 59-288 0-151-27-293-100-394z"/><glyph glyph-name="uni01EC" unicode="Ǭ" d="M749 1599v-152h-17c-58-2-128-2-202-2s-149 0-217 2l-18 1v155l19-2c65-2 162-2 254-2h181zm-227-276c124 0 445-74 450-691v-11c0-164-44-317-92-410C773-14 485-60 484-248c0-56 56-84 120-84 58 0 100 33 130 55l78-106c-44-48-133-93-212-93-188 0-272 93-272 228 0 99 43 160 122 236C348 0 247 43 179 127 89 237 41 389 41 569c0 345 77 494 147 589 66 90 178 162 334 165zM284 242c49-65 118-105 226-105 116 0 188 67 233 150 40 64 70 230 71 337v19c0 115-18 268-71 371-58 114-128 156-216 156-95 0-151-28-209-104-69-89-118-231-118-493 0-104 28-258 84-331z"/><glyph glyph-name="uni01ED" unicode="ǭ" d="M717 1336.8v-152h-17c-58-2-128-2-202-2s-149 0-217 2l-18 1v155l19-2c65-2 162-2 254-2h181zM654 215c65 61 89 167 89 315v18c-2 184-66 330-243 330-208 0-270-165-270-409 0-195 87-313 254-313 76 1 120 17 170 59zm148-66C684-26 436-135 436-245c0-56 57-84 121-84 58 0 99 33 129 55l78-106c-44-48-132-93-211-93-188 0-272 93-272 228 0 103 83 174 174 247C201 15 72 193 72 464c0 292 102 568 394 568 197 0 307-69 377-201 41-79 59-192 59-288 0-151-27-293-100-394z"/><glyph glyph-name="uni0326" unicode="̦" d="M450 4h220v-215c0-151-67-227-196-283l-54 127c60 28 86 51 86 150h-56V4z"/><glyph glyph-name="uni0232" unicode="Ȳ" d="M717 1648v-152h-17c-58-2-128-2-202-2s-149 0-217 2l-18 1v155l19-2c65-2 162-2 254-2h181zM399-6v141c0 90 7 347 7 466-79 111-322 550-373 656l140 71c40-77 232-432 319-569 98 139 298 495 336 582l139-79c-47-94-120-236-225-404-87-131-157-242-176-268 0-47-2-95-2-149-3-132-5-274-5-316V-6H399z"/><glyph glyph-name="uni0233" unicode="ȳ" d="M725 1337.6v-152h-17c-58-2-128-2-202-2s-149 0-217 2l-18 1v155l19-2c65-2 162-2 254-2h181zM336-223c106 0 160 185 198 291-94 328-213 645-351 769-33 30-74 31-110 31v153c33 0 83-4 111-8 167-25 329-401 442-726 74 217 140 506 148 733h158c0-60-5-117-14-168-65-353-166-683-298-994-53-135-131-234-280-234C165-376 56-270 56 0h156c0-177 44-223 124-223z"/><glyph glyph-name="uni2010" unicode="‐" d="M148 594c136 6 229 6 348 6 148 0 277-2 443-2V445c-141 0-314 3-445 3-105 0-191 0-340-7z"/><glyph glyph-name="uni2011" unicode="‑" d="M148 594c136 6 229 6 348 6 148 0 277-2 443-2V445c-141 0-314 3-445 3-105 0-191 0-340-7z"/><glyph glyph-name="figuredash" unicode="‒" d="M121.637 594c142.098 6 239.268 6 363.604 6 154.637 0 289.421-2 462.864-2V445c-147.322 0-328.079 3-464.953 3-109.709 0-199.564 0-355.246-7z"/><glyph glyph-name="endash" unicode="–" d="M148 594c136 6 229 6 348 6 148 0 277-2 443-2V445c-141 0-314 3-445 3-105 0-191 0-340-7z"/><glyph glyph-name="emdash" unicode="—" d="M26.293 594c164.528 6 277.037 6 421 6 179.046 0 335.106-2 535.928-2V445c-170.577 0-379.867 3-538.348 3-127.025 0-231.065 0-411.321-7z"/><glyph glyph-name="afii00208" unicode="―" d="M-41.852 580c190.727 6 321.15 6 488.035 6 207.555 0 388.465-2 621.263-2V431c-197.738 0-440.354 3-624.067 3-147.252 0-267.858 0-476.816-7z"/><glyph glyph-name="uni2016" unicode="‖" d="M242 152c0 365-9 959-9 1247v93h160v-145c0-277 12-789 12-1123V74c0-115-1-171-6-272l-161 1c4 62 5 105 5 160 0 47-1 103-1 189zm441 0c0 365-9 959-9 1247v93h160v-145c0-277 12-789 12-1123V74c0-115-1-171-6-272l-161 1c4 62 5 105 5 160 0 47-1 103-1 189z"/><glyph glyph-name="underscoredbl" unicode="‗" d="M56-84h946v-152H52zm0-273h946v-152H52z"/><glyph glyph-name="quoteleft" unicode="‘" d="M553 846l-253 33c36 299 218 509 347 618l136-140c-67-57-206-283-230-511z"/><glyph glyph-name="quoteright" unicode="’" d="M562 1467l253-33c-36-299-218-509-347-618L332 956c67 57 206 283 230 511z"/><glyph glyph-name="quotesinglbase" unicode="‚" d="M481 323l253-33C698-9 516-219 387-328L251-188c67 57 206 283 230 511z"/><glyph glyph-name="quotereversed" unicode="‛" d="M623 1467c24-228 164-454 231-511L718 816c-129 109-312 319-348 618z"/><glyph glyph-name="quotedblleft" unicode="“" d="M374 1010c-8-34-12-66-16-99l-206 39c4 41 9 76 19 118 65 260 136 390 252 497l127-123c-54-51-125-227-176-432zm360-2c-8-34-12-66-16-99l-206 39c4 41 9 76 19 118 65 260 136 390 252 497l127-123c-54-51-125-227-176-432z"/><glyph glyph-name="quotedblright" unicode="”" d="M683 1384c8 34 13 67 17 100l206-40c-4-41-10-75-20-117-65-260-136-390-252-497L507 952c54 51 125 227 176 432zm-360 3c8 34 13 66 17 99l206-39c-4-41-10-76-20-118-65-260-136-390-252-497L147 955c54 51 125 227 176 432z"/><glyph glyph-name="quotedblbase" unicode="„" d="M683 220c8 34 13 66 17 99l206-39c-4-41-10-76-20-118-65-260-136-390-252-497L507-212c54 51 125 227 176 432zm-360 2c8 34 13 66 17 99l206-39c-4-41-10-76-20-118-65-260-136-390-252-497L147-210c54 51 125 227 176 432z"/><glyph glyph-name="uni201F" unicode="‟" d="M435 1384c51-205 123-381 177-432L484 830c-116 107-187 237-252 497-10 42-15 76-19 117l206 39c4-33 8-65 16-99zm360 3c51-205 122-381 176-432L844 832c-116 107-187 237-252 497-10 42-15 77-19 118l206 39c4-33 8-65 16-99z"/><glyph glyph-name="daggerdbl" unicode="‡" d="M563 192V74c0-115-1-171-6-272l-161 1c4 62 5 105 5 160 0 47-1 103-1 189v41c-49 0-97 1-148 1-60 0-123-1-192-5v160c129 7 234 8 339 8-1 205-3 442-5 651-93 0-199 6-339 15 0 53 0 107 3 158 136-9 243-11 334-11-1 87-1 166-1 229v93h160v-145c0-51 0-110 1-175 114 3 211 7 353 7v-159c-139 0-235-7-351-10 3-211 7-451 8-654 117-2 222-7 345-7l-2-161c-121 0-227 3-342 4z"/><glyph glyph-name="bullet" unicode="•" d="M230 513c0 152 124 276 276 276s276-124 276-276-124-276-276-276-276 124-276 276z"/><glyph glyph-name="uni2023" unicode="‣" d="M226 857l580-315v-66L230 190l-32 88v503z"/><glyph glyph-name="onedotenleader" unicode="․" d="M397 269h251V0H397v269z"/><glyph glyph-name="twodotenleader" unicode="‥" d="M189 269h251V0H189v269zm480 0h251V0H669v269z"/><glyph glyph-name="ellipsis" unicode="…" d="M411.889 269H635V0H411.889v269zm-400 0h223.112V0H11.89v269zm800 0H1035V0H811.889v269z"/><glyph glyph-name="uni2027" unicode="‧" d="M481 656h251V387H481v269z"/><glyph glyph-name="dagger" unicode="†" d="M552 1172c114 3 211 7 353 7v-159c-139 0-235-7-351-10 4-259 9-562 9-786V74c0-115-1-171-6-272l-161 1c4 62 5 105 5 160 0 47-1 103-1 189 0 237-3 572-6 856-93 0-199 6-339 15 0 53 0 107 3 158 136-9 243-11 334-11-1 87-1 166-1 229v93h160v-145c0-51 0-110 1-175z"/><glyph glyph-name="guilsinglleft" unicode="‹" d="M269 574c144 130 307 262 330 402l156-37c-40-189-176-312-301-421 128-118 238-237 283-409L585 55c-38 149-158 263-316 404v115z"/><glyph glyph-name="guilsinglright" unicode="›" d="M799 465C655 335 492 203 469 63l-156 37c40 189 176 312 301 421-128 118-238 237-283 409l152 54c38-149 158-263 316-404V465z"/><glyph glyph-name="exclamdbl" unicode="‼" d="M369 1376l-16-913-166-2-16 915h198zM144 270h250V0H144v270zm705 1106l-16-913-166-2-16 915h198zM624 270h250V0H624v270z"/><glyph glyph-name="uni203D" unicode="‽" d="M400 0v270h250V0H400zm29 1165c-73-26-123-83-124-176 0-47 25-95 51-127l-134-90c-41 60-74 127-74 212 0 198 123 307 280 341v51h198l-1-46c179-30 317-153 317-337 0-159-146-257-224-323-51-43-105-108-108-187l-1-6v-46H434v44zm186-381c86 67 167 115 167 205 0 89-57 158-160 183-2-129-5-259-7-388z"/><glyph glyph-name="uni2047" unicode="⁇" d="M122 270h250V0H122v270zm-153 927c71 95 193 140 325 140 91 0 164-21 219-59 66 40 148 59 234 59 231 0 343-132 343-344 0-159-119-257-197-323-52-44-109-111-109-193v-46H609v44c0 120 52 198 136 272 100 89 185 136 185 242 0 112-59 193-191 193-48 0-93-10-130-29 18-46 28-100 28-160 0-159-119-257-197-323-52-44-109-111-109-193v-46H156v44c0 120 52 198 136 272 100 89 185 136 185 242 0 112-59 193-191 193-93 0-173-35-207-108zm606-927h250V0H575v270z"/><glyph glyph-name="uni2048" unicode="⁈" d="M191 270h250V0H191v270zM38 1197c71 95 193 140 325 140 231 0 343-132 343-344 0-159-119-257-197-323-52-44-109-111-109-193v-46H225v44c0 120 52 198 136 272 100 89 185 136 185 242 0 112-59 193-191 193-93 0-173-35-207-108zm899 179l-16-913-166-2-16 915h198zM712 270h250V0H712v270z"/><glyph glyph-name="uni2049" unicode="⁉" d="M564 270h250V0H564v270zm-153 927c71 95 193 140 325 140 231 0 343-132 343-344 0-159-119-257-197-323-52-44-109-111-109-193v-46H598v44c0 120 52 198 136 272 100 89 185 136 185 242 0 112-59 193-191 193-93 0-173-35-207-108zm-95 179l-16-913-166-2-16 915h198zM91 270h250V0H91v270z"/><glyph glyph-name="arrowleft" unicode="←" d="M5 568c144 130 307 262 330 402l156-37c-30-144-117-249-211-339 120 5 248 6 335 6h119c82 0 199-1 306-2h18V445h-18c-135 3-302 3-427 3-61 0-207-2-348-8 95-96 172-200 208-337L321 49C283 198 163 312 5 453v115z"/><glyph glyph-name="arrowup" unicode="↑" d="M554 1396c130-144 262-307 402-330l-37-156c-144 31-250 117-341 212 0-261 3-510 3-826V146c0-115-1-171-6-272H414c4 62 5 105 5 160 0 47-1 104-1 190v904c-94-91-196-165-329-200l-54 152c149 38 263 158 404 316h115z"/><glyph glyph-name="arrowright" unicode="→" d="M1068 567V452C910 311 790 197 752 48l-152 54c36 137 113 241 208 337-141 6-287 8-348 8-125 0-292 0-427-3H15v153h18c107 1 224 2 306 2h119c87 0 215-1 335-6-94 90-181 195-211 339l156 37c23-140 186-272 330-402z"/><glyph glyph-name="arrowdown" unicode="↓" d="M554-92H439C298 66 184 186 35 224l54 152c133-35 235-110 329-201v905c0 86 1 141 1 188 0 55-1 98-5 160l161 2c5-101 6-157 6-272v-150c0-316-3-566-3-827 91 95 197 182 341 213l37-156C816 215 684 52 554-92z"/><glyph glyph-name="arrowboth" unicode="↔" d="M1068 567V452C910 311 790 197 752 48l-152 54c36 137 113 241 208 337-141 6-287 8-348 8H241c96-97 173-201 209-339L298 54C260 203 140 317-18 458v115c144 130 307 262 330 402l156-37c-30-144-116-249-210-339h200c87 0 215-1 335-6-94 90-181 195-211 339l156 37c23-140 186-272 330-402z"/><glyph glyph-name="arrowupdn" unicode="↕" d="M554-92H439C298 66 184 186 35 224l54 152c133-35 235-110 329-201v953c-94-91-196-165-329-200l-54 152c149 38 263 158 404 316h115c130-144 262-307 402-330l-37-156c-144 31-250 117-341 212 0-261 3-510 3-826V184c90 94 195 180 338 210l37-156C816 215 684 52 554-92z"/><glyph glyph-name="uni21C4" unicode="⇄" d="M1088 1208v-115C930 952 810 838 772 689l-152 54c36 137 112 240 207 336-141 6-286 8-347 8-125 0-292 0-427-3H35v153h18c107 1 224 2 306 2h119c87 0 215-1 335-6-94 90-181 196-211 340l156 37c23-140 186-272 330-402zM-21 376c144 130 307 262 330 402l156-37c-30-144-117-250-211-340 120 5 248 7 335 7h119c82 0 199-1 306-2h18V253h-18c-135 3-302 3-427 3-61 0-207-3-348-9 95-96 172-199 208-336l-152-54C257 6 137 120-21 261v115z"/><glyph glyph-name="uni21C5" unicode="⇅" d="M703 966v89c0 115 1 171 6 272l161-1c-4-62-5-105-5-160 0-47 1-103 1-189V73c82 89 68 139 148 251l104-93c-90-125-132-268-273-426H730C601-52 503 152 388 234v-88c0-115-1-171-6-272H221c4 62 5 105 5 160 0 47-1 104-1 190v904c-94-91-59-149-139-261l-138 82c90 125 157 289 298 447h115c129-143 227-348 342-430zm0-2L603 841c-117 90-127 186-218 281 0-261 3-510 3-826v-59l100 122c117-90 127-185 218-280 0 261-3 510-3 826v59z"/><glyph glyph-name="uni21C6" unicode="⇆" d="M1094 376V261C936 120 816 6 778-143L626-89c36 137 112 240 207 336-141 6-286 9-347 9-125 0-292 0-427-3H41v153h18c107 1 224 2 306 2h119c87 0 215-2 335-7-94 90-181 196-211 340l156 37c23-140 186-272 330-402zM-15 1208c144 130 307 262 330 402l156-37c-30-144-117-250-211-340 120 5 248 6 335 6h119c82 0 199-1 306-2h18v-153h-18c-135 3-302 3-427 3-61 0-207-2-348-8 95-96 172-199 208-336l-152-54c-38 149-158 263-316 404v115z"/><glyph glyph-name="uni21C7" unicode="⇇" d="M-25 1208c144 130 307 262 330 402l156-37c-30-144-117-250-211-340 120 5 248 7 335 7h119c82 0 199-1 306-2h18v-153h-18c-135 3-302 3-427 3-61 0-207-2-348-8 95-96 172-200 208-337-30-144-94-249-188-339 120 5 248 6 335 6h119c82 0 199-1 306-2h18V255h-18c-135 3-302 3-427 3-61 0-207-2-348-8 95-96 172-199 208-336l-152-54C258 9 138 123-20 264v115c128 116 252 237 294 361-50 125-160 229-299 353v115z"/><glyph glyph-name="uni21C8" unicode="⇈" d="M860 1396c130-144 162-274 230-433l-104-72c-39 87-54 162-102 231 0-261 3-510 3-826V146c0-115-1-171-6-272H720c4 62 5 105 5 160 0 47-1 104-1 190v904c-38-67-67-156-116-267H506c-36 134-65 219-100 261 0-261 3-510 3-826V146c0-115-1-171-6-272H242c4 62 5 105 5 160 0 47-1 104-1 190v904c-94-91-86-140-166-252l-110 75c90 125 156 287 297 445h115c91-85 149-161 185-228 37 69 93 147 178 228h115z"/><glyph glyph-name="uni21C9" unicode="⇉" d="M1062 1208v-115C915 961 790 865 743 732c49-120 189-236 315-349V268C900 127 780 13 742-136L590-82c36 137 113 240 208 336-141 6-287 8-348 8-125 0-292 0-427-3H5v153h18c107 1 224 2 306 2h119c87 0 215-1 335-6-94 90-181 196-211 340 36 137 135 236 230 332-141 6-287 8-348 8-125 0-292 0-427-3H9v153h18c107 1 224 2 306 2h119c87 0 215-2 335-7-94 90-181 196-211 340l156 37c23-140 186-272 330-402z"/><glyph glyph-name="uni21CA" unicode="⇊" d="M227-193C97-49 22 101-46 260l104 72c39-87 97-183 145-252 0 261-3 511-3 827v150c0 115 1 171 6 272l161-1c-4-62-5-105-5-160 0-47 1-103 1-189V74c38 67 67 156 116 267h102c36-134 65-219 100-261 0 261-3 511-3 827v150c0 115 1 171 6 272l161-1c-4-62-5-105-5-160 0-47 1-103 1-189V74c67 71 68 140 148 252l111-75c-90-125-139-286-280-444H705C614-108 556-33 520 34c-37-69-93-146-178-227H227z"/><glyph glyph-name="uniE0A0" unicode="" d="M416-364H140V0c0 119 26 217 79 292 36 53 92 104 169 154l152 99c60 39 103 85 128 139 26 52 39 122 39 209v329H498l292 342 292-342H873V837c0-128-18-226-53-295-36-68-90-125-161-172l-75-50c-62-41-105-82-128-124-27-47-40-113-40-196v-364zm0 1067L140 525v1071h276V703z"/><glyph glyph-name="uniE0A1" unicode="" d="M582 880V748H76v900h154V880h352zm202-213h158v-900H776L530 352l20-390v-195H392v900h166L804 80l-20 429v158z"/><glyph glyph-name="uniE0A2" unicode="" d="M208 0C97 0 42 47 42 141v640c0 101 47 151 143 151v355c0 91 33 167 99 228 64 58 143 87 237 87s174-29 237-87c66-61 99-137 99-228V932c96 0 143-50 143-151V141c0-94-55-141-166-141H208zm313 1472c-53 0-94-17-127-50-31-33-48-78-48-135V932h350v355c0 57-17 102-47 135-34 33-75 50-128 50zm55-1236v274c45 23 68 60 68 111 0 34-12 63-36 88-25 24-54 36-88 36s-63-12-88-36c-24-25-36-54-36-88 0-51 23-88 68-111V236h112z"/><glyph glyph-name="uniE0B0" unicode="" d="M-78 1820h59L1040 658-20-504h-58v2324z"/><glyph glyph-name="uniE0B1" unicode="" d="M-57 1682l96 95L1060 658 39-461l-96 95L875 658z"/><glyph glyph-name="uniE0B2" unicode="" d="M1138-505h-58L20 658l1060 1162h58V-505z"/><glyph glyph-name="uniE0B3" unicode="" d="M185 658l932-1024-96-95L0 658l1021 1119 96-95z"/><glyph glyph-name="block" unicode="█" d="M-20 1820h1100V-505H-20v2325z"/><glyph glyph-name="uni250A" unicode="┊" d="M613 1591v-316H448v316h165zm0-558V717H448v316h165zm0-558V160H448v315h165zm0-557v-316H448v316h165z"/><glyph glyph-name="uni250B" unicode="┋" d="M660 1591v-316H400v316h260zm0-558V717H400v316h260zm0-557V160H400v316h260zm0-558v-316H400v316h260z"/><glyph glyph-name="uni2506" unicode="┆" d="M613 1510v-421H448v421h165zm0-744V346H448v420h165zm0-743v-421H448V23h165z"/><glyph glyph-name="uni2507" unicode="┇" d="M660 1510v-421H400v421h260zm0-743V346H400v421h260zm0-744v-421H400V23h260z"/><glyph glyph-name="SF110000" unicode="│" d="M613 1820V-505H448v2325h165z"/><glyph glyph-name="uni2503" unicode="┃" d="M660 1820V-505H400v2325h260z"/><glyph glyph-name="uni23B8" unicode="⎸" d="M165 1820V-505H0v2325h165z"/><glyph glyph-name="uni23B9" unicode="⎹" d="M1060 1820V-505H895v2325h165z"/></font>
</defs>
</svg>
