<svg xmlns="http://www.w3.org/2000/svg" width="579.068" height="579.067" viewBox="0 90 579.068 579.067" enable-background="new 0 90 579.068 579.067"><g fill="#fff"><path d="M141.281 353.789v51.495l38.494-25.748zM274.148 316.411v-71.761l-120.548 80.359 53.848 36.023zM425.469 325.009l-120.55-80.359v71.761l66.705 44.621zM153.6 434.064l120.548 80.359v-71.762l-66.7-44.61zM304.919 442.661v71.762l120.55-80.359-53.845-36.013zM289.532 343.138l-54.415 36.398 54.415 36.399 54.419-36.399zM289.532 90c-159.901 0-289.532 129.628-289.532 289.536 0 159.909 129.631 289.531 289.532 289.531 159.909 0 289.536-129.622 289.536-289.531 0-159.908-129.627-289.536-289.536-289.536zm179.023 344.082c0 .678-.048 1.346-.137 2.015l-.122.659c-.08.435-.155.867-.269 1.291-.066.255-.16.498-.24.743-.122.377-.244.754-.394 1.131-.104.253-.233.498-.344.743-.165.349-.334.687-.523 1.027l-.438.706c-.207.321-.419.632-.649.933-.17.235-.344.452-.532.668-.24.282-.494.566-.764.829-.202.208-.4.415-.612.603-.278.253-.574.498-.875.734-.226.179-.453.359-.693.528l-.258.188-163.637 109.093c-2.585 1.723-5.557 2.589-8.537 2.589-2.972 0-5.947-.865-8.533-2.589l-163.637-109.093-.25-.189c-.24-.169-.471-.348-.696-.528-.301-.235-.594-.481-.871-.734-.212-.189-.414-.395-.617-.603-.268-.263-.518-.546-.767-.829-.179-.217-.357-.433-.528-.668-.226-.301-.443-.612-.645-.933-.155-.235-.301-.471-.442-.706-.188-.339-.357-.678-.523-1.027-.118-.245-.235-.49-.344-.743-.151-.377-.278-.754-.395-1.131-.084-.245-.169-.49-.24-.743-.113-.425-.188-.857-.268-1.291l-.122-.659c-.089-.67-.141-1.338-.141-2.015v-109.091c0-.678.051-1.346.141-2.006l.122-.668c.08-.433.155-.867.268-1.29.071-.253.155-.499.24-.744.118-.377.245-.753.395-1.12.108-.255.226-.509.344-.753.165-.349.334-.688.523-1.017.141-.245.286-.481.442-.716.203-.319.419-.63.645-.933.169-.226.349-.452.528-.668.25-.283.499-.566.767-.829.203-.207.405-.414.617-.603.278-.255.57-.499.871-.734.226-.179.457-.357.696-.528l.25-.189 163.638-109.093c5.17-3.447 11.898-3.447 17.07 0l163.633 109.093.258.189c.24.17.466.349.693.528.301.235.597.481.875.734.212.189.41.395.612.603.269.263.524.546.764.829.187.217.362.442.532.668.231.302.442.613.649.933.146.235.301.471.438.716.187.329.357.668.523 1.017.113.245.24.499.344.753.151.367.273.744.394 1.12.08.245.175.49.24.744.114.423.189.857.269 1.29l.122.668c.089.66.137 1.328.137 2.006v109.093h.003zM437.787 405.284v-51.495l-38.489 25.747z"/></g></svg>