<svg xmlns="http://www.w3.org/2000/svg" width="579.068" height="579.067" viewBox="0 90 579.068 579.067" enable-background="new 0 90 579.068 579.067"><g fill="#fff"><path d="M141.28 353.79v51.494l38.495-25.748zM274.148 316.41v-71.76L153.6 325.01l53.848 36.022zM425.47 325.01l-120.55-80.36v71.76l66.704 44.622zM153.6 434.064l120.548 80.36V442.66l-66.7-44.61zM304.92 442.66v71.763l120.55-80.36-53.846-36.012zM289.532 343.138l-54.415 36.398 54.415 36.4 54.42-36.4zM289.532 90C129.632 90 0 219.628 0 379.536c0 159.91 129.63 289.53 289.532 289.53 159.91 0 289.536-129.62 289.536-289.53C579.068 219.628 449.44 90 289.532 90zm179.023 344.082c0 .678-.048 1.346-.137 2.015-.032.217-.084.442-.122.66-.08.434-.155.866-.27 1.29-.065.255-.16.498-.24.743-.12.377-.243.754-.393 1.13-.104.254-.233.5-.344.744-.166.35-.335.687-.524 1.027-.137.236-.293.472-.438.707-.207.32-.42.632-.65.933-.17.235-.343.452-.53.668-.24.282-.495.566-.765.83-.202.207-.4.414-.612.602-.277.253-.573.498-.874.734-.226.18-.453.36-.693.528-.088.058-.17.132-.258.188L298.068 555.973c-2.585 1.723-5.557 2.59-8.537 2.59-2.97 0-5.946-.866-8.532-2.59L117.36 446.88c-.083-.056-.164-.13-.25-.19-.24-.168-.47-.347-.695-.527-.3-.235-.594-.48-.87-.734-.213-.19-.415-.396-.618-.604-.268-.263-.518-.546-.767-.83-.18-.216-.357-.432-.528-.667-.226-.302-.443-.613-.645-.934-.155-.235-.3-.47-.442-.706-.188-.34-.357-.678-.523-1.027-.118-.245-.235-.49-.344-.743-.15-.377-.278-.754-.395-1.13-.084-.246-.17-.49-.24-.744-.113-.425-.188-.857-.268-1.29-.038-.218-.094-.443-.122-.66-.09-.67-.14-1.338-.14-2.015V324.99c0-.678.05-1.346.14-2.006.028-.226.084-.443.122-.668.08-.433.155-.867.268-1.29.07-.253.155-.5.24-.744.118-.377.245-.753.395-1.12.108-.255.226-.51.344-.753.165-.35.334-.69.523-1.018.14-.245.286-.48.442-.716.203-.32.42-.63.645-.933.17-.226.35-.452.528-.668.25-.283.5-.566.767-.83.203-.206.405-.413.617-.602.278-.255.57-.5.87-.734.227-.18.458-.358.697-.53.085-.055.166-.13.25-.188L281 203.1c5.17-3.448 11.897-3.448 17.07 0L461.7 312.19c.09.056.17.13.258.19.24.17.466.348.693.527.3.234.597.48.875.733.212.19.41.395.612.603.27.263.524.546.764.83.187.216.362.44.532.667.23.302.442.613.65.933.145.235.3.47.437.716.187.33.357.668.523 1.017.113.244.24.498.344.752.15.367.273.744.394 1.12.08.245.175.49.24.744.114.423.19.857.27 1.29.036.226.088.443.12.668.09.66.138 1.328.138 2.006v109.093h.003zM437.787 405.284V353.79l-38.49 25.746z"/></g></svg>