<svg xmlns="http://www.w3.org/2000/svg" width="579.068" height="579.067" viewBox="0 90 579.068 579.067"><g fill="#FFF"><path d="M141.281 353.789v51.495l38.494-25.748zM274.148 316.411V244.65L153.6 325.009l53.848 36.023zM425.469 325.009l-120.55-80.359v71.761l66.705 44.621zM153.6 434.064l120.548 80.359v-71.762l-66.7-44.61zM304.919 442.661v71.762l120.55-80.359-53.845-36.013zM289.532 343.138l-54.415 36.398 54.415 36.399 54.419-36.399z"/><path d="M289.532 90C129.631 90 0 219.628 0 379.536c0 159.909 129.631 289.531 289.532 289.531 159.909 0 289.536-129.622 289.536-289.531C579.068 219.628 449.441 90 289.532 90zm179.023 344.082c0 .678-.048 1.346-.137 2.015-.032.217-.084.442-.122.659-.08.435-.155.867-.269 1.291-.066.255-.16.498-.24.743-.122.377-.244.754-.394 1.131-.104.253-.233.498-.344.743-.165.349-.334.687-.523 1.027-.137.235-.293.471-.438.706-.207.321-.419.632-.649.933-.17.235-.344.452-.532.668-.24.282-.494.566-.764.829-.202.208-.4.415-.612.603-.278.253-.574.498-.875.734-.226.179-.453.359-.693.528-.088.058-.169.132-.258.188L298.068 555.973a15.372 15.372 0 0 1-8.537 2.589c-2.972 0-5.947-.865-8.533-2.589L117.361 446.88c-.084-.056-.165-.131-.25-.189-.24-.169-.471-.348-.696-.528a14.8 14.8 0 0 1-.871-.734 12.484 12.484 0 0 1-.617-.603 15.45 15.45 0 0 1-.767-.829 13.861 13.861 0 0 1-.528-.668 13.788 13.788 0 0 1-.645-.933 19.49 19.49 0 0 1-.442-.706 18.344 18.344 0 0 1-.523-1.027c-.118-.245-.235-.49-.344-.743a14.91 14.91 0 0 1-.395-1.131c-.084-.245-.169-.49-.24-.743-.113-.425-.188-.857-.268-1.291-.038-.217-.094-.442-.122-.659a15.252 15.252 0 0 1-.141-2.015V324.99c0-.678.051-1.346.141-2.006.028-.226.084-.443.122-.668.08-.433.155-.867.268-1.29.071-.253.155-.499.24-.744.118-.377.245-.753.395-1.12.108-.255.226-.509.344-.753.165-.349.334-.688.523-1.017.141-.245.286-.481.442-.716a15.311 15.311 0 0 1 1.173-1.601c.25-.283.499-.566.767-.829.203-.207.405-.414.617-.603.278-.255.57-.499.871-.734.226-.179.457-.357.696-.528.084-.056.165-.132.25-.189l163.638-109.093a15.381 15.381 0 0 1 17.07 0l163.633 109.093c.089.056.17.131.258.189.24.17.466.349.693.528.301.235.597.481.875.734.212.189.41.395.612.603.269.263.524.546.764.829.187.217.362.442.532.668.231.302.442.613.649.933.146.235.301.471.438.716.187.329.357.668.523 1.017.113.245.24.499.344.753.151.367.273.744.394 1.12.08.245.175.49.24.744.114.423.189.857.269 1.29.037.226.089.443.122.668.089.66.137 1.328.137 2.006v109.093h.003z"/><path d="M437.787 405.284v-51.495l-38.489 25.747z"/></g></svg>