<svg xmlns="http://www.w3.org/2000/svg" width="498.073" height="485.775" viewBox="16.45 37.44 498.073 485.775" enable-background="new 16.45 37.44 498.073 485.775"><path fill="#fff" d="M265.47 37.44c-137.51 0-249.02 111.497-249.02 249.052 0 110.018 71.35 203.36 170.319 236.295 12.452 2.284 16.997-5.404 16.997-12.004 0-5.912-.216-21.573-.336-42.356-69.274 15.05-83.891-33.383-83.891-33.383-11.324-28.769-27.65-36.429-27.65-36.429-22.611-15.452 1.711-15.138 1.711-15.138 24.992 1.761 38.145 25.664 38.145 25.664 22.215 38.057 58.286 27.068 72.476 20.693 2.263-16.094 8.696-27.068 15.811-33.293-55.3-6.285-113.436-27.65-113.436-123.082 0-27.187 9.703-49.417 25.634-66.826-2.561-6.3-11.107-31.62 2.442-65.907 0 0 20.91-6.696 68.483 25.53 19.864-5.524 41.168-8.286 62.347-8.382 21.148.096 42.454 2.859 62.347 8.382 47.545-32.226 68.416-25.53 68.416-25.53 13.587 34.287 5.039 59.607 2.478 65.907 15.961 17.409 25.598 39.639 25.598 66.826 0 95.67-58.226 116.722-113.706 122.888 8.942 7.688 16.907 22.888 16.907 46.118 0 33.293-.306 60.153-.306 68.318 0 6.66 4.486 14.408 17.124 11.975 98.873-32.996 170.163-126.277 170.163-236.266 0-137.555-111.511-249.052-249.053-249.052z"/></svg>