<svg xmlns="http://www.w3.org/2000/svg" width="498.073" height="485.775" viewBox="16.45 37.44 498.073 485.775"><path fill="#FFF" d="M265.47 37.44c-137.51 0-249.02 111.497-249.02 249.052 0 110.018 71.35 203.36 170.32 236.295 12.45 2.284 16.996-5.404 16.996-12.004 0-5.912-.216-21.573-.336-42.356-69.274 15.05-83.89-33.383-83.89-33.383-11.325-28.77-27.65-36.43-27.65-36.43-22.612-15.45 1.71-15.137 1.71-15.137 24.992 1.76 38.145 25.664 38.145 25.664 22.215 38.058 58.286 27.07 72.476 20.694 2.264-16.094 8.697-27.068 15.812-33.293-55.3-6.284-113.436-27.65-113.436-123.08 0-27.188 9.703-49.418 25.634-66.827-2.56-6.3-11.107-31.62 2.442-65.907 0 0 20.91-6.696 68.483 25.53 19.864-5.524 41.168-8.286 62.347-8.382 21.148.096 42.454 2.86 62.347 8.382 47.544-32.226 68.415-25.53 68.415-25.53 13.587 34.287 5.04 59.607 2.478 65.907 15.96 17.41 25.598 39.64 25.598 66.826 0 95.67-58.225 116.72-113.705 122.887 8.942 7.688 16.907 22.888 16.907 46.118 0 33.293-.306 60.153-.306 68.318 0 6.66 4.486 14.408 17.124 11.975 98.873-32.996 170.163-126.277 170.163-236.266 0-137.555-111.51-249.052-249.053-249.052z"/></svg>