<svg xmlns="http://www.w3.org/2000/svg" width="600" height="500" version="1"><path style="marker:none" color="#000" fill="#fff" fill-rule="evenodd" overflow="visible" d="M0 0h600v500H0z"/><path d="M400 77.627v114.75l-49.875-28.688-49.875-28.687 49.875-28.688L400 77.627z" style="marker:none" color="#000" fill="#ff7f00" stroke="#000" stroke-width=".5" overflow="visible"/><path d="M200.25 77.627l49.875 28.687L300 135.002l-49.875 28.687-49.875 28.688V77.627z" style="marker:none" color="#000" fill="#ff007f" stroke="#000" stroke-width=".5" overflow="visible"/><path d="M400.25 192.627l49.875 28.687L500 250.002l-49.875 28.687-49.875 28.688v-114.75z" style="marker:none" color="#000" fill="#7fff00" stroke="#000" stroke-width=".5" overflow="visible"/><path d="M200 192.627v114.75l-49.875-28.688-49.875-28.687 49.875-28.688L200 192.627z" style="marker:none" color="#000" fill="#7f00ff" stroke="#000" stroke-width=".5" overflow="visible"/><path d="M400 307.627v114.75l-49.875-28.688-49.875-28.687 49.875-28.688L400 307.627z" style="marker:none" color="#000" fill="#00ff7f" stroke="#000" stroke-width=".5" overflow="visible"/><path d="M200.25 307.627l49.875 28.687L300 365.002l-49.875 28.687-49.875 28.688v-114.75z" style="marker:none" color="#000" fill="#007fff" stroke="#000" stroke-width=".5" overflow="visible"/><path d="M358.696 150.627l-3.571-1.965-110.357-.089-4.108 2.858-55.625 96.428.09 3.393 54.285 97.41 2.321.715 3.215 2.054 110.357-.268 4.196-2.054 55.536-96.428v-5.715l-56.34-96.34z" fill="#fff" fill-rule="evenodd"/><path transform="matrix(.41814 0 0 .417 -476.414 -108.417)" d="M2063.578 978.304h-411.815l102.954-178.321L1857.67 621.66l102.954 178.322 102.954 178.32z" style="marker:none" color="#000" fill="#fff" stroke="#000" overflow="visible"/><path d="M400.21 192.413L200.136 307.491M400.21 307.49L200.136 192.414" fill="none" stroke="#000" stroke-width=".5"/><path d="M300.125 135.162v229.78" style="marker:none" color="#000" fill="none" stroke="#000" stroke-width=".5" overflow="visible"/><path style="marker:none" d="M2063.578 978.304h-411.815l102.954-178.321L1857.67 621.66l102.954 178.322 102.954 178.32z" transform="matrix(.27857 0 0 -.27961 -217.374 623.683)" color="#000" fill="#0ff" stroke="#000" overflow="visible"/><path style="marker:none" d="M2063.578 978.304h-411.815l102.954-178.321L1857.67 621.66l102.954 178.322 102.954 178.32z" transform="matrix(.27857 0 0 .27961 -102.374 76.323)" color="#000" fill="#0f0" stroke="#000" overflow="visible"/><path style="marker:none" d="M2063.578 978.304h-411.815l102.954-178.321L1857.67 621.66l102.954 178.322 102.954 178.32z" transform="matrix(.27857 0 0 .27961 -332.374 76.323)" color="#000" fill="#00f" stroke="#000" overflow="visible"/><path style="marker:none" d="M2063.578 978.304h-411.815l102.954-178.321L1857.67 621.66l102.954 178.322 102.954 178.32z" transform="matrix(.27857 0 0 .27961 -217.374 -123.677)" color="#000" fill="red" stroke="#000" overflow="visible"/><path transform="matrix(.27857 0 0 -.27961 -102.374 423.683)" d="M2063.578 978.304h-411.815l102.954-178.321L1857.67 621.66l102.954 178.322 102.954 178.32z" style="marker:none" color="#000" fill="#ff0" stroke="#000" overflow="visible"/><path transform="matrix(.27857 0 0 -.27961 -332.374 423.683)" d="M2063.578 978.304h-411.815l102.954-178.321L1857.67 621.66l102.954 178.322 102.954 178.32z" style="marker:none" color="#000" fill="#f0f" stroke="#000" overflow="visible"/><g font-size="15" font-weight="400" font-family="sans"><text style="text-align:start" x="2357.474" y="2346.917" transform="translate(-2307.54 -2092.093)"><tspan x="2357.474" y="2346.917">Violet</tspan></text><text style="text-align:start" x="2482.562" y="2531.917" transform="translate(-2307.54 -2092.093)"><tspan x="2482.562" y="2531.917">Azure</tspan></text><text y="2161.917" x="2486.361" style="text-align:start" transform="translate(-2307.54 -2092.093)"><tspan y="2161.917" x="2486.361">Rose</tspan></text><text style="line-height:125%" x="2736.883" y="2158.936" text-anchor="end" transform="translate(-2307.54 -2092.093)"><tspan x="2736.883" y="2158.936">Orange</tspan></text><text style="text-indent:0;text-align:center;line-height:125%;text-transform:none;marker:none" x="2843.927" y="2333.16" text-anchor="middle" color="#000" overflow="visible" transform="translate(-2307.54 -2092.093)"><tspan x="2843.927" y="2333.16">Chartreuse</tspan><tspan x="2843.927" y="2351.91">Green</tspan></text><text y="2533.16" x="2730.284" style="line-height:125%" text-anchor="end" transform="translate(-2307.54 -2092.093)"><tspan y="2533.16" x="2730.284">Spring</tspan><tspan y="2551.91" x="2730.284">Green</tspan></text></g><g font-size="18" font-weight="700" font-family="sans"><text y="2131.882" x="2608.237" style="text-align:center;line-height:125%" text-anchor="middle" transform="translate(-2307.54 -2092.093)"><tspan y="2131.882" x="2608.237">Red</tspan></text><text style="text-align:center;line-height:125%" x="2603.712" y="2563.305" text-anchor="middle" transform="translate(-2307.54 -2092.093)"><tspan x="2603.712" y="2563.305">Cyan</tspan></text><text style="line-height:125%" x="2839.59" y="2241.882" text-anchor="end" transform="translate(-2307.54 -2092.093)"><tspan x="2839.59" y="2241.882">Yellow</tspan></text><text y="2451.873" x="2838.71" style="text-indent:0;line-height:125%;text-transform:none;marker:none" text-anchor="end" color="#000" overflow="visible" transform="translate(-2307.54 -2092.093)"><tspan y="2451.873" x="2838.71">Green</tspan></text><text y="2238.305" x="2356.265" style="text-align:start;line-height:125%" transform="translate(-2307.54 -2092.093)"><tspan y="2238.305" x="2356.265">Magenta</tspan></text><text style="text-align:start;line-height:125%" x="2386.221" y="2451.882" transform="translate(-2307.54 -2092.093)"><tspan x="2386.221" y="2451.882">Blue</tspan></text></g></svg>