<svg width="127.25mm" height="127.25mm" viewBox="0 0 12725 12725" preserveAspectRatio="xMidYMid" fill-rule="evenodd" clip-path="url(#a)" stroke-width="28.222" stroke-linejoin="round" xmlns="http://www.w3.org/2000/svg"><defs class="ClipPathGroup"><clipPath id="a"><path d="M0 0h12725v12725H0z"/></clipPath></defs><g class="SlideGroup Slide Page Group" clip-path="url(#a)"><path d="M8006 12497c-1129 302-2158 302-3287 0-1129-303-2020-817-2847-1644-826-827-1341-1718-1643-2847-303-1129-303-2158 0-3287 302-1129 817-2020 1643-2847 827-827 1718-1341 2847-1644 1129-302 2158-302 3287 0 1130 303 2021 817 2847 1644 827 827 1341 1718 1644 2847 302 1129 302 2158 0 3287-303 1129-817 2020-1644 2847-826 827-1717 1341-2847 1644z" class="com.sun.star.drawing.EllipseShape"/><path fill="#FFF" d="M7733 11476c-941 252-1798 252-2739 0s-1684-681-2373-1370-1117-1431-1369-2372-252-1799 0-2740 680-1683 1369-2372 1432-1118 2373-1370 1798-252 2739 0 1683 681 2372 1370 1118 1431 1370 2372 252 1799 0 2740-681 1683-1370 2372-1431 1118-2372 1370z" class="com.sun.star.drawing.EllipseShape"/><path fill="#FF0" d="M6363 6364l-461-5272c324-28 599-28 923 0l-462 5272z" class="com.sun.star.drawing.EllipseShape"/><g class="com.sun.star.drawing.RectangleShape"><path fill="#FF0" d="M6095 545V280h530v530h-530V545z"/><path fill="none" stroke="#FFF" stroke-width="71" d="M6095 545V280h530v530h-530V545z"/></g><path fill="#F00" d="M6095 545V280h177v530h-177V545z" class="com.sun.star.drawing.RectangleShape"/><path fill="#0F0" d="M6272 545V280h177v530h-177V545z" class="com.sun.star.drawing.RectangleShape"/><path d="M6448 545V280h177v530h-177V545z" class="com.sun.star.drawing.RectangleShape"/><path fill="#00F" d="M6363 6364l462 5272c-324 28-599 28-923 0l461-5272z" class="com.sun.star.drawing.EllipseShape"/><g class="com.sun.star.drawing.RectangleShape"><path fill="#00F" d="M6097 12186v-265h530v530h-530v-265z"/><path fill="none" stroke="#FFF" stroke-width="71" d="M6097 12186v-265h530v530h-530v-265z"/></g><path d="M6097 12186v-265h177v530h-177v-265z" class="com.sun.star.drawing.RectangleShape"/><path d="M6273 12186v-265h177v530h-177v-265z" class="com.sun.star.drawing.RectangleShape"/><path fill="#00F" d="M6450 12186v-265h177v530h-177v-265z" class="com.sun.star.drawing.RectangleShape"/><path fill="#FFD500" d="M6363 6364l462-5272c323 28 594 76 908 160L6363 6364z" class="com.sun.star.drawing.EllipseShape"/><g class="com.sun.star.drawing.RectangleShape"><path fill="#FFD500" d="M7107 633V368h530v530h-530V633z"/><path fill="none" stroke="#FFF" stroke-width="71" d="M7107 633V368h530v530h-530V633z"/></g><path fill="#F00" d="M7108 634V369h177v530h-177V634z" class="com.sun.star.drawing.RectangleShape"/><path fill="#00D500" d="M7284 634V369h177v530h-177V634z" class="com.sun.star.drawing.RectangleShape"/><path d="M7460 634V369h177v530h-177V634z" class="com.sun.star.drawing.RectangleShape"/><path fill="#002AFF" d="M6363 6364l-461 5272c-323-28-595-76-908-160l1369-5112z" class="com.sun.star.drawing.EllipseShape"/><g class="com.sun.star.drawing.RectangleShape"><path fill="#002AFF" d="M5086 12098v-265h530v530h-530v-265z"/><path fill="none" stroke="#FFF" stroke-width="71" d="M5086 12098v-265h530v530h-530v-265z"/></g><path d="M5086 12098v-265h177v530h-177v-265z" class="com.sun.star.drawing.RectangleShape"/><path fill="#002A00" d="M5263 12098v-265h177v530h-177v-265z" class="com.sun.star.drawing.RectangleShape"/><path fill="#00F" d="M5439 12098v-265h177v530h-177v-265z" class="com.sun.star.drawing.RectangleShape"/><path fill="#FA0" d="M6363 6366l1370-5112c314 84 573 179 867 316L6363 6366z" class="com.sun.star.drawing.EllipseShape"/><g class="com.sun.star.drawing.RectangleShape"><path fill="#FA0" d="M8088 896V631h530v530h-530V896z"/><path fill="none" stroke="#FFF" stroke-width="71" d="M8088 896V631h530v530h-530V896z"/></g><path fill="#F00" d="M8088 896V631h177v530h-177V896z" class="com.sun.star.drawing.RectangleShape"/><path fill="#0A0" d="M8265 896V631h177v530h-177V896z" class="com.sun.star.drawing.RectangleShape"/><path d="M8441 896V631h177v530h-177V896z" class="com.sun.star.drawing.RectangleShape"/><path fill="#05F" d="M6363 6366l-1369 5112c-314-84-573-179-867-316l2236-4796z" class="com.sun.star.drawing.EllipseShape"/><g class="com.sun.star.drawing.RectangleShape"><path fill="#05F" d="M4105 11835v-265h530v530h-530v-265z"/><path fill="none" stroke="#FFF" stroke-width="71" d="M4105 11835v-265h530v530h-530v-265z"/></g><path d="M4106 11835v-265h177v530h-177v-265z" class="com.sun.star.drawing.RectangleShape"/><path fill="#050" d="M4282 11835v-265h177v530h-177v-265z" class="com.sun.star.drawing.RectangleShape"/><path fill="#00F" d="M4458 11835v-265h177v530h-177v-265z" class="com.sun.star.drawing.RectangleShape"/><path fill="#FF8000" d="M6363 6366l2237-4796c294 137 533 275 799 461L6363 6366z" class="com.sun.star.drawing.EllipseShape"/><g class="com.sun.star.drawing.RectangleShape"><path fill="#FF8000" d="M9007 1324v-265h530v530h-530v-265z"/><path fill="none" stroke="#FFF" stroke-width="71" d="M9007 1324v-265h530v530h-530v-265z"/></g><path fill="#F00" d="M9007 1324v-265h177v530h-177v-265z" class="com.sun.star.drawing.RectangleShape"/><path fill="green" d="M9184 1324v-265h177v530h-177v-265z" class="com.sun.star.drawing.RectangleShape"/><path d="M9360 1324v-265h177v530h-177v-265z" class="com.sun.star.drawing.RectangleShape"/><path fill="#007FFF" d="M6363 6366l-2236 4796c-294-137-533-275-799-461l3035-4335z" class="com.sun.star.drawing.EllipseShape"/><g class="com.sun.star.drawing.RectangleShape"><path fill="#007FFF" d="M3186 11407v-265h530v530h-530v-265z"/><path fill="none" stroke="#FFF" stroke-width="71" d="M3186 11407v-265h530v530h-530v-265z"/></g><path d="M3187 11407v-265h177v530h-177v-265z" class="com.sun.star.drawing.RectangleShape"/><path fill="#007F00" d="M3363 11407v-265h177v530h-177v-265z" class="com.sun.star.drawing.RectangleShape"/><path fill="#00F" d="M3539 11407v-265h177v530h-177v-265z" class="com.sun.star.drawing.RectangleShape"/><path fill="#F50" d="M6363 6364l3036-4335c266 186 477 363 706 593L6363 6364z" class="com.sun.star.drawing.EllipseShape"/><g class="com.sun.star.drawing.RectangleShape"><path fill="#F50" d="M9838 1906v-265h530v530h-530v-265z"/><path fill="none" stroke="#FFF" stroke-width="71" d="M9838 1906v-265h530v530h-530v-265z"/></g><path fill="#F00" d="M9838 1906v-265h177v530h-177v-265z" class="com.sun.star.drawing.RectangleShape"/><path fill="#050" d="M10015 1906v-265h177v530h-177v-265z" class="com.sun.star.drawing.RectangleShape"/><path d="M10191 1906v-265h177v530h-177v-265z" class="com.sun.star.drawing.RectangleShape"/><path fill="#0AF" d="M6363 6366l-3035 4335c-266-186-477-363-707-593l3742-3742z" class="com.sun.star.drawing.EllipseShape"/><g class="com.sun.star.drawing.RectangleShape"><path fill="#0AF" d="M2352 10824v-265h530v530h-530v-265z"/><path fill="none" stroke="#FFF" stroke-width="71" d="M2352 10824v-265h530v530h-530v-265z"/></g><path d="M2352 10824v-265h177v530h-177v-265z" class="com.sun.star.drawing.RectangleShape"/><path fill="#0A0" d="M2529 10824v-265h177v530h-177v-265z" class="com.sun.star.drawing.RectangleShape"/><path fill="#00F" d="M2705 10824v-265h177v530h-177v-265z" class="com.sun.star.drawing.RectangleShape"/><path fill="#FF2B00" d="M6361 6366l3742-3742c230 230 407 441 593 707L6361 6366z" class="com.sun.star.drawing.EllipseShape"/><g class="com.sun.star.drawing.RectangleShape"><path fill="#FF2B00" d="M10552 2622v-265h530v530h-530v-265z"/><path fill="none" stroke="#FFF" stroke-width="71" d="M10552 2622v-265h530v530h-530v-265z"/></g><path fill="#F00" d="M10553 2622v-265h177v530h-177v-265z" class="com.sun.star.drawing.RectangleShape"/><path fill="#002B00" d="M10729 2622v-265h177v530h-177v-265z" class="com.sun.star.drawing.RectangleShape"/><path d="M10905 2622v-265h177v530h-177v-265z" class="com.sun.star.drawing.RectangleShape"/><path fill="#00D4FF" d="M6361 6364l-3742 3742c-229-230-406-441-593-707l4335-3035z" class="com.sun.star.drawing.EllipseShape"/><g class="com.sun.star.drawing.RectangleShape"><path fill="#00D4FF" d="M1636 10105v-265h530v530h-530v-265z"/><path fill="none" stroke="#FFF" stroke-width="71" d="M1636 10105v-265h530v530h-530v-265z"/></g><path d="M1636 10105v-265h177v530h-177v-265z" class="com.sun.star.drawing.RectangleShape"/><path fill="#00D400" d="M1813 10105v-265h177v530h-177v-265z" class="com.sun.star.drawing.RectangleShape"/><path fill="#00F" d="M1989 10105v-265h177v530h-177v-265z" class="com.sun.star.drawing.RectangleShape"/><path fill="#F00" d="M6361 6364l4335-3035c187 266 324 504 462 799L6361 6364z" class="com.sun.star.drawing.EllipseShape"/><g class="com.sun.star.drawing.RectangleShape"><path fill="#F00" d="M11134 3453v-265h530v530h-530v-265z"/><path fill="none" stroke="#FFF" stroke-width="71" d="M11134 3453v-265h530v530h-530v-265z"/></g><path fill="#F00" d="M11135 3453v-265h177v530h-177v-265z" class="com.sun.star.drawing.RectangleShape"/><path d="M11311 3453v-265h177v530h-177v-265z" class="com.sun.star.drawing.RectangleShape"/><path d="M11487 3453v-265h177v530h-177v-265z" class="com.sun.star.drawing.RectangleShape"/><path fill="#0FF" d="M6361 6364L2026 9399c-186-266-324-504-461-798l4796-2237z" class="com.sun.star.drawing.EllipseShape"/><g class="com.sun.star.drawing.RectangleShape"><path fill="#0FF" d="M1054 9274v-265h530v530h-530v-265z"/><path fill="none" stroke="#FFF" stroke-width="71" d="M1054 9274v-265h530v530h-530v-265z"/></g><path d="M1054 9274v-265h177v530h-177v-265z" class="com.sun.star.drawing.RectangleShape"/><path fill="#0F0" d="M1230 9274v-265h177v530h-177v-265z" class="com.sun.star.drawing.RectangleShape"/><path fill="#00F" d="M1407 9274v-265h177v530h-177v-265z" class="com.sun.star.drawing.RectangleShape"/><path fill="#FF002A" d="M6361 6364l4797-2236c137 294 231 553 315 866L6361 6364z" class="com.sun.star.drawing.EllipseShape"/><g class="com.sun.star.drawing.RectangleShape"><path fill="#FF002A" d="M11565 4372v-265h530v530h-530v-265z"/><path fill="none" stroke="#FFF" stroke-width="71" d="M11565 4372v-265h530v530h-530v-265z"/></g><path fill="#F00" d="M11565 4372v-265h177v530h-177v-265z" class="com.sun.star.drawing.RectangleShape"/><path d="M11741 4372v-265h177v530h-177v-265z" class="com.sun.star.drawing.RectangleShape"/><path fill="#00002A" d="M11918 4372v-265h177v530h-177v-265z" class="com.sun.star.drawing.RectangleShape"/><path fill="#00FFD5" d="M6361 6364L1565 8601c-137-295-231-554-315-867l5111-1370z" class="com.sun.star.drawing.EllipseShape"/><g class="com.sun.star.drawing.RectangleShape"><path fill="#00FFD5" d="M625 8355v-265h530v530H625v-265z"/><path fill="none" stroke="#FFF" stroke-width="71" d="M625 8355v-265h530v530H625v-265z"/></g><path d="M625 8355v-265h177v530H625v-265z" class="com.sun.star.drawing.RectangleShape"/><path fill="#0F0" d="M802 8355v-265h177v530H802v-265z" class="com.sun.star.drawing.RectangleShape"/><path fill="#0000D5" d="M978 8355v-265h177v530H978v-265z" class="com.sun.star.drawing.RectangleShape"/><path fill="#F05" d="M6361 6364l5112-1370c84 314 132 585 160 909l-5272 461z" class="com.sun.star.drawing.EllipseShape"/><g class="com.sun.star.drawing.RectangleShape"><path fill="#F05" d="M11828 5353v-265h530v530h-530v-265z"/><path fill="none" stroke="#FFF" stroke-width="71" d="M11828 5353v-265h530v530h-530v-265z"/></g><path fill="#F00" d="M11828 5353v-265h177v530h-177v-265z" class="com.sun.star.drawing.RectangleShape"/><path d="M12004 5353v-265h177v530h-177v-265z" class="com.sun.star.drawing.RectangleShape"/><path fill="#005" d="M12181 5353v-265h177v530h-177v-265z" class="com.sun.star.drawing.RectangleShape"/><path fill="#0FA" d="M6361 6364L1250 7734c-84-314-132-585-161-909l5272-461z" class="com.sun.star.drawing.EllipseShape"/><g class="com.sun.star.drawing.RectangleShape"><path fill="#0FA" d="M364 7374v-265h530v530H364v-265z"/><path fill="none" stroke="#FFF" stroke-width="71" d="M364 7374v-265h530v530H364v-265z"/></g><path d="M364 7374v-265h177v530H364v-265z" class="com.sun.star.drawing.RectangleShape"/><path fill="#0F0" d="M541 7374v-265h177v530H541v-265z" class="com.sun.star.drawing.RectangleShape"/><path fill="#00A" d="M717 7374v-265h177v530H717v-265z" class="com.sun.star.drawing.RectangleShape"/><path fill="#FF007F" d="M6363 6364l5272-461c29 323 29 599 0 922l-5272-461z" class="com.sun.star.drawing.EllipseShape"/><g class="com.sun.star.drawing.RectangleShape"><path fill="#FF007F" d="M11918 6364v-265h530v530h-530v-265z"/><path fill="none" stroke="#FFF" stroke-width="71" d="M11918 6364v-265h530v530h-530v-265z"/></g><path fill="#F00" d="M11918 6364v-265h177v530h-177v-265z" class="com.sun.star.drawing.RectangleShape"/><path d="M12094 6364v-265h177v530h-177v-265z" class="com.sun.star.drawing.RectangleShape"/><path fill="#00007F" d="M12271 6364v-265h177v530h-177v-265z" class="com.sun.star.drawing.RectangleShape"/><path fill="#00FF80" d="M6363 6364l-5272 461c-28-323-28-599 0-922l5272 461z" class="com.sun.star.drawing.EllipseShape"/><g class="com.sun.star.drawing.RectangleShape"><path fill="#00FF80" d="M276 6364v-265h530v530H276v-265z"/><path fill="none" stroke="#FFF" stroke-width="71" d="M276 6364v-265h530v530H276v-265z"/></g><path d="M276 6364v-265h177v530H276v-265z" class="com.sun.star.drawing.RectangleShape"/><path fill="#0F0" d="M453 6364v-265h177v530H453v-265z" class="com.sun.star.drawing.RectangleShape"/><path fill="navy" d="M629 6364v-265h177v530H629v-265z" class="com.sun.star.drawing.RectangleShape"/><path fill="#F0A" d="M6363 6364l5272 461c-28 324-76 595-160 909L6363 6364z" class="com.sun.star.drawing.EllipseShape"/><g class="com.sun.star.drawing.RectangleShape"><path fill="#F0A" d="M11828 7374v-265h530v530h-530v-265z"/><path fill="none" stroke="#FFF" stroke-width="71" d="M11828 7374v-265h530v530h-530v-265z"/></g><path fill="#F00" d="M11828 7374v-265h177v530h-177v-265z" class="com.sun.star.drawing.RectangleShape"/><path d="M12004 7374v-265h177v530h-177v-265z" class="com.sun.star.drawing.RectangleShape"/><path fill="#00A" d="M12181 7374v-265h177v530h-177v-265z" class="com.sun.star.drawing.RectangleShape"/><path fill="#0F5" d="M6361 6364l-5272-461c29-324 77-595 161-909l5111 1370z" class="com.sun.star.drawing.EllipseShape"/><g class="com.sun.star.drawing.RectangleShape"><path fill="#0F5" d="M364 5353v-265h530v530H364v-265z"/><path fill="none" stroke="#FFF" stroke-width="71" d="M364 5353v-265h530v530H364v-265z"/></g><path d="M364 5353v-265h177v530H364v-265z" class="com.sun.star.drawing.RectangleShape"/><path fill="#0F0" d="M541 5353v-265h177v530H541v-265z" class="com.sun.star.drawing.RectangleShape"/><path fill="#005" d="M717 5353v-265h177v530H717v-265z" class="com.sun.star.drawing.RectangleShape"/><path fill="#FF00D4" d="M6363 6364l5112 1370c-84 313-178 572-315 867L6363 6364z" class="com.sun.star.drawing.EllipseShape"/><g class="com.sun.star.drawing.RectangleShape"><path fill="#FF00D4" d="M11567 8355v-265h530v530h-530v-265z"/><path fill="none" stroke="#FFF" stroke-width="71" d="M11567 8355v-265h530v530h-530v-265z"/></g><path fill="#F00" d="M11567 8355v-265h177v530h-177v-265z" class="com.sun.star.drawing.RectangleShape"/><path d="M11743 8355v-265h177v530h-177v-265z" class="com.sun.star.drawing.RectangleShape"/><path fill="#0000D4" d="M11920 8355v-265h177v530h-177v-265z" class="com.sun.star.drawing.RectangleShape"/><path fill="#00FF2B" d="M6363 6364L1252 4994c84-313 178-572 315-866l4796 2236z" class="com.sun.star.drawing.EllipseShape"/><g class="com.sun.star.drawing.RectangleShape"><path fill="#00FF2B" d="M627 4372v-265h530v530H627v-265z"/><path fill="none" stroke="#FFF" stroke-width="71" d="M627 4372v-265h530v530H627v-265z"/></g><path d="M627 4372v-265h177v530H627v-265z" class="com.sun.star.drawing.RectangleShape"/><path fill="#0F0" d="M804 4372v-265h177v530H804v-265z" class="com.sun.star.drawing.RectangleShape"/><path fill="#00002B" d="M980 4372v-265h177v530H980v-265z" class="com.sun.star.drawing.RectangleShape"/><path fill="#F0F" d="M6363 6364l4797 2237c-138 294-275 532-462 798L6363 6364z" class="com.sun.star.drawing.EllipseShape"/><g class="com.sun.star.drawing.RectangleShape"><path fill="#F0F" d="M11138 9274v-265h530v530h-530v-265z"/><path fill="none" stroke="#FFF" stroke-width="71" d="M11138 9274v-265h530v530h-530v-265z"/></g><path fill="#F00" d="M11138 9274v-265h177v530h-177v-265z" class="com.sun.star.drawing.RectangleShape"/><path d="M11315 9274v-265h177v530h-177v-265z" class="com.sun.star.drawing.RectangleShape"/><path fill="#00F" d="M11491 9274v-265h177v530h-177v-265z" class="com.sun.star.drawing.RectangleShape"/><path fill="#0F0" d="M6363 6364L1567 4128c137-295 275-533 461-799l4335 3035z" class="com.sun.star.drawing.EllipseShape"/><g class="com.sun.star.drawing.RectangleShape"><path fill="#0F0" d="M1056 3453v-265h530v530h-530v-265z"/><path fill="none" stroke="#FFF" stroke-width="71" d="M1056 3453v-265h530v530h-530v-265z"/></g><path d="M1056 3453v-265h177v530h-177v-265z" class="com.sun.star.drawing.RectangleShape"/><path fill="#0F0" d="M1232 3453v-265h177v530h-177v-265z" class="com.sun.star.drawing.RectangleShape"/><path d="M1409 3453v-265h177v530h-177v-265z" class="com.sun.star.drawing.RectangleShape"/><path fill="#D500FF" d="M6363 6364l4335 3035c-186 266-363 477-593 707L6363 6364z" class="com.sun.star.drawing.EllipseShape"/><g class="com.sun.star.drawing.RectangleShape"><path fill="#D500FF" d="M10556 10105v-265h530v530h-530v-265z"/><path fill="none" stroke="#FFF" stroke-width="71" d="M10556 10105v-265h530v530h-530v-265z"/></g><path fill="#D50000" d="M10556 10105v-265h177v530h-177v-265z" class="com.sun.star.drawing.RectangleShape"/><path d="M10733 10105v-265h177v530h-177v-265z" class="com.sun.star.drawing.RectangleShape"/><path fill="#00F" d="M10909 10105v-265h177v530h-177v-265z" class="com.sun.star.drawing.RectangleShape"/><path fill="#2AFF00" d="M6363 6364L2028 3329c187-266 364-477 593-707l3742 3742z" class="com.sun.star.drawing.EllipseShape"/><g class="com.sun.star.drawing.RectangleShape"><path fill="#2AFF00" d="M1638 2621v-265h530v530h-530v-265z"/><path fill="none" stroke="#FFF" stroke-width="71" d="M1638 2621v-265h530v530h-530v-265z"/></g><path fill="#2A0000" d="M1638 2621v-265h177v530h-177v-265z" class="com.sun.star.drawing.RectangleShape"/><path fill="#0F0" d="M1814 2621v-265h177v530h-177v-265z" class="com.sun.star.drawing.RectangleShape"/><path d="M1991 2621v-265h177v530h-177v-265z" class="com.sun.star.drawing.RectangleShape"/><path fill="#A0F" d="M6363 6362l3742 3742c-229 230-440 407-706 593L6363 6362z" class="com.sun.star.drawing.EllipseShape"/><g class="com.sun.star.drawing.RectangleShape"><path fill="#A0F" d="M9838 10821v-265h530v530h-530v-265z"/><path fill="none" stroke="#FFF" stroke-width="71" d="M9838 10821v-265h530v530h-530v-265z"/></g><path fill="#A00" d="M9838 10821v-265h177v530h-177v-265z" class="com.sun.star.drawing.RectangleShape"/><path d="M10015 10821v-265h177v530h-177v-265z" class="com.sun.star.drawing.RectangleShape"/><path fill="#00F" d="M10191 10821v-265h177v530h-177v-265z" class="com.sun.star.drawing.RectangleShape"/><path fill="#5F0" d="M6363 6362L2621 2620c230-230 441-407 707-593l3035 4335z" class="com.sun.star.drawing.EllipseShape"/><g class="com.sun.star.drawing.RectangleShape"><path fill="#5F0" d="M2354 1903v-265h530v530h-530v-265z"/><path fill="none" stroke="#FFF" stroke-width="71" d="M2354 1903v-265h530v530h-530v-265z"/></g><path fill="#500" d="M2354 1904v-265h177v530h-177v-265z" class="com.sun.star.drawing.RectangleShape"/><path fill="#0F0" d="M2530 1904v-265h177v530h-177v-265z" class="com.sun.star.drawing.RectangleShape"/><path d="M2707 1904v-265h177v530h-177v-265z" class="com.sun.star.drawing.RectangleShape"/><path fill="#8000FF" d="M6361 6362l3036 4335c-266 186-505 324-799 461L6361 6362z" class="com.sun.star.drawing.EllipseShape"/><g class="com.sun.star.drawing.RectangleShape"><path fill="#8000FF" d="M9005 11403v-265h530v530h-530v-265z"/><path fill="none" stroke="#FFF" stroke-width="71" d="M9005 11403v-265h530v530h-530v-265z"/></g><path fill="maroon" d="M9006 11403v-265h177v530h-177v-265z" class="com.sun.star.drawing.RectangleShape"/><path d="M9182 11403v-265h177v530h-177v-265z" class="com.sun.star.drawing.RectangleShape"/><path fill="#00F" d="M9358 11403v-265h177v530h-177v-265z" class="com.sun.star.drawing.RectangleShape"/><path fill="#7FFF00" d="M6361 6362L3326 2027c266-186 505-324 799-461l2236 4796z" class="com.sun.star.drawing.EllipseShape"/><g class="com.sun.star.drawing.RectangleShape"><path fill="#7FFF00" d="M3183 1321v-265h530v530h-530v-265z"/><path fill="none" stroke="#FFF" stroke-width="71" d="M3183 1321v-265h530v530h-530v-265z"/></g><path fill="#7F0000" d="M3183 1321v-265h177v530h-177v-265z" class="com.sun.star.drawing.RectangleShape"/><path fill="#0F0" d="M3359 1321v-265h177v530h-177v-265z" class="com.sun.star.drawing.RectangleShape"/><path d="M3538 1321v-265h177v530h-177v-265z" class="com.sun.star.drawing.RectangleShape"/><path fill="#50F" d="M6361 6362l2237 4796c-294 137-553 232-867 316L6361 6362z" class="com.sun.star.drawing.EllipseShape"/><g class="com.sun.star.drawing.RectangleShape"><path fill="#50F" d="M8085 11832v-265h530v530h-530v-265z"/><path fill="none" stroke="#FFF" stroke-width="71" d="M8085 11832v-265h530v530h-530v-265z"/></g><path fill="#500" d="M8085 11832v-265h177v530h-177v-265z" class="com.sun.star.drawing.RectangleShape"/><path d="M8261 11832v-265h177v530h-177v-265z" class="com.sun.star.drawing.RectangleShape"/><path fill="#00F" d="M8438 11832v-265h177v530h-177v-265z" class="com.sun.star.drawing.RectangleShape"/><path fill="#AF0" d="M6361 6362L4125 1566c294-137 553-232 867-316l1369 5112z" class="com.sun.star.drawing.EllipseShape"/><g class="com.sun.star.drawing.RectangleShape"><path fill="#AF0" d="M4102 892V627h530v530h-530V892z"/><path fill="none" stroke="#FFF" stroke-width="71" d="M4102 892V627h530v530h-530V892z"/></g><path fill="#A00" d="M4102 892V627h177v530h-177V892z" class="com.sun.star.drawing.RectangleShape"/><path fill="#0F0" d="M4278 892V627h177v530h-177V892z" class="com.sun.star.drawing.RectangleShape"/><path d="M4457 892V627h177v530h-177V892z" class="com.sun.star.drawing.RectangleShape"/><path fill="#2B00FF" d="M6361 6362l1370 5112c-314 84-585 132-908 160l-462-5272z" class="com.sun.star.drawing.EllipseShape"/><g class="com.sun.star.drawing.RectangleShape"><path fill="#2B00FF" d="M7106 12094v-265h530v530h-530v-265z"/><path fill="none" stroke="#FFF" stroke-width="71" d="M7106 12094v-265h530v530h-530v-265z"/></g><path fill="#2B0000" d="M7106 12094v-265h177v530h-177v-265z" class="com.sun.star.drawing.RectangleShape"/><path d="M7282 12094v-265h177v530h-177v-265z" class="com.sun.star.drawing.RectangleShape"/><path fill="#00F" d="M7459 12094v-265h177v530h-177v-265z" class="com.sun.star.drawing.RectangleShape"/><path fill="#D4FF00" d="M6361 6362L4992 1250c313-84 585-132 908-160l461 5272z" class="com.sun.star.drawing.EllipseShape"/><g class="com.sun.star.drawing.RectangleShape"><path fill="#D4FF00" d="M5084 631V366h530v530h-530V631z"/><path fill="none" stroke="#FFF" stroke-width="71" d="M5084 631V366h530v530h-530V631z"/></g><path fill="#D40000" d="M5085 631V366h177v530h-177V631z" class="com.sun.star.drawing.RectangleShape"/><path fill="#0F0" d="M5261 631V366h177v530h-177V631z" class="com.sun.star.drawing.RectangleShape"/><path d="M5437 631V366h177v530h-177V631z" class="com.sun.star.drawing.RectangleShape"/><path fill="#FFF" d="M6818 8068c-314 84-600 84-914 0-313-84-561-227-791-457-229-229-372-477-456-791-84-313-84-599 0-913s227-561 456-791c230-230 478-373 791-457 314-84 600-84 914 0s561 227 791 457c229 230 372 477 456 791 85 314 85 600 0 913-84 314-227 562-456 791-230 230-477 373-791 457z" class="com.sun.star.drawing.EllipseShape"/><g class="com.sun.star.drawing.RectangleShape"><path fill="#FFF" d="M6095 6364v-265h530v530h-530v-265z"/><path fill="none" stroke="#000" stroke-width="71" d="M6095 6364v-265h530v530h-530v-265z"/></g><path fill="#F00" d="M6093 6364v-265h177v530h-177v-265z" class="com.sun.star.drawing.RectangleShape"/><path fill="#0F0" d="M6272 6364v-265h177v530h-177v-265z" class="com.sun.star.drawing.RectangleShape"/><path fill="#00F" d="M6446 6364v-265h177v530h-177v-265z" class="com.sun.star.drawing.RectangleShape"/></g></svg>