<svg width="127.25mm" height="127.25mm" viewBox="0 0 12725 12725" preserveAspectRatio="xMidYMid" fill-rule="evenodd" clip-path="url(#a)" stroke-width="28.222" stroke-linejoin="round" xmlns="http://www.w3.org/2000/svg"><defs class="ClipPathGroup"><clipPath id="a"><path d="M0 0h12725v12725H0z"/></clipPath></defs><defs class="EmbeddedBulletChars"><path d="M.283-.557l.285.278L.283 0l-.285-.28.285-.277z"/><path d="M.004-.55h.55V0h-.55v-.55z"/><path d="M.085 0l.21-.36-.21-.363.626.362L.086 0zm.578-.36L.15-.658l.172.296h.34z"/><path d="M.984-.36L.624 0H.35l.265-.265h-.53v-.192h.53L.35-.723h.272l.362.362z"/><path d="M0 0c-.003-.007-.008-.013-.012-.018l.186-.26-.07-.188c0-.012.007-.018.02-.018.005 0 .01 0 .017.002.01-.002.022-.006.033-.012l.013.006.054.123.137-.147.03.012.013-.012c.01.005.02.012.03.02-.017.034-.042.07-.074.11 0 0-.03.032-.086.097l.088.176c0 .014-.01.028-.03.042l.007.01c-.005.014-.014.02-.027.02-.015 0-.05-.05-.105-.148L.08.037C.07.054.054.062.035.062c-.02 0-.03-.008-.03-.025C0 .033-.002.025-.002.017V0z"/><path d="M.14.016c-.05 0-.086-.03-.104-.092C.026-.11.02-.163.02-.23c0-.038.007-.07.02-.098C.057-.363.083-.38.117-.38c.026 0 .043.015.052.046l.01.086c.004.03.014.047.03.048l.358-.345C.573-.55.584-.553.6-.553c.02 0 .03.007.03.022v.06c0 .016-.004.03-.014.04l-.4.407C.19.003.166.017.14.017z"/><path d="M.397 0C.31 0 .24-.026.187-.08.135-.13.11-.2.11-.29c0-.087.025-.157.077-.21.052-.052.122-.078.21-.078.087 0 .158.026.21.078.054.053.08.123.08.21 0 .09-.026.16-.08.21C.556-.025.485 0 .398 0z"/><path d="M.17-.223C.132-.223.1-.236.075-.26.05-.287.036-.318.036-.354S.05-.42.076-.445C.102-.47.133-.483.17-.483c.035 0 .064.013.09.04.024.024.037.054.037.09 0 .037-.012.067-.037.092-.025.024-.055.037-.09.037z"/><path d="M-.002-.224h.556v-.072h-.556v.072z"/></defs><g class="SlideGroup"><g class="Group" clip-path="url(#a)"><g class="com.sun.star.drawing.EllipseShape"><path d="M8006 12497c-1129 302-2158 302-3287 0-1129-303-2020-817-2847-1644-826-827-1341-1718-1643-2847-303-1129-303-2158 0-3287 302-1129 817-2020 1643-2847 827-827 1718-1341 2847-1644 1129-302 2158-302 3287 0 1130 303 2021 817 2847 1644 827 827 1341 1718 1644 2847 302 1129 302 2158 0 3287-303 1129-817 2020-1644 2847-826 827-1717 1341-2847 1644z"/></g><g class="com.sun.star.drawing.EllipseShape"><path fill="#fff" d="M7733 11476c-941 252-1798 252-2739 0s-1684-681-2373-1370-1117-1431-1369-2372-252-1799 0-2740 680-1683 1369-2372 1432-1118 2373-1370 1798-252 2739 0 1683 681 2372 1370 1118 1431 1370 2372 252 1799 0 2740-681 1683-1370 2372-1431 1118-2372 1370z"/></g><g class="com.sun.star.drawing.EllipseShape"><path fill="#ff0" d="M6363 6364l-461-5272c324-28 599-28 923 0l-462 5272z"/></g><g class="com.sun.star.drawing.RectangleShape"><g><path fill="#ff0" d="M6095 545V280h530v530h-530V545z"/><path fill="none" stroke="#fff" stroke-width="71" d="M6095 545V280h530v530h-530V545z"/></g></g><g class="com.sun.star.drawing.RectangleShape"><path fill="#f00" d="M6095 545V280h177v530h-177V545z"/></g><g class="com.sun.star.drawing.RectangleShape"><path fill="#0f0" d="M6272 545V280h177v530h-177V545z"/></g><g class="com.sun.star.drawing.RectangleShape"><path d="M6448 545V280h177v530h-177V545z"/></g><g class="com.sun.star.drawing.EllipseShape"><path fill="#00f" d="M6363 6364l462 5272c-324 28-599 28-923 0l461-5272z"/></g><g class="com.sun.star.drawing.RectangleShape"><g><path fill="#00f" d="M6097 12186v-265h530v530h-530v-265z"/><path fill="none" stroke="#fff" stroke-width="71" d="M6097 12186v-265h530v530h-530v-265z"/></g></g><g class="com.sun.star.drawing.RectangleShape"><path d="M6097 12186v-265h177v530h-177v-265z"/></g><g class="com.sun.star.drawing.RectangleShape"><path d="M6273 12186v-265h177v530h-177v-265z"/></g><g class="com.sun.star.drawing.RectangleShape"><path fill="#00f" d="M6450 12186v-265h177v530h-177v-265z"/></g><g class="com.sun.star.drawing.EllipseShape"><path fill="#ffd500" d="M6363 6364l462-5272c323 28 594 76 908 160L6363 6364z"/></g><g class="com.sun.star.drawing.RectangleShape"><g><path fill="#ffd500" d="M7107 633V368h530v530h-530V633z"/><path fill="none" stroke="#fff" stroke-width="71" d="M7107 633V368h530v530h-530V633z"/></g></g><g class="com.sun.star.drawing.RectangleShape"><path fill="#f00" d="M7108 634V369h177v530h-177V634z"/></g><g class="com.sun.star.drawing.RectangleShape"><path fill="#00d500" d="M7284 634V369h177v530h-177V634z"/></g><g class="com.sun.star.drawing.RectangleShape"><path d="M7460 634V369h177v530h-177V634z"/></g><g class="com.sun.star.drawing.EllipseShape"><path fill="#002aff" d="M6363 6364l-461 5272c-323-28-595-76-908-160l1369-5112z"/></g><g class="com.sun.star.drawing.RectangleShape"><g><path fill="#002aff" d="M5086 12098v-265h530v530h-530v-265z"/><path fill="none" stroke="#fff" stroke-width="71" d="M5086 12098v-265h530v530h-530v-265z"/></g></g><g class="com.sun.star.drawing.RectangleShape"><path d="M5086 12098v-265h177v530h-177v-265z"/></g><g class="com.sun.star.drawing.RectangleShape"><path fill="#002a00" d="M5263 12098v-265h177v530h-177v-265z"/></g><g class="com.sun.star.drawing.RectangleShape"><path fill="#00f" d="M5439 12098v-265h177v530h-177v-265z"/></g><g class="com.sun.star.drawing.EllipseShape"><path fill="#fa0" d="M6363 6366l1370-5112c314 84 573 179 867 316L6363 6366z"/></g><g class="com.sun.star.drawing.RectangleShape"><g><path fill="#fa0" d="M8088 896V631h530v530h-530V896z"/><path fill="none" stroke="#fff" stroke-width="71" d="M8088 896V631h530v530h-530V896z"/></g></g><g class="com.sun.star.drawing.RectangleShape"><path fill="#f00" d="M8088 896V631h177v530h-177V896z"/></g><g class="com.sun.star.drawing.RectangleShape"><path fill="#0a0" d="M8265 896V631h177v530h-177V896z"/></g><g class="com.sun.star.drawing.RectangleShape"><path d="M8441 896V631h177v530h-177V896z"/></g><g class="com.sun.star.drawing.EllipseShape"><path fill="#05f" d="M6363 6366l-1369 5112c-314-84-573-179-867-316l2236-4796z"/></g><g class="com.sun.star.drawing.RectangleShape"><g><path fill="#05f" d="M4105 11835v-265h530v530h-530v-265z"/><path fill="none" stroke="#fff" stroke-width="71" d="M4105 11835v-265h530v530h-530v-265z"/></g></g><g class="com.sun.star.drawing.RectangleShape"><path d="M4106 11835v-265h177v530h-177v-265z"/></g><g class="com.sun.star.drawing.RectangleShape"><path fill="#050" d="M4282 11835v-265h177v530h-177v-265z"/></g><g class="com.sun.star.drawing.RectangleShape"><path fill="#00f" d="M4458 11835v-265h177v530h-177v-265z"/></g><g class="com.sun.star.drawing.EllipseShape"><path fill="#ff8000" d="M6363 6366l2237-4796c294 137 533 275 799 461L6363 6366z"/></g><g class="com.sun.star.drawing.RectangleShape"><g><path fill="#ff8000" d="M9007 1324v-265h530v530h-530v-265z"/><path fill="none" stroke="#fff" stroke-width="71" d="M9007 1324v-265h530v530h-530v-265z"/></g></g><g class="com.sun.star.drawing.RectangleShape"><path fill="#f00" d="M9007 1324v-265h177v530h-177v-265z"/></g><g class="com.sun.star.drawing.RectangleShape"><path fill="#008000" d="M9184 1324v-265h177v530h-177v-265z"/></g><g class="com.sun.star.drawing.RectangleShape"><path d="M9360 1324v-265h177v530h-177v-265z"/></g><g class="com.sun.star.drawing.EllipseShape"><path fill="#007fff" d="M6363 6366l-2236 4796c-294-137-533-275-799-461l3035-4335z"/></g><g class="com.sun.star.drawing.RectangleShape"><g><path fill="#007fff" d="M3186 11407v-265h530v530h-530v-265z"/><path fill="none" stroke="#fff" stroke-width="71" d="M3186 11407v-265h530v530h-530v-265z"/></g></g><g class="com.sun.star.drawing.RectangleShape"><path d="M3187 11407v-265h177v530h-177v-265z"/></g><g class="com.sun.star.drawing.RectangleShape"><path fill="#007f00" d="M3363 11407v-265h177v530h-177v-265z"/></g><g class="com.sun.star.drawing.RectangleShape"><path fill="#00f" d="M3539 11407v-265h177v530h-177v-265z"/></g><g class="com.sun.star.drawing.EllipseShape"><path fill="#f50" d="M6363 6364l3036-4335c266 186 477 363 706 593L6363 6364z"/></g><g class="com.sun.star.drawing.RectangleShape"><g><path fill="#f50" d="M9838 1906v-265h530v530h-530v-265z"/><path fill="none" stroke="#fff" stroke-width="71" d="M9838 1906v-265h530v530h-530v-265z"/></g></g><g class="com.sun.star.drawing.RectangleShape"><path fill="#f00" d="M9838 1906v-265h177v530h-177v-265z"/></g><g class="com.sun.star.drawing.RectangleShape"><path fill="#050" d="M10015 1906v-265h177v530h-177v-265z"/></g><g class="com.sun.star.drawing.RectangleShape"><path d="M10191 1906v-265h177v530h-177v-265z"/></g><g class="com.sun.star.drawing.EllipseShape"><path fill="#0af" d="M6363 6366l-3035 4335c-266-186-477-363-707-593l3742-3742z"/></g><g class="com.sun.star.drawing.RectangleShape"><g><path fill="#0af" d="M2352 10824v-265h530v530h-530v-265z"/><path fill="none" stroke="#fff" stroke-width="71" d="M2352 10824v-265h530v530h-530v-265z"/></g></g><g class="com.sun.star.drawing.RectangleShape"><path d="M2352 10824v-265h177v530h-177v-265z"/></g><g class="com.sun.star.drawing.RectangleShape"><path fill="#0a0" d="M2529 10824v-265h177v530h-177v-265z"/></g><g class="com.sun.star.drawing.RectangleShape"><path fill="#00f" d="M2705 10824v-265h177v530h-177v-265z"/></g><g class="com.sun.star.drawing.EllipseShape"><path fill="#ff2b00" d="M6361 6366l3742-3742c230 230 407 441 593 707L6361 6366z"/></g><g class="com.sun.star.drawing.RectangleShape"><g><path fill="#ff2b00" d="M10552 2622v-265h530v530h-530v-265z"/><path fill="none" stroke="#fff" stroke-width="71" d="M10552 2622v-265h530v530h-530v-265z"/></g></g><g class="com.sun.star.drawing.RectangleShape"><path fill="#f00" d="M10553 2622v-265h177v530h-177v-265z"/></g><g class="com.sun.star.drawing.RectangleShape"><path fill="#002b00" d="M10729 2622v-265h177v530h-177v-265z"/></g><g class="com.sun.star.drawing.RectangleShape"><path d="M10905 2622v-265h177v530h-177v-265z"/></g><g class="com.sun.star.drawing.EllipseShape"><path fill="#00d4ff" d="M6361 6364l-3742 3742c-229-230-406-441-593-707l4335-3035z"/></g><g class="com.sun.star.drawing.RectangleShape"><g><path fill="#00d4ff" d="M1636 10105v-265h530v530h-530v-265z"/><path fill="none" stroke="#fff" stroke-width="71" d="M1636 10105v-265h530v530h-530v-265z"/></g></g><g class="com.sun.star.drawing.RectangleShape"><path d="M1636 10105v-265h177v530h-177v-265z"/></g><g class="com.sun.star.drawing.RectangleShape"><path fill="#00d400" d="M1813 10105v-265h177v530h-177v-265z"/></g><g class="com.sun.star.drawing.RectangleShape"><path fill="#00f" d="M1989 10105v-265h177v530h-177v-265z"/></g><g class="com.sun.star.drawing.EllipseShape"><path fill="#f00" d="M6361 6364l4335-3035c187 266 324 504 462 799L6361 6364z"/></g><g class="com.sun.star.drawing.RectangleShape"><g><path fill="#f00" d="M11134 3453v-265h530v530h-530v-265z"/><path fill="none" stroke="#fff" stroke-width="71" d="M11134 3453v-265h530v530h-530v-265z"/></g></g><g class="com.sun.star.drawing.RectangleShape"><path fill="#f00" d="M11135 3453v-265h177v530h-177v-265z"/></g><g class="com.sun.star.drawing.RectangleShape"><path d="M11311 3453v-265h177v530h-177v-265z"/></g><g class="com.sun.star.drawing.RectangleShape"><path d="M11487 3453v-265h177v530h-177v-265z"/></g><g class="com.sun.star.drawing.EllipseShape"><path fill="#0ff" d="M6361 6364L2026 9399c-186-266-324-504-461-798l4796-2237z"/></g><g class="com.sun.star.drawing.RectangleShape"><g><path fill="#0ff" d="M1054 9274v-265h530v530h-530v-265z"/><path fill="none" stroke="#fff" stroke-width="71" d="M1054 9274v-265h530v530h-530v-265z"/></g></g><g class="com.sun.star.drawing.RectangleShape"><path d="M1054 9274v-265h177v530h-177v-265z"/></g><g class="com.sun.star.drawing.RectangleShape"><path fill="#0f0" d="M1230 9274v-265h177v530h-177v-265z"/></g><g class="com.sun.star.drawing.RectangleShape"><path fill="#00f" d="M1407 9274v-265h177v530h-177v-265z"/></g><g class="com.sun.star.drawing.EllipseShape"><path fill="#ff002a" d="M6361 6364l4797-2236c137 294 231 553 315 866L6361 6364z"/></g><g class="com.sun.star.drawing.RectangleShape"><g><path fill="#ff002a" d="M11565 4372v-265h530v530h-530v-265z"/><path fill="none" stroke="#fff" stroke-width="71" d="M11565 4372v-265h530v530h-530v-265z"/></g></g><g class="com.sun.star.drawing.RectangleShape"><path fill="#f00" d="M11565 4372v-265h177v530h-177v-265z"/></g><g class="com.sun.star.drawing.RectangleShape"><path d="M11741 4372v-265h177v530h-177v-265z"/></g><g class="com.sun.star.drawing.RectangleShape"><path fill="#00002a" d="M11918 4372v-265h177v530h-177v-265z"/></g><g class="com.sun.star.drawing.EllipseShape"><path fill="#00ffd5" d="M6361 6364L1565 8601c-137-295-231-554-315-867l5111-1370z"/></g><g class="com.sun.star.drawing.RectangleShape"><g><path fill="#00ffd5" d="M625 8355v-265h530v530H625v-265z"/><path fill="none" stroke="#fff" stroke-width="71" d="M625 8355v-265h530v530H625v-265z"/></g></g><g class="com.sun.star.drawing.RectangleShape"><path d="M625 8355v-265h177v530H625v-265z"/></g><g class="com.sun.star.drawing.RectangleShape"><path fill="#0f0" d="M802 8355v-265h177v530H802v-265z"/></g><g class="com.sun.star.drawing.RectangleShape"><path fill="#0000d5" d="M978 8355v-265h177v530H978v-265z"/></g><g class="com.sun.star.drawing.EllipseShape"><path fill="#f05" d="M6361 6364l5112-1370c84 314 132 585 160 909l-5272 461z"/></g><g class="com.sun.star.drawing.RectangleShape"><g><path fill="#f05" d="M11828 5353v-265h530v530h-530v-265z"/><path fill="none" stroke="#fff" stroke-width="71" d="M11828 5353v-265h530v530h-530v-265z"/></g></g><g class="com.sun.star.drawing.RectangleShape"><path fill="#f00" d="M11828 5353v-265h177v530h-177v-265z"/></g><g class="com.sun.star.drawing.RectangleShape"><path d="M12004 5353v-265h177v530h-177v-265z"/></g><g class="com.sun.star.drawing.RectangleShape"><path fill="#005" d="M12181 5353v-265h177v530h-177v-265z"/></g><g class="com.sun.star.drawing.EllipseShape"><path fill="#0fa" d="M6361 6364L1250 7734c-84-314-132-585-161-909l5272-461z"/></g><g class="com.sun.star.drawing.RectangleShape"><g><path fill="#0fa" d="M364 7374v-265h530v530H364v-265z"/><path fill="none" stroke="#fff" stroke-width="71" d="M364 7374v-265h530v530H364v-265z"/></g></g><g class="com.sun.star.drawing.RectangleShape"><path d="M364 7374v-265h177v530H364v-265z"/></g><g class="com.sun.star.drawing.RectangleShape"><path fill="#0f0" d="M541 7374v-265h177v530H541v-265z"/></g><g class="com.sun.star.drawing.RectangleShape"><path fill="#00a" d="M717 7374v-265h177v530H717v-265z"/></g><g class="com.sun.star.drawing.EllipseShape"><path fill="#ff007f" d="M6363 6364l5272-461c29 323 29 599 0 922l-5272-461z"/></g><g class="com.sun.star.drawing.RectangleShape"><g><path fill="#ff007f" d="M11918 6364v-265h530v530h-530v-265z"/><path fill="none" stroke="#fff" stroke-width="71" d="M11918 6364v-265h530v530h-530v-265z"/></g></g><g class="com.sun.star.drawing.RectangleShape"><path fill="#f00" d="M11918 6364v-265h177v530h-177v-265z"/></g><g class="com.sun.star.drawing.RectangleShape"><path d="M12094 6364v-265h177v530h-177v-265z"/></g><g class="com.sun.star.drawing.RectangleShape"><path fill="#00007f" d="M12271 6364v-265h177v530h-177v-265z"/></g><g class="com.sun.star.drawing.EllipseShape"><path fill="#00ff80" d="M6363 6364l-5272 461c-28-323-28-599 0-922l5272 461z"/></g><g class="com.sun.star.drawing.RectangleShape"><g><path fill="#00ff80" d="M276 6364v-265h530v530H276v-265z"/><path fill="none" stroke="#fff" stroke-width="71" d="M276 6364v-265h530v530H276v-265z"/></g></g><g class="com.sun.star.drawing.RectangleShape"><path d="M276 6364v-265h177v530H276v-265z"/></g><g class="com.sun.star.drawing.RectangleShape"><path fill="#0f0" d="M453 6364v-265h177v530H453v-265z"/></g><g class="com.sun.star.drawing.RectangleShape"><path fill="#000080" d="M629 6364v-265h177v530H629v-265z"/></g><g class="com.sun.star.drawing.EllipseShape"><path fill="#f0a" d="M6363 6364l5272 461c-28 324-76 595-160 909L6363 6364z"/></g><g class="com.sun.star.drawing.RectangleShape"><g><path fill="#f0a" d="M11828 7374v-265h530v530h-530v-265z"/><path fill="none" stroke="#fff" stroke-width="71" d="M11828 7374v-265h530v530h-530v-265z"/></g></g><g class="com.sun.star.drawing.RectangleShape"><path fill="#f00" d="M11828 7374v-265h177v530h-177v-265z"/></g><g class="com.sun.star.drawing.RectangleShape"><path d="M12004 7374v-265h177v530h-177v-265z"/></g><g class="com.sun.star.drawing.RectangleShape"><path fill="#00a" d="M12181 7374v-265h177v530h-177v-265z"/></g><g class="com.sun.star.drawing.EllipseShape"><path fill="#0f5" d="M6361 6364l-5272-461c29-324 77-595 161-909l5111 1370z"/></g><g class="com.sun.star.drawing.RectangleShape"><g><path fill="#0f5" d="M364 5353v-265h530v530H364v-265z"/><path fill="none" stroke="#fff" stroke-width="71" d="M364 5353v-265h530v530H364v-265z"/></g></g><g class="com.sun.star.drawing.RectangleShape"><path d="M364 5353v-265h177v530H364v-265z"/></g><g class="com.sun.star.drawing.RectangleShape"><path fill="#0f0" d="M541 5353v-265h177v530H541v-265z"/></g><g class="com.sun.star.drawing.RectangleShape"><path fill="#005" d="M717 5353v-265h177v530H717v-265z"/></g><g class="com.sun.star.drawing.EllipseShape"><path fill="#ff00d4" d="M6363 6364l5112 1370c-84 313-178 572-315 867L6363 6364z"/></g><g class="com.sun.star.drawing.RectangleShape"><g><path fill="#ff00d4" d="M11567 8355v-265h530v530h-530v-265z"/><path fill="none" stroke="#fff" stroke-width="71" d="M11567 8355v-265h530v530h-530v-265z"/></g></g><g class="com.sun.star.drawing.RectangleShape"><path fill="#f00" d="M11567 8355v-265h177v530h-177v-265z"/></g><g class="com.sun.star.drawing.RectangleShape"><path d="M11743 8355v-265h177v530h-177v-265z"/></g><g class="com.sun.star.drawing.RectangleShape"><path fill="#0000d4" d="M11920 8355v-265h177v530h-177v-265z"/></g><g class="com.sun.star.drawing.EllipseShape"><path fill="#00ff2b" d="M6363 6364L1252 4994c84-313 178-572 315-866l4796 2236z"/></g><g class="com.sun.star.drawing.RectangleShape"><g><path fill="#00ff2b" d="M627 4372v-265h530v530H627v-265z"/><path fill="none" stroke="#fff" stroke-width="71" d="M627 4372v-265h530v530H627v-265z"/></g></g><g class="com.sun.star.drawing.RectangleShape"><path d="M627 4372v-265h177v530H627v-265z"/></g><g class="com.sun.star.drawing.RectangleShape"><path fill="#0f0" d="M804 4372v-265h177v530H804v-265z"/></g><g class="com.sun.star.drawing.RectangleShape"><path fill="#00002b" d="M980 4372v-265h177v530H980v-265z"/></g><g class="com.sun.star.drawing.EllipseShape"><path fill="#f0f" d="M6363 6364l4797 2237c-138 294-275 532-462 798L6363 6364z"/></g><g class="com.sun.star.drawing.RectangleShape"><g><path fill="#f0f" d="M11138 9274v-265h530v530h-530v-265z"/><path fill="none" stroke="#fff" stroke-width="71" d="M11138 9274v-265h530v530h-530v-265z"/></g></g><g class="com.sun.star.drawing.RectangleShape"><path fill="#f00" d="M11138 9274v-265h177v530h-177v-265z"/></g><g class="com.sun.star.drawing.RectangleShape"><path d="M11315 9274v-265h177v530h-177v-265z"/></g><g class="com.sun.star.drawing.RectangleShape"><path fill="#00f" d="M11491 9274v-265h177v530h-177v-265z"/></g><g class="com.sun.star.drawing.EllipseShape"><path fill="#0f0" d="M6363 6364L1567 4128c137-295 275-533 461-799l4335 3035z"/></g><g class="com.sun.star.drawing.RectangleShape"><g><path fill="#0f0" d="M1056 3453v-265h530v530h-530v-265z"/><path fill="none" stroke="#fff" stroke-width="71" d="M1056 3453v-265h530v530h-530v-265z"/></g></g><g class="com.sun.star.drawing.RectangleShape"><path d="M1056 3453v-265h177v530h-177v-265z"/></g><g class="com.sun.star.drawing.RectangleShape"><path fill="#0f0" d="M1232 3453v-265h177v530h-177v-265z"/></g><g class="com.sun.star.drawing.RectangleShape"><path d="M1409 3453v-265h177v530h-177v-265z"/></g><g class="com.sun.star.drawing.EllipseShape"><path fill="#d500ff" d="M6363 6364l4335 3035c-186 266-363 477-593 707L6363 6364z"/></g><g class="com.sun.star.drawing.RectangleShape"><g><path fill="#d500ff" d="M10556 10105v-265h530v530h-530v-265z"/><path fill="none" stroke="#fff" stroke-width="71" d="M10556 10105v-265h530v530h-530v-265z"/></g></g><g class="com.sun.star.drawing.RectangleShape"><path fill="#d50000" d="M10556 10105v-265h177v530h-177v-265z"/></g><g class="com.sun.star.drawing.RectangleShape"><path d="M10733 10105v-265h177v530h-177v-265z"/></g><g class="com.sun.star.drawing.RectangleShape"><path fill="#00f" d="M10909 10105v-265h177v530h-177v-265z"/></g><g class="com.sun.star.drawing.EllipseShape"><path fill="#2aff00" d="M6363 6364L2028 3329c187-266 364-477 593-707l3742 3742z"/></g><g class="com.sun.star.drawing.RectangleShape"><g><path fill="#2aff00" d="M1638 2621v-265h530v530h-530v-265z"/><path fill="none" stroke="#fff" stroke-width="71" d="M1638 2621v-265h530v530h-530v-265z"/></g></g><g class="com.sun.star.drawing.RectangleShape"><path fill="#2a0000" d="M1638 2621v-265h177v530h-177v-265z"/></g><g class="com.sun.star.drawing.RectangleShape"><path fill="#0f0" d="M1814 2621v-265h177v530h-177v-265z"/></g><g class="com.sun.star.drawing.RectangleShape"><path d="M1991 2621v-265h177v530h-177v-265z"/></g><g class="com.sun.star.drawing.EllipseShape"><path fill="#a0f" d="M6363 6362l3742 3742c-229 230-440 407-706 593L6363 6362z"/></g><g class="com.sun.star.drawing.RectangleShape"><g><path fill="#a0f" d="M9838 10821v-265h530v530h-530v-265z"/><path fill="none" stroke="#fff" stroke-width="71" d="M9838 10821v-265h530v530h-530v-265z"/></g></g><g class="com.sun.star.drawing.RectangleShape"><path fill="#a00" d="M9838 10821v-265h177v530h-177v-265z"/></g><g class="com.sun.star.drawing.RectangleShape"><path d="M10015 10821v-265h177v530h-177v-265z"/></g><g class="com.sun.star.drawing.RectangleShape"><path fill="#00f" d="M10191 10821v-265h177v530h-177v-265z"/></g><g class="com.sun.star.drawing.EllipseShape"><path fill="#5f0" d="M6363 6362L2621 2620c230-230 441-407 707-593l3035 4335z"/></g><g class="com.sun.star.drawing.RectangleShape"><g><path fill="#5f0" d="M2354 1903v-265h530v530h-530v-265z"/><path fill="none" stroke="#fff" stroke-width="71" d="M2354 1903v-265h530v530h-530v-265z"/></g></g><g class="com.sun.star.drawing.RectangleShape"><path fill="#500" d="M2354 1904v-265h177v530h-177v-265z"/></g><g class="com.sun.star.drawing.RectangleShape"><path fill="#0f0" d="M2530 1904v-265h177v530h-177v-265z"/></g><g class="com.sun.star.drawing.RectangleShape"><path d="M2707 1904v-265h177v530h-177v-265z"/></g><g class="com.sun.star.drawing.EllipseShape"><path fill="#8000ff" d="M6361 6362l3036 4335c-266 186-505 324-799 461L6361 6362z"/></g><g class="com.sun.star.drawing.RectangleShape"><g><path fill="#8000ff" d="M9005 11403v-265h530v530h-530v-265z"/><path fill="none" stroke="#fff" stroke-width="71" d="M9005 11403v-265h530v530h-530v-265z"/></g></g><g class="com.sun.star.drawing.RectangleShape"><path fill="#800000" d="M9006 11403v-265h177v530h-177v-265z"/></g><g class="com.sun.star.drawing.RectangleShape"><path d="M9182 11403v-265h177v530h-177v-265z"/></g><g class="com.sun.star.drawing.RectangleShape"><path fill="#00f" d="M9358 11403v-265h177v530h-177v-265z"/></g><g class="com.sun.star.drawing.EllipseShape"><path fill="#7fff00" d="M6361 6362L3326 2027c266-186 505-324 799-461l2236 4796z"/></g><g class="com.sun.star.drawing.RectangleShape"><g><path fill="#7fff00" d="M3183 1321v-265h530v530h-530v-265z"/><path fill="none" stroke="#fff" stroke-width="71" d="M3183 1321v-265h530v530h-530v-265z"/></g></g><g class="com.sun.star.drawing.RectangleShape"><path fill="#7f0000" d="M3183 1321v-265h177v530h-177v-265z"/></g><g class="com.sun.star.drawing.RectangleShape"><path fill="#0f0" d="M3359 1321v-265h177v530h-177v-265z"/></g><g class="com.sun.star.drawing.RectangleShape"><path d="M3538 1321v-265h177v530h-177v-265z"/></g><g class="com.sun.star.drawing.EllipseShape"><path fill="#50f" d="M6361 6362l2237 4796c-294 137-553 232-867 316L6361 6362z"/></g><g class="com.sun.star.drawing.RectangleShape"><g><path fill="#50f" d="M8085 11832v-265h530v530h-530v-265z"/><path fill="none" stroke="#fff" stroke-width="71" d="M8085 11832v-265h530v530h-530v-265z"/></g></g><g class="com.sun.star.drawing.RectangleShape"><path fill="#500" d="M8085 11832v-265h177v530h-177v-265z"/></g><g class="com.sun.star.drawing.RectangleShape"><path d="M8261 11832v-265h177v530h-177v-265z"/></g><g class="com.sun.star.drawing.RectangleShape"><path fill="#00f" d="M8438 11832v-265h177v530h-177v-265z"/></g><g class="com.sun.star.drawing.EllipseShape"><path fill="#af0" d="M6361 6362L4125 1566c294-137 553-232 867-316l1369 5112z"/></g><g class="com.sun.star.drawing.RectangleShape"><g><path fill="#af0" d="M4102 892V627h530v530h-530V892z"/><path fill="none" stroke="#fff" stroke-width="71" d="M4102 892V627h530v530h-530V892z"/></g></g><g class="com.sun.star.drawing.RectangleShape"><path fill="#a00" d="M4102 892V627h177v530h-177V892z"/></g><g class="com.sun.star.drawing.RectangleShape"><path fill="#0f0" d="M4278 892V627h177v530h-177V892z"/></g><g class="com.sun.star.drawing.RectangleShape"><path d="M4457 892V627h177v530h-177V892z"/></g><g class="com.sun.star.drawing.EllipseShape"><path fill="#2b00ff" d="M6361 6362l1370 5112c-314 84-585 132-908 160l-462-5272z"/></g><g class="com.sun.star.drawing.RectangleShape"><g><path fill="#2b00ff" d="M7106 12094v-265h530v530h-530v-265z"/><path fill="none" stroke="#fff" stroke-width="71" d="M7106 12094v-265h530v530h-530v-265z"/></g></g><g class="com.sun.star.drawing.RectangleShape"><path fill="#2b0000" d="M7106 12094v-265h177v530h-177v-265z"/></g><g class="com.sun.star.drawing.RectangleShape"><path d="M7282 12094v-265h177v530h-177v-265z"/></g><g class="com.sun.star.drawing.RectangleShape"><path fill="#00f" d="M7459 12094v-265h177v530h-177v-265z"/></g><g class="com.sun.star.drawing.EllipseShape"><path fill="#d4ff00" d="M6361 6362L4992 1250c313-84 585-132 908-160l461 5272z"/></g><g class="com.sun.star.drawing.RectangleShape"><g><path fill="#d4ff00" d="M5084 631V366h530v530h-530V631z"/><path fill="none" stroke="#fff" stroke-width="71" d="M5084 631V366h530v530h-530V631z"/></g></g><g class="com.sun.star.drawing.RectangleShape"><path fill="#d40000" d="M5085 631V366h177v530h-177V631z"/></g><g class="com.sun.star.drawing.RectangleShape"><path fill="#0f0" d="M5261 631V366h177v530h-177V631z"/></g><g class="com.sun.star.drawing.RectangleShape"><path d="M5437 631V366h177v530h-177V631z"/></g><g class="com.sun.star.drawing.EllipseShape"><path fill="#fff" d="M6818 8068c-314 84-600 84-914 0-313-84-561-227-791-457-229-229-372-477-456-791-84-313-84-599 0-913s227-561 456-791c230-230 478-373 791-457 314-84 600-84 914 0s561 227 791 457c229 230 372 477 456 791 85 314 85 600 0 913-84 314-227 562-456 791-230 230-477 373-791 457z"/></g><g class="com.sun.star.drawing.RectangleShape"><g><path fill="#fff" d="M6095 6364v-265h530v530h-530v-265z"/><path fill="none" stroke="#000" stroke-width="71" d="M6095 6364v-265h530v530h-530v-265z"/></g></g><g class="com.sun.star.drawing.RectangleShape"><path fill="#f00" d="M6093 6364v-265h177v530h-177v-265z"/></g><g class="com.sun.star.drawing.RectangleShape"><path fill="#0f0" d="M6272 6364v-265h177v530h-177v-265z"/></g><g class="com.sun.star.drawing.RectangleShape"><path fill="#00f" d="M6446 6364v-265h177v530h-177v-265z"/></g></g></g></svg>