<svg width="127.25mm" height="127.25mm" viewBox="0 0 12725 12725" preserveAspectRatio="xMidYMid" fill-rule="evenodd" clip-path="url(#a)" xmlns="http://www.w3.org/2000/svg"><defs class="ClipPathGroup"><clipPath id="a"><path d="M0 0h12725v12725h-12725z"/></clipPath></defs><defs class="EmbeddedBulletChars"><path d="M.283-.557l.285.278-.285.279-.285-.279.285-.278z"/><path d="M.004-.551h.551v.551h-.551v-.551z"/><path d="M.085 0l.209-.361-.209-.362.626.362-.626.361zm.578-.361l-.512-.296.171.296h.341z"/><path d="M.984-.361l-.361.361h-.273l.265-.265h-.53v-.192h.53l-.265-.266h.272l.362.362z"/><path d="M0 .001l-.012-.019.186-.259-.069-.189.02-.019.017.002.032-.012.013.006.054.123.137-.147.031.012.012-.012.03.021-.074.108-.086.098.088.176-.031.041.008.01-.027.021-.105-.149-.143.223-.045.025-.031-.025-.005-.021.001-.015z"/><path d="M.139.016c-.05 0-.085-.031-.103-.092l-.016-.154.02-.098.077-.052.052.046.011.086.029.048.359-.345.032-.008.031.022v.06l-.015.041-.4.407-.077.039z"/><path d="M.397 0c-.088 0-.158-.026-.21-.079-.052-.052-.078-.122-.078-.21s.026-.158.078-.21c.052-.052.122-.079.21-.079.087 0 .158.026.211.079.053.052.079.123.079.21 0 .088-.026.158-.079.21-.053.052-.124.079-.211.079z"/><path d="M.169-.223l-.093-.038-.04-.092.04-.092.093-.038.09.039.038.091-.037.092-.091.038z"/><path d="M-.002-.224h.556v-.072h-.556v.072z"/></defs><g class="Group" clip-path="url(#a)"><path d="M8006 12497c-1129 302-2158 302-3287 0-1129-303-2020-817-2847-1644-826-827-1341-1718-1643-2847-303-1129-303-2158 0-3287 302-1129 817-2020 1643-2847 827-827 1718-1341 2847-1644 1129-302 2158-302 3287 0 1130 303 2021 817 2847 1644 827 827 1341 1718 1644 2847 302 1129 302 2158 0 3287-303 1129-817 2020-1644 2847-826 827-1717 1341-2847 1644z" class="com.sun.star.drawing.EllipseShape"/><path fill="#fff" d="M7733 11476c-941 252-1798 252-2739 0s-1684-681-2373-1370-1117-1431-1369-2372-252-1799 0-2740 680-1683 1369-2372 1432-1118 2373-1370 1798-252 2739 0 1683 681 2372 1370 1118 1431 1370 2372 252 1799 0 2740-681 1683-1370 2372-1431 1118-2372 1370z" class="com.sun.star.drawing.EllipseShape"/><path fill="#ff0" d="M6363 6364l-461-5272c324-28 599-28 923 0l-462 5272z" class="com.sun.star.drawing.EllipseShape"/><g class="com.sun.star.drawing.RectangleShape"><path fill="#ff0" d="M6095 545v-265h530v530h-530v-265z"/><path stroke="#fff" stroke-width="71" d="M6095 545v-265h530v530h-530v-265z" fill="none"/></g><path fill="#f00" d="M6095 545v-265h177v530h-177v-265z" class="com.sun.star.drawing.RectangleShape"/><path fill="#0f0" d="M6272 545v-265h177v530h-177v-265z" class="com.sun.star.drawing.RectangleShape"/><path d="M6448 545v-265h177v530h-177v-265z" class="com.sun.star.drawing.RectangleShape"/><path fill="#00f" d="M6363 6364l462 5272c-324 28-599 28-923 0l461-5272z" class="com.sun.star.drawing.EllipseShape"/><g class="com.sun.star.drawing.RectangleShape"><path fill="#00f" d="M6097 12186v-265h530v530h-530v-265z"/><path stroke="#fff" stroke-width="71" d="M6097 12186v-265h530v530h-530v-265z" fill="none"/></g><path d="M6097 12186v-265h177v530h-177v-265z" class="com.sun.star.drawing.RectangleShape"/><path d="M6273 12186v-265h177v530h-177v-265z" class="com.sun.star.drawing.RectangleShape"/><path fill="#00f" d="M6450 12186v-265h177v530h-177v-265z" class="com.sun.star.drawing.RectangleShape"/><path fill="#ffd500" d="M6363 6364l462-5272c323 28 594 76 908 160l-1370 5112z" class="com.sun.star.drawing.EllipseShape"/><g class="com.sun.star.drawing.RectangleShape"><path fill="#ffd500" d="M7107 633v-265h530v530h-530v-265z"/><path stroke="#fff" stroke-width="71" d="M7107 633v-265h530v530h-530v-265z" fill="none"/></g><path fill="#f00" d="M7108 634v-265h177v530h-177v-265z" class="com.sun.star.drawing.RectangleShape"/><path fill="#00d500" d="M7284 634v-265h177v530h-177v-265z" class="com.sun.star.drawing.RectangleShape"/><path d="M7460 634v-265h177v530h-177v-265z" class="com.sun.star.drawing.RectangleShape"/><path fill="#002aff" d="M6363 6364l-461 5272c-323-28-595-76-908-160l1369-5112z" class="com.sun.star.drawing.EllipseShape"/><g class="com.sun.star.drawing.RectangleShape"><path fill="#002aff" d="M5086 12098v-265h530v530h-530v-265z"/><path stroke="#fff" stroke-width="71" d="M5086 12098v-265h530v530h-530v-265z" fill="none"/></g><path d="M5086 12098v-265h177v530h-177v-265z" class="com.sun.star.drawing.RectangleShape"/><path fill="#002a00" d="M5263 12098v-265h177v530h-177v-265z" class="com.sun.star.drawing.RectangleShape"/><path fill="#00f" d="M5439 12098v-265h177v530h-177v-265z" class="com.sun.star.drawing.RectangleShape"/><path fill="#fa0" d="M6363 6366l1370-5112c314 84 573 179 867 316l-2237 4796z" class="com.sun.star.drawing.EllipseShape"/><g class="com.sun.star.drawing.RectangleShape"><path fill="#fa0" d="M8088 896v-265h530v530h-530v-265z"/><path stroke="#fff" stroke-width="71" d="M8088 896v-265h530v530h-530v-265z" fill="none"/></g><path fill="#f00" d="M8088 896v-265h177v530h-177v-265z" class="com.sun.star.drawing.RectangleShape"/><path fill="#0a0" d="M8265 896v-265h177v530h-177v-265z" class="com.sun.star.drawing.RectangleShape"/><path d="M8441 896v-265h177v530h-177v-265z" class="com.sun.star.drawing.RectangleShape"/><path fill="#05f" d="M6363 6366l-1369 5112c-314-84-573-179-867-316l2236-4796z" class="com.sun.star.drawing.EllipseShape"/><g class="com.sun.star.drawing.RectangleShape"><path fill="#05f" d="M4105 11835v-265h530v530h-530v-265z"/><path stroke="#fff" stroke-width="71" d="M4105 11835v-265h530v530h-530v-265z" fill="none"/></g><path d="M4106 11835v-265h177v530h-177v-265z" class="com.sun.star.drawing.RectangleShape"/><path fill="#050" d="M4282 11835v-265h177v530h-177v-265z" class="com.sun.star.drawing.RectangleShape"/><path fill="#00f" d="M4458 11835v-265h177v530h-177v-265z" class="com.sun.star.drawing.RectangleShape"/><path fill="#ff8000" d="M6363 6366l2237-4796c294 137 533 275 799 461l-3036 4335z" class="com.sun.star.drawing.EllipseShape"/><g class="com.sun.star.drawing.RectangleShape"><path fill="#ff8000" d="M9007 1324v-265h530v530h-530v-265z"/><path stroke="#fff" stroke-width="71" d="M9007 1324v-265h530v530h-530v-265z" fill="none"/></g><path fill="#f00" d="M9007 1324v-265h177v530h-177v-265z" class="com.sun.star.drawing.RectangleShape"/><path fill="#008000" d="M9184 1324v-265h177v530h-177v-265z" class="com.sun.star.drawing.RectangleShape"/><path d="M9360 1324v-265h177v530h-177v-265z" class="com.sun.star.drawing.RectangleShape"/><path fill="#007fff" d="M6363 6366l-2236 4796c-294-137-533-275-799-461l3035-4335z" class="com.sun.star.drawing.EllipseShape"/><g class="com.sun.star.drawing.RectangleShape"><path fill="#007fff" d="M3186 11407v-265h530v530h-530v-265z"/><path stroke="#fff" stroke-width="71" d="M3186 11407v-265h530v530h-530v-265z" fill="none"/></g><path d="M3187 11407v-265h177v530h-177v-265z" class="com.sun.star.drawing.RectangleShape"/><path fill="#007f00" d="M3363 11407v-265h177v530h-177v-265z" class="com.sun.star.drawing.RectangleShape"/><path fill="#00f" d="M3539 11407v-265h177v530h-177v-265z" class="com.sun.star.drawing.RectangleShape"/><path fill="#f50" d="M6363 6364l3036-4335c266 186 477 363 706 593l-3742 3742z" class="com.sun.star.drawing.EllipseShape"/><g class="com.sun.star.drawing.RectangleShape"><path fill="#f50" d="M9838 1906v-265h530v530h-530v-265z"/><path stroke="#fff" stroke-width="71" d="M9838 1906v-265h530v530h-530v-265z" fill="none"/></g><path fill="#f00" d="M9838 1906v-265h177v530h-177v-265z" class="com.sun.star.drawing.RectangleShape"/><path fill="#050" d="M10015 1906v-265h177v530h-177v-265z" class="com.sun.star.drawing.RectangleShape"/><path d="M10191 1906v-265h177v530h-177v-265z" class="com.sun.star.drawing.RectangleShape"/><path fill="#0af" d="M6363 6366l-3035 4335c-266-186-477-363-707-593l3742-3742z" class="com.sun.star.drawing.EllipseShape"/><g class="com.sun.star.drawing.RectangleShape"><path fill="#0af" d="M2352 10824v-265h530v530h-530v-265z"/><path stroke="#fff" stroke-width="71" d="M2352 10824v-265h530v530h-530v-265z" fill="none"/></g><path d="M2352 10824v-265h177v530h-177v-265z" class="com.sun.star.drawing.RectangleShape"/><path fill="#0a0" d="M2529 10824v-265h177v530h-177v-265z" class="com.sun.star.drawing.RectangleShape"/><path fill="#00f" d="M2705 10824v-265h177v530h-177v-265z" class="com.sun.star.drawing.RectangleShape"/><path fill="#ff2b00" d="M6361 6366l3742-3742c230 230 407 441 593 707l-4335 3035z" class="com.sun.star.drawing.EllipseShape"/><g class="com.sun.star.drawing.RectangleShape"><path fill="#ff2b00" d="M10552 2622v-265h530v530h-530v-265z"/><path stroke="#fff" stroke-width="71" d="M10552 2622v-265h530v530h-530v-265z" fill="none"/></g><path fill="#f00" d="M10553 2622v-265h177v530h-177v-265z" class="com.sun.star.drawing.RectangleShape"/><path fill="#002b00" d="M10729 2622v-265h177v530h-177v-265z" class="com.sun.star.drawing.RectangleShape"/><path d="M10905 2622v-265h177v530h-177v-265z" class="com.sun.star.drawing.RectangleShape"/><path fill="#00d4ff" d="M6361 6364l-3742 3742c-229-230-406-441-593-707l4335-3035z" class="com.sun.star.drawing.EllipseShape"/><g class="com.sun.star.drawing.RectangleShape"><path fill="#00d4ff" d="M1636 10105v-265h530v530h-530v-265z"/><path stroke="#fff" stroke-width="71" d="M1636 10105v-265h530v530h-530v-265z" fill="none"/></g><path d="M1636 10105v-265h177v530h-177v-265z" class="com.sun.star.drawing.RectangleShape"/><path fill="#00d400" d="M1813 10105v-265h177v530h-177v-265z" class="com.sun.star.drawing.RectangleShape"/><path fill="#00f" d="M1989 10105v-265h177v530h-177v-265z" class="com.sun.star.drawing.RectangleShape"/><path fill="#f00" d="M6361 6364l4335-3035c187 266 324 504 462 799l-4797 2236z" class="com.sun.star.drawing.EllipseShape"/><g class="com.sun.star.drawing.RectangleShape"><path fill="#f00" d="M11134 3453v-265h530v530h-530v-265z"/><path stroke="#fff" stroke-width="71" d="M11134 3453v-265h530v530h-530v-265z" fill="none"/></g><path fill="#f00" d="M11135 3453v-265h177v530h-177v-265z" class="com.sun.star.drawing.RectangleShape"/><path d="M11311 3453v-265h177v530h-177v-265z" class="com.sun.star.drawing.RectangleShape"/><path d="M11487 3453v-265h177v530h-177v-265z" class="com.sun.star.drawing.RectangleShape"/><path fill="#0ff" d="M6361 6364l-4335 3035c-186-266-324-504-461-798l4796-2237z" class="com.sun.star.drawing.EllipseShape"/><g class="com.sun.star.drawing.RectangleShape"><path fill="#0ff" d="M1054 9274v-265h530v530h-530v-265z"/><path stroke="#fff" stroke-width="71" d="M1054 9274v-265h530v530h-530v-265z" fill="none"/></g><path d="M1054 9274v-265h177v530h-177v-265z" class="com.sun.star.drawing.RectangleShape"/><path fill="#0f0" d="M1230 9274v-265h177v530h-177v-265z" class="com.sun.star.drawing.RectangleShape"/><path fill="#00f" d="M1407 9274v-265h177v530h-177v-265z" class="com.sun.star.drawing.RectangleShape"/><path fill="#ff002a" d="M6361 6364l4797-2236c137 294 231 553 315 866l-5112 1370z" class="com.sun.star.drawing.EllipseShape"/><g class="com.sun.star.drawing.RectangleShape"><path fill="#ff002a" d="M11565 4372v-265h530v530h-530v-265z"/><path stroke="#fff" stroke-width="71" d="M11565 4372v-265h530v530h-530v-265z" fill="none"/></g><path fill="#f00" d="M11565 4372v-265h177v530h-177v-265z" class="com.sun.star.drawing.RectangleShape"/><path d="M11741 4372v-265h177v530h-177v-265z" class="com.sun.star.drawing.RectangleShape"/><path fill="#00002a" d="M11918 4372v-265h177v530h-177v-265z" class="com.sun.star.drawing.RectangleShape"/><path fill="#00ffd5" d="M6361 6364l-4796 2237c-137-295-231-554-315-867l5111-1370z" class="com.sun.star.drawing.EllipseShape"/><g class="com.sun.star.drawing.RectangleShape"><path fill="#00ffd5" d="M625 8355v-265h530v530h-530v-265z"/><path stroke="#fff" stroke-width="71" d="M625 8355v-265h530v530h-530v-265z" fill="none"/></g><path d="M625 8355v-265h177v530h-177v-265z" class="com.sun.star.drawing.RectangleShape"/><path fill="#0f0" d="M802 8355v-265h177v530h-177v-265z" class="com.sun.star.drawing.RectangleShape"/><path fill="#0000d5" d="M978 8355v-265h177v530h-177v-265z" class="com.sun.star.drawing.RectangleShape"/><path fill="#f05" d="M6361 6364l5112-1370c84 314 132 585 160 909l-5272 461z" class="com.sun.star.drawing.EllipseShape"/><g class="com.sun.star.drawing.RectangleShape"><path fill="#f05" d="M11828 5353v-265h530v530h-530v-265z"/><path stroke="#fff" stroke-width="71" d="M11828 5353v-265h530v530h-530v-265z" fill="none"/></g><path fill="#f00" d="M11828 5353v-265h177v530h-177v-265z" class="com.sun.star.drawing.RectangleShape"/><path d="M12004 5353v-265h177v530h-177v-265z" class="com.sun.star.drawing.RectangleShape"/><path fill="#005" d="M12181 5353v-265h177v530h-177v-265z" class="com.sun.star.drawing.RectangleShape"/><path fill="#0fa" d="M6361 6364l-5111 1370c-84-314-132-585-161-909l5272-461z" class="com.sun.star.drawing.EllipseShape"/><g class="com.sun.star.drawing.RectangleShape"><path fill="#0fa" d="M364 7374v-265h530v530h-530v-265z"/><path stroke="#fff" stroke-width="71" d="M364 7374v-265h530v530h-530v-265z" fill="none"/></g><path d="M364 7374v-265h177v530h-177v-265z" class="com.sun.star.drawing.RectangleShape"/><path fill="#0f0" d="M541 7374v-265h177v530h-177v-265z" class="com.sun.star.drawing.RectangleShape"/><path fill="#00a" d="M717 7374v-265h177v530h-177v-265z" class="com.sun.star.drawing.RectangleShape"/><path fill="#ff007f" d="M6363 6364l5272-461c29 323 29 599 0 922l-5272-461z" class="com.sun.star.drawing.EllipseShape"/><g class="com.sun.star.drawing.RectangleShape"><path fill="#ff007f" d="M11918 6364v-265h530v530h-530v-265z"/><path stroke="#fff" stroke-width="71" d="M11918 6364v-265h530v530h-530v-265z" fill="none"/></g><path fill="#f00" d="M11918 6364v-265h177v530h-177v-265z" class="com.sun.star.drawing.RectangleShape"/><path d="M12094 6364v-265h177v530h-177v-265z" class="com.sun.star.drawing.RectangleShape"/><path fill="#00007f" d="M12271 6364v-265h177v530h-177v-265z" class="com.sun.star.drawing.RectangleShape"/><path fill="#00ff80" d="M6363 6364l-5272 461c-28-323-28-599 0-922l5272 461z" class="com.sun.star.drawing.EllipseShape"/><g class="com.sun.star.drawing.RectangleShape"><path fill="#00ff80" d="M276 6364v-265h530v530h-530v-265z"/><path stroke="#fff" stroke-width="71" d="M276 6364v-265h530v530h-530v-265z" fill="none"/></g><path d="M276 6364v-265h177v530h-177v-265z" class="com.sun.star.drawing.RectangleShape"/><path fill="#0f0" d="M453 6364v-265h177v530h-177v-265z" class="com.sun.star.drawing.RectangleShape"/><path fill="#000080" d="M629 6364v-265h177v530h-177v-265z" class="com.sun.star.drawing.RectangleShape"/><path fill="#f0a" d="M6363 6364l5272 461c-28 324-76 595-160 909l-5112-1370z" class="com.sun.star.drawing.EllipseShape"/><g class="com.sun.star.drawing.RectangleShape"><path fill="#f0a" d="M11828 7374v-265h530v530h-530v-265z"/><path stroke="#fff" stroke-width="71" d="M11828 7374v-265h530v530h-530v-265z" fill="none"/></g><path fill="#f00" d="M11828 7374v-265h177v530h-177v-265z" class="com.sun.star.drawing.RectangleShape"/><path d="M12004 7374v-265h177v530h-177v-265z" class="com.sun.star.drawing.RectangleShape"/><path fill="#00a" d="M12181 7374v-265h177v530h-177v-265z" class="com.sun.star.drawing.RectangleShape"/><path fill="#0f5" d="M6361 6364l-5272-461c29-324 77-595 161-909l5111 1370z" class="com.sun.star.drawing.EllipseShape"/><g class="com.sun.star.drawing.RectangleShape"><path fill="#0f5" d="M364 5353v-265h530v530h-530v-265z"/><path stroke="#fff" stroke-width="71" d="M364 5353v-265h530v530h-530v-265z" fill="none"/></g><path d="M364 5353v-265h177v530h-177v-265z" class="com.sun.star.drawing.RectangleShape"/><path fill="#0f0" d="M541 5353v-265h177v530h-177v-265z" class="com.sun.star.drawing.RectangleShape"/><path fill="#005" d="M717 5353v-265h177v530h-177v-265z" class="com.sun.star.drawing.RectangleShape"/><path fill="#ff00d4" d="M6363 6364l5112 1370c-84 313-178 572-315 867l-4797-2237z" class="com.sun.star.drawing.EllipseShape"/><g class="com.sun.star.drawing.RectangleShape"><path fill="#ff00d4" d="M11567 8355v-265h530v530h-530v-265z"/><path stroke="#fff" stroke-width="71" d="M11567 8355v-265h530v530h-530v-265z" fill="none"/></g><path fill="#f00" d="M11567 8355v-265h177v530h-177v-265z" class="com.sun.star.drawing.RectangleShape"/><path d="M11743 8355v-265h177v530h-177v-265z" class="com.sun.star.drawing.RectangleShape"/><path fill="#0000d4" d="M11920 8355v-265h177v530h-177v-265z" class="com.sun.star.drawing.RectangleShape"/><path fill="#00ff2b" d="M6363 6364l-5111-1370c84-313 178-572 315-866l4796 2236z" class="com.sun.star.drawing.EllipseShape"/><g class="com.sun.star.drawing.RectangleShape"><path fill="#00ff2b" d="M627 4372v-265h530v530h-530v-265z"/><path stroke="#fff" stroke-width="71" d="M627 4372v-265h530v530h-530v-265z" fill="none"/></g><path d="M627 4372v-265h177v530h-177v-265z" class="com.sun.star.drawing.RectangleShape"/><path fill="#0f0" d="M804 4372v-265h177v530h-177v-265z" class="com.sun.star.drawing.RectangleShape"/><path fill="#00002b" d="M980 4372v-265h177v530h-177v-265z" class="com.sun.star.drawing.RectangleShape"/><path fill="#f0f" d="M6363 6364l4797 2237c-138 294-275 532-462 798l-4335-3035z" class="com.sun.star.drawing.EllipseShape"/><g class="com.sun.star.drawing.RectangleShape"><path fill="#f0f" d="M11138 9274v-265h530v530h-530v-265z"/><path stroke="#fff" stroke-width="71" d="M11138 9274v-265h530v530h-530v-265z" fill="none"/></g><path fill="#f00" d="M11138 9274v-265h177v530h-177v-265z" class="com.sun.star.drawing.RectangleShape"/><path d="M11315 9274v-265h177v530h-177v-265z" class="com.sun.star.drawing.RectangleShape"/><path fill="#00f" d="M11491 9274v-265h177v530h-177v-265z" class="com.sun.star.drawing.RectangleShape"/><path fill="#0f0" d="M6363 6364l-4796-2236c137-295 275-533 461-799l4335 3035z" class="com.sun.star.drawing.EllipseShape"/><g class="com.sun.star.drawing.RectangleShape"><path fill="#0f0" d="M1056 3453v-265h530v530h-530v-265z"/><path stroke="#fff" stroke-width="71" d="M1056 3453v-265h530v530h-530v-265z" fill="none"/></g><path d="M1056 3453v-265h177v530h-177v-265z" class="com.sun.star.drawing.RectangleShape"/><path fill="#0f0" d="M1232 3453v-265h177v530h-177v-265z" class="com.sun.star.drawing.RectangleShape"/><path d="M1409 3453v-265h177v530h-177v-265z" class="com.sun.star.drawing.RectangleShape"/><path fill="#d500ff" d="M6363 6364l4335 3035c-186 266-363 477-593 707l-3742-3742z" class="com.sun.star.drawing.EllipseShape"/><g class="com.sun.star.drawing.RectangleShape"><path fill="#d500ff" d="M10556 10105v-265h530v530h-530v-265z"/><path stroke="#fff" stroke-width="71" d="M10556 10105v-265h530v530h-530v-265z" fill="none"/></g><path fill="#d50000" d="M10556 10105v-265h177v530h-177v-265z" class="com.sun.star.drawing.RectangleShape"/><path d="M10733 10105v-265h177v530h-177v-265z" class="com.sun.star.drawing.RectangleShape"/><path fill="#00f" d="M10909 10105v-265h177v530h-177v-265z" class="com.sun.star.drawing.RectangleShape"/><path fill="#2aff00" d="M6363 6364l-4335-3035c187-266 364-477 593-707l3742 3742z" class="com.sun.star.drawing.EllipseShape"/><g class="com.sun.star.drawing.RectangleShape"><path fill="#2aff00" d="M1638 2621v-265h530v530h-530v-265z"/><path stroke="#fff" stroke-width="71" d="M1638 2621v-265h530v530h-530v-265z" fill="none"/></g><path fill="#2a0000" d="M1638 2621v-265h177v530h-177v-265z" class="com.sun.star.drawing.RectangleShape"/><path fill="#0f0" d="M1814 2621v-265h177v530h-177v-265z" class="com.sun.star.drawing.RectangleShape"/><path d="M1991 2621v-265h177v530h-177v-265z" class="com.sun.star.drawing.RectangleShape"/><path fill="#a0f" d="M6363 6362l3742 3742c-229 230-440 407-706 593l-3036-4335z" class="com.sun.star.drawing.EllipseShape"/><g class="com.sun.star.drawing.RectangleShape"><path fill="#a0f" d="M9838 10821v-265h530v530h-530v-265z"/><path stroke="#fff" stroke-width="71" d="M9838 10821v-265h530v530h-530v-265z" fill="none"/></g><path fill="#a00" d="M9838 10821v-265h177v530h-177v-265z" class="com.sun.star.drawing.RectangleShape"/><path d="M10015 10821v-265h177v530h-177v-265z" class="com.sun.star.drawing.RectangleShape"/><path fill="#00f" d="M10191 10821v-265h177v530h-177v-265z" class="com.sun.star.drawing.RectangleShape"/><path fill="#5f0" d="M6363 6362l-3742-3742c230-230 441-407 707-593l3035 4335z" class="com.sun.star.drawing.EllipseShape"/><g class="com.sun.star.drawing.RectangleShape"><path fill="#5f0" d="M2354 1903v-265h530v530h-530v-265z"/><path stroke="#fff" stroke-width="71" d="M2354 1903v-265h530v530h-530v-265z" fill="none"/></g><path fill="#500" d="M2354 1904v-265h177v530h-177v-265z" class="com.sun.star.drawing.RectangleShape"/><path fill="#0f0" d="M2530 1904v-265h177v530h-177v-265z" class="com.sun.star.drawing.RectangleShape"/><path d="M2707 1904v-265h177v530h-177v-265z" class="com.sun.star.drawing.RectangleShape"/><path fill="#8000ff" d="M6361 6362l3036 4335c-266 186-505 324-799 461l-2237-4796z" class="com.sun.star.drawing.EllipseShape"/><g class="com.sun.star.drawing.RectangleShape"><path fill="#8000ff" d="M9005 11403v-265h530v530h-530v-265z"/><path stroke="#fff" stroke-width="71" d="M9005 11403v-265h530v530h-530v-265z" fill="none"/></g><path fill="#800000" d="M9006 11403v-265h177v530h-177v-265z" class="com.sun.star.drawing.RectangleShape"/><path d="M9182 11403v-265h177v530h-177v-265z" class="com.sun.star.drawing.RectangleShape"/><path fill="#00f" d="M9358 11403v-265h177v530h-177v-265z" class="com.sun.star.drawing.RectangleShape"/><path fill="#7fff00" d="M6361 6362l-3035-4335c266-186 505-324 799-461l2236 4796z" class="com.sun.star.drawing.EllipseShape"/><g class="com.sun.star.drawing.RectangleShape"><path fill="#7fff00" d="M3183 1321v-265h530v530h-530v-265z"/><path stroke="#fff" stroke-width="71" d="M3183 1321v-265h530v530h-530v-265z" fill="none"/></g><path fill="#7f0000" d="M3183 1321v-265h177v530h-177v-265z" class="com.sun.star.drawing.RectangleShape"/><path fill="#0f0" d="M3359 1321v-265h177v530h-177v-265z" class="com.sun.star.drawing.RectangleShape"/><path d="M3538 1321v-265h177v530h-177v-265z" class="com.sun.star.drawing.RectangleShape"/><path fill="#50f" d="M6361 6362l2237 4796c-294 137-553 232-867 316l-1370-5112z" class="com.sun.star.drawing.EllipseShape"/><g class="com.sun.star.drawing.RectangleShape"><path fill="#50f" d="M8085 11832v-265h530v530h-530v-265z"/><path stroke="#fff" stroke-width="71" d="M8085 11832v-265h530v530h-530v-265z" fill="none"/></g><path fill="#500" d="M8085 11832v-265h177v530h-177v-265z" class="com.sun.star.drawing.RectangleShape"/><path d="M8261 11832v-265h177v530h-177v-265z" class="com.sun.star.drawing.RectangleShape"/><path fill="#00f" d="M8438 11832v-265h177v530h-177v-265z" class="com.sun.star.drawing.RectangleShape"/><path fill="#af0" d="M6361 6362l-2236-4796c294-137 553-232 867-316l1369 5112z" class="com.sun.star.drawing.EllipseShape"/><g class="com.sun.star.drawing.RectangleShape"><path fill="#af0" d="M4102 892v-265h530v530h-530v-265z"/><path stroke="#fff" stroke-width="71" d="M4102 892v-265h530v530h-530v-265z" fill="none"/></g><path fill="#a00" d="M4102 892v-265h177v530h-177v-265z" class="com.sun.star.drawing.RectangleShape"/><path fill="#0f0" d="M4278 892v-265h177v530h-177v-265z" class="com.sun.star.drawing.RectangleShape"/><path d="M4457 892v-265h177v530h-177v-265z" class="com.sun.star.drawing.RectangleShape"/><path fill="#2b00ff" d="M6361 6362l1370 5112c-314 84-585 132-908 160l-462-5272z" class="com.sun.star.drawing.EllipseShape"/><g class="com.sun.star.drawing.RectangleShape"><path fill="#2b00ff" d="M7106 12094v-265h530v530h-530v-265z"/><path stroke="#fff" stroke-width="71" d="M7106 12094v-265h530v530h-530v-265z" fill="none"/></g><path fill="#2b0000" d="M7106 12094v-265h177v530h-177v-265z" class="com.sun.star.drawing.RectangleShape"/><path d="M7282 12094v-265h177v530h-177v-265z" class="com.sun.star.drawing.RectangleShape"/><path fill="#00f" d="M7459 12094v-265h177v530h-177v-265z" class="com.sun.star.drawing.RectangleShape"/><path fill="#d4ff00" d="M6361 6362l-1369-5112c313-84 585-132 908-160l461 5272z" class="com.sun.star.drawing.EllipseShape"/><g class="com.sun.star.drawing.RectangleShape"><path fill="#d4ff00" d="M5084 631v-265h530v530h-530v-265z"/><path stroke="#fff" stroke-width="71" d="M5084 631v-265h530v530h-530v-265z" fill="none"/></g><path fill="#d40000" d="M5085 631v-265h177v530h-177v-265z" class="com.sun.star.drawing.RectangleShape"/><path fill="#0f0" d="M5261 631v-265h177v530h-177v-265z" class="com.sun.star.drawing.RectangleShape"/><path d="M5437 631v-265h177v530h-177v-265z" class="com.sun.star.drawing.RectangleShape"/><path fill="#fff" d="M6818 8068c-314 84-600 84-914 0-313-84-561-227-791-457-229-229-372-477-456-791-84-313-84-599 0-913s227-561 456-791c230-230 478-373 791-457 314-84 600-84 914 0s561 227 791 457c229 230 372 477 456 791 85 314 85 600 0 913-84 314-227 562-456 791-230 230-477 373-791 457z" class="com.sun.star.drawing.EllipseShape"/><g class="com.sun.star.drawing.RectangleShape"><path fill="#fff" d="M6095 6364v-265h530v530h-530v-265z"/><path stroke="#000" stroke-width="71" d="M6095 6364v-265h530v530h-530v-265z" fill="none"/></g><path fill="#f00" d="M6093 6364v-265h177v530h-177v-265z" class="com.sun.star.drawing.RectangleShape"/><path fill="#0f0" d="M6272 6364v-265h177v530h-177v-265z" class="com.sun.star.drawing.RectangleShape"/><path fill="#00f" d="M6446 6364v-265h177v530h-177v-265z" class="com.sun.star.drawing.RectangleShape"/></g></svg>