<svg xmlns="http://www.w3.org/2000/svg" width="273.39" height="222.178" viewBox="0 0 273.39 222.178"><path fill="#fff" d="M273.39 26.3c-10.06 4.462-20.868 7.478-32.215 8.833 11.58-6.94 20.475-17.934 24.662-31.03-10.837 6.426-22.84 11.094-35.617 13.61C219.988 6.813 205.41 0 189.28 0c-30.98 0-56.092 25.113-56.092 56.088 0 4.397.496 8.677 1.452 12.782C88.025 66.53 46.696 44.2 19.032 10.267c-4.828 8.284-7.594 17.92-7.594 28.198 0 19.46 9.902 36.627 24.952 46.685-9.194-.29-17.843-2.814-25.405-7.016-.004.234-.005.47-.005.705 0 27.175 19.334 49.845 44.993 54.997-4.707 1.28-9.662 1.967-14.777 1.967-3.614 0-7.128-.352-10.553-1.006 7.138 22.283 27.852 38.5 52.396 38.953-19.197 15.044-43.382 24.01-69.66 24.01-4.527 0-8.992-.265-13.38-.782 24.822 15.914 54.305 25.2 85.98 25.2 103.168 0 159.584-85.468 159.584-159.587 0-2.43-.055-4.85-.162-7.255C256.36 47.428 265.87 37.55 273.39 26.3z"/></svg>