<svg xmlns="http://www.w3.org/2000/svg" width="265.5" height="252" viewBox="0 0 265.5 252"><g stroke="#000" fill="none"><path d="M30 234h12M66 234h12M102 234h12M138 234h12M174 234h12M210 234h12M30 18h12M66 18h12M102 18h12M138 18h12M174 18h12M210 18h12M234 117v-18M162 117v-18M234 153v-18M90 117v-18M90 153v-18M234 189v-18M18 225v-18M234 81v-18M54 117v-18M54 153v-18M54 189v-18M54 81v-18M18 117v-18M18 153v-18M18 189v-18M18 81v-18M234 45v-18M18 45v-18M198 117v-18M198 153v-18M198 81v-18M66 198h12M102 198h12M138 198h12M174 198h12M210 198h12M99 90h18M135 90h18M135 126h18M135 162h18M99 162h18M171 162h13.5M66 54h12M102 54h12M138 54h12M174 54h12"/></g><g><path fill="none" d="M216 0h36v36h-36z"/><text transform="translate(223.989 24.888)" font-family="'ArialMT'" font-size="18">31</text><path fill="none" d="M180 0h36v36h-36z"/><text transform="translate(187.989 24.888)" font-family="'ArialMT'" font-size="18">32</text><path fill="none" d="M144 0h36v36h-36z"/><text transform="translate(151.989 24.888)" font-family="'ArialMT'" font-size="18">33</text><path fill="none" d="M108 0h36v36h-36z"/><text transform="translate(115.989 24.888)" font-family="'ArialMT'" font-size="18">34</text><path fill="none" d="M72 0h36v36h-36z"/><text transform="translate(79.989 24.888)" font-family="'ArialMT'" font-size="18">35</text><path fill="none" d="M36 0h36v36h-36z"/><text transform="translate(43.989 24.888)" font-family="'ArialMT'" font-size="18">36</text><path fill="none" d="M0 0h36v36h-36z"/><text transform="translate(7.989 24.888)" font-family="'ArialMT'" font-size="18">37</text><path fill="none" d="M180 36h36v36h-36z"/><text transform="translate(187.989 60.888)" font-family="'ArialMT'" font-size="18">13</text><path fill="none" d="M144 36h36v36h-36z"/><text transform="translate(151.989 60.888)" font-family="'ArialMT'" font-size="18">14</text><path fill="none" d="M108 36h36v36h-36z"/><text transform="translate(115.989 60.888)" font-family="'ArialMT'" font-size="18">15</text><path fill="none" d="M72 36h36v36h-36z"/><text transform="translate(79.989 60.888)" font-family="'ArialMT'" font-size="18">16</text><path fill="none" d="M36 36h36v36h-36z"/><text transform="translate(43.989 60.888)" font-family="'ArialMT'" font-size="18">17</text><path fill="none" d="M216 36h36v36h-36z"/><text transform="translate(223.989 60.888)" font-family="'ArialMT'" font-size="18">30</text><path fill="none" d="M0 36h36v36h-36z"/><text transform="translate(7.989 60.888)" font-family="'ArialMT'" font-size="18">38</text><path fill="none" d="M144 72h36v36h-36z"/><text transform="translate(156.994 96.888)" font-family="'ArialMT'" font-size="18">3</text><path fill="none" d="M108 72h36v36h-36z"/><text transform="translate(120.995 96.888)" font-family="'ArialMT'" font-size="18">4</text><path fill="none" d="M72 72h36v36h-36z"/><text transform="translate(84.995 96.888)" font-family="'ArialMT'" font-size="18">5</text><path fill="none" d="M180 72h36v36h-36z"/><text transform="translate(187.989 96.888)" font-family="'ArialMT'" font-size="18">12</text><path fill="none" d="M36 72h36v36h-36z"/><text transform="translate(43.989 96.888)" font-family="'ArialMT'" font-size="18">18</text><path fill="none" d="M216 72h36v36h-36z"/><text transform="translate(223.989 96.888)" font-family="'ArialMT'" font-size="18">29</text><path fill="none" d="M0 72h36v36h-36z"/><text transform="translate(7.989 96.888)" font-family="'ArialMT'" font-size="18">39</text><path fill="none" d="M108 108h36v36h-36z"/><text transform="translate(120.995 132.888)" font-family="'ArialMT'" font-size="18">1</text><path fill="none" d="M144 108h36v36h-36z"/><text transform="translate(156.994 132.888)" font-family="'ArialMT'" font-size="18">2</text><path fill="none" d="M72 108h36v36h-36z"/><text transform="translate(84.995 132.888)" font-family="'ArialMT'" font-size="18">6</text><path fill="none" d="M180 108h36v36h-36z"/><text transform="translate(187.989 132.888)" font-family="'ArialMT'" font-size="18">11</text><path fill="none" d="M36 108h36v36h-36z"/><text transform="translate(43.989 132.888)" font-family="'ArialMT'" font-size="18">19</text><path fill="none" d="M216 108h36v36h-36z"/><text transform="translate(223.989 132.888)" font-family="'ArialMT'" font-size="18">28</text><path fill="none" d="M0 108h36v36h-36z"/><text transform="translate(7.989 132.888)" font-family="'ArialMT'" font-size="18">40</text><path fill="none" d="M72 144h36v36h-36z"/><text transform="translate(84.995 168.888)" font-family="'ArialMT'" font-size="18">7</text><path fill="none" d="M108 144h36v36h-36z"/><text transform="translate(120.995 168.888)" font-family="'ArialMT'" font-size="18">8</text><path fill="none" d="M144 144h36v36h-36z"/><text transform="translate(156.994 168.888)" font-family="'ArialMT'" font-size="18">9</text><path fill="none" d="M180 144h36v36h-36z"/><text transform="translate(187.989 168.888)" font-family="'ArialMT'" font-size="18">10</text><path fill="none" d="M36 144h36v36h-36z"/><text transform="translate(43.989 168.888)" font-family="'ArialMT'" font-size="18">20</text><path fill="none" d="M216 144h36v36h-36z"/><text transform="translate(223.989 168.888)" font-family="'ArialMT'" font-size="18">27</text><path fill="none" d="M0 144h36v36h-36z"/><text transform="translate(7.989 168.888)" font-family="'ArialMT'" font-size="18">41</text><path fill="none" d="M36 180h36v36h-36z"/><text transform="translate(43.989 204.888)" font-family="'ArialMT'" font-size="18">21</text><path fill="none" d="M72 180h36v36h-36z"/><text transform="translate(79.989 204.888)" font-family="'ArialMT'" font-size="18">22</text><path fill="none" d="M108 180h36v36h-36z"/><text transform="translate(115.989 204.888)" font-family="'ArialMT'" font-size="18">23</text><path fill="none" d="M144 180h36v36h-36z"/><text transform="translate(151.989 204.888)" font-family="'ArialMT'" font-size="18">24</text><path fill="none" d="M180 180h36v36h-36z"/><text transform="translate(187.989 204.888)" font-family="'ArialMT'" font-size="18">25</text><path fill="none" d="M216 180h36v36h-36z"/><text transform="translate(223.989 204.888)" font-family="'ArialMT'" font-size="18">26</text><path fill="none" d="M0 180h36v36h-36z"/><text transform="translate(7.989 204.888)" font-family="'ArialMT'" font-size="18">42</text><path fill="none" d="M0 216h36v36h-36z"/><text transform="translate(7.989 240.888)" font-family="'ArialMT'" font-size="18">43</text><path fill="none" d="M36 216h36v36h-36z"/><text transform="translate(43.989 240.888)" font-family="'ArialMT'" font-size="18">44</text><path fill="none" d="M72 216h36v36h-36z"/><text transform="translate(79.989 240.888)" font-family="'ArialMT'" font-size="18">45</text><path fill="none" d="M108 216h36v36h-36z"/><text transform="translate(115.989 240.888)" font-family="'ArialMT'" font-size="18">46</text><path fill="none" d="M144 216h36v36h-36z"/><text transform="translate(151.989 240.888)" font-family="'ArialMT'" font-size="18">47</text><path fill="none" d="M180 216h36v36h-36z"/><text transform="translate(187.989 240.888)" font-family="'ArialMT'" font-size="18">48</text><path fill="none" d="M216 216h36v36h-36z"/><text transform="translate(223.989 240.888)" font-family="'ArialMT'" font-size="18">49</text><path fill="none" d="M238.5 216h27v36h-27z"/><text transform="translate(244.498 240.888)" font-family="'ArialMT'" font-size="18">...</text></g></svg>