<svg xmlns="http://www.w3.org/2000/svg" width="265.5" height="252" viewBox="0 0 265.5 252"><g fill="none" stroke="#000"><path d="M30 234h118.5M174 234h60M31.5 18H222M162 117V99M90 153V99M234 198.003v-99M234 81.002v-54M54 198v-63M54 117V63M18 153.003v-126M18 225v-54M198 117.002v-54M198 162v-27M54 198h60M138 198h96M99 90h54M126 126h27M99 162h99M67.5 54H186"/></g><g><path fill="none" d="M216 0h36v36h-36z"/><text transform="translate(223.989 24.888)" font-family="'ArialMT'" font-size="18">31</text><path fill="none" d="M0 0h36v36H0z"/><text transform="translate(7.989 24.888)" font-family="'ArialMT'" font-size="18">37</text><path fill="none" d="M180 36h36v36h-36z"/><text transform="translate(187.989 60.888)" font-family="'ArialMT'" font-size="18">13</text><path fill="none" d="M36 36h36v36H36z"/><text transform="translate(43.989 60.888)" font-family="'ArialMT'" font-size="18">17</text><path fill="none" d="M144 72h36v36h-36z"/><text transform="translate(156.994 96.888)" font-family="'ArialMT'" font-size="18">3</text><path fill="none" d="M72 72h36v36H72z"/><text transform="translate(84.995 96.888)" font-family="'ArialMT'" font-size="18">5</text><path fill="none" d="M216 72h36v36h-36z"/><text transform="translate(223.989 96.888)" font-family="'ArialMT'" font-size="18">29</text><path fill="none" d="M144 108h36v36h-36z"/><text transform="translate(156.994 132.888)" font-family="'ArialMT'" font-size="18">2</text><path fill="none" d="M180 108h36v36h-36z"/><text transform="translate(187.989 132.888)" font-family="'ArialMT'" font-size="18">11</text><path fill="none" d="M36 108h36v36H36z"/><text transform="translate(43.989 132.888)" font-family="'ArialMT'" font-size="18">19</text><path fill="none" d="M72 144h36v36H72z"/><text transform="translate(84.995 168.888)" font-family="'ArialMT'" font-size="18">7</text><path fill="none" d="M0 144h36v36H0z"/><text transform="translate(7.989 168.888)" font-family="'ArialMT'" font-size="18">41</text><path fill="none" d="M108 180h36v36h-36z"/><text transform="translate(115.989 204.888)" font-family="'ArialMT'" font-size="18">23</text><path fill="none" d="M0 216h36v36H0z"/><text transform="translate(7.989 240.888)" font-family="'ArialMT'" font-size="18">43</text><path fill="none" d="M144 216h36v36h-36z"/><text transform="translate(151.989 240.888)" font-family="'ArialMT'" font-size="18">47</text><path fill="none" d="M238.5 216h27v36h-27z"/><text transform="translate(244.498 240.888)" font-family="'ArialMT'" font-size="18">...</text></g></svg>