<svg xmlns="http://www.w3.org/2000/svg" viewBox="0 0 466.55 371.51"><defs><style>.cls-1{fill:#c1ff17}.cls-2,.cls-3{opacity:.5}.cls-3,.cls-4{fill:#4d4d4d}</style></defs><g id="Layer_2" data-name="Layer 2"><g id="Baseplate"><circle class="cls-1" cx="304.55" cy="120.25" r="84.5"/><circle class="cls-1" cx="382.05" cy="182.51" r="84.5"/><path class="cls-1" d="M116.79 161.52h265.26v105.49H116.79z"/><path class="cls-1" transform="rotate(20.92 273.714 63.313)" d="M223.67 21.07h100.08v84.49H223.67z"/><circle class="cls-1" cx="122.54" cy="131.26" r="84.5"/><circle class="cls-1" cx="211.05" cy="84.5" r="84.5"/><path class="cls-1" transform="rotate(-76.26 62.5 199.072)" d="M-17.67 156.83h160.34v84.49H-17.67z"/><circle class="cls-1" cx="84.5" cy="287.01" r="84.5"/><path class="cls-1" d="M169 287.01l220.76-20.35-223.14.35 2.38 20z"/></g><g id="Components"><path class="cls-2" d="M419.09 134.27H345v96.48h74.09z"/><path class="cls-3" d="M382.08 210.67a28.17 28.17 0 1 0-28.17-28.17 28.17 28.17 0 0 0 28.17 28.17zM352.25 222.85a4.79 4.79 0 1 0-4.79-4.79 4.79 4.79 0 0 0 4.79 4.79zM411.84 222.85a4.79 4.79 0 1 0-4.79-4.79 4.79 4.79 0 0 0 4.79 4.79zM352.25 146.31a4.79 4.79 0 1 0-4.79-4.79 4.79 4.79 0 0 0 4.79 4.79zM411.84 146.31a4.79 4.79 0 1 0-4.79-4.79 4.79 4.79 0 0 0 4.79 4.79z"/><path class="cls-2" d="M341.63 72h-74.09v96.48h74.09z"/><path class="cls-3" d="M304.62 148.4a28.17 28.17 0 1 0-28.17-28.17 28.17 28.17 0 0 0 28.17 28.17zM274.79 160.58a4.79 4.79 0 1 0-4.79-4.79 4.8 4.8 0 0 0 4.79 4.79zM334.38 160.58a4.79 4.79 0 1 0-4.79-4.79 4.8 4.8 0 0 0 4.79 4.79zM274.79 84a4.79 4.79 0 1 0-4.79-4.75 4.8 4.8 0 0 0 4.79 4.75zM334.38 84a4.79 4.79 0 1 0-4.79-4.79 4.8 4.8 0 0 0 4.79 4.79z"/><path class="cls-2" d="M122.54 238.77H48.45v96.48h74.09z"/><path class="cls-3" d="M85.53 315.17A28.17 28.17 0 1 0 57.36 287a28.17 28.17 0 0 0 28.17 28.17zM55.7 327.35a4.79 4.79 0 1 0-4.79-4.79 4.79 4.79 0 0 0 4.79 4.79zM115.29 327.35a4.79 4.79 0 1 0-4.79-4.79 4.79 4.79 0 0 0 4.79 4.79zM55.7 250.81a4.79 4.79 0 1 0-4.79-4.81 4.79 4.79 0 0 0 4.79 4.81zM115.29 250.81a4.79 4.79 0 1 0-4.79-4.81 4.79 4.79 0 0 0 4.79 4.81z"/><path class="cls-2" d="M159.59 83H85.5v96.5h74.09z"/><path class="cls-3" d="M122.58 159.42a28.17 28.17 0 1 0-28.17-28.17 28.17 28.17 0 0 0 28.17 28.17zM92.75 171.6a4.79 4.79 0 1 0-4.75-4.79 4.8 4.8 0 0 0 4.75 4.79zM152.34 171.6a4.79 4.79 0 1 0-4.79-4.79 4.8 4.8 0 0 0 4.79 4.79zM92.75 95.06A4.79 4.79 0 1 0 88 90.27a4.8 4.8 0 0 0 4.75 4.79zM152.34 95.06a4.79 4.79 0 1 0-4.79-4.79 4.8 4.8 0 0 0 4.79 4.79z"/><path class="cls-2" d="M248.09 36.26H174v96.48h74.09z"/><path class="cls-3" d="M211.08 112.66a28.17 28.17 0 1 0-28.17-28.17 28.17 28.17 0 0 0 28.17 28.17zM181.25 124.84a4.79 4.79 0 1 0-4.79-4.79 4.79 4.79 0 0 0 4.79 4.79zM240.84 124.84a4.79 4.79 0 1 0-4.79-4.79 4.79 4.79 0 0 0 4.79 4.79zM181.25 48.3a4.79 4.79 0 1 0-4.79-4.79 4.79 4.79 0 0 0 4.79 4.79zM240.84 48.3a4.79 4.79 0 1 0-4.79-4.79 4.79 4.79 0 0 0 4.79 4.79z"/><path class="cls-2" d="M177.82 183h163.89v70.11H177.82z"/><circle class="cls-3" cx="334.45" cy="190.25" r="4.79"/><circle class="cls-3" cx="334.45" cy="245.87" r="4.79"/><circle class="cls-3" cx="185.08" cy="245.87" r="4.79"/><circle class="cls-3" cx="185.08" cy="190.25" r="4.79"/></g><g id="Fingers"><path class="cls-4" d="M382.08 210.67a28.17 28.17 0 1 0-28.17-28.17 28.17 28.17 0 0 0 28.17 28.17zM304.62 148.4a28.17 28.17 0 1 0-28.17-28.17 28.17 28.17 0 0 0 28.17 28.17zM85.53 315.17A28.17 28.17 0 1 0 57.36 287a28.17 28.17 0 0 0 28.17 28.17zM122.58 159.42a28.17 28.17 0 1 0-28.17-28.17 28.17 28.17 0 0 0 28.17 28.17zM211.08 112.66a28.17 28.17 0 1 0-28.17-28.17 28.17 28.17 0 0 0 28.17 28.17z"/></g></g></svg>