<?xml version="1.0" encoding="utf-8"?>
<!-- Generator: Adobe Illustrator 17.0.2, SVG Export Plug-In . SVG Version: 6.00 Build 0)  -->
<!DOCTYPE svg PUBLIC "-//W3C//DTD SVG 1.1//EN" "http://www.w3.org/Graphics/SVG/1.1/DTD/svg11.dtd">
<svg version="1.1" id="Layer_1" xmlns="http://www.w3.org/2000/svg" xmlns:xlink="http://www.w3.org/1999/xlink" x="0px" y="0px"
	 width="579.068px" height="579.067px" viewBox="0 90 579.068 579.067" enable-background="new 0 90 579.068 579.067"
	 xml:space="preserve">
<g>
	<polygon fill="#FFFFFF" points="141.281,353.789 141.281,405.284 179.775,379.536 	"/>
	<polygon fill="#FFFFFF" points="274.148,316.411 274.148,244.65 153.6,325.009 207.448,361.032 	"/>
	<polygon fill="#FFFFFF" points="425.469,325.009 304.919,244.65 304.919,316.411 371.624,361.032 	"/>
	<polygon fill="#FFFFFF" points="153.6,434.064 274.148,514.423 274.148,442.661 207.448,398.051 	"/>
	<polygon fill="#FFFFFF" points="304.919,442.661 304.919,514.423 425.469,434.064 371.624,398.051 	"/>
	<polygon fill="#FFFFFF" points="289.532,343.138 235.117,379.536 289.532,415.935 343.951,379.536 	"/>
	<path fill="#FFFFFF" d="M289.532,90C129.631,90,0,219.628,0,379.536c0,159.909,129.631,289.531,289.532,289.531
		c159.909,0,289.536-129.622,289.536-289.531C579.068,219.628,449.441,90,289.532,90z M468.555,434.082
		c0,0.678-0.048,1.346-0.137,2.015c-0.032,0.217-0.084,0.442-0.122,0.659c-0.08,0.435-0.155,0.867-0.269,1.291
		c-0.066,0.255-0.16,0.498-0.24,0.743c-0.122,0.377-0.244,0.754-0.394,1.131c-0.104,0.253-0.233,0.498-0.344,0.743
		c-0.165,0.349-0.334,0.687-0.523,1.027c-0.137,0.235-0.293,0.471-0.438,0.706c-0.207,0.321-0.419,0.632-0.649,0.933
		c-0.17,0.235-0.344,0.452-0.532,0.668c-0.24,0.282-0.494,0.566-0.764,0.829c-0.202,0.208-0.4,0.415-0.612,0.603
		c-0.278,0.253-0.574,0.498-0.875,0.734c-0.226,0.179-0.453,0.359-0.693,0.528c-0.088,0.058-0.169,0.132-0.258,0.188
		L298.068,555.973c-2.585,1.723-5.557,2.589-8.537,2.589c-2.972,0-5.947-0.865-8.533-2.589L117.361,446.88
		c-0.084-0.056-0.165-0.131-0.25-0.189c-0.24-0.169-0.471-0.348-0.696-0.528c-0.301-0.235-0.594-0.481-0.871-0.734
		c-0.212-0.189-0.414-0.395-0.617-0.603c-0.268-0.263-0.518-0.546-0.767-0.829c-0.179-0.217-0.357-0.433-0.528-0.668
		c-0.226-0.301-0.443-0.612-0.645-0.933c-0.155-0.235-0.301-0.471-0.442-0.706c-0.188-0.339-0.357-0.678-0.523-1.027
		c-0.118-0.245-0.235-0.49-0.344-0.743c-0.151-0.377-0.278-0.754-0.395-1.131c-0.084-0.245-0.169-0.49-0.24-0.743
		c-0.113-0.425-0.188-0.857-0.268-1.291c-0.038-0.217-0.094-0.442-0.122-0.659c-0.089-0.67-0.141-1.338-0.141-2.015V324.99
		c0-0.678,0.051-1.346,0.141-2.006c0.028-0.226,0.084-0.443,0.122-0.668c0.08-0.433,0.155-0.867,0.268-1.29
		c0.071-0.253,0.155-0.499,0.24-0.744c0.118-0.377,0.245-0.753,0.395-1.12c0.108-0.255,0.226-0.509,0.344-0.753
		c0.165-0.349,0.334-0.688,0.523-1.017c0.141-0.245,0.286-0.481,0.442-0.716c0.203-0.319,0.419-0.63,0.645-0.933
		c0.169-0.226,0.349-0.452,0.528-0.668c0.25-0.283,0.499-0.566,0.767-0.829c0.203-0.207,0.405-0.414,0.617-0.603
		c0.278-0.255,0.57-0.499,0.871-0.734c0.226-0.179,0.457-0.357,0.696-0.528c0.084-0.056,0.165-0.132,0.25-0.189l163.638-109.093
		c5.17-3.447,11.898-3.447,17.07,0l163.633,109.093c0.089,0.056,0.17,0.131,0.258,0.189c0.24,0.17,0.466,0.349,0.693,0.528
		c0.301,0.235,0.597,0.481,0.875,0.734c0.212,0.189,0.41,0.395,0.612,0.603c0.269,0.263,0.524,0.546,0.764,0.829
		c0.187,0.217,0.362,0.442,0.532,0.668c0.231,0.302,0.442,0.613,0.649,0.933c0.146,0.235,0.301,0.471,0.438,0.716
		c0.187,0.329,0.357,0.668,0.523,1.017c0.113,0.245,0.24,0.499,0.344,0.753c0.151,0.367,0.273,0.744,0.394,1.12
		c0.08,0.245,0.175,0.49,0.24,0.744c0.114,0.423,0.189,0.857,0.269,1.29c0.037,0.226,0.089,0.443,0.122,0.668
		c0.089,0.66,0.137,1.328,0.137,2.006v109.093H468.555z"/>
	<polygon fill="#FFFFFF" points="437.787,405.284 437.787,353.789 399.298,379.536 	"/>
</g>
</svg>
