<svg xmlns="http://www.w3.org/2000/svg" viewBox="0 0 466.55 371.51"><defs><style>.cls-1{fill:#c1ff17;}.cls-2,.cls-3{opacity:0.5;}.cls-3,.cls-4{fill:#4d4d4d;}</style></defs><title>Asset 2</title><g id="Layer_2" data-name="Layer 2"><g id="Baseplate"><circle class="cls-1" cx="304.55" cy="120.25" r="84.5"/><circle class="cls-1" cx="382.05" cy="182.51" r="84.5"/><rect class="cls-1" x="116.79" y="161.52" width="265.26" height="105.49"/><rect class="cls-1" x="223.67" y="21.07" width="100.08" height="84.49" transform="translate(40.65 -93.56) rotate(20.92)"/><circle class="cls-1" cx="122.54" cy="131.26" r="84.5"/><circle class="cls-1" cx="211.05" cy="84.5" r="84.5"/><rect class="cls-1" x="-17.67" y="156.83" width="160.34" height="84.49" transform="translate(-145.72 212.5) rotate(-76.26)"/><circle class="cls-1" cx="84.5" cy="287.01" r="84.5"/><polygon class="cls-1" points="169 287.01 389.76 266.66 166.62 267.01 169 287.01"/></g><g id="Components"><path class="cls-2" d="M419.09,134.27H345v96.48h74.09Z"/><path class="cls-3" d="M382.08,210.67a28.17,28.17,0,1,0-28.17-28.17A28.17,28.17,0,0,0,382.08,210.67Z"/><path class="cls-3" d="M352.25,222.85a4.79,4.79,0,1,0-4.79-4.79A4.79,4.79,0,0,0,352.25,222.85Z"/><path class="cls-3" d="M411.84,222.85a4.79,4.79,0,1,0-4.79-4.79A4.79,4.79,0,0,0,411.84,222.85Z"/><path class="cls-3" d="M352.25,146.31a4.79,4.79,0,1,0-4.79-4.79A4.79,4.79,0,0,0,352.25,146.31Z"/><path class="cls-3" d="M411.84,146.31a4.79,4.79,0,1,0-4.79-4.79A4.79,4.79,0,0,0,411.84,146.31Z"/><path class="cls-2" d="M341.63,72H267.54v96.48h74.09Z"/><path class="cls-3" d="M304.62,148.4a28.17,28.17,0,1,0-28.17-28.17A28.17,28.17,0,0,0,304.62,148.4Z"/><path class="cls-3" d="M274.79,160.58a4.79,4.79,0,1,0-4.79-4.79A4.8,4.8,0,0,0,274.79,160.58Z"/><path class="cls-3" d="M334.38,160.58a4.79,4.79,0,1,0-4.79-4.79A4.8,4.8,0,0,0,334.38,160.58Z"/><path class="cls-3" d="M274.79,84A4.79,4.79,0,1,0,270,79.25,4.8,4.8,0,0,0,274.79,84Z"/><path class="cls-3" d="M334.38,84a4.79,4.79,0,1,0-4.79-4.79A4.8,4.8,0,0,0,334.38,84Z"/><path class="cls-2" d="M122.54,238.77H48.45v96.48h74.09Z"/><path class="cls-3" d="M85.53,315.17A28.17,28.17,0,1,0,57.36,287,28.17,28.17,0,0,0,85.53,315.17Z"/><path class="cls-3" d="M55.7,327.35a4.79,4.79,0,1,0-4.79-4.79A4.79,4.79,0,0,0,55.7,327.35Z"/><path class="cls-3" d="M115.29,327.35a4.79,4.79,0,1,0-4.79-4.79A4.79,4.79,0,0,0,115.29,327.35Z"/><path class="cls-3" d="M55.7,250.81A4.79,4.79,0,1,0,50.91,246,4.79,4.79,0,0,0,55.7,250.81Z"/><path class="cls-3" d="M115.29,250.81A4.79,4.79,0,1,0,110.5,246,4.79,4.79,0,0,0,115.29,250.81Z"/><path class="cls-2" d="M159.59,83H85.5V179.5h74.09Z"/><path class="cls-3" d="M122.58,159.42a28.17,28.17,0,1,0-28.17-28.17A28.17,28.17,0,0,0,122.58,159.42Z"/><path class="cls-3" d="M92.75,171.6A4.79,4.79,0,1,0,88,166.81,4.8,4.8,0,0,0,92.75,171.6Z"/><path class="cls-3" d="M152.34,171.6a4.79,4.79,0,1,0-4.79-4.79A4.8,4.8,0,0,0,152.34,171.6Z"/><path class="cls-3" d="M92.75,95.06A4.79,4.79,0,1,0,88,90.27,4.8,4.8,0,0,0,92.75,95.06Z"/><path class="cls-3" d="M152.34,95.06a4.79,4.79,0,1,0-4.79-4.79A4.8,4.8,0,0,0,152.34,95.06Z"/><path class="cls-2" d="M248.09,36.26H174v96.48h74.09Z"/><path class="cls-3" d="M211.08,112.66a28.17,28.17,0,1,0-28.17-28.17A28.17,28.17,0,0,0,211.08,112.66Z"/><path class="cls-3" d="M181.25,124.84a4.79,4.79,0,1,0-4.79-4.79A4.79,4.79,0,0,0,181.25,124.84Z"/><path class="cls-3" d="M240.84,124.84a4.79,4.79,0,1,0-4.79-4.79A4.79,4.79,0,0,0,240.84,124.84Z"/><path class="cls-3" d="M181.25,48.3a4.79,4.79,0,1,0-4.79-4.79A4.79,4.79,0,0,0,181.25,48.3Z"/><path class="cls-3" d="M240.84,48.3a4.79,4.79,0,1,0-4.79-4.79A4.79,4.79,0,0,0,240.84,48.3Z"/><rect class="cls-2" x="177.82" y="183" width="163.89" height="70.11"/><circle class="cls-3" cx="334.45" cy="190.25" r="4.79"/><circle class="cls-3" cx="334.45" cy="245.87" r="4.79"/><circle class="cls-3" cx="185.08" cy="245.87" r="4.79"/><circle class="cls-3" cx="185.08" cy="190.25" r="4.79"/></g><g id="Fingers"><path class="cls-4" d="M382.08,210.67a28.17,28.17,0,1,0-28.17-28.17A28.17,28.17,0,0,0,382.08,210.67Z"/><path class="cls-4" d="M304.62,148.4a28.17,28.17,0,1,0-28.17-28.17A28.17,28.17,0,0,0,304.62,148.4Z"/><path class="cls-4" d="M85.53,315.17A28.17,28.17,0,1,0,57.36,287,28.17,28.17,0,0,0,85.53,315.17Z"/><path class="cls-4" d="M122.58,159.42a28.17,28.17,0,1,0-28.17-28.17A28.17,28.17,0,0,0,122.58,159.42Z"/><path class="cls-4" d="M211.08,112.66a28.17,28.17,0,1,0-28.17-28.17A28.17,28.17,0,0,0,211.08,112.66Z"/></g></g></svg>